G75*
%MOIN*%
%OFA0B0*%
%FSLAX25Y25*%
%IPPOS*%
%LPD*%
%AMOC8*
5,1,8,0,0,1.08239X$1,22.5*
%
%ADD10C,0.00000*%
%ADD11C,0.05200*%
%ADD12C,0.08500*%
%ADD13C,0.06000*%
%ADD14C,0.03000*%
%ADD15R,0.11693X0.50669*%
%ADD16C,0.03200*%
%ADD17C,0.06600*%
%ADD18C,0.05906*%
%ADD19C,0.01600*%
%ADD20C,0.01000*%
%ADD21C,0.03169*%
D10*
X0026198Y0005295D02*
X0030135Y0001394D01*
X0074623Y0001394D01*
X0074623Y0052181D01*
X0080135Y0052181D01*
X0080135Y0001394D01*
X0355331Y0001000D01*
X0355331Y0051394D01*
X0360843Y0051787D01*
X0360843Y0001394D01*
X0376198Y0001394D01*
X0378954Y0004150D01*
X0378954Y0050606D01*
X0378954Y0050488D02*
X0378954Y0284587D01*
X0026198Y0284587D01*
X0026198Y0051094D01*
X0026198Y0051295D02*
X0026198Y0005295D01*
D11*
X0041800Y0093988D03*
X0041800Y0103988D03*
X0041800Y0113988D03*
X0041800Y0123988D03*
X0041800Y0133988D03*
X0041800Y0143988D03*
X0041800Y0153988D03*
X0071800Y0153988D03*
X0071800Y0143988D03*
X0071800Y0133988D03*
X0071800Y0123988D03*
X0071800Y0113988D03*
X0071800Y0103988D03*
X0071800Y0093988D03*
X0084300Y0093488D03*
X0094300Y0093488D03*
X0146300Y0097988D03*
X0156800Y0097488D03*
X0146300Y0087988D03*
X0156800Y0087488D03*
X0156800Y0107488D03*
X0156800Y0117488D03*
X0156800Y0127488D03*
X0156800Y0137488D03*
X0156800Y0147488D03*
X0156800Y0157488D03*
X0186800Y0157488D03*
X0186800Y0147488D03*
X0186800Y0137488D03*
X0186800Y0127488D03*
X0186800Y0117488D03*
X0186800Y0107488D03*
X0186800Y0097488D03*
X0186800Y0087488D03*
X0208300Y0087488D03*
X0217300Y0087488D03*
X0217300Y0097488D03*
X0208300Y0097488D03*
X0217300Y0107488D03*
X0217300Y0117488D03*
X0217300Y0127488D03*
X0217300Y0137488D03*
X0217300Y0147488D03*
X0217300Y0157488D03*
X0247300Y0157488D03*
X0247300Y0147488D03*
X0247300Y0137488D03*
X0247300Y0127488D03*
X0247300Y0117488D03*
X0247300Y0107488D03*
X0247300Y0097488D03*
X0247300Y0087488D03*
X0268300Y0086988D03*
X0277300Y0086988D03*
X0277300Y0096988D03*
X0268300Y0096988D03*
X0277300Y0106988D03*
X0277300Y0116988D03*
X0277300Y0126988D03*
X0277300Y0136988D03*
X0277300Y0146988D03*
X0277300Y0156988D03*
X0307300Y0156988D03*
X0307300Y0146988D03*
X0307300Y0136988D03*
X0307300Y0126988D03*
X0307300Y0116988D03*
X0307300Y0106988D03*
X0307300Y0096988D03*
X0307300Y0086988D03*
X0323300Y0086988D03*
X0332300Y0086988D03*
X0332300Y0096988D03*
X0323300Y0096988D03*
X0332300Y0106988D03*
X0332300Y0116988D03*
X0332300Y0126988D03*
X0332300Y0136988D03*
X0332300Y0146988D03*
X0332300Y0156988D03*
X0362300Y0156988D03*
X0362300Y0146988D03*
X0362300Y0136988D03*
X0362300Y0126988D03*
X0362300Y0116988D03*
X0362300Y0106988D03*
X0362300Y0096988D03*
X0362300Y0086988D03*
X0305300Y0190988D03*
X0305300Y0200988D03*
X0305300Y0210988D03*
X0305300Y0220988D03*
X0305300Y0230988D03*
X0305300Y0240988D03*
X0305300Y0250988D03*
X0305300Y0260988D03*
X0305300Y0270988D03*
X0314300Y0270988D03*
X0324300Y0270988D03*
X0332300Y0264488D03*
X0332300Y0254488D03*
X0332300Y0244488D03*
X0332300Y0234488D03*
X0332300Y0224488D03*
X0332300Y0214488D03*
X0332300Y0204488D03*
X0335800Y0192488D03*
X0325800Y0192488D03*
X0362300Y0204488D03*
X0362300Y0214488D03*
X0362300Y0224488D03*
X0362300Y0234488D03*
X0362300Y0244488D03*
X0362300Y0254488D03*
X0362300Y0264488D03*
X0275300Y0260988D03*
X0275300Y0250988D03*
X0275300Y0240988D03*
X0275300Y0230988D03*
X0275300Y0220988D03*
X0275300Y0210988D03*
X0275300Y0200988D03*
X0275300Y0190988D03*
X0245300Y0190988D03*
X0245300Y0200988D03*
X0245300Y0210988D03*
X0245300Y0220988D03*
X0245300Y0230988D03*
X0245300Y0240988D03*
X0245300Y0250988D03*
X0245300Y0260988D03*
X0245300Y0270988D03*
X0255300Y0275988D03*
X0265300Y0275988D03*
X0275300Y0270988D03*
X0215300Y0270988D03*
X0215300Y0260988D03*
X0215300Y0250988D03*
X0215300Y0240988D03*
X0215300Y0230988D03*
X0215300Y0220988D03*
X0215300Y0210988D03*
X0215300Y0200988D03*
X0215300Y0190988D03*
X0185300Y0205988D03*
X0185300Y0215988D03*
X0185300Y0225988D03*
X0185300Y0235988D03*
X0185300Y0245988D03*
X0185300Y0255988D03*
X0185300Y0265988D03*
X0155300Y0265988D03*
X0155300Y0255988D03*
X0155300Y0245988D03*
X0155300Y0235988D03*
X0155300Y0225988D03*
X0155300Y0215988D03*
X0155300Y0205988D03*
X0155800Y0193988D03*
X0165800Y0193988D03*
X0130300Y0224488D03*
X0108300Y0223988D03*
X0095800Y0227988D03*
X0095800Y0217988D03*
X0095800Y0207988D03*
X0076087Y0194488D03*
X0066087Y0194488D03*
X0053800Y0189488D03*
X0043800Y0189488D03*
X0043300Y0203488D03*
X0053300Y0203488D03*
X0065800Y0207988D03*
X0065800Y0217988D03*
X0065800Y0227988D03*
X0065800Y0237988D03*
X0065800Y0247988D03*
X0065800Y0257988D03*
X0065800Y0267988D03*
X0051800Y0257488D03*
X0037300Y0257488D03*
X0037300Y0227488D03*
X0051800Y0227488D03*
X0095800Y0237988D03*
X0095800Y0247988D03*
X0095800Y0257988D03*
X0095800Y0267988D03*
X0108300Y0253988D03*
X0119800Y0253988D03*
X0130300Y0254488D03*
X0141300Y0254488D03*
X0141300Y0244488D03*
X0119800Y0243988D03*
X0117182Y0159937D03*
X0117182Y0150488D03*
X0087182Y0150488D03*
X0087182Y0159937D03*
D12*
X0097300Y0075488D03*
X0037300Y0075488D03*
D13*
X0103300Y0123488D03*
X0113300Y0123488D03*
X0123300Y0123488D03*
X0123300Y0133488D03*
X0113300Y0133488D03*
X0103300Y0133488D03*
D14*
X0104348Y0034941D02*
X0097348Y0034941D01*
X0097348Y0051941D01*
X0104348Y0051941D01*
X0104348Y0034941D01*
X0104348Y0037940D02*
X0097348Y0037940D01*
X0097348Y0040939D02*
X0104348Y0040939D01*
X0104348Y0043938D02*
X0097348Y0043938D01*
X0097348Y0046937D02*
X0104348Y0046937D01*
X0104348Y0049936D02*
X0097348Y0049936D01*
X0088757Y0034941D02*
X0081757Y0034941D01*
X0081757Y0051941D01*
X0088757Y0051941D01*
X0088757Y0034941D01*
X0088757Y0037940D02*
X0081757Y0037940D01*
X0081757Y0040939D02*
X0088757Y0040939D01*
X0088757Y0043938D02*
X0081757Y0043938D01*
X0081757Y0046937D02*
X0088757Y0046937D01*
X0088757Y0049936D02*
X0081757Y0049936D01*
X0073167Y0034941D02*
X0066167Y0034941D01*
X0066167Y0051941D01*
X0073167Y0051941D01*
X0073167Y0034941D01*
X0073167Y0037940D02*
X0066167Y0037940D01*
X0066167Y0040939D02*
X0073167Y0040939D01*
X0073167Y0043938D02*
X0066167Y0043938D01*
X0066167Y0046937D02*
X0073167Y0046937D01*
X0073167Y0049936D02*
X0066167Y0049936D01*
X0057576Y0034941D02*
X0050576Y0034941D01*
X0050576Y0051941D01*
X0057576Y0051941D01*
X0057576Y0034941D01*
X0057576Y0037940D02*
X0050576Y0037940D01*
X0050576Y0040939D02*
X0057576Y0040939D01*
X0057576Y0043938D02*
X0050576Y0043938D01*
X0050576Y0046937D02*
X0057576Y0046937D01*
X0057576Y0049936D02*
X0050576Y0049936D01*
X0041986Y0034941D02*
X0034986Y0034941D01*
X0034986Y0051941D01*
X0041986Y0051941D01*
X0041986Y0034941D01*
X0041986Y0037940D02*
X0034986Y0037940D01*
X0034986Y0040939D02*
X0041986Y0040939D01*
X0041986Y0043938D02*
X0034986Y0043938D01*
X0034986Y0046937D02*
X0041986Y0046937D01*
X0041986Y0049936D02*
X0034986Y0049936D01*
X0112939Y0034941D02*
X0119939Y0034941D01*
X0112939Y0034941D02*
X0112939Y0051941D01*
X0119939Y0051941D01*
X0119939Y0034941D01*
X0119939Y0037940D02*
X0112939Y0037940D01*
X0112939Y0040939D02*
X0119939Y0040939D01*
X0119939Y0043938D02*
X0112939Y0043938D01*
X0112939Y0046937D02*
X0119939Y0046937D01*
X0119939Y0049936D02*
X0112939Y0049936D01*
X0128529Y0034941D02*
X0135529Y0034941D01*
X0128529Y0034941D02*
X0128529Y0051941D01*
X0135529Y0051941D01*
X0135529Y0034941D01*
X0135529Y0037940D02*
X0128529Y0037940D01*
X0128529Y0040939D02*
X0135529Y0040939D01*
X0135529Y0043938D02*
X0128529Y0043938D01*
X0128529Y0046937D02*
X0135529Y0046937D01*
X0135529Y0049936D02*
X0128529Y0049936D01*
X0144120Y0034941D02*
X0151120Y0034941D01*
X0144120Y0034941D02*
X0144120Y0051941D01*
X0151120Y0051941D01*
X0151120Y0034941D01*
X0151120Y0037940D02*
X0144120Y0037940D01*
X0144120Y0040939D02*
X0151120Y0040939D01*
X0151120Y0043938D02*
X0144120Y0043938D01*
X0144120Y0046937D02*
X0151120Y0046937D01*
X0151120Y0049936D02*
X0144120Y0049936D01*
X0159710Y0034941D02*
X0166710Y0034941D01*
X0159710Y0034941D02*
X0159710Y0051941D01*
X0166710Y0051941D01*
X0166710Y0034941D01*
X0166710Y0037940D02*
X0159710Y0037940D01*
X0159710Y0040939D02*
X0166710Y0040939D01*
X0166710Y0043938D02*
X0159710Y0043938D01*
X0159710Y0046937D02*
X0166710Y0046937D01*
X0166710Y0049936D02*
X0159710Y0049936D01*
X0175301Y0034941D02*
X0182301Y0034941D01*
X0175301Y0034941D02*
X0175301Y0051941D01*
X0182301Y0051941D01*
X0182301Y0034941D01*
X0182301Y0037940D02*
X0175301Y0037940D01*
X0175301Y0040939D02*
X0182301Y0040939D01*
X0182301Y0043938D02*
X0175301Y0043938D01*
X0175301Y0046937D02*
X0182301Y0046937D01*
X0182301Y0049936D02*
X0175301Y0049936D01*
X0190891Y0034941D02*
X0197891Y0034941D01*
X0190891Y0034941D02*
X0190891Y0051941D01*
X0197891Y0051941D01*
X0197891Y0034941D01*
X0197891Y0037940D02*
X0190891Y0037940D01*
X0190891Y0040939D02*
X0197891Y0040939D01*
X0197891Y0043938D02*
X0190891Y0043938D01*
X0190891Y0046937D02*
X0197891Y0046937D01*
X0197891Y0049936D02*
X0190891Y0049936D01*
X0206482Y0034941D02*
X0213482Y0034941D01*
X0206482Y0034941D02*
X0206482Y0051941D01*
X0213482Y0051941D01*
X0213482Y0034941D01*
X0213482Y0037940D02*
X0206482Y0037940D01*
X0206482Y0040939D02*
X0213482Y0040939D01*
X0213482Y0043938D02*
X0206482Y0043938D01*
X0206482Y0046937D02*
X0213482Y0046937D01*
X0213482Y0049936D02*
X0206482Y0049936D01*
X0222072Y0034941D02*
X0229072Y0034941D01*
X0222072Y0034941D02*
X0222072Y0051941D01*
X0229072Y0051941D01*
X0229072Y0034941D01*
X0229072Y0037940D02*
X0222072Y0037940D01*
X0222072Y0040939D02*
X0229072Y0040939D01*
X0229072Y0043938D02*
X0222072Y0043938D01*
X0222072Y0046937D02*
X0229072Y0046937D01*
X0229072Y0049936D02*
X0222072Y0049936D01*
X0237663Y0034941D02*
X0244663Y0034941D01*
X0237663Y0034941D02*
X0237663Y0051941D01*
X0244663Y0051941D01*
X0244663Y0034941D01*
X0244663Y0037940D02*
X0237663Y0037940D01*
X0237663Y0040939D02*
X0244663Y0040939D01*
X0244663Y0043938D02*
X0237663Y0043938D01*
X0237663Y0046937D02*
X0244663Y0046937D01*
X0244663Y0049936D02*
X0237663Y0049936D01*
X0253254Y0034941D02*
X0260254Y0034941D01*
X0253254Y0034941D02*
X0253254Y0051941D01*
X0260254Y0051941D01*
X0260254Y0034941D01*
X0260254Y0037940D02*
X0253254Y0037940D01*
X0253254Y0040939D02*
X0260254Y0040939D01*
X0260254Y0043938D02*
X0253254Y0043938D01*
X0253254Y0046937D02*
X0260254Y0046937D01*
X0260254Y0049936D02*
X0253254Y0049936D01*
X0268844Y0034941D02*
X0275844Y0034941D01*
X0268844Y0034941D02*
X0268844Y0051941D01*
X0275844Y0051941D01*
X0275844Y0034941D01*
X0275844Y0037940D02*
X0268844Y0037940D01*
X0268844Y0040939D02*
X0275844Y0040939D01*
X0275844Y0043938D02*
X0268844Y0043938D01*
X0268844Y0046937D02*
X0275844Y0046937D01*
X0275844Y0049936D02*
X0268844Y0049936D01*
X0284435Y0034941D02*
X0291435Y0034941D01*
X0284435Y0034941D02*
X0284435Y0051941D01*
X0291435Y0051941D01*
X0291435Y0034941D01*
X0291435Y0037940D02*
X0284435Y0037940D01*
X0284435Y0040939D02*
X0291435Y0040939D01*
X0291435Y0043938D02*
X0284435Y0043938D01*
X0284435Y0046937D02*
X0291435Y0046937D01*
X0291435Y0049936D02*
X0284435Y0049936D01*
X0300025Y0034941D02*
X0307025Y0034941D01*
X0300025Y0034941D02*
X0300025Y0051941D01*
X0307025Y0051941D01*
X0307025Y0034941D01*
X0307025Y0037940D02*
X0300025Y0037940D01*
X0300025Y0040939D02*
X0307025Y0040939D01*
X0307025Y0043938D02*
X0300025Y0043938D01*
X0300025Y0046937D02*
X0307025Y0046937D01*
X0307025Y0049936D02*
X0300025Y0049936D01*
X0315616Y0034941D02*
X0322616Y0034941D01*
X0315616Y0034941D02*
X0315616Y0051941D01*
X0322616Y0051941D01*
X0322616Y0034941D01*
X0322616Y0037940D02*
X0315616Y0037940D01*
X0315616Y0040939D02*
X0322616Y0040939D01*
X0322616Y0043938D02*
X0315616Y0043938D01*
X0315616Y0046937D02*
X0322616Y0046937D01*
X0322616Y0049936D02*
X0315616Y0049936D01*
X0331206Y0034941D02*
X0338206Y0034941D01*
X0331206Y0034941D02*
X0331206Y0051941D01*
X0338206Y0051941D01*
X0338206Y0034941D01*
X0338206Y0037940D02*
X0331206Y0037940D01*
X0331206Y0040939D02*
X0338206Y0040939D01*
X0338206Y0043938D02*
X0331206Y0043938D01*
X0331206Y0046937D02*
X0338206Y0046937D01*
X0338206Y0049936D02*
X0331206Y0049936D01*
X0346797Y0034941D02*
X0353797Y0034941D01*
X0346797Y0034941D02*
X0346797Y0051941D01*
X0353797Y0051941D01*
X0353797Y0034941D01*
X0353797Y0037940D02*
X0346797Y0037940D01*
X0346797Y0040939D02*
X0353797Y0040939D01*
X0353797Y0043938D02*
X0346797Y0043938D01*
X0346797Y0046937D02*
X0353797Y0046937D01*
X0353797Y0049936D02*
X0346797Y0049936D01*
X0362387Y0034941D02*
X0369387Y0034941D01*
X0362387Y0034941D02*
X0362387Y0051941D01*
X0369387Y0051941D01*
X0369387Y0034941D01*
X0369387Y0037940D02*
X0362387Y0037940D01*
X0362387Y0040939D02*
X0369387Y0040939D01*
X0369387Y0043938D02*
X0362387Y0043938D01*
X0362387Y0046937D02*
X0369387Y0046937D01*
X0369387Y0049936D02*
X0362387Y0049936D01*
D15*
X0365883Y0027004D03*
X0350292Y0027004D03*
X0334702Y0027004D03*
X0319111Y0027004D03*
X0303520Y0027004D03*
X0287930Y0027004D03*
X0272339Y0027004D03*
X0256749Y0027004D03*
X0241158Y0027004D03*
X0225568Y0027004D03*
X0209977Y0027004D03*
X0194387Y0027004D03*
X0178796Y0027004D03*
X0163206Y0027004D03*
X0147615Y0027004D03*
X0132024Y0027004D03*
X0116434Y0027004D03*
X0100843Y0027004D03*
X0085253Y0027004D03*
X0069662Y0027004D03*
X0054072Y0027004D03*
X0038481Y0027004D03*
D16*
X0156800Y0147488D02*
X0157300Y0147488D01*
X0168300Y0147488D01*
X0178300Y0157488D01*
X0186800Y0157488D01*
X0215300Y0190988D02*
X0245300Y0190988D01*
X0275300Y0190988D02*
X0305300Y0190988D01*
D17*
X0365800Y0059776D02*
X0366006Y0058783D01*
X0365887Y0043441D01*
X0055300Y0059988D02*
X0054194Y0058883D01*
X0054076Y0043441D01*
X0038486Y0043441D02*
X0038486Y0060247D01*
X0038402Y0060331D01*
D18*
X0038402Y0060331D03*
X0365800Y0059776D03*
D19*
X0369407Y0062830D02*
X0377154Y0062830D01*
X0377154Y0061232D02*
X0370298Y0061232D01*
X0370213Y0061644D02*
X0369162Y0063190D01*
X0367599Y0064217D01*
X0365763Y0064568D01*
X0363932Y0064189D01*
X0362385Y0063138D01*
X0361359Y0061575D01*
X0361008Y0059738D01*
X0361302Y0058319D01*
X0361273Y0054618D01*
X0360745Y0054399D01*
X0360084Y0053739D01*
X0359456Y0053739D01*
X0359192Y0053474D01*
X0357130Y0053327D01*
X0356718Y0053739D01*
X0356100Y0053739D01*
X0355440Y0054399D01*
X0354374Y0054841D01*
X0351700Y0054841D01*
X0351700Y0055775D01*
X0350587Y0056888D01*
X0348587Y0058888D01*
X0335087Y0058888D01*
X0327087Y0066888D01*
X0281587Y0066888D01*
X0273087Y0075388D01*
X0268620Y0075388D01*
X0267990Y0076018D01*
X0266894Y0076472D01*
X0265706Y0076472D01*
X0264610Y0076018D01*
X0263770Y0075179D01*
X0263495Y0074514D01*
X0262990Y0075018D01*
X0261894Y0075472D01*
X0260706Y0075472D01*
X0259610Y0075018D01*
X0258770Y0074179D01*
X0258316Y0073082D01*
X0258316Y0071895D01*
X0258698Y0070972D01*
X0257706Y0070972D01*
X0256784Y0070590D01*
X0256784Y0071082D01*
X0256330Y0072179D01*
X0255490Y0073018D01*
X0254394Y0073472D01*
X0253206Y0073472D01*
X0252110Y0073018D01*
X0251270Y0072179D01*
X0250816Y0071082D01*
X0250816Y0069895D01*
X0251270Y0068798D01*
X0251900Y0068168D01*
X0251900Y0066201D01*
X0253900Y0064201D01*
X0254713Y0063388D01*
X0245587Y0063388D01*
X0232587Y0076388D01*
X0210087Y0076388D01*
X0209784Y0076691D01*
X0209784Y0077582D01*
X0209330Y0078679D01*
X0208490Y0079518D01*
X0207394Y0079972D01*
X0206206Y0079972D01*
X0205110Y0079518D01*
X0204270Y0078679D01*
X0203985Y0077990D01*
X0202587Y0079388D01*
X0202120Y0079388D01*
X0201490Y0080018D01*
X0200394Y0080472D01*
X0199206Y0080472D01*
X0198110Y0080018D01*
X0197270Y0079179D01*
X0196816Y0078082D01*
X0196816Y0076895D01*
X0197270Y0075798D01*
X0198110Y0074958D01*
X0198774Y0074683D01*
X0198270Y0074179D01*
X0197816Y0073082D01*
X0197816Y0071895D01*
X0198270Y0070798D01*
X0199110Y0069958D01*
X0200022Y0069580D01*
X0199816Y0069082D01*
X0199816Y0067895D01*
X0200270Y0066798D01*
X0201110Y0065958D01*
X0202206Y0065504D01*
X0203394Y0065504D01*
X0204490Y0065958D01*
X0205120Y0066588D01*
X0228013Y0066588D01*
X0238900Y0055701D01*
X0238900Y0054841D01*
X0237086Y0054841D01*
X0236020Y0054399D01*
X0235359Y0053739D01*
X0234732Y0053739D01*
X0233912Y0052918D01*
X0233912Y0052488D01*
X0232814Y0052488D01*
X0232814Y0052918D01*
X0231994Y0053739D01*
X0231376Y0053739D01*
X0230715Y0054399D01*
X0229700Y0054820D01*
X0229700Y0055275D01*
X0226200Y0058775D01*
X0225087Y0059888D01*
X0202587Y0059888D01*
X0189700Y0072775D01*
X0188587Y0073888D01*
X0144587Y0073888D01*
X0143687Y0074788D01*
X0143687Y0074806D01*
X0143132Y0075343D01*
X0142587Y0075888D01*
X0142569Y0075888D01*
X0128200Y0089794D01*
X0128200Y0099465D01*
X0128219Y0100229D01*
X0128200Y0100248D01*
X0128200Y0100275D01*
X0127660Y0100815D01*
X0118200Y0110748D01*
X0118200Y0115701D01*
X0121832Y0119334D01*
X0122425Y0119088D01*
X0124175Y0119088D01*
X0125792Y0119758D01*
X0127030Y0120996D01*
X0127700Y0122613D01*
X0127700Y0124363D01*
X0127030Y0125981D01*
X0125792Y0127218D01*
X0124175Y0127888D01*
X0122425Y0127888D01*
X0120808Y0127218D01*
X0119570Y0125981D01*
X0118900Y0124363D01*
X0118900Y0122613D01*
X0119145Y0122021D01*
X0114400Y0117275D01*
X0114400Y0111575D01*
X0109700Y0116275D01*
X0109700Y0120866D01*
X0110808Y0119758D01*
X0112425Y0119088D01*
X0114175Y0119088D01*
X0115792Y0119758D01*
X0117030Y0120996D01*
X0117700Y0122613D01*
X0117700Y0124363D01*
X0117030Y0125981D01*
X0115792Y0127218D01*
X0114175Y0127888D01*
X0112425Y0127888D01*
X0110808Y0127218D01*
X0109700Y0126111D01*
X0109700Y0126275D01*
X0108587Y0127388D01*
X0106005Y0129970D01*
X0107030Y0130996D01*
X0107700Y0132613D01*
X0107700Y0134363D01*
X0107030Y0135981D01*
X0105792Y0137218D01*
X0104175Y0137888D01*
X0102425Y0137888D01*
X0100808Y0137218D01*
X0099570Y0135981D01*
X0098900Y0134363D01*
X0098900Y0132613D01*
X0099570Y0130996D01*
X0100808Y0129758D01*
X0101400Y0129513D01*
X0101400Y0129201D01*
X0102713Y0127888D01*
X0102425Y0127888D01*
X0100808Y0127218D01*
X0099570Y0125981D01*
X0098900Y0124363D01*
X0098900Y0122613D01*
X0099570Y0120996D01*
X0100808Y0119758D01*
X0101400Y0119513D01*
X0101400Y0116201D01*
X0120400Y0097201D01*
X0120400Y0087003D01*
X0120388Y0086230D01*
X0120400Y0086218D01*
X0120400Y0086201D01*
X0120946Y0085655D01*
X0136400Y0069718D01*
X0136400Y0069701D01*
X0136946Y0069155D01*
X0137484Y0068601D01*
X0137501Y0068600D01*
X0140013Y0066088D01*
X0185013Y0066088D01*
X0192604Y0058498D01*
X0192576Y0054841D01*
X0190314Y0054841D01*
X0189249Y0054399D01*
X0188588Y0053739D01*
X0187960Y0053739D01*
X0187140Y0052918D01*
X0187140Y0052488D01*
X0186043Y0052488D01*
X0186043Y0052918D01*
X0185222Y0053739D01*
X0184604Y0053739D01*
X0183944Y0054399D01*
X0182878Y0054841D01*
X0174724Y0054841D01*
X0173658Y0054399D01*
X0172997Y0053739D01*
X0172370Y0053739D01*
X0171550Y0052918D01*
X0171550Y0052488D01*
X0170452Y0052488D01*
X0170452Y0052918D01*
X0169632Y0053739D01*
X0169014Y0053739D01*
X0168353Y0054399D01*
X0167287Y0054841D01*
X0164700Y0054841D01*
X0164700Y0057275D01*
X0163587Y0058388D01*
X0159087Y0062888D01*
X0135587Y0062888D01*
X0127587Y0070888D01*
X0121087Y0070888D01*
X0118700Y0073275D01*
X0118700Y0097275D01*
X0117587Y0098388D01*
X0104087Y0111888D01*
X0090087Y0111888D01*
X0078200Y0123775D01*
X0078200Y0130275D01*
X0077087Y0131388D01*
X0075648Y0132827D01*
X0075800Y0133193D01*
X0075800Y0134784D01*
X0075191Y0136254D01*
X0074066Y0137379D01*
X0072596Y0137988D01*
X0071004Y0137988D01*
X0069534Y0137379D01*
X0068409Y0136254D01*
X0067800Y0134784D01*
X0067800Y0133193D01*
X0068409Y0131722D01*
X0069534Y0130597D01*
X0071004Y0129988D01*
X0072596Y0129988D01*
X0072961Y0130140D01*
X0074400Y0128701D01*
X0074400Y0127045D01*
X0074066Y0127379D01*
X0072596Y0127988D01*
X0071004Y0127988D01*
X0069534Y0127379D01*
X0068409Y0126254D01*
X0067800Y0124784D01*
X0067800Y0123193D01*
X0068409Y0121722D01*
X0069534Y0120597D01*
X0071004Y0119988D01*
X0072596Y0119988D01*
X0072961Y0120140D01*
X0077213Y0115888D01*
X0075343Y0115888D01*
X0075191Y0116254D01*
X0074066Y0117379D01*
X0072596Y0117988D01*
X0071004Y0117988D01*
X0069534Y0117379D01*
X0068409Y0116254D01*
X0067800Y0114784D01*
X0067800Y0113193D01*
X0068409Y0111722D01*
X0069534Y0110597D01*
X0071004Y0109988D01*
X0072596Y0109988D01*
X0074066Y0110597D01*
X0075191Y0111722D01*
X0075343Y0112088D01*
X0078013Y0112088D01*
X0084900Y0105201D01*
X0086013Y0104088D01*
X0100513Y0104088D01*
X0110900Y0093701D01*
X0110900Y0069701D01*
X0117513Y0063088D01*
X0124013Y0063088D01*
X0130400Y0056701D01*
X0130400Y0054841D01*
X0127952Y0054841D01*
X0126886Y0054399D01*
X0126226Y0053739D01*
X0125598Y0053739D01*
X0124778Y0052918D01*
X0124778Y0052488D01*
X0123680Y0052488D01*
X0123680Y0052918D01*
X0122860Y0053739D01*
X0122242Y0053739D01*
X0121581Y0054399D01*
X0120515Y0054841D01*
X0112362Y0054841D01*
X0111296Y0054399D01*
X0110635Y0053739D01*
X0110007Y0053739D01*
X0109187Y0052918D01*
X0109187Y0052488D01*
X0108090Y0052488D01*
X0108090Y0052918D01*
X0107270Y0053739D01*
X0106652Y0053739D01*
X0105991Y0054399D01*
X0104925Y0054841D01*
X0102901Y0054841D01*
X0102901Y0060330D01*
X0101788Y0061443D01*
X0097457Y0065774D01*
X0083678Y0065774D01*
X0073700Y0075752D01*
X0073700Y0090446D01*
X0074066Y0090597D01*
X0075191Y0091722D01*
X0075800Y0093193D01*
X0075800Y0094784D01*
X0075191Y0096254D01*
X0074066Y0097379D01*
X0072596Y0097988D01*
X0071004Y0097988D01*
X0069534Y0097379D01*
X0068409Y0096254D01*
X0067800Y0094784D01*
X0067800Y0093193D01*
X0068409Y0091722D01*
X0069534Y0090597D01*
X0069900Y0090446D01*
X0069900Y0074178D01*
X0080991Y0063087D01*
X0082104Y0061974D01*
X0095883Y0061974D01*
X0099101Y0058756D01*
X0099101Y0054841D01*
X0096771Y0054841D01*
X0095705Y0054399D01*
X0095044Y0053739D01*
X0094417Y0053739D01*
X0093597Y0052918D01*
X0093597Y0052488D01*
X0092499Y0052488D01*
X0092499Y0052918D01*
X0091679Y0053739D01*
X0091061Y0053739D01*
X0090400Y0054399D01*
X0089334Y0054841D01*
X0081181Y0054841D01*
X0080115Y0054399D01*
X0079696Y0053981D01*
X0075228Y0053981D01*
X0074810Y0054399D01*
X0073744Y0054841D01*
X0065590Y0054841D01*
X0064524Y0054399D01*
X0063863Y0053739D01*
X0063236Y0053739D01*
X0062416Y0052918D01*
X0062416Y0052488D01*
X0061318Y0052488D01*
X0061318Y0052918D01*
X0060498Y0053739D01*
X0060344Y0053739D01*
X0060140Y0054045D01*
X0059680Y0054504D01*
X0059140Y0054865D01*
X0058539Y0055114D01*
X0057901Y0055241D01*
X0054876Y0055241D01*
X0054876Y0053739D01*
X0053276Y0053739D01*
X0053276Y0055241D01*
X0050251Y0055241D01*
X0049614Y0055114D01*
X0049013Y0054865D01*
X0048473Y0054504D01*
X0048013Y0054045D01*
X0047809Y0053739D01*
X0047645Y0053739D01*
X0046825Y0052918D01*
X0046825Y0052488D01*
X0045728Y0052488D01*
X0045728Y0052918D01*
X0044907Y0053739D01*
X0044289Y0053739D01*
X0043629Y0054399D01*
X0043186Y0054583D01*
X0043186Y0061182D01*
X0042470Y0062910D01*
X0041065Y0064315D01*
X0039337Y0065031D01*
X0037467Y0065031D01*
X0035740Y0064315D01*
X0034418Y0062993D01*
X0033702Y0061266D01*
X0033702Y0059396D01*
X0033786Y0059194D01*
X0033786Y0054583D01*
X0033343Y0054399D01*
X0032682Y0053739D01*
X0032055Y0053739D01*
X0031235Y0052918D01*
X0031235Y0052488D01*
X0027998Y0052488D01*
X0027998Y0282787D01*
X0377154Y0282787D01*
X0377154Y0052488D01*
X0373129Y0052488D01*
X0373129Y0052918D01*
X0372309Y0053739D01*
X0371691Y0053739D01*
X0371030Y0054399D01*
X0370673Y0054547D01*
X0370702Y0058320D01*
X0370797Y0058820D01*
X0370709Y0059246D01*
X0370713Y0059681D01*
X0370522Y0060153D01*
X0370213Y0061644D01*
X0370712Y0059633D02*
X0377154Y0059633D01*
X0377154Y0058035D02*
X0370700Y0058035D01*
X0370688Y0056436D02*
X0377154Y0056436D01*
X0377154Y0054838D02*
X0370675Y0054838D01*
X0372809Y0053239D02*
X0377154Y0053239D01*
X0377154Y0064429D02*
X0366490Y0064429D01*
X0365092Y0064429D02*
X0329547Y0064429D01*
X0331145Y0062830D02*
X0362183Y0062830D01*
X0361293Y0061232D02*
X0332744Y0061232D01*
X0334342Y0059633D02*
X0361030Y0059633D01*
X0361300Y0058035D02*
X0349441Y0058035D01*
X0351039Y0056436D02*
X0361287Y0056436D01*
X0361275Y0054838D02*
X0354382Y0054838D01*
X0377154Y0066027D02*
X0327948Y0066027D01*
X0331270Y0082697D02*
X0331954Y0082588D01*
X0332300Y0082588D01*
X0332646Y0082588D01*
X0333330Y0082697D01*
X0333989Y0082911D01*
X0334606Y0083225D01*
X0335166Y0083632D01*
X0335656Y0084122D01*
X0336063Y0084682D01*
X0336378Y0085299D01*
X0336592Y0085958D01*
X0336700Y0086642D01*
X0336700Y0086988D01*
X0332300Y0086988D01*
X0332300Y0082588D01*
X0332300Y0086988D01*
X0332300Y0086988D01*
X0332300Y0086988D01*
X0327900Y0086988D01*
X0327900Y0086642D01*
X0328008Y0085958D01*
X0328222Y0085299D01*
X0328537Y0084682D01*
X0328944Y0084122D01*
X0329434Y0083632D01*
X0329994Y0083225D01*
X0330611Y0082911D01*
X0331270Y0082697D01*
X0332300Y0083611D02*
X0332300Y0083611D01*
X0332300Y0085209D02*
X0332300Y0085209D01*
X0332300Y0086808D02*
X0332300Y0086808D01*
X0332300Y0086988D02*
X0332300Y0086988D01*
X0336700Y0086988D01*
X0336700Y0087334D01*
X0336592Y0088019D01*
X0336378Y0088677D01*
X0336063Y0089294D01*
X0335656Y0089855D01*
X0335423Y0090088D01*
X0356513Y0090088D01*
X0358452Y0088150D01*
X0358300Y0087784D01*
X0358300Y0086193D01*
X0358909Y0084722D01*
X0360034Y0083597D01*
X0361504Y0082988D01*
X0363096Y0082988D01*
X0364566Y0083597D01*
X0365691Y0084722D01*
X0366300Y0086193D01*
X0366300Y0087784D01*
X0365691Y0089254D01*
X0364566Y0090379D01*
X0363096Y0090988D01*
X0361504Y0090988D01*
X0361139Y0090837D01*
X0358087Y0093888D01*
X0334857Y0093888D01*
X0335691Y0094722D01*
X0336300Y0096193D01*
X0336300Y0097784D01*
X0335691Y0099254D01*
X0334566Y0100379D01*
X0333096Y0100988D01*
X0331504Y0100988D01*
X0330034Y0100379D01*
X0328909Y0099254D01*
X0328300Y0097784D01*
X0328300Y0096193D01*
X0328909Y0094722D01*
X0329743Y0093888D01*
X0325857Y0093888D01*
X0326691Y0094722D01*
X0327300Y0096193D01*
X0327300Y0097784D01*
X0326691Y0099254D01*
X0325566Y0100379D01*
X0324096Y0100988D01*
X0322504Y0100988D01*
X0321034Y0100379D01*
X0319909Y0099254D01*
X0319300Y0097784D01*
X0319300Y0096193D01*
X0319909Y0094722D01*
X0320743Y0093888D01*
X0320513Y0093888D01*
X0319400Y0092775D01*
X0318900Y0092275D01*
X0315513Y0088888D01*
X0310843Y0088888D01*
X0310691Y0089254D01*
X0309566Y0090379D01*
X0308096Y0090988D01*
X0306504Y0090988D01*
X0305034Y0090379D01*
X0303909Y0089254D01*
X0303300Y0087784D01*
X0303300Y0086193D01*
X0303909Y0084722D01*
X0305034Y0083597D01*
X0306504Y0082988D01*
X0308096Y0082988D01*
X0309566Y0083597D01*
X0310691Y0084722D01*
X0310843Y0085088D01*
X0317087Y0085088D01*
X0318900Y0086901D01*
X0318900Y0086642D01*
X0319008Y0085958D01*
X0319222Y0085299D01*
X0319537Y0084682D01*
X0319944Y0084122D01*
X0320434Y0083632D01*
X0320994Y0083225D01*
X0321611Y0082911D01*
X0322270Y0082697D01*
X0322954Y0082588D01*
X0323300Y0082588D01*
X0323646Y0082588D01*
X0324330Y0082697D01*
X0324989Y0082911D01*
X0325606Y0083225D01*
X0326166Y0083632D01*
X0326656Y0084122D01*
X0327063Y0084682D01*
X0327378Y0085299D01*
X0327592Y0085958D01*
X0327700Y0086642D01*
X0327700Y0086988D01*
X0323300Y0086988D01*
X0323300Y0082588D01*
X0323300Y0086988D01*
X0323300Y0086988D01*
X0323300Y0086988D01*
X0327700Y0086988D01*
X0327700Y0087334D01*
X0327592Y0088019D01*
X0327378Y0088677D01*
X0327063Y0089294D01*
X0326656Y0089855D01*
X0326423Y0090088D01*
X0329177Y0090088D01*
X0328944Y0089855D01*
X0328537Y0089294D01*
X0328222Y0088677D01*
X0328008Y0088019D01*
X0327900Y0087334D01*
X0327900Y0086988D01*
X0332300Y0086988D01*
X0328134Y0088406D02*
X0327466Y0088406D01*
X0327700Y0086808D02*
X0327900Y0086808D01*
X0328268Y0085209D02*
X0327332Y0085209D01*
X0326137Y0083611D02*
X0329463Y0083611D01*
X0335137Y0083611D02*
X0360021Y0083611D01*
X0358707Y0085209D02*
X0336332Y0085209D01*
X0336700Y0086808D02*
X0358300Y0086808D01*
X0358195Y0088406D02*
X0336466Y0088406D01*
X0335506Y0090005D02*
X0356596Y0090005D01*
X0358773Y0093202D02*
X0360989Y0093202D01*
X0361504Y0092988D02*
X0363096Y0092988D01*
X0364566Y0093597D01*
X0365691Y0094722D01*
X0366300Y0096193D01*
X0366300Y0097784D01*
X0365691Y0099254D01*
X0364566Y0100379D01*
X0363096Y0100988D01*
X0361504Y0100988D01*
X0360034Y0100379D01*
X0358909Y0099254D01*
X0358300Y0097784D01*
X0358300Y0096193D01*
X0358909Y0094722D01*
X0360034Y0093597D01*
X0361504Y0092988D01*
X0360372Y0091603D02*
X0377154Y0091603D01*
X0377154Y0090005D02*
X0364940Y0090005D01*
X0366042Y0088406D02*
X0377154Y0088406D01*
X0377154Y0086808D02*
X0366300Y0086808D01*
X0365893Y0085209D02*
X0377154Y0085209D01*
X0377154Y0083611D02*
X0364579Y0083611D01*
X0363611Y0093202D02*
X0377154Y0093202D01*
X0377154Y0094800D02*
X0365723Y0094800D01*
X0366300Y0096399D02*
X0377154Y0096399D01*
X0377154Y0097997D02*
X0366212Y0097997D01*
X0365349Y0099596D02*
X0377154Y0099596D01*
X0377154Y0101194D02*
X0317193Y0101194D01*
X0317200Y0101201D02*
X0326087Y0110088D01*
X0329743Y0110088D01*
X0328909Y0109254D01*
X0328300Y0107784D01*
X0328300Y0106193D01*
X0328909Y0104722D01*
X0330034Y0103597D01*
X0331504Y0102988D01*
X0333096Y0102988D01*
X0334566Y0103597D01*
X0335691Y0104722D01*
X0336300Y0106193D01*
X0336300Y0107784D01*
X0335691Y0109254D01*
X0334857Y0110088D01*
X0339087Y0110088D01*
X0340200Y0111201D01*
X0344087Y0115088D01*
X0358757Y0115088D01*
X0358909Y0114722D01*
X0360034Y0113597D01*
X0361504Y0112988D01*
X0363096Y0112988D01*
X0364566Y0113597D01*
X0365691Y0114722D01*
X0366300Y0116193D01*
X0366300Y0117784D01*
X0365691Y0119254D01*
X0364566Y0120379D01*
X0363096Y0120988D01*
X0361504Y0120988D01*
X0360034Y0120379D01*
X0358909Y0119254D01*
X0358757Y0118888D01*
X0342513Y0118888D01*
X0337513Y0113888D01*
X0334857Y0113888D01*
X0335691Y0114722D01*
X0336300Y0116193D01*
X0336300Y0117784D01*
X0335691Y0119254D01*
X0334566Y0120379D01*
X0333096Y0120988D01*
X0331504Y0120988D01*
X0330034Y0120379D01*
X0328909Y0119254D01*
X0328300Y0117784D01*
X0328300Y0116193D01*
X0328909Y0114722D01*
X0329743Y0113888D01*
X0324513Y0113888D01*
X0314513Y0103888D01*
X0309857Y0103888D01*
X0310691Y0104722D01*
X0311300Y0106193D01*
X0311300Y0107784D01*
X0310691Y0109254D01*
X0309566Y0110379D01*
X0308096Y0110988D01*
X0306504Y0110988D01*
X0305034Y0110379D01*
X0303909Y0109254D01*
X0303300Y0107784D01*
X0303300Y0106193D01*
X0303909Y0104722D01*
X0304743Y0103888D01*
X0279857Y0103888D01*
X0280691Y0104722D01*
X0281300Y0106193D01*
X0281300Y0107784D01*
X0280691Y0109254D01*
X0279857Y0110088D01*
X0303087Y0110088D01*
X0306139Y0113140D01*
X0306504Y0112988D01*
X0308096Y0112988D01*
X0309566Y0113597D01*
X0310691Y0114722D01*
X0311300Y0116193D01*
X0311300Y0117784D01*
X0310691Y0119254D01*
X0309857Y0120088D01*
X0328087Y0120088D01*
X0331139Y0123140D01*
X0331504Y0122988D01*
X0333096Y0122988D01*
X0334566Y0123597D01*
X0335691Y0124722D01*
X0336300Y0126193D01*
X0336300Y0127784D01*
X0335691Y0129254D01*
X0334566Y0130379D01*
X0333096Y0130988D01*
X0331504Y0130988D01*
X0330034Y0130379D01*
X0328909Y0129254D01*
X0328300Y0127784D01*
X0328300Y0126193D01*
X0328452Y0125827D01*
X0326513Y0123888D01*
X0309857Y0123888D01*
X0310691Y0124722D01*
X0311300Y0126193D01*
X0311300Y0127784D01*
X0310691Y0129254D01*
X0309857Y0130088D01*
X0316087Y0130088D01*
X0326087Y0140088D01*
X0329743Y0140088D01*
X0328909Y0139254D01*
X0328300Y0137784D01*
X0328300Y0136193D01*
X0328909Y0134722D01*
X0330034Y0133597D01*
X0331504Y0132988D01*
X0333096Y0132988D01*
X0334566Y0133597D01*
X0335691Y0134722D01*
X0336300Y0136193D01*
X0336300Y0137784D01*
X0335691Y0139254D01*
X0334857Y0140088D01*
X0358087Y0140088D01*
X0361139Y0143140D01*
X0361504Y0142988D01*
X0363096Y0142988D01*
X0364566Y0143597D01*
X0365691Y0144722D01*
X0366300Y0146193D01*
X0366300Y0147784D01*
X0365691Y0149254D01*
X0364566Y0150379D01*
X0363096Y0150988D01*
X0361504Y0150988D01*
X0360034Y0150379D01*
X0358909Y0149254D01*
X0358300Y0147784D01*
X0358300Y0146193D01*
X0358452Y0145827D01*
X0356513Y0143888D01*
X0334857Y0143888D01*
X0335691Y0144722D01*
X0336300Y0146193D01*
X0336300Y0147784D01*
X0335691Y0149254D01*
X0334566Y0150379D01*
X0333096Y0150988D01*
X0331504Y0150988D01*
X0330034Y0150379D01*
X0328909Y0149254D01*
X0328300Y0147784D01*
X0328300Y0146193D01*
X0328909Y0144722D01*
X0329743Y0143888D01*
X0324513Y0143888D01*
X0323400Y0142775D01*
X0314513Y0133888D01*
X0309857Y0133888D01*
X0310691Y0134722D01*
X0311300Y0136193D01*
X0311300Y0137784D01*
X0310691Y0139254D01*
X0309566Y0140379D01*
X0308096Y0140988D01*
X0306504Y0140988D01*
X0305034Y0140379D01*
X0303909Y0139254D01*
X0303300Y0137784D01*
X0303300Y0136193D01*
X0303909Y0134722D01*
X0304743Y0133888D01*
X0279857Y0133888D01*
X0280691Y0134722D01*
X0281300Y0136193D01*
X0281300Y0137784D01*
X0280691Y0139254D01*
X0279566Y0140379D01*
X0279061Y0140588D01*
X0303587Y0140588D01*
X0306139Y0143140D01*
X0306504Y0142988D01*
X0308096Y0142988D01*
X0309566Y0143597D01*
X0310691Y0144722D01*
X0311300Y0146193D01*
X0311300Y0147784D01*
X0310691Y0149254D01*
X0309857Y0150088D01*
X0328087Y0150088D01*
X0331139Y0153140D01*
X0331504Y0152988D01*
X0333096Y0152988D01*
X0334566Y0153597D01*
X0335691Y0154722D01*
X0336300Y0156193D01*
X0336300Y0157784D01*
X0335691Y0159254D01*
X0334566Y0160379D01*
X0333096Y0160988D01*
X0331504Y0160988D01*
X0330034Y0160379D01*
X0328909Y0159254D01*
X0328300Y0157784D01*
X0328300Y0156193D01*
X0328452Y0155827D01*
X0326513Y0153888D01*
X0309857Y0153888D01*
X0310691Y0154722D01*
X0311300Y0156193D01*
X0311300Y0157784D01*
X0310691Y0159254D01*
X0309566Y0160379D01*
X0308096Y0160988D01*
X0306504Y0160988D01*
X0305034Y0160379D01*
X0303909Y0159254D01*
X0303300Y0157784D01*
X0303300Y0156193D01*
X0303909Y0154722D01*
X0304743Y0153888D01*
X0279857Y0153888D01*
X0280691Y0154722D01*
X0281300Y0156193D01*
X0281300Y0157784D01*
X0280691Y0159254D01*
X0279566Y0160379D01*
X0278096Y0160988D01*
X0276504Y0160988D01*
X0276139Y0160837D01*
X0272587Y0164388D01*
X0242013Y0164388D01*
X0240900Y0163275D01*
X0231513Y0153888D01*
X0219061Y0153888D01*
X0219566Y0154097D01*
X0220691Y0155222D01*
X0221300Y0156693D01*
X0221300Y0158284D01*
X0220691Y0159754D01*
X0219566Y0160879D01*
X0218096Y0161488D01*
X0216504Y0161488D01*
X0215034Y0160879D01*
X0213909Y0159754D01*
X0213300Y0158284D01*
X0213300Y0156693D01*
X0213909Y0155222D01*
X0215034Y0154097D01*
X0215539Y0153888D01*
X0188561Y0153888D01*
X0189066Y0154097D01*
X0190191Y0155222D01*
X0190800Y0156693D01*
X0190800Y0158284D01*
X0190191Y0159754D01*
X0189066Y0160879D01*
X0187596Y0161488D01*
X0186004Y0161488D01*
X0184534Y0160879D01*
X0184143Y0160488D01*
X0177703Y0160488D01*
X0176601Y0160031D01*
X0175757Y0159188D01*
X0167057Y0150488D01*
X0159457Y0150488D01*
X0159066Y0150879D01*
X0157596Y0151488D01*
X0156004Y0151488D01*
X0154534Y0150879D01*
X0153409Y0149754D01*
X0152800Y0148284D01*
X0152800Y0146693D01*
X0153409Y0145222D01*
X0154534Y0144097D01*
X0156004Y0143488D01*
X0157596Y0143488D01*
X0159066Y0144097D01*
X0159457Y0144488D01*
X0168897Y0144488D01*
X0169999Y0144945D01*
X0179543Y0154488D01*
X0184143Y0154488D01*
X0184534Y0154097D01*
X0185039Y0153888D01*
X0179013Y0153888D01*
X0177900Y0152775D01*
X0164513Y0139388D01*
X0160343Y0139388D01*
X0160191Y0139754D01*
X0159066Y0140879D01*
X0157596Y0141488D01*
X0156004Y0141488D01*
X0154534Y0140879D01*
X0153409Y0139754D01*
X0152800Y0138284D01*
X0152800Y0136693D01*
X0153409Y0135222D01*
X0154534Y0134097D01*
X0156004Y0133488D01*
X0157596Y0133488D01*
X0159066Y0134097D01*
X0160191Y0135222D01*
X0160343Y0135588D01*
X0166087Y0135588D01*
X0180587Y0150088D01*
X0183743Y0150088D01*
X0183409Y0149754D01*
X0182800Y0148284D01*
X0182800Y0146693D01*
X0183409Y0145222D01*
X0184534Y0144097D01*
X0186004Y0143488D01*
X0187596Y0143488D01*
X0189066Y0144097D01*
X0190191Y0145222D01*
X0190800Y0146693D01*
X0190800Y0148284D01*
X0190191Y0149754D01*
X0189857Y0150088D01*
X0214243Y0150088D01*
X0213909Y0149754D01*
X0213300Y0148284D01*
X0213300Y0146693D01*
X0213909Y0145222D01*
X0215034Y0144097D01*
X0216504Y0143488D01*
X0218096Y0143488D01*
X0219566Y0144097D01*
X0220691Y0145222D01*
X0221300Y0146693D01*
X0221300Y0148284D01*
X0220691Y0149754D01*
X0220357Y0150088D01*
X0233087Y0150088D01*
X0243587Y0160588D01*
X0244743Y0160588D01*
X0243909Y0159754D01*
X0243300Y0158284D01*
X0243300Y0156693D01*
X0243909Y0155222D01*
X0245034Y0154097D01*
X0245539Y0153888D01*
X0240513Y0153888D01*
X0239400Y0152775D01*
X0229900Y0143275D01*
X0226013Y0139388D01*
X0220843Y0139388D01*
X0220691Y0139754D01*
X0219566Y0140879D01*
X0218096Y0141488D01*
X0216504Y0141488D01*
X0215034Y0140879D01*
X0213909Y0139754D01*
X0213300Y0138284D01*
X0213300Y0136693D01*
X0213909Y0135222D01*
X0214743Y0134388D01*
X0211513Y0134388D01*
X0210400Y0133275D01*
X0206513Y0129388D01*
X0190343Y0129388D01*
X0190191Y0129754D01*
X0189066Y0130879D01*
X0187596Y0131488D01*
X0186004Y0131488D01*
X0184534Y0130879D01*
X0183409Y0129754D01*
X0182800Y0128284D01*
X0182800Y0126693D01*
X0183409Y0125222D01*
X0184243Y0124388D01*
X0182013Y0124388D01*
X0179513Y0121888D01*
X0178400Y0120775D01*
X0178400Y0113275D01*
X0174513Y0109388D01*
X0160343Y0109388D01*
X0160191Y0109754D01*
X0159066Y0110879D01*
X0157596Y0111488D01*
X0156004Y0111488D01*
X0154534Y0110879D01*
X0153409Y0109754D01*
X0152800Y0108284D01*
X0152800Y0106693D01*
X0153409Y0105222D01*
X0153743Y0104888D01*
X0150087Y0104888D01*
X0147700Y0107275D01*
X0147700Y0150775D01*
X0129784Y0168691D01*
X0129784Y0169582D01*
X0129330Y0170679D01*
X0128490Y0171518D01*
X0127394Y0171972D01*
X0126206Y0171972D01*
X0125110Y0171518D01*
X0124270Y0170679D01*
X0123816Y0169582D01*
X0123816Y0168395D01*
X0124270Y0167298D01*
X0125110Y0166458D01*
X0126206Y0166004D01*
X0127097Y0166004D01*
X0143900Y0149201D01*
X0143900Y0105701D01*
X0145013Y0104588D01*
X0147400Y0102201D01*
X0147979Y0101622D01*
X0147096Y0101988D01*
X0145504Y0101988D01*
X0144034Y0101379D01*
X0142909Y0100254D01*
X0142300Y0098784D01*
X0142300Y0097193D01*
X0142909Y0095722D01*
X0144034Y0094597D01*
X0145504Y0093988D01*
X0147096Y0093988D01*
X0148566Y0094597D01*
X0149691Y0095722D01*
X0150300Y0097193D01*
X0150300Y0098784D01*
X0149691Y0100254D01*
X0148857Y0101088D01*
X0155039Y0101088D01*
X0154534Y0100879D01*
X0153409Y0099754D01*
X0152800Y0098284D01*
X0152800Y0096693D01*
X0153409Y0095222D01*
X0154534Y0094097D01*
X0156004Y0093488D01*
X0157596Y0093488D01*
X0159066Y0094097D01*
X0160191Y0095222D01*
X0160800Y0096693D01*
X0160800Y0098284D01*
X0160191Y0099754D01*
X0159066Y0100879D01*
X0158561Y0101088D01*
X0170513Y0101088D01*
X0182952Y0088650D01*
X0182800Y0088284D01*
X0182800Y0086693D01*
X0183409Y0085222D01*
X0184534Y0084097D01*
X0186004Y0083488D01*
X0187596Y0083488D01*
X0189066Y0084097D01*
X0190191Y0085222D01*
X0190800Y0086693D01*
X0190800Y0088284D01*
X0190648Y0088650D01*
X0192587Y0090588D01*
X0205177Y0090588D01*
X0204944Y0090355D01*
X0204537Y0089794D01*
X0204222Y0089177D01*
X0204008Y0088519D01*
X0203900Y0087834D01*
X0203900Y0087488D01*
X0203900Y0087142D01*
X0204008Y0086458D01*
X0204222Y0085799D01*
X0204537Y0085182D01*
X0204944Y0084622D01*
X0205434Y0084132D01*
X0205994Y0083725D01*
X0206611Y0083411D01*
X0207270Y0083197D01*
X0207954Y0083088D01*
X0208300Y0083088D01*
X0208646Y0083088D01*
X0209330Y0083197D01*
X0209989Y0083411D01*
X0210606Y0083725D01*
X0211166Y0084132D01*
X0211656Y0084622D01*
X0212063Y0085182D01*
X0212378Y0085799D01*
X0212592Y0086458D01*
X0212700Y0087142D01*
X0212700Y0087488D01*
X0208300Y0087488D01*
X0208300Y0083088D01*
X0208300Y0087488D01*
X0208300Y0087488D01*
X0208300Y0087488D01*
X0203900Y0087488D01*
X0208300Y0087488D01*
X0208300Y0087488D01*
X0212700Y0087488D01*
X0212700Y0087834D01*
X0212592Y0088519D01*
X0212378Y0089177D01*
X0212063Y0089794D01*
X0211656Y0090355D01*
X0211423Y0090588D01*
X0214177Y0090588D01*
X0213944Y0090355D01*
X0213537Y0089794D01*
X0213222Y0089177D01*
X0213008Y0088519D01*
X0212900Y0087834D01*
X0212900Y0087488D01*
X0212900Y0087142D01*
X0213008Y0086458D01*
X0213222Y0085799D01*
X0213537Y0085182D01*
X0213944Y0084622D01*
X0214434Y0084132D01*
X0214994Y0083725D01*
X0215611Y0083411D01*
X0216270Y0083197D01*
X0216954Y0083088D01*
X0217300Y0083088D01*
X0217646Y0083088D01*
X0218330Y0083197D01*
X0218989Y0083411D01*
X0219606Y0083725D01*
X0220166Y0084132D01*
X0220656Y0084622D01*
X0221063Y0085182D01*
X0221378Y0085799D01*
X0221592Y0086458D01*
X0221700Y0087142D01*
X0221700Y0087488D01*
X0217300Y0087488D01*
X0217300Y0083088D01*
X0217300Y0087488D01*
X0217300Y0087488D01*
X0217300Y0087488D01*
X0212900Y0087488D01*
X0217300Y0087488D01*
X0217300Y0087488D01*
X0221700Y0087488D01*
X0221700Y0087834D01*
X0221592Y0088519D01*
X0221378Y0089177D01*
X0221063Y0089794D01*
X0220656Y0090355D01*
X0220423Y0090588D01*
X0228013Y0090588D01*
X0231900Y0086701D01*
X0233013Y0085588D01*
X0243757Y0085588D01*
X0243909Y0085222D01*
X0245034Y0084097D01*
X0246504Y0083488D01*
X0248096Y0083488D01*
X0249566Y0084097D01*
X0250691Y0085222D01*
X0251300Y0086693D01*
X0251300Y0088284D01*
X0250691Y0089754D01*
X0249566Y0090879D01*
X0248096Y0091488D01*
X0246504Y0091488D01*
X0245034Y0090879D01*
X0243909Y0089754D01*
X0243757Y0089388D01*
X0234587Y0089388D01*
X0229587Y0094388D01*
X0219857Y0094388D01*
X0220691Y0095222D01*
X0221300Y0096693D01*
X0221300Y0098284D01*
X0220691Y0099754D01*
X0219857Y0100588D01*
X0244743Y0100588D01*
X0243909Y0099754D01*
X0243300Y0098284D01*
X0243300Y0096693D01*
X0243909Y0095222D01*
X0245034Y0094097D01*
X0246504Y0093488D01*
X0248096Y0093488D01*
X0249566Y0094097D01*
X0250691Y0095222D01*
X0250843Y0095588D01*
X0261087Y0095588D01*
X0262200Y0096701D01*
X0265587Y0100088D01*
X0265743Y0100088D01*
X0264909Y0099254D01*
X0264300Y0097784D01*
X0264300Y0096193D01*
X0264909Y0094722D01*
X0266034Y0093597D01*
X0267504Y0092988D01*
X0269096Y0092988D01*
X0270566Y0093597D01*
X0271691Y0094722D01*
X0272300Y0096193D01*
X0272300Y0097784D01*
X0271691Y0099254D01*
X0270857Y0100088D01*
X0274743Y0100088D01*
X0273909Y0099254D01*
X0273300Y0097784D01*
X0273300Y0096193D01*
X0273909Y0094722D01*
X0275034Y0093597D01*
X0276504Y0092988D01*
X0278096Y0092988D01*
X0279566Y0093597D01*
X0280691Y0094722D01*
X0281300Y0096193D01*
X0281300Y0097784D01*
X0280691Y0099254D01*
X0279857Y0100088D01*
X0304743Y0100088D01*
X0303909Y0099254D01*
X0303300Y0097784D01*
X0303300Y0096193D01*
X0303909Y0094722D01*
X0305034Y0093597D01*
X0306504Y0092988D01*
X0308096Y0092988D01*
X0309566Y0093597D01*
X0310691Y0094722D01*
X0311300Y0096193D01*
X0311300Y0097784D01*
X0310691Y0099254D01*
X0309857Y0100088D01*
X0316087Y0100088D01*
X0317200Y0101201D01*
X0318792Y0102793D02*
X0377154Y0102793D01*
X0377154Y0104391D02*
X0365360Y0104391D01*
X0365691Y0104722D02*
X0364566Y0103597D01*
X0363096Y0102988D01*
X0361504Y0102988D01*
X0360034Y0103597D01*
X0358909Y0104722D01*
X0358300Y0106193D01*
X0358300Y0107784D01*
X0358909Y0109254D01*
X0360034Y0110379D01*
X0361504Y0110988D01*
X0363096Y0110988D01*
X0364566Y0110379D01*
X0365691Y0109254D01*
X0366300Y0107784D01*
X0366300Y0106193D01*
X0365691Y0104722D01*
X0366216Y0105990D02*
X0377154Y0105990D01*
X0377154Y0107588D02*
X0366300Y0107588D01*
X0365719Y0109187D02*
X0377154Y0109187D01*
X0377154Y0110785D02*
X0363585Y0110785D01*
X0361015Y0110785D02*
X0339784Y0110785D01*
X0341383Y0112384D02*
X0377154Y0112384D01*
X0377154Y0113982D02*
X0364951Y0113982D01*
X0366047Y0115581D02*
X0377154Y0115581D01*
X0377154Y0117180D02*
X0366300Y0117180D01*
X0365888Y0118778D02*
X0377154Y0118778D01*
X0377154Y0120377D02*
X0364568Y0120377D01*
X0363096Y0122988D02*
X0364566Y0123597D01*
X0365691Y0124722D01*
X0366300Y0126193D01*
X0366300Y0127784D01*
X0365691Y0129254D01*
X0364566Y0130379D01*
X0363096Y0130988D01*
X0361504Y0130988D01*
X0360034Y0130379D01*
X0358909Y0129254D01*
X0358300Y0127784D01*
X0358300Y0126193D01*
X0358909Y0124722D01*
X0360034Y0123597D01*
X0361504Y0122988D01*
X0363096Y0122988D01*
X0364509Y0123574D02*
X0377154Y0123574D01*
X0377154Y0125172D02*
X0365877Y0125172D01*
X0366300Y0126771D02*
X0377154Y0126771D01*
X0377154Y0128369D02*
X0366058Y0128369D01*
X0364977Y0129968D02*
X0377154Y0129968D01*
X0377154Y0131566D02*
X0317565Y0131566D01*
X0319163Y0133165D02*
X0331078Y0133165D01*
X0333522Y0133165D02*
X0361078Y0133165D01*
X0361504Y0132988D02*
X0363096Y0132988D01*
X0364566Y0133597D01*
X0365691Y0134722D01*
X0366300Y0136193D01*
X0366300Y0137784D01*
X0365691Y0139254D01*
X0364566Y0140379D01*
X0363096Y0140988D01*
X0361504Y0140988D01*
X0360034Y0140379D01*
X0358909Y0139254D01*
X0358300Y0137784D01*
X0358300Y0136193D01*
X0358909Y0134722D01*
X0360034Y0133597D01*
X0361504Y0132988D01*
X0363522Y0133165D02*
X0377154Y0133165D01*
X0377154Y0134763D02*
X0365708Y0134763D01*
X0366300Y0136362D02*
X0377154Y0136362D01*
X0377154Y0137960D02*
X0366227Y0137960D01*
X0365386Y0139559D02*
X0377154Y0139559D01*
X0377154Y0141157D02*
X0359156Y0141157D01*
X0359214Y0139559D02*
X0335386Y0139559D01*
X0336227Y0137960D02*
X0358373Y0137960D01*
X0358300Y0136362D02*
X0336300Y0136362D01*
X0335708Y0134763D02*
X0358892Y0134763D01*
X0359623Y0129968D02*
X0334977Y0129968D01*
X0336058Y0128369D02*
X0358542Y0128369D01*
X0358300Y0126771D02*
X0336300Y0126771D01*
X0335877Y0125172D02*
X0358723Y0125172D01*
X0360091Y0123574D02*
X0334509Y0123574D01*
X0334568Y0120377D02*
X0360031Y0120377D01*
X0359649Y0113982D02*
X0342981Y0113982D01*
X0340804Y0117180D02*
X0336300Y0117180D01*
X0336047Y0115581D02*
X0339206Y0115581D01*
X0337607Y0113982D02*
X0334951Y0113982D01*
X0335719Y0109187D02*
X0358881Y0109187D01*
X0358300Y0107588D02*
X0336300Y0107588D01*
X0336216Y0105990D02*
X0358384Y0105990D01*
X0359240Y0104391D02*
X0335360Y0104391D01*
X0335349Y0099596D02*
X0359251Y0099596D01*
X0358388Y0097997D02*
X0336212Y0097997D01*
X0336300Y0096399D02*
X0358300Y0096399D01*
X0358877Y0094800D02*
X0335723Y0094800D01*
X0328877Y0094800D02*
X0326723Y0094800D01*
X0327300Y0096399D02*
X0328300Y0096399D01*
X0328388Y0097997D02*
X0327212Y0097997D01*
X0326349Y0099596D02*
X0329251Y0099596D01*
X0329240Y0104391D02*
X0320390Y0104391D01*
X0321989Y0105990D02*
X0328384Y0105990D01*
X0328300Y0107588D02*
X0323587Y0107588D01*
X0325186Y0109187D02*
X0328881Y0109187D01*
X0329649Y0113982D02*
X0309951Y0113982D01*
X0311047Y0115581D02*
X0328553Y0115581D01*
X0328300Y0117180D02*
X0311300Y0117180D01*
X0310888Y0118778D02*
X0328712Y0118778D01*
X0328375Y0120377D02*
X0330031Y0120377D01*
X0329974Y0121975D02*
X0377154Y0121975D01*
X0377154Y0142756D02*
X0360754Y0142756D01*
X0358399Y0145953D02*
X0336201Y0145953D01*
X0336300Y0147551D02*
X0358300Y0147551D01*
X0358866Y0149150D02*
X0335734Y0149150D01*
X0333675Y0150748D02*
X0360925Y0150748D01*
X0361504Y0152988D02*
X0363096Y0152988D01*
X0364566Y0153597D01*
X0365691Y0154722D01*
X0366300Y0156193D01*
X0366300Y0157784D01*
X0365691Y0159254D01*
X0364566Y0160379D01*
X0363096Y0160988D01*
X0361504Y0160988D01*
X0360034Y0160379D01*
X0358909Y0159254D01*
X0358300Y0157784D01*
X0358300Y0156193D01*
X0358909Y0154722D01*
X0360034Y0153597D01*
X0361504Y0152988D01*
X0359686Y0153945D02*
X0334914Y0153945D01*
X0336031Y0155544D02*
X0358569Y0155544D01*
X0358300Y0157142D02*
X0336300Y0157142D01*
X0335904Y0158741D02*
X0358696Y0158741D01*
X0359994Y0160339D02*
X0334606Y0160339D01*
X0329994Y0160339D02*
X0309606Y0160339D01*
X0310904Y0158741D02*
X0328696Y0158741D01*
X0328300Y0157142D02*
X0311300Y0157142D01*
X0311031Y0155544D02*
X0328169Y0155544D01*
X0326570Y0153945D02*
X0309914Y0153945D01*
X0310734Y0149150D02*
X0328866Y0149150D01*
X0328747Y0150748D02*
X0330925Y0150748D01*
X0330346Y0152347D02*
X0377154Y0152347D01*
X0377154Y0153945D02*
X0364914Y0153945D01*
X0366031Y0155544D02*
X0377154Y0155544D01*
X0377154Y0157142D02*
X0366300Y0157142D01*
X0365904Y0158741D02*
X0377154Y0158741D01*
X0377154Y0160339D02*
X0364606Y0160339D01*
X0363675Y0150748D02*
X0377154Y0150748D01*
X0377154Y0149150D02*
X0365734Y0149150D01*
X0366300Y0147551D02*
X0377154Y0147551D01*
X0377154Y0145953D02*
X0366201Y0145953D01*
X0365323Y0144354D02*
X0377154Y0144354D01*
X0356979Y0144354D02*
X0335323Y0144354D01*
X0329277Y0144354D02*
X0310323Y0144354D01*
X0311201Y0145953D02*
X0328399Y0145953D01*
X0328300Y0147551D02*
X0311300Y0147551D01*
X0305754Y0142756D02*
X0323381Y0142756D01*
X0321782Y0141157D02*
X0304156Y0141157D01*
X0304214Y0139559D02*
X0280386Y0139559D01*
X0281227Y0137960D02*
X0303373Y0137960D01*
X0303300Y0136362D02*
X0281300Y0136362D01*
X0280708Y0134763D02*
X0303892Y0134763D01*
X0309977Y0129968D02*
X0329623Y0129968D01*
X0328542Y0128369D02*
X0311058Y0128369D01*
X0311300Y0126771D02*
X0328300Y0126771D01*
X0327797Y0125172D02*
X0310877Y0125172D01*
X0310708Y0134763D02*
X0315388Y0134763D01*
X0316986Y0136362D02*
X0311300Y0136362D01*
X0311227Y0137960D02*
X0318585Y0137960D01*
X0320183Y0139559D02*
X0310386Y0139559D01*
X0320762Y0134763D02*
X0328892Y0134763D01*
X0328300Y0136362D02*
X0322360Y0136362D01*
X0323959Y0137960D02*
X0328373Y0137960D01*
X0329214Y0139559D02*
X0325557Y0139559D01*
X0304686Y0153945D02*
X0279914Y0153945D01*
X0281031Y0155544D02*
X0303569Y0155544D01*
X0303300Y0157142D02*
X0281300Y0157142D01*
X0280904Y0158741D02*
X0303696Y0158741D01*
X0304994Y0160339D02*
X0279606Y0160339D01*
X0275037Y0161938D02*
X0377154Y0161938D01*
X0377154Y0163536D02*
X0273439Y0163536D01*
X0245401Y0153945D02*
X0236944Y0153945D01*
X0235346Y0152347D02*
X0238972Y0152347D01*
X0237373Y0150748D02*
X0233747Y0150748D01*
X0235775Y0149150D02*
X0220941Y0149150D01*
X0221300Y0147551D02*
X0234176Y0147551D01*
X0232578Y0145953D02*
X0220994Y0145953D01*
X0219823Y0144354D02*
X0230979Y0144354D01*
X0229381Y0142756D02*
X0173254Y0142756D01*
X0171656Y0141157D02*
X0185205Y0141157D01*
X0184534Y0140879D02*
X0183409Y0139754D01*
X0182800Y0138284D01*
X0182800Y0136693D01*
X0183409Y0135222D01*
X0184534Y0134097D01*
X0186004Y0133488D01*
X0187596Y0133488D01*
X0189066Y0134097D01*
X0190191Y0135222D01*
X0190800Y0136693D01*
X0190800Y0138284D01*
X0190191Y0139754D01*
X0189066Y0140879D01*
X0187596Y0141488D01*
X0186004Y0141488D01*
X0184534Y0140879D01*
X0183328Y0139559D02*
X0170057Y0139559D01*
X0168459Y0137960D02*
X0182800Y0137960D01*
X0182937Y0136362D02*
X0166860Y0136362D01*
X0164684Y0139559D02*
X0160272Y0139559D01*
X0158395Y0141157D02*
X0166282Y0141157D01*
X0167881Y0142756D02*
X0147700Y0142756D01*
X0147700Y0144354D02*
X0154277Y0144354D01*
X0153106Y0145953D02*
X0147700Y0145953D01*
X0147700Y0147551D02*
X0152800Y0147551D01*
X0153159Y0149150D02*
X0147700Y0149150D01*
X0147700Y0150748D02*
X0154403Y0150748D01*
X0156004Y0153488D02*
X0157596Y0153488D01*
X0159066Y0154097D01*
X0160191Y0155222D01*
X0160800Y0156693D01*
X0160800Y0158284D01*
X0160191Y0159754D01*
X0159066Y0160879D01*
X0157596Y0161488D01*
X0156004Y0161488D01*
X0154534Y0160879D01*
X0153409Y0159754D01*
X0152800Y0158284D01*
X0152800Y0156693D01*
X0153409Y0155222D01*
X0154534Y0154097D01*
X0156004Y0153488D01*
X0154901Y0153945D02*
X0144530Y0153945D01*
X0146128Y0152347D02*
X0168916Y0152347D01*
X0170514Y0153945D02*
X0158699Y0153945D01*
X0160324Y0155544D02*
X0172113Y0155544D01*
X0173711Y0157142D02*
X0160800Y0157142D01*
X0160611Y0158741D02*
X0175310Y0158741D01*
X0177344Y0160339D02*
X0159606Y0160339D01*
X0153994Y0160339D02*
X0138136Y0160339D01*
X0139734Y0158741D02*
X0152989Y0158741D01*
X0152800Y0157142D02*
X0141333Y0157142D01*
X0142931Y0155544D02*
X0153276Y0155544D01*
X0159197Y0150748D02*
X0167317Y0150748D01*
X0171007Y0145953D02*
X0171078Y0145953D01*
X0172606Y0147551D02*
X0172676Y0147551D01*
X0174204Y0149150D02*
X0174275Y0149150D01*
X0175803Y0150748D02*
X0175873Y0150748D01*
X0177401Y0152347D02*
X0177472Y0152347D01*
X0177900Y0152775D02*
X0177900Y0152775D01*
X0179000Y0153945D02*
X0184901Y0153945D01*
X0188699Y0153945D02*
X0215401Y0153945D01*
X0213776Y0155544D02*
X0190324Y0155544D01*
X0190800Y0157142D02*
X0213300Y0157142D01*
X0213489Y0158741D02*
X0190611Y0158741D01*
X0189606Y0160339D02*
X0214494Y0160339D01*
X0220106Y0160339D02*
X0237964Y0160339D01*
X0236366Y0158741D02*
X0221111Y0158741D01*
X0221300Y0157142D02*
X0234767Y0157142D01*
X0233169Y0155544D02*
X0220824Y0155544D01*
X0219199Y0153945D02*
X0231570Y0153945D01*
X0238543Y0155544D02*
X0243776Y0155544D01*
X0243300Y0157142D02*
X0240141Y0157142D01*
X0241740Y0158741D02*
X0243489Y0158741D01*
X0243338Y0160339D02*
X0244494Y0160339D01*
X0241161Y0163536D02*
X0134939Y0163536D01*
X0136537Y0161938D02*
X0239563Y0161938D01*
X0213659Y0149150D02*
X0190441Y0149150D01*
X0190800Y0147551D02*
X0213300Y0147551D01*
X0213606Y0145953D02*
X0190494Y0145953D01*
X0189323Y0144354D02*
X0214777Y0144354D01*
X0215705Y0141157D02*
X0188395Y0141157D01*
X0190272Y0139559D02*
X0213828Y0139559D01*
X0213300Y0137960D02*
X0190800Y0137960D01*
X0190663Y0136362D02*
X0213437Y0136362D01*
X0214368Y0134763D02*
X0189732Y0134763D01*
X0189977Y0129968D02*
X0207092Y0129968D01*
X0208691Y0131566D02*
X0147700Y0131566D01*
X0147700Y0129968D02*
X0153623Y0129968D01*
X0153409Y0129754D02*
X0152800Y0128284D01*
X0152800Y0126693D01*
X0153409Y0125222D01*
X0154534Y0124097D01*
X0156004Y0123488D01*
X0157596Y0123488D01*
X0159066Y0124097D01*
X0160191Y0125222D01*
X0160800Y0126693D01*
X0160800Y0128284D01*
X0160191Y0129754D01*
X0159066Y0130879D01*
X0157596Y0131488D01*
X0156004Y0131488D01*
X0154534Y0130879D01*
X0153409Y0129754D01*
X0152835Y0128369D02*
X0147700Y0128369D01*
X0147700Y0126771D02*
X0152800Y0126771D01*
X0153459Y0125172D02*
X0147700Y0125172D01*
X0147700Y0123574D02*
X0155798Y0123574D01*
X0157802Y0123574D02*
X0181198Y0123574D01*
X0179600Y0121975D02*
X0147700Y0121975D01*
X0147700Y0120377D02*
X0154031Y0120377D01*
X0154534Y0120879D02*
X0153409Y0119754D01*
X0152800Y0118284D01*
X0152800Y0116693D01*
X0153409Y0115222D01*
X0154534Y0114097D01*
X0156004Y0113488D01*
X0157596Y0113488D01*
X0159066Y0114097D01*
X0160191Y0115222D01*
X0160800Y0116693D01*
X0160800Y0118284D01*
X0160191Y0119754D01*
X0159066Y0120879D01*
X0157596Y0121488D01*
X0156004Y0121488D01*
X0154534Y0120879D01*
X0153005Y0118778D02*
X0147700Y0118778D01*
X0147700Y0117180D02*
X0152800Y0117180D01*
X0153260Y0115581D02*
X0147700Y0115581D01*
X0147700Y0113982D02*
X0154811Y0113982D01*
X0154440Y0110785D02*
X0147700Y0110785D01*
X0147700Y0109187D02*
X0153174Y0109187D01*
X0152800Y0107588D02*
X0147700Y0107588D01*
X0148985Y0105990D02*
X0153091Y0105990D01*
X0146808Y0102793D02*
X0125776Y0102793D01*
X0124254Y0104391D02*
X0145210Y0104391D01*
X0143900Y0105990D02*
X0122732Y0105990D01*
X0121209Y0107588D02*
X0143900Y0107588D01*
X0143900Y0109187D02*
X0119687Y0109187D01*
X0118200Y0110785D02*
X0143900Y0110785D01*
X0143900Y0112384D02*
X0118200Y0112384D01*
X0118200Y0113982D02*
X0143900Y0113982D01*
X0143900Y0115581D02*
X0118200Y0115581D01*
X0119678Y0117180D02*
X0143900Y0117180D01*
X0143900Y0118778D02*
X0121277Y0118778D01*
X0119100Y0121975D02*
X0117436Y0121975D01*
X0117501Y0120377D02*
X0116411Y0120377D01*
X0115903Y0118778D02*
X0109700Y0118778D01*
X0109700Y0117180D02*
X0114400Y0117180D01*
X0114400Y0115581D02*
X0110394Y0115581D01*
X0111993Y0113982D02*
X0114400Y0113982D01*
X0114400Y0112384D02*
X0113591Y0112384D01*
X0108414Y0109187D02*
X0106788Y0109187D01*
X0106816Y0110785D02*
X0105190Y0110785D01*
X0105217Y0112384D02*
X0089591Y0112384D01*
X0087993Y0113982D02*
X0103619Y0113982D01*
X0102020Y0115581D02*
X0086394Y0115581D01*
X0084796Y0117180D02*
X0101400Y0117180D01*
X0101400Y0118778D02*
X0083197Y0118778D01*
X0081599Y0120377D02*
X0100189Y0120377D01*
X0099164Y0121975D02*
X0080000Y0121975D01*
X0078402Y0123574D02*
X0098900Y0123574D01*
X0099235Y0125172D02*
X0078200Y0125172D01*
X0078200Y0126771D02*
X0100360Y0126771D01*
X0102232Y0128369D02*
X0078200Y0128369D01*
X0078200Y0129968D02*
X0100598Y0129968D01*
X0099334Y0131566D02*
X0076909Y0131566D01*
X0075788Y0133165D02*
X0098900Y0133165D01*
X0099066Y0134763D02*
X0075800Y0134763D01*
X0075083Y0136362D02*
X0099951Y0136362D01*
X0106649Y0136362D02*
X0109951Y0136362D01*
X0109570Y0135981D02*
X0108900Y0134363D01*
X0108900Y0132613D01*
X0109570Y0130996D01*
X0110808Y0129758D01*
X0112425Y0129088D01*
X0114175Y0129088D01*
X0115792Y0129758D01*
X0117030Y0130996D01*
X0117700Y0132613D01*
X0117700Y0134363D01*
X0117030Y0135981D01*
X0115792Y0137218D01*
X0114175Y0137888D01*
X0112425Y0137888D01*
X0110808Y0137218D01*
X0109570Y0135981D01*
X0109066Y0134763D02*
X0107534Y0134763D01*
X0107700Y0133165D02*
X0108900Y0133165D01*
X0109334Y0131566D02*
X0107266Y0131566D01*
X0106008Y0129968D02*
X0110598Y0129968D01*
X0110360Y0126771D02*
X0109205Y0126771D01*
X0108587Y0127388D02*
X0108587Y0127388D01*
X0107606Y0128369D02*
X0143900Y0128369D01*
X0143900Y0126771D02*
X0126240Y0126771D01*
X0127365Y0125172D02*
X0143900Y0125172D01*
X0143900Y0123574D02*
X0127700Y0123574D01*
X0127436Y0121975D02*
X0143900Y0121975D01*
X0143900Y0120377D02*
X0126411Y0120377D01*
X0118900Y0123574D02*
X0117700Y0123574D01*
X0117365Y0125172D02*
X0119235Y0125172D01*
X0120360Y0126771D02*
X0116240Y0126771D01*
X0116002Y0129968D02*
X0120598Y0129968D01*
X0120808Y0129758D02*
X0122425Y0129088D01*
X0124175Y0129088D01*
X0125792Y0129758D01*
X0127030Y0130996D01*
X0127700Y0132613D01*
X0127700Y0134363D01*
X0127030Y0135981D01*
X0125792Y0137218D01*
X0124175Y0137888D01*
X0122425Y0137888D01*
X0121832Y0137643D01*
X0114700Y0144775D01*
X0114700Y0144775D01*
X0113587Y0145888D01*
X0075343Y0145888D01*
X0075191Y0146254D01*
X0074066Y0147379D01*
X0072596Y0147988D01*
X0071004Y0147988D01*
X0069534Y0147379D01*
X0068409Y0146254D01*
X0067800Y0144784D01*
X0067800Y0143193D01*
X0068409Y0141722D01*
X0069534Y0140597D01*
X0071004Y0139988D01*
X0072596Y0139988D01*
X0074066Y0140597D01*
X0075191Y0141722D01*
X0075343Y0142088D01*
X0112013Y0142088D01*
X0119145Y0134956D01*
X0118900Y0134363D01*
X0118900Y0132613D01*
X0119570Y0130996D01*
X0120808Y0129758D01*
X0119334Y0131566D02*
X0117266Y0131566D01*
X0117700Y0133165D02*
X0118900Y0133165D01*
X0119066Y0134763D02*
X0117534Y0134763D01*
X0117740Y0136362D02*
X0116649Y0136362D01*
X0116141Y0137960D02*
X0072663Y0137960D01*
X0070937Y0137960D02*
X0048459Y0137960D01*
X0046860Y0136362D02*
X0068517Y0136362D01*
X0067800Y0134763D02*
X0045800Y0134763D01*
X0045800Y0134784D02*
X0045648Y0135150D01*
X0052969Y0142470D01*
X0054082Y0143583D01*
X0054082Y0160583D01*
X0069700Y0176201D01*
X0082587Y0189088D01*
X0083700Y0190201D01*
X0083700Y0213201D01*
X0094639Y0224140D01*
X0095004Y0223988D01*
X0096596Y0223988D01*
X0098066Y0224597D01*
X0099191Y0225722D01*
X0099800Y0227193D01*
X0099800Y0228784D01*
X0099191Y0230254D01*
X0098066Y0231379D01*
X0096596Y0231988D01*
X0095004Y0231988D01*
X0093534Y0231379D01*
X0092409Y0230254D01*
X0091800Y0228784D01*
X0091800Y0227193D01*
X0091952Y0226827D01*
X0079900Y0214775D01*
X0079900Y0195736D01*
X0079478Y0196754D01*
X0078353Y0197879D01*
X0076883Y0198488D01*
X0075292Y0198488D01*
X0073822Y0197879D01*
X0072696Y0196754D01*
X0072087Y0195284D01*
X0072087Y0193693D01*
X0072696Y0192222D01*
X0073822Y0191097D01*
X0075292Y0190488D01*
X0076883Y0190488D01*
X0078353Y0191097D01*
X0079478Y0192222D01*
X0079900Y0193240D01*
X0079900Y0191775D01*
X0067013Y0178888D01*
X0050282Y0162157D01*
X0050282Y0145157D01*
X0042961Y0137837D01*
X0042596Y0137988D01*
X0041004Y0137988D01*
X0039534Y0137379D01*
X0038409Y0136254D01*
X0037800Y0134784D01*
X0037800Y0133193D01*
X0038409Y0131722D01*
X0039534Y0130597D01*
X0039900Y0130446D01*
X0039900Y0127531D01*
X0039534Y0127379D01*
X0038409Y0126254D01*
X0037800Y0124784D01*
X0037800Y0123193D01*
X0038409Y0121722D01*
X0039534Y0120597D01*
X0041004Y0119988D01*
X0042596Y0119988D01*
X0044066Y0120597D01*
X0045191Y0121722D01*
X0045800Y0123193D01*
X0045800Y0124784D01*
X0045191Y0126254D01*
X0044066Y0127379D01*
X0043700Y0127531D01*
X0043700Y0130446D01*
X0044066Y0130597D01*
X0045191Y0131722D01*
X0045800Y0133193D01*
X0045800Y0134784D01*
X0045788Y0133165D02*
X0067812Y0133165D01*
X0068565Y0131566D02*
X0045035Y0131566D01*
X0043700Y0129968D02*
X0073134Y0129968D01*
X0074400Y0128369D02*
X0043700Y0128369D01*
X0044674Y0126771D02*
X0068926Y0126771D01*
X0067961Y0125172D02*
X0045639Y0125172D01*
X0045800Y0123574D02*
X0067800Y0123574D01*
X0068304Y0121975D02*
X0045296Y0121975D01*
X0043533Y0120377D02*
X0070067Y0120377D01*
X0069334Y0117180D02*
X0044266Y0117180D01*
X0044066Y0117379D02*
X0042596Y0117988D01*
X0041004Y0117988D01*
X0039534Y0117379D01*
X0038409Y0116254D01*
X0037800Y0114784D01*
X0037800Y0113193D01*
X0038409Y0111722D01*
X0039534Y0110597D01*
X0041004Y0109988D01*
X0042596Y0109988D01*
X0044066Y0110597D01*
X0045191Y0111722D01*
X0045800Y0113193D01*
X0045800Y0114784D01*
X0045191Y0116254D01*
X0044066Y0117379D01*
X0045470Y0115581D02*
X0068130Y0115581D01*
X0067800Y0113982D02*
X0045800Y0113982D01*
X0045465Y0112384D02*
X0068135Y0112384D01*
X0069346Y0110785D02*
X0044254Y0110785D01*
X0043489Y0108066D02*
X0044106Y0107751D01*
X0044666Y0107344D01*
X0045156Y0106855D01*
X0045563Y0106294D01*
X0045878Y0105677D01*
X0046092Y0105019D01*
X0046200Y0104334D01*
X0046200Y0103988D01*
X0041800Y0103988D01*
X0041800Y0099588D01*
X0042146Y0099588D01*
X0042830Y0099697D01*
X0043489Y0099911D01*
X0044106Y0100225D01*
X0044666Y0100632D01*
X0045156Y0101122D01*
X0045563Y0101682D01*
X0045878Y0102299D01*
X0046092Y0102958D01*
X0046200Y0103642D01*
X0046200Y0103988D01*
X0041800Y0103988D01*
X0041800Y0103988D01*
X0041800Y0099588D01*
X0041454Y0099588D01*
X0040770Y0099697D01*
X0040111Y0099911D01*
X0039494Y0100225D01*
X0038934Y0100632D01*
X0038444Y0101122D01*
X0038037Y0101682D01*
X0037722Y0102299D01*
X0037508Y0102958D01*
X0037400Y0103642D01*
X0037400Y0103988D01*
X0041800Y0103988D01*
X0041800Y0103988D01*
X0041800Y0103988D01*
X0037400Y0103988D01*
X0037400Y0104334D01*
X0037508Y0105019D01*
X0037722Y0105677D01*
X0038037Y0106294D01*
X0038444Y0106855D01*
X0038934Y0107344D01*
X0039494Y0107751D01*
X0040111Y0108066D01*
X0040770Y0108280D01*
X0041454Y0108388D01*
X0041800Y0108388D01*
X0042146Y0108388D01*
X0042830Y0108280D01*
X0043489Y0108066D01*
X0044330Y0107588D02*
X0069270Y0107588D01*
X0069494Y0107751D02*
X0068934Y0107344D01*
X0068444Y0106855D01*
X0068037Y0106294D01*
X0067722Y0105677D01*
X0067508Y0105019D01*
X0067400Y0104334D01*
X0067400Y0103988D01*
X0067400Y0103642D01*
X0067508Y0102958D01*
X0067722Y0102299D01*
X0068037Y0101682D01*
X0068444Y0101122D01*
X0068934Y0100632D01*
X0069494Y0100225D01*
X0070111Y0099911D01*
X0070770Y0099697D01*
X0071454Y0099588D01*
X0071800Y0099588D01*
X0072146Y0099588D01*
X0072830Y0099697D01*
X0073489Y0099911D01*
X0074106Y0100225D01*
X0074666Y0100632D01*
X0075156Y0101122D01*
X0075563Y0101682D01*
X0075878Y0102299D01*
X0076092Y0102958D01*
X0076200Y0103642D01*
X0076200Y0103988D01*
X0071800Y0103988D01*
X0071800Y0099588D01*
X0071800Y0103988D01*
X0071800Y0103988D01*
X0071800Y0103988D01*
X0067400Y0103988D01*
X0071800Y0103988D01*
X0071800Y0103988D01*
X0076200Y0103988D01*
X0076200Y0104334D01*
X0076092Y0105019D01*
X0075878Y0105677D01*
X0075563Y0106294D01*
X0075156Y0106855D01*
X0074666Y0107344D01*
X0074106Y0107751D01*
X0073489Y0108066D01*
X0072830Y0108280D01*
X0072146Y0108388D01*
X0071800Y0108388D01*
X0071800Y0103988D01*
X0071800Y0108388D01*
X0071454Y0108388D01*
X0070770Y0108280D01*
X0070111Y0108066D01*
X0069494Y0107751D01*
X0071800Y0107588D02*
X0071800Y0107588D01*
X0071800Y0105990D02*
X0071800Y0105990D01*
X0071800Y0104391D02*
X0071800Y0104391D01*
X0071800Y0103988D02*
X0071800Y0103988D01*
X0071800Y0102793D02*
X0071800Y0102793D01*
X0071800Y0101194D02*
X0071800Y0101194D01*
X0071800Y0099596D02*
X0071800Y0099596D01*
X0072195Y0099596D02*
X0105005Y0099596D01*
X0103407Y0101194D02*
X0075209Y0101194D01*
X0076038Y0102793D02*
X0101808Y0102793D01*
X0106604Y0097997D02*
X0043623Y0097997D01*
X0043489Y0098066D02*
X0042830Y0098280D01*
X0042146Y0098388D01*
X0041800Y0098388D01*
X0041800Y0093988D01*
X0041800Y0089588D01*
X0042146Y0089588D01*
X0042830Y0089697D01*
X0043489Y0089911D01*
X0044106Y0090225D01*
X0044666Y0090632D01*
X0045156Y0091122D01*
X0045563Y0091682D01*
X0045878Y0092299D01*
X0046092Y0092958D01*
X0046200Y0093642D01*
X0046200Y0093988D01*
X0041800Y0093988D01*
X0041800Y0093988D01*
X0041800Y0089588D01*
X0041454Y0089588D01*
X0040770Y0089697D01*
X0040111Y0089911D01*
X0039494Y0090225D01*
X0038934Y0090632D01*
X0038444Y0091122D01*
X0038037Y0091682D01*
X0037722Y0092299D01*
X0037508Y0092958D01*
X0037400Y0093642D01*
X0037400Y0093988D01*
X0041800Y0093988D01*
X0041800Y0093988D01*
X0041800Y0093988D01*
X0046200Y0093988D01*
X0046200Y0094334D01*
X0046092Y0095019D01*
X0045878Y0095677D01*
X0045563Y0096294D01*
X0045156Y0096855D01*
X0044666Y0097344D01*
X0044106Y0097751D01*
X0043489Y0098066D01*
X0041800Y0097997D02*
X0041800Y0097997D01*
X0041800Y0098388D02*
X0041454Y0098388D01*
X0040770Y0098280D01*
X0040111Y0098066D01*
X0039494Y0097751D01*
X0038934Y0097344D01*
X0038444Y0096855D01*
X0038037Y0096294D01*
X0037722Y0095677D01*
X0037508Y0095019D01*
X0037400Y0094334D01*
X0037400Y0093988D01*
X0041800Y0093988D01*
X0041800Y0098388D01*
X0041800Y0099596D02*
X0041800Y0099596D01*
X0042195Y0099596D02*
X0071405Y0099596D01*
X0068391Y0101194D02*
X0045209Y0101194D01*
X0046038Y0102793D02*
X0067562Y0102793D01*
X0067409Y0104391D02*
X0046191Y0104391D01*
X0045718Y0105990D02*
X0067882Y0105990D01*
X0074330Y0107588D02*
X0082513Y0107588D01*
X0084111Y0105990D02*
X0075718Y0105990D01*
X0076191Y0104391D02*
X0085710Y0104391D01*
X0084646Y0097888D02*
X0084300Y0097888D01*
X0084300Y0093488D01*
X0084300Y0089088D01*
X0084646Y0089088D01*
X0085330Y0089197D01*
X0085989Y0089411D01*
X0086606Y0089725D01*
X0087166Y0090132D01*
X0087656Y0090622D01*
X0088063Y0091182D01*
X0088378Y0091799D01*
X0088592Y0092458D01*
X0088700Y0093142D01*
X0088700Y0093488D01*
X0084300Y0093488D01*
X0084300Y0093488D01*
X0084300Y0089088D01*
X0083954Y0089088D01*
X0083270Y0089197D01*
X0082611Y0089411D01*
X0081994Y0089725D01*
X0081434Y0090132D01*
X0080944Y0090622D01*
X0080537Y0091182D01*
X0080222Y0091799D01*
X0080008Y0092458D01*
X0079900Y0093142D01*
X0079900Y0093488D01*
X0084300Y0093488D01*
X0084300Y0093488D01*
X0084300Y0093488D01*
X0088700Y0093488D01*
X0088700Y0093834D01*
X0088592Y0094519D01*
X0088378Y0095177D01*
X0088063Y0095794D01*
X0087656Y0096355D01*
X0087166Y0096844D01*
X0086606Y0097251D01*
X0085989Y0097566D01*
X0085330Y0097780D01*
X0084646Y0097888D01*
X0084300Y0097888D02*
X0083954Y0097888D01*
X0083270Y0097780D01*
X0082611Y0097566D01*
X0081994Y0097251D01*
X0081434Y0096844D01*
X0080944Y0096355D01*
X0080537Y0095794D01*
X0080222Y0095177D01*
X0080008Y0094519D01*
X0079900Y0093834D01*
X0079900Y0093488D01*
X0084300Y0093488D01*
X0084300Y0097888D01*
X0084300Y0096399D02*
X0084300Y0096399D01*
X0084300Y0094800D02*
X0084300Y0094800D01*
X0084300Y0093488D02*
X0084300Y0093488D01*
X0084300Y0093202D02*
X0084300Y0093202D01*
X0084300Y0091603D02*
X0084300Y0091603D01*
X0084300Y0090005D02*
X0084300Y0090005D01*
X0086991Y0090005D02*
X0092257Y0090005D01*
X0092034Y0090097D02*
X0093504Y0089488D01*
X0095096Y0089488D01*
X0096566Y0090097D01*
X0097691Y0091222D01*
X0098300Y0092693D01*
X0098300Y0094284D01*
X0097691Y0095754D01*
X0096566Y0096879D01*
X0095096Y0097488D01*
X0093504Y0097488D01*
X0092034Y0096879D01*
X0090909Y0095754D01*
X0090300Y0094284D01*
X0090300Y0092693D01*
X0090909Y0091222D01*
X0092034Y0090097D01*
X0090751Y0091603D02*
X0088278Y0091603D01*
X0088700Y0093202D02*
X0090300Y0093202D01*
X0090514Y0094800D02*
X0088500Y0094800D01*
X0087612Y0096399D02*
X0091554Y0096399D01*
X0097046Y0096399D02*
X0108202Y0096399D01*
X0109801Y0094800D02*
X0098086Y0094800D01*
X0098300Y0093202D02*
X0110900Y0093202D01*
X0110900Y0091603D02*
X0097849Y0091603D01*
X0096343Y0090005D02*
X0110900Y0090005D01*
X0110900Y0088406D02*
X0073700Y0088406D01*
X0073700Y0086808D02*
X0110900Y0086808D01*
X0110900Y0085209D02*
X0073700Y0085209D01*
X0073700Y0083611D02*
X0110900Y0083611D01*
X0110900Y0082012D02*
X0073700Y0082012D01*
X0073700Y0080414D02*
X0093787Y0080414D01*
X0094129Y0080663D02*
X0093359Y0080103D01*
X0092685Y0079429D01*
X0092126Y0078659D01*
X0091693Y0077811D01*
X0091399Y0076905D01*
X0091250Y0075964D01*
X0091250Y0075488D01*
X0091250Y0075012D01*
X0091399Y0074071D01*
X0091693Y0073166D01*
X0092126Y0072317D01*
X0092685Y0071547D01*
X0093359Y0070873D01*
X0094129Y0070314D01*
X0094978Y0069881D01*
X0095883Y0069587D01*
X0096824Y0069438D01*
X0097300Y0069438D01*
X0097776Y0069438D01*
X0098717Y0069587D01*
X0099622Y0069881D01*
X0100471Y0070314D01*
X0101241Y0070873D01*
X0101915Y0071547D01*
X0102474Y0072317D01*
X0102907Y0073166D01*
X0103201Y0074071D01*
X0103350Y0075012D01*
X0103350Y0075488D01*
X0097300Y0075488D01*
X0097300Y0069438D01*
X0097300Y0075488D01*
X0097300Y0075488D01*
X0097300Y0075488D01*
X0091250Y0075488D01*
X0097300Y0075488D01*
X0097300Y0075488D01*
X0103350Y0075488D01*
X0103350Y0075964D01*
X0103201Y0076905D01*
X0102907Y0077811D01*
X0102474Y0078659D01*
X0101915Y0079429D01*
X0101241Y0080103D01*
X0100471Y0080663D01*
X0099622Y0081095D01*
X0098717Y0081389D01*
X0097776Y0081538D01*
X0097300Y0081538D01*
X0097300Y0075488D01*
X0097300Y0081538D01*
X0096824Y0081538D01*
X0095883Y0081389D01*
X0094978Y0081095D01*
X0094129Y0080663D01*
X0092239Y0078815D02*
X0073700Y0078815D01*
X0073700Y0077217D02*
X0091500Y0077217D01*
X0091250Y0075618D02*
X0073833Y0075618D01*
X0075432Y0074020D02*
X0091416Y0074020D01*
X0092073Y0072421D02*
X0077030Y0072421D01*
X0078629Y0070823D02*
X0093429Y0070823D01*
X0097300Y0070823D02*
X0097300Y0070823D01*
X0097300Y0072421D02*
X0097300Y0072421D01*
X0097300Y0074020D02*
X0097300Y0074020D01*
X0097300Y0075488D02*
X0097300Y0075488D01*
X0097300Y0075618D02*
X0097300Y0075618D01*
X0097300Y0077217D02*
X0097300Y0077217D01*
X0097300Y0078815D02*
X0097300Y0078815D01*
X0097300Y0080414D02*
X0097300Y0080414D01*
X0100813Y0080414D02*
X0110900Y0080414D01*
X0110900Y0078815D02*
X0102361Y0078815D01*
X0103100Y0077217D02*
X0110900Y0077217D01*
X0110900Y0075618D02*
X0103350Y0075618D01*
X0103184Y0074020D02*
X0110900Y0074020D01*
X0110900Y0072421D02*
X0102527Y0072421D01*
X0101171Y0070823D02*
X0110900Y0070823D01*
X0111377Y0069224D02*
X0080227Y0069224D01*
X0081826Y0067626D02*
X0112976Y0067626D01*
X0114574Y0066027D02*
X0083424Y0066027D01*
X0081247Y0062830D02*
X0042503Y0062830D01*
X0043165Y0061232D02*
X0096625Y0061232D01*
X0098224Y0059633D02*
X0043186Y0059633D01*
X0043186Y0058035D02*
X0099101Y0058035D01*
X0099101Y0056436D02*
X0043186Y0056436D01*
X0043186Y0054838D02*
X0048972Y0054838D01*
X0047146Y0053239D02*
X0045407Y0053239D01*
X0053276Y0054838D02*
X0054876Y0054838D01*
X0059181Y0054838D02*
X0065582Y0054838D01*
X0062736Y0053239D02*
X0060998Y0053239D01*
X0073752Y0054838D02*
X0081173Y0054838D01*
X0089342Y0054838D02*
X0096763Y0054838D01*
X0093917Y0053239D02*
X0092179Y0053239D01*
X0102901Y0056436D02*
X0130400Y0056436D01*
X0129067Y0058035D02*
X0102901Y0058035D01*
X0102901Y0059633D02*
X0127468Y0059633D01*
X0125870Y0061232D02*
X0101999Y0061232D01*
X0100401Y0062830D02*
X0124271Y0062830D01*
X0129251Y0069224D02*
X0136877Y0069224D01*
X0135329Y0070823D02*
X0127652Y0070823D01*
X0130850Y0067626D02*
X0138476Y0067626D01*
X0134047Y0064429D02*
X0186673Y0064429D01*
X0188271Y0062830D02*
X0159145Y0062830D01*
X0160744Y0061232D02*
X0189870Y0061232D01*
X0191468Y0059633D02*
X0162342Y0059633D01*
X0163941Y0058035D02*
X0192600Y0058035D01*
X0192588Y0056436D02*
X0164700Y0056436D01*
X0167295Y0054838D02*
X0174716Y0054838D01*
X0171870Y0053239D02*
X0170131Y0053239D01*
X0182886Y0054838D02*
X0190306Y0054838D01*
X0187461Y0053239D02*
X0185722Y0053239D01*
X0199645Y0062830D02*
X0231771Y0062830D01*
X0233370Y0061232D02*
X0201244Y0061232D01*
X0198047Y0064429D02*
X0230173Y0064429D01*
X0228574Y0066027D02*
X0204559Y0066027D01*
X0201041Y0066027D02*
X0196448Y0066027D01*
X0194850Y0067626D02*
X0199927Y0067626D01*
X0199875Y0069224D02*
X0193251Y0069224D01*
X0191652Y0070823D02*
X0198260Y0070823D01*
X0197816Y0072421D02*
X0190054Y0072421D01*
X0196816Y0077217D02*
X0141196Y0077217D01*
X0139544Y0078815D02*
X0197120Y0078815D01*
X0199065Y0080414D02*
X0137892Y0080414D01*
X0136241Y0082012D02*
X0377154Y0082012D01*
X0377154Y0080414D02*
X0200535Y0080414D01*
X0203160Y0078815D02*
X0204407Y0078815D01*
X0209193Y0078815D02*
X0377154Y0078815D01*
X0377154Y0077217D02*
X0209784Y0077217D01*
X0210382Y0083611D02*
X0215218Y0083611D01*
X0217300Y0083611D02*
X0217300Y0083611D01*
X0217300Y0085209D02*
X0217300Y0085209D01*
X0217300Y0086808D02*
X0217300Y0086808D01*
X0219382Y0083611D02*
X0246208Y0083611D01*
X0248392Y0083611D02*
X0265463Y0083611D01*
X0265434Y0083632D02*
X0265994Y0083225D01*
X0266611Y0082911D01*
X0267270Y0082697D01*
X0267954Y0082588D01*
X0268300Y0082588D01*
X0268646Y0082588D01*
X0269330Y0082697D01*
X0269989Y0082911D01*
X0270606Y0083225D01*
X0271166Y0083632D01*
X0271656Y0084122D01*
X0272063Y0084682D01*
X0272378Y0085299D01*
X0272592Y0085958D01*
X0272700Y0086642D01*
X0272700Y0086988D01*
X0268300Y0086988D01*
X0268300Y0082588D01*
X0268300Y0086988D01*
X0268300Y0086988D01*
X0268300Y0086988D01*
X0263900Y0086988D01*
X0263900Y0086642D01*
X0264008Y0085958D01*
X0264222Y0085299D01*
X0264537Y0084682D01*
X0264944Y0084122D01*
X0265434Y0083632D01*
X0264268Y0085209D02*
X0250678Y0085209D01*
X0251300Y0086808D02*
X0263900Y0086808D01*
X0263900Y0086988D02*
X0268300Y0086988D01*
X0268300Y0086988D01*
X0272700Y0086988D01*
X0272700Y0087334D01*
X0272592Y0088019D01*
X0272378Y0088677D01*
X0272063Y0089294D01*
X0271656Y0089855D01*
X0271166Y0090344D01*
X0270606Y0090751D01*
X0269989Y0091066D01*
X0269330Y0091280D01*
X0268646Y0091388D01*
X0268300Y0091388D01*
X0268300Y0086988D01*
X0268300Y0091388D01*
X0267954Y0091388D01*
X0267270Y0091280D01*
X0266611Y0091066D01*
X0265994Y0090751D01*
X0265434Y0090344D01*
X0264944Y0089855D01*
X0264537Y0089294D01*
X0264222Y0088677D01*
X0264008Y0088019D01*
X0263900Y0087334D01*
X0263900Y0086988D01*
X0264134Y0088406D02*
X0251249Y0088406D01*
X0250440Y0090005D02*
X0265094Y0090005D01*
X0268300Y0090005D02*
X0268300Y0090005D01*
X0268300Y0088406D02*
X0268300Y0088406D01*
X0268300Y0086988D02*
X0268300Y0086988D01*
X0268300Y0086808D02*
X0268300Y0086808D01*
X0268300Y0085209D02*
X0268300Y0085209D01*
X0268300Y0083611D02*
X0268300Y0083611D01*
X0271137Y0083611D02*
X0274463Y0083611D01*
X0274434Y0083632D02*
X0274994Y0083225D01*
X0275611Y0082911D01*
X0276270Y0082697D01*
X0276954Y0082588D01*
X0277300Y0082588D01*
X0277646Y0082588D01*
X0278330Y0082697D01*
X0278989Y0082911D01*
X0279606Y0083225D01*
X0280166Y0083632D01*
X0280656Y0084122D01*
X0281063Y0084682D01*
X0281378Y0085299D01*
X0281592Y0085958D01*
X0281700Y0086642D01*
X0281700Y0086988D01*
X0277300Y0086988D01*
X0277300Y0082588D01*
X0277300Y0086988D01*
X0277300Y0086988D01*
X0277300Y0086988D01*
X0272900Y0086988D01*
X0272900Y0086642D01*
X0273008Y0085958D01*
X0273222Y0085299D01*
X0273537Y0084682D01*
X0273944Y0084122D01*
X0274434Y0083632D01*
X0273268Y0085209D02*
X0272332Y0085209D01*
X0272700Y0086808D02*
X0272900Y0086808D01*
X0272900Y0086988D02*
X0277300Y0086988D01*
X0277300Y0086988D01*
X0281700Y0086988D01*
X0281700Y0087334D01*
X0281592Y0088019D01*
X0281378Y0088677D01*
X0281063Y0089294D01*
X0280656Y0089855D01*
X0280166Y0090344D01*
X0279606Y0090751D01*
X0278989Y0091066D01*
X0278330Y0091280D01*
X0277646Y0091388D01*
X0277300Y0091388D01*
X0277300Y0086988D01*
X0277300Y0091388D01*
X0276954Y0091388D01*
X0276270Y0091280D01*
X0275611Y0091066D01*
X0274994Y0090751D01*
X0274434Y0090344D01*
X0273944Y0089855D01*
X0273537Y0089294D01*
X0273222Y0088677D01*
X0273008Y0088019D01*
X0272900Y0087334D01*
X0272900Y0086988D01*
X0273134Y0088406D02*
X0272466Y0088406D01*
X0271506Y0090005D02*
X0274094Y0090005D01*
X0277300Y0090005D02*
X0277300Y0090005D01*
X0277300Y0088406D02*
X0277300Y0088406D01*
X0277300Y0086988D02*
X0277300Y0086988D01*
X0277300Y0086808D02*
X0277300Y0086808D01*
X0277300Y0085209D02*
X0277300Y0085209D01*
X0277300Y0083611D02*
X0277300Y0083611D01*
X0280137Y0083611D02*
X0305021Y0083611D01*
X0303707Y0085209D02*
X0281332Y0085209D01*
X0281700Y0086808D02*
X0303300Y0086808D01*
X0303558Y0088406D02*
X0281466Y0088406D01*
X0280506Y0090005D02*
X0304660Y0090005D01*
X0305989Y0093202D02*
X0278611Y0093202D01*
X0275989Y0093202D02*
X0269611Y0093202D01*
X0266989Y0093202D02*
X0230773Y0093202D01*
X0232372Y0091603D02*
X0318228Y0091603D01*
X0316630Y0090005D02*
X0309940Y0090005D01*
X0308611Y0093202D02*
X0319827Y0093202D01*
X0319877Y0094800D02*
X0310723Y0094800D01*
X0311300Y0096399D02*
X0319300Y0096399D01*
X0319388Y0097997D02*
X0311212Y0097997D01*
X0310349Y0099596D02*
X0320251Y0099596D01*
X0315016Y0104391D02*
X0310360Y0104391D01*
X0311216Y0105990D02*
X0316615Y0105990D01*
X0318213Y0107588D02*
X0311300Y0107588D01*
X0310719Y0109187D02*
X0319812Y0109187D01*
X0321410Y0110785D02*
X0308585Y0110785D01*
X0306015Y0110785D02*
X0303784Y0110785D01*
X0303881Y0109187D02*
X0280719Y0109187D01*
X0281300Y0107588D02*
X0303300Y0107588D01*
X0303384Y0105990D02*
X0281216Y0105990D01*
X0280360Y0104391D02*
X0304240Y0104391D01*
X0304251Y0099596D02*
X0280349Y0099596D01*
X0281212Y0097997D02*
X0303388Y0097997D01*
X0303300Y0096399D02*
X0281300Y0096399D01*
X0280723Y0094800D02*
X0303877Y0094800D01*
X0317208Y0085209D02*
X0319268Y0085209D01*
X0318900Y0086808D02*
X0318807Y0086808D01*
X0320463Y0083611D02*
X0309579Y0083611D01*
X0323300Y0083611D02*
X0323300Y0083611D01*
X0323300Y0085209D02*
X0323300Y0085209D01*
X0323300Y0086808D02*
X0323300Y0086808D01*
X0326506Y0090005D02*
X0329094Y0090005D01*
X0323009Y0112384D02*
X0305383Y0112384D01*
X0335888Y0118778D02*
X0342403Y0118778D01*
X0377154Y0075618D02*
X0268390Y0075618D01*
X0264210Y0075618D02*
X0233357Y0075618D01*
X0234955Y0074020D02*
X0258704Y0074020D01*
X0258316Y0072421D02*
X0256087Y0072421D01*
X0256784Y0070823D02*
X0257345Y0070823D01*
X0251513Y0072421D02*
X0236554Y0072421D01*
X0238152Y0070823D02*
X0250816Y0070823D01*
X0251093Y0069224D02*
X0239751Y0069224D01*
X0241350Y0067626D02*
X0251900Y0067626D01*
X0252074Y0066027D02*
X0242948Y0066027D01*
X0244547Y0064429D02*
X0253673Y0064429D01*
X0238165Y0056436D02*
X0228539Y0056436D01*
X0229700Y0054838D02*
X0237078Y0054838D01*
X0236567Y0058035D02*
X0226941Y0058035D01*
X0225342Y0059633D02*
X0234968Y0059633D01*
X0234232Y0053239D02*
X0232494Y0053239D01*
X0198204Y0074020D02*
X0144455Y0074020D01*
X0142857Y0075618D02*
X0197450Y0075618D01*
X0206218Y0083611D02*
X0187892Y0083611D01*
X0185708Y0083611D02*
X0158882Y0083611D01*
X0159106Y0083725D02*
X0159666Y0084132D01*
X0160156Y0084622D01*
X0160563Y0085182D01*
X0160878Y0085799D01*
X0161092Y0086458D01*
X0161200Y0087142D01*
X0161200Y0087488D01*
X0156800Y0087488D01*
X0156800Y0083088D01*
X0157146Y0083088D01*
X0157830Y0083197D01*
X0158489Y0083411D01*
X0159106Y0083725D01*
X0160577Y0085209D02*
X0183422Y0085209D01*
X0182800Y0086808D02*
X0161147Y0086808D01*
X0161200Y0087488D02*
X0161200Y0087834D01*
X0161092Y0088519D01*
X0160878Y0089177D01*
X0160563Y0089794D01*
X0160156Y0090355D01*
X0159666Y0090844D01*
X0159106Y0091251D01*
X0158489Y0091566D01*
X0157830Y0091780D01*
X0157146Y0091888D01*
X0156800Y0091888D01*
X0156800Y0087488D01*
X0156800Y0087488D01*
X0156800Y0083088D01*
X0156454Y0083088D01*
X0155770Y0083197D01*
X0155111Y0083411D01*
X0154494Y0083725D01*
X0153934Y0084132D01*
X0153444Y0084622D01*
X0153037Y0085182D01*
X0152722Y0085799D01*
X0152508Y0086458D01*
X0152400Y0087142D01*
X0152400Y0087488D01*
X0156800Y0087488D01*
X0156800Y0087488D01*
X0156800Y0087488D01*
X0161200Y0087488D01*
X0161109Y0088406D02*
X0182851Y0088406D01*
X0181596Y0090005D02*
X0160410Y0090005D01*
X0158374Y0091603D02*
X0179998Y0091603D01*
X0178399Y0093202D02*
X0128200Y0093202D01*
X0128200Y0094800D02*
X0143831Y0094800D01*
X0142629Y0096399D02*
X0128200Y0096399D01*
X0128200Y0097997D02*
X0142300Y0097997D01*
X0142636Y0099596D02*
X0128203Y0099596D01*
X0127299Y0101194D02*
X0143849Y0101194D01*
X0149964Y0099596D02*
X0153343Y0099596D01*
X0152800Y0097997D02*
X0150300Y0097997D01*
X0149971Y0096399D02*
X0152922Y0096399D01*
X0153831Y0094800D02*
X0148769Y0094800D01*
X0147989Y0092066D02*
X0147330Y0092280D01*
X0146646Y0092388D01*
X0146300Y0092388D01*
X0146300Y0087988D01*
X0146300Y0083588D01*
X0146646Y0083588D01*
X0147330Y0083697D01*
X0147989Y0083911D01*
X0148606Y0084225D01*
X0149166Y0084632D01*
X0149656Y0085122D01*
X0150063Y0085682D01*
X0150378Y0086299D01*
X0150592Y0086958D01*
X0150700Y0087642D01*
X0150700Y0087988D01*
X0146300Y0087988D01*
X0146300Y0087988D01*
X0146300Y0083588D01*
X0145954Y0083588D01*
X0145270Y0083697D01*
X0144611Y0083911D01*
X0143994Y0084225D01*
X0143434Y0084632D01*
X0142944Y0085122D01*
X0142537Y0085682D01*
X0142222Y0086299D01*
X0142008Y0086958D01*
X0141900Y0087642D01*
X0141900Y0087988D01*
X0146300Y0087988D01*
X0146300Y0087988D01*
X0146300Y0087988D01*
X0141900Y0087988D01*
X0141900Y0088334D01*
X0142008Y0089019D01*
X0142222Y0089677D01*
X0142537Y0090294D01*
X0142944Y0090855D01*
X0143434Y0091344D01*
X0143994Y0091751D01*
X0144611Y0092066D01*
X0145270Y0092280D01*
X0145954Y0092388D01*
X0146300Y0092388D01*
X0146300Y0087988D01*
X0150700Y0087988D01*
X0150700Y0088334D01*
X0150592Y0089019D01*
X0150378Y0089677D01*
X0150063Y0090294D01*
X0149656Y0090855D01*
X0149166Y0091344D01*
X0148606Y0091751D01*
X0147989Y0092066D01*
X0148810Y0091603D02*
X0155226Y0091603D01*
X0155111Y0091566D02*
X0154494Y0091251D01*
X0153934Y0090844D01*
X0153444Y0090355D01*
X0153037Y0089794D01*
X0152722Y0089177D01*
X0152508Y0088519D01*
X0152400Y0087834D01*
X0152400Y0087488D01*
X0156800Y0087488D01*
X0156800Y0091888D01*
X0156454Y0091888D01*
X0155770Y0091780D01*
X0155111Y0091566D01*
X0156800Y0091603D02*
X0156800Y0091603D01*
X0156800Y0090005D02*
X0156800Y0090005D01*
X0156800Y0088406D02*
X0156800Y0088406D01*
X0156800Y0087488D02*
X0156800Y0087488D01*
X0156800Y0086808D02*
X0156800Y0086808D01*
X0156800Y0085209D02*
X0156800Y0085209D01*
X0156800Y0083611D02*
X0156800Y0083611D01*
X0154718Y0083611D02*
X0146789Y0083611D01*
X0146300Y0083611D02*
X0146300Y0083611D01*
X0145811Y0083611D02*
X0134589Y0083611D01*
X0132937Y0085209D02*
X0142880Y0085209D01*
X0142057Y0086808D02*
X0131285Y0086808D01*
X0129633Y0088406D02*
X0141911Y0088406D01*
X0142389Y0090005D02*
X0128200Y0090005D01*
X0128200Y0091603D02*
X0143790Y0091603D01*
X0146300Y0091603D02*
X0146300Y0091603D01*
X0146300Y0090005D02*
X0146300Y0090005D01*
X0146300Y0088406D02*
X0146300Y0088406D01*
X0146300Y0087988D02*
X0146300Y0087988D01*
X0146300Y0086808D02*
X0146300Y0086808D01*
X0146300Y0085209D02*
X0146300Y0085209D01*
X0149720Y0085209D02*
X0153023Y0085209D01*
X0152453Y0086808D02*
X0150543Y0086808D01*
X0150689Y0088406D02*
X0152491Y0088406D01*
X0153190Y0090005D02*
X0150211Y0090005D01*
X0159769Y0094800D02*
X0176801Y0094800D01*
X0175202Y0096399D02*
X0160678Y0096399D01*
X0160800Y0097997D02*
X0173604Y0097997D01*
X0172005Y0099596D02*
X0160257Y0099596D01*
X0159160Y0110785D02*
X0175910Y0110785D01*
X0177509Y0112384D02*
X0147700Y0112384D01*
X0158789Y0113982D02*
X0178400Y0113982D01*
X0178400Y0115581D02*
X0160340Y0115581D01*
X0160800Y0117180D02*
X0178400Y0117180D01*
X0178400Y0118778D02*
X0160595Y0118778D01*
X0159568Y0120377D02*
X0178400Y0120377D01*
X0183459Y0125172D02*
X0160141Y0125172D01*
X0160800Y0126771D02*
X0182800Y0126771D01*
X0182835Y0128369D02*
X0160765Y0128369D01*
X0159977Y0129968D02*
X0183623Y0129968D01*
X0183868Y0134763D02*
X0159732Y0134763D01*
X0153868Y0134763D02*
X0147700Y0134763D01*
X0147700Y0133165D02*
X0210289Y0133165D01*
X0218895Y0141157D02*
X0227782Y0141157D01*
X0226183Y0139559D02*
X0220772Y0139559D01*
X0184277Y0144354D02*
X0174853Y0144354D01*
X0176452Y0145953D02*
X0183106Y0145953D01*
X0182800Y0147551D02*
X0178050Y0147551D01*
X0179649Y0149150D02*
X0183159Y0149150D01*
X0169479Y0144354D02*
X0159323Y0144354D01*
X0155205Y0141157D02*
X0147700Y0141157D01*
X0147700Y0139559D02*
X0153328Y0139559D01*
X0152800Y0137960D02*
X0147700Y0137960D01*
X0147700Y0136362D02*
X0152937Y0136362D01*
X0143900Y0136362D02*
X0126649Y0136362D01*
X0127534Y0134763D02*
X0143900Y0134763D01*
X0143900Y0133165D02*
X0127700Y0133165D01*
X0127266Y0131566D02*
X0143900Y0131566D01*
X0143900Y0129968D02*
X0126002Y0129968D01*
X0121515Y0137960D02*
X0143900Y0137960D01*
X0143900Y0139559D02*
X0119916Y0139559D01*
X0118318Y0141157D02*
X0143900Y0141157D01*
X0143900Y0142756D02*
X0116719Y0142756D01*
X0115121Y0144354D02*
X0143900Y0144354D01*
X0143900Y0145953D02*
X0075316Y0145953D01*
X0073651Y0147551D02*
X0083896Y0147551D01*
X0083826Y0147622D02*
X0084315Y0147132D01*
X0084876Y0146725D01*
X0085493Y0146411D01*
X0086152Y0146197D01*
X0086836Y0146088D01*
X0087182Y0146088D01*
X0087528Y0146088D01*
X0088212Y0146197D01*
X0088871Y0146411D01*
X0089488Y0146725D01*
X0090048Y0147132D01*
X0090538Y0147622D01*
X0090945Y0148182D01*
X0091260Y0148799D01*
X0091474Y0149458D01*
X0091582Y0150142D01*
X0091582Y0150488D01*
X0087182Y0150488D01*
X0087182Y0146088D01*
X0087182Y0150488D01*
X0087182Y0150488D01*
X0087182Y0150488D01*
X0091582Y0150488D01*
X0091582Y0150834D01*
X0091474Y0151519D01*
X0091260Y0152177D01*
X0090945Y0152794D01*
X0090538Y0153355D01*
X0090048Y0153844D01*
X0089488Y0154251D01*
X0088871Y0154566D01*
X0088212Y0154780D01*
X0087528Y0154888D01*
X0087182Y0154888D01*
X0087182Y0150488D01*
X0082782Y0150488D01*
X0082782Y0150142D01*
X0082890Y0149458D01*
X0083104Y0148799D01*
X0083419Y0148182D01*
X0083826Y0147622D01*
X0082990Y0149150D02*
X0054082Y0149150D01*
X0054082Y0150748D02*
X0069383Y0150748D01*
X0069534Y0150597D02*
X0071004Y0149988D01*
X0072596Y0149988D01*
X0074066Y0150597D01*
X0075191Y0151722D01*
X0075800Y0153193D01*
X0075800Y0154784D01*
X0075191Y0156254D01*
X0074066Y0157379D01*
X0072596Y0157988D01*
X0071004Y0157988D01*
X0069534Y0157379D01*
X0068409Y0156254D01*
X0067800Y0154784D01*
X0067800Y0153193D01*
X0068409Y0151722D01*
X0069534Y0150597D01*
X0068150Y0152347D02*
X0054082Y0152347D01*
X0054082Y0153945D02*
X0067800Y0153945D01*
X0068115Y0155544D02*
X0054082Y0155544D01*
X0054082Y0157142D02*
X0069297Y0157142D01*
X0074303Y0157142D02*
X0083774Y0157142D01*
X0083826Y0157071D02*
X0084315Y0156581D01*
X0084876Y0156174D01*
X0085493Y0155859D01*
X0086152Y0155645D01*
X0086836Y0155537D01*
X0087182Y0155537D01*
X0087528Y0155537D01*
X0088212Y0155645D01*
X0088871Y0155859D01*
X0089488Y0156174D01*
X0090048Y0156581D01*
X0090538Y0157071D01*
X0090945Y0157631D01*
X0091260Y0158248D01*
X0091474Y0158907D01*
X0091582Y0159591D01*
X0091582Y0159937D01*
X0091582Y0160283D01*
X0091474Y0160967D01*
X0091260Y0161626D01*
X0090945Y0162243D01*
X0090538Y0162803D01*
X0090048Y0163293D01*
X0089488Y0163700D01*
X0088871Y0164015D01*
X0088212Y0164229D01*
X0087528Y0164337D01*
X0087182Y0164337D01*
X0087182Y0159937D01*
X0091582Y0159937D01*
X0087182Y0159937D01*
X0087182Y0159937D01*
X0087182Y0155537D01*
X0087182Y0159937D01*
X0087182Y0159937D01*
X0087182Y0159937D01*
X0087182Y0164337D01*
X0086836Y0164337D01*
X0086152Y0164229D01*
X0085493Y0164015D01*
X0084876Y0163700D01*
X0084315Y0163293D01*
X0083826Y0162803D01*
X0083419Y0162243D01*
X0083104Y0161626D01*
X0082890Y0160967D01*
X0082782Y0160283D01*
X0082782Y0159937D01*
X0082782Y0159591D01*
X0082890Y0158907D01*
X0083104Y0158248D01*
X0083419Y0157631D01*
X0083826Y0157071D01*
X0082944Y0158741D02*
X0054082Y0158741D01*
X0054082Y0160339D02*
X0082791Y0160339D01*
X0082782Y0159937D02*
X0087182Y0159937D01*
X0082782Y0159937D01*
X0083263Y0161938D02*
X0055437Y0161938D01*
X0057035Y0163536D02*
X0084650Y0163536D01*
X0087182Y0163536D02*
X0087182Y0163536D01*
X0087182Y0161938D02*
X0087182Y0161938D01*
X0087182Y0160339D02*
X0087182Y0160339D01*
X0087182Y0159937D02*
X0087182Y0159937D01*
X0087182Y0158741D02*
X0087182Y0158741D01*
X0087182Y0157142D02*
X0087182Y0157142D01*
X0087182Y0155544D02*
X0087182Y0155544D01*
X0087571Y0155544D02*
X0137557Y0155544D01*
X0135959Y0157142D02*
X0120044Y0157142D01*
X0120573Y0157671D02*
X0121182Y0159141D01*
X0121182Y0160733D01*
X0120573Y0162203D01*
X0119448Y0163328D01*
X0117978Y0163937D01*
X0116386Y0163937D01*
X0114916Y0163328D01*
X0113791Y0162203D01*
X0113182Y0160733D01*
X0113182Y0159141D01*
X0113791Y0157671D01*
X0114916Y0156546D01*
X0116386Y0155937D01*
X0117978Y0155937D01*
X0119448Y0156546D01*
X0120573Y0157671D01*
X0121016Y0158741D02*
X0134360Y0158741D01*
X0132762Y0160339D02*
X0121182Y0160339D01*
X0120683Y0161938D02*
X0131163Y0161938D01*
X0129565Y0163536D02*
X0118945Y0163536D01*
X0115419Y0163536D02*
X0089714Y0163536D01*
X0091101Y0161938D02*
X0113681Y0161938D01*
X0113182Y0160339D02*
X0091573Y0160339D01*
X0091420Y0158741D02*
X0113348Y0158741D01*
X0114320Y0157142D02*
X0090590Y0157142D01*
X0089909Y0153945D02*
X0115076Y0153945D01*
X0114916Y0153879D02*
X0113791Y0152754D01*
X0113182Y0151284D01*
X0113182Y0149693D01*
X0113791Y0148222D01*
X0114916Y0147097D01*
X0116386Y0146488D01*
X0117978Y0146488D01*
X0119448Y0147097D01*
X0120573Y0148222D01*
X0121182Y0149693D01*
X0121182Y0151284D01*
X0120573Y0152754D01*
X0119448Y0153879D01*
X0117978Y0154488D01*
X0116386Y0154488D01*
X0114916Y0153879D01*
X0113622Y0152347D02*
X0091173Y0152347D01*
X0091582Y0150748D02*
X0113182Y0150748D01*
X0113407Y0149150D02*
X0091373Y0149150D01*
X0090467Y0147551D02*
X0114462Y0147551D01*
X0119902Y0147551D02*
X0143900Y0147551D01*
X0143900Y0149150D02*
X0120957Y0149150D01*
X0121182Y0150748D02*
X0142353Y0150748D01*
X0140754Y0152347D02*
X0120742Y0152347D01*
X0119288Y0153945D02*
X0139156Y0153945D01*
X0133340Y0165135D02*
X0377154Y0165135D01*
X0377154Y0166733D02*
X0131742Y0166733D01*
X0130143Y0168332D02*
X0377154Y0168332D01*
X0377154Y0169930D02*
X0129640Y0169930D01*
X0128464Y0171529D02*
X0377154Y0171529D01*
X0377154Y0173127D02*
X0066626Y0173127D01*
X0065028Y0171529D02*
X0125136Y0171529D01*
X0123960Y0169930D02*
X0063429Y0169930D01*
X0061831Y0168332D02*
X0123842Y0168332D01*
X0124834Y0166733D02*
X0060232Y0166733D01*
X0058634Y0165135D02*
X0127966Y0165135D01*
X0108587Y0184888D02*
X0104587Y0188888D01*
X0092120Y0188888D01*
X0091490Y0189518D01*
X0090394Y0189972D01*
X0089206Y0189972D01*
X0088110Y0189518D01*
X0087270Y0188679D01*
X0086816Y0187582D01*
X0086816Y0186395D01*
X0087270Y0185298D01*
X0088110Y0184458D01*
X0089206Y0184004D01*
X0090394Y0184004D01*
X0090816Y0184179D01*
X0090816Y0183395D01*
X0091270Y0182298D01*
X0092110Y0181458D01*
X0093206Y0181004D01*
X0094097Y0181004D01*
X0097400Y0177701D01*
X0099013Y0176088D01*
X0176087Y0176088D01*
X0177200Y0177201D01*
X0195131Y0195133D01*
X0195270Y0194798D01*
X0196110Y0193958D01*
X0197206Y0193504D01*
X0198394Y0193504D01*
X0199490Y0193958D01*
X0200330Y0194798D01*
X0200784Y0195895D01*
X0200784Y0196785D01*
X0207587Y0203588D01*
X0212243Y0203588D01*
X0211909Y0203254D01*
X0211300Y0201784D01*
X0211300Y0200193D01*
X0211909Y0198722D01*
X0213034Y0197597D01*
X0214504Y0196988D01*
X0216096Y0196988D01*
X0217566Y0197597D01*
X0218691Y0198722D01*
X0219300Y0200193D01*
X0219300Y0201784D01*
X0218691Y0203254D01*
X0218357Y0203588D01*
X0242243Y0203588D01*
X0241909Y0203254D01*
X0241300Y0201784D01*
X0241300Y0200193D01*
X0241909Y0198722D01*
X0243034Y0197597D01*
X0244504Y0196988D01*
X0246096Y0196988D01*
X0247566Y0197597D01*
X0248691Y0198722D01*
X0249300Y0200193D01*
X0249300Y0201784D01*
X0248691Y0203254D01*
X0248357Y0203588D01*
X0272243Y0203588D01*
X0271909Y0203254D01*
X0271300Y0201784D01*
X0271300Y0200193D01*
X0271909Y0198722D01*
X0273034Y0197597D01*
X0274504Y0196988D01*
X0276096Y0196988D01*
X0277566Y0197597D01*
X0278691Y0198722D01*
X0279300Y0200193D01*
X0279300Y0201784D01*
X0278691Y0203254D01*
X0278357Y0203588D01*
X0302243Y0203588D01*
X0301909Y0203254D01*
X0301300Y0201784D01*
X0301300Y0200193D01*
X0301909Y0198722D01*
X0303034Y0197597D01*
X0304504Y0196988D01*
X0306096Y0196988D01*
X0307566Y0197597D01*
X0308691Y0198722D01*
X0309300Y0200193D01*
X0309300Y0201784D01*
X0308691Y0203254D01*
X0308357Y0203588D01*
X0314087Y0203588D01*
X0315200Y0204701D01*
X0318087Y0207588D01*
X0329177Y0207588D01*
X0328944Y0207355D01*
X0328537Y0206794D01*
X0328222Y0206177D01*
X0328008Y0205519D01*
X0327900Y0204834D01*
X0327900Y0204488D01*
X0327900Y0204142D01*
X0328008Y0203458D01*
X0328222Y0202799D01*
X0328537Y0202182D01*
X0328944Y0201622D01*
X0329434Y0201132D01*
X0329994Y0200725D01*
X0330611Y0200411D01*
X0331270Y0200197D01*
X0331954Y0200088D01*
X0332300Y0200088D01*
X0332646Y0200088D01*
X0333330Y0200197D01*
X0333989Y0200411D01*
X0334606Y0200725D01*
X0335166Y0201132D01*
X0335656Y0201622D01*
X0336063Y0202182D01*
X0336378Y0202799D01*
X0336592Y0203458D01*
X0336700Y0204142D01*
X0336700Y0204488D01*
X0332300Y0204488D01*
X0332300Y0200088D01*
X0332300Y0204488D01*
X0332300Y0204488D01*
X0332300Y0204488D01*
X0327900Y0204488D01*
X0332300Y0204488D01*
X0332300Y0204488D01*
X0336700Y0204488D01*
X0336700Y0204834D01*
X0336592Y0205519D01*
X0336378Y0206177D01*
X0336063Y0206794D01*
X0335656Y0207355D01*
X0335423Y0207588D01*
X0337513Y0207588D01*
X0341400Y0203701D01*
X0342513Y0202588D01*
X0358757Y0202588D01*
X0358909Y0202222D01*
X0360034Y0201097D01*
X0361504Y0200488D01*
X0363096Y0200488D01*
X0364566Y0201097D01*
X0365691Y0202222D01*
X0366300Y0203693D01*
X0366300Y0205284D01*
X0365691Y0206754D01*
X0364566Y0207879D01*
X0363096Y0208488D01*
X0361504Y0208488D01*
X0360034Y0207879D01*
X0358909Y0206754D01*
X0358757Y0206388D01*
X0344087Y0206388D01*
X0340200Y0210275D01*
X0340200Y0210275D01*
X0339087Y0211388D01*
X0334857Y0211388D01*
X0335691Y0212222D01*
X0336300Y0213693D01*
X0336300Y0215284D01*
X0335691Y0216754D01*
X0334566Y0217879D01*
X0333096Y0218488D01*
X0331504Y0218488D01*
X0330034Y0217879D01*
X0328909Y0216754D01*
X0328300Y0215284D01*
X0328300Y0213693D01*
X0328909Y0212222D01*
X0329743Y0211388D01*
X0316513Y0211388D01*
X0312513Y0207388D01*
X0307061Y0207388D01*
X0307566Y0207597D01*
X0308691Y0208722D01*
X0309300Y0210193D01*
X0309300Y0211784D01*
X0308691Y0213254D01*
X0307566Y0214379D01*
X0306096Y0214988D01*
X0304504Y0214988D01*
X0303034Y0214379D01*
X0301909Y0213254D01*
X0301300Y0211784D01*
X0301300Y0210193D01*
X0301909Y0208722D01*
X0303034Y0207597D01*
X0303539Y0207388D01*
X0277061Y0207388D01*
X0277566Y0207597D01*
X0278691Y0208722D01*
X0279300Y0210193D01*
X0279300Y0211784D01*
X0278691Y0213254D01*
X0277566Y0214379D01*
X0276096Y0214988D01*
X0274504Y0214988D01*
X0274139Y0214837D01*
X0272200Y0216775D01*
X0272200Y0216775D01*
X0271087Y0217888D01*
X0247857Y0217888D01*
X0248691Y0218722D01*
X0248843Y0219088D01*
X0263587Y0219088D01*
X0268587Y0224088D01*
X0272743Y0224088D01*
X0271909Y0223254D01*
X0271300Y0221784D01*
X0271300Y0220193D01*
X0271909Y0218722D01*
X0273034Y0217597D01*
X0274504Y0216988D01*
X0276096Y0216988D01*
X0277566Y0217597D01*
X0278691Y0218722D01*
X0279300Y0220193D01*
X0279300Y0221784D01*
X0278691Y0223254D01*
X0277857Y0224088D01*
X0288013Y0224088D01*
X0291900Y0220201D01*
X0293013Y0219088D01*
X0301757Y0219088D01*
X0301909Y0218722D01*
X0303034Y0217597D01*
X0304504Y0216988D01*
X0306096Y0216988D01*
X0307566Y0217597D01*
X0308691Y0218722D01*
X0309300Y0220193D01*
X0309300Y0221784D01*
X0308691Y0223254D01*
X0307566Y0224379D01*
X0306096Y0224988D01*
X0304504Y0224988D01*
X0303034Y0224379D01*
X0301909Y0223254D01*
X0301757Y0222888D01*
X0294587Y0222888D01*
X0289587Y0227888D01*
X0277857Y0227888D01*
X0278691Y0228722D01*
X0279300Y0230193D01*
X0279300Y0231784D01*
X0278691Y0233254D01*
X0278357Y0233588D01*
X0289013Y0233588D01*
X0291900Y0230701D01*
X0293513Y0229088D01*
X0301757Y0229088D01*
X0301909Y0228722D01*
X0303034Y0227597D01*
X0304504Y0226988D01*
X0306096Y0226988D01*
X0307566Y0227597D01*
X0308691Y0228722D01*
X0309300Y0230193D01*
X0309300Y0231784D01*
X0308691Y0233254D01*
X0307566Y0234379D01*
X0306096Y0234988D01*
X0304504Y0234988D01*
X0303034Y0234379D01*
X0301909Y0233254D01*
X0301757Y0232888D01*
X0295087Y0232888D01*
X0294587Y0233388D01*
X0290587Y0237388D01*
X0277061Y0237388D01*
X0277566Y0237597D01*
X0278691Y0238722D01*
X0279300Y0240193D01*
X0279300Y0241784D01*
X0278691Y0243254D01*
X0277857Y0244088D01*
X0288513Y0244088D01*
X0292400Y0240201D01*
X0293513Y0239088D01*
X0301757Y0239088D01*
X0301909Y0238722D01*
X0303034Y0237597D01*
X0304504Y0236988D01*
X0306096Y0236988D01*
X0307566Y0237597D01*
X0308691Y0238722D01*
X0309300Y0240193D01*
X0309300Y0241784D01*
X0308691Y0243254D01*
X0307566Y0244379D01*
X0306096Y0244988D01*
X0304504Y0244988D01*
X0303034Y0244379D01*
X0301909Y0243254D01*
X0301757Y0242888D01*
X0295087Y0242888D01*
X0290087Y0247888D01*
X0277857Y0247888D01*
X0278691Y0248722D01*
X0279300Y0250193D01*
X0279300Y0251784D01*
X0278691Y0253254D01*
X0277857Y0254088D01*
X0286013Y0254088D01*
X0289900Y0250201D01*
X0291013Y0249088D01*
X0301757Y0249088D01*
X0301909Y0248722D01*
X0303034Y0247597D01*
X0304504Y0246988D01*
X0306096Y0246988D01*
X0307566Y0247597D01*
X0308691Y0248722D01*
X0309300Y0250193D01*
X0309300Y0251784D01*
X0308691Y0253254D01*
X0307566Y0254379D01*
X0306096Y0254988D01*
X0304504Y0254988D01*
X0303034Y0254379D01*
X0301909Y0253254D01*
X0301757Y0252888D01*
X0292587Y0252888D01*
X0287587Y0257888D01*
X0277857Y0257888D01*
X0278691Y0258722D01*
X0279300Y0260193D01*
X0279300Y0261784D01*
X0278691Y0263254D01*
X0277857Y0264088D01*
X0287513Y0264088D01*
X0291400Y0260201D01*
X0292513Y0259088D01*
X0301757Y0259088D01*
X0301909Y0258722D01*
X0303034Y0257597D01*
X0304504Y0256988D01*
X0306096Y0256988D01*
X0307566Y0257597D01*
X0308691Y0258722D01*
X0309300Y0260193D01*
X0309300Y0261784D01*
X0308691Y0263254D01*
X0307566Y0264379D01*
X0306096Y0264988D01*
X0304504Y0264988D01*
X0303034Y0264379D01*
X0301909Y0263254D01*
X0301757Y0262888D01*
X0294087Y0262888D01*
X0289087Y0267888D01*
X0277857Y0267888D01*
X0278691Y0268722D01*
X0279300Y0270193D01*
X0279300Y0271784D01*
X0278691Y0273254D01*
X0277566Y0274379D01*
X0276096Y0274988D01*
X0274504Y0274988D01*
X0273034Y0274379D01*
X0271909Y0273254D01*
X0271757Y0272888D01*
X0268423Y0272888D01*
X0268656Y0273122D01*
X0269063Y0273682D01*
X0269378Y0274299D01*
X0269592Y0274958D01*
X0269700Y0275642D01*
X0269700Y0275988D01*
X0265300Y0275988D01*
X0265300Y0275988D01*
X0260900Y0275988D01*
X0260900Y0275642D01*
X0261008Y0274958D01*
X0261222Y0274299D01*
X0261537Y0273682D01*
X0261944Y0273122D01*
X0262177Y0272888D01*
X0258013Y0272888D01*
X0254400Y0269275D01*
X0253513Y0268388D01*
X0248850Y0268388D01*
X0249063Y0268682D01*
X0249378Y0269299D01*
X0249592Y0269958D01*
X0249700Y0270642D01*
X0249700Y0270988D01*
X0245300Y0270988D01*
X0245300Y0270988D01*
X0240900Y0270988D01*
X0240900Y0270642D01*
X0241008Y0269958D01*
X0241222Y0269299D01*
X0241537Y0268682D01*
X0241750Y0268388D01*
X0231087Y0268388D01*
X0226587Y0272888D01*
X0218843Y0272888D01*
X0218691Y0273254D01*
X0217566Y0274379D01*
X0216096Y0274988D01*
X0214504Y0274988D01*
X0213034Y0274379D01*
X0211909Y0273254D01*
X0211300Y0271784D01*
X0211300Y0270193D01*
X0211909Y0268722D01*
X0212243Y0268388D01*
X0211333Y0268388D01*
X0210703Y0269018D01*
X0209606Y0269472D01*
X0208419Y0269472D01*
X0207322Y0269018D01*
X0206483Y0268179D01*
X0206028Y0267082D01*
X0206028Y0265895D01*
X0206483Y0264798D01*
X0207322Y0263958D01*
X0208419Y0263504D01*
X0209606Y0263504D01*
X0210703Y0263958D01*
X0211333Y0264588D01*
X0213539Y0264588D01*
X0213034Y0264379D01*
X0211909Y0263254D01*
X0211300Y0261784D01*
X0211300Y0260193D01*
X0211909Y0258722D01*
X0212243Y0258388D01*
X0207120Y0258388D01*
X0206490Y0259018D01*
X0205394Y0259472D01*
X0204206Y0259472D01*
X0203110Y0259018D01*
X0202270Y0258179D01*
X0201816Y0257082D01*
X0201816Y0255895D01*
X0202270Y0254798D01*
X0203110Y0253958D01*
X0204206Y0253504D01*
X0205394Y0253504D01*
X0206490Y0253958D01*
X0207120Y0254588D01*
X0213539Y0254588D01*
X0213034Y0254379D01*
X0211909Y0253254D01*
X0211300Y0251784D01*
X0211300Y0250193D01*
X0211909Y0248722D01*
X0212743Y0247888D01*
X0205620Y0247888D01*
X0204990Y0248518D01*
X0203894Y0248972D01*
X0202706Y0248972D01*
X0201610Y0248518D01*
X0200770Y0247679D01*
X0200316Y0246582D01*
X0200316Y0245395D01*
X0200770Y0244298D01*
X0201610Y0243458D01*
X0202706Y0243004D01*
X0203894Y0243004D01*
X0204990Y0243458D01*
X0205620Y0244088D01*
X0212743Y0244088D01*
X0211909Y0243254D01*
X0211300Y0241784D01*
X0211300Y0240193D01*
X0211909Y0238722D01*
X0212743Y0237888D01*
X0205513Y0237888D01*
X0204400Y0236775D01*
X0199400Y0231775D01*
X0199400Y0210775D01*
X0177513Y0188888D01*
X0173513Y0184888D01*
X0108587Y0184888D01*
X0107560Y0185916D02*
X0174540Y0185916D01*
X0176139Y0187514D02*
X0105961Y0187514D01*
X0097178Y0177923D02*
X0071422Y0177923D01*
X0073020Y0179521D02*
X0095580Y0179521D01*
X0092926Y0181120D02*
X0074619Y0181120D01*
X0076217Y0182718D02*
X0091096Y0182718D01*
X0088451Y0184317D02*
X0077816Y0184317D01*
X0079414Y0185916D02*
X0087014Y0185916D01*
X0086816Y0187514D02*
X0081013Y0187514D01*
X0082611Y0189113D02*
X0087704Y0189113D01*
X0091896Y0189113D02*
X0177737Y0189113D01*
X0177513Y0188888D02*
X0177513Y0188888D01*
X0179336Y0190711D02*
X0168180Y0190711D01*
X0168066Y0190597D02*
X0169191Y0191722D01*
X0169800Y0193193D01*
X0169800Y0194784D01*
X0169191Y0196254D01*
X0168066Y0197379D01*
X0166596Y0197988D01*
X0165004Y0197988D01*
X0163534Y0197379D01*
X0162409Y0196254D01*
X0161800Y0194784D01*
X0161800Y0193193D01*
X0162409Y0191722D01*
X0163534Y0190597D01*
X0165004Y0189988D01*
X0166596Y0189988D01*
X0168066Y0190597D01*
X0169434Y0192310D02*
X0180934Y0192310D01*
X0182533Y0193908D02*
X0169800Y0193908D01*
X0169501Y0195507D02*
X0184131Y0195507D01*
X0185730Y0197105D02*
X0168340Y0197105D01*
X0163260Y0197105D02*
X0158906Y0197105D01*
X0158666Y0197344D02*
X0158106Y0197751D01*
X0157489Y0198066D01*
X0156830Y0198280D01*
X0156146Y0198388D01*
X0155800Y0198388D01*
X0155800Y0193988D01*
X0155800Y0189588D01*
X0156146Y0189588D01*
X0156830Y0189697D01*
X0157489Y0189911D01*
X0158106Y0190225D01*
X0158666Y0190632D01*
X0159156Y0191122D01*
X0159563Y0191682D01*
X0159878Y0192299D01*
X0160092Y0192958D01*
X0160200Y0193642D01*
X0160200Y0193988D01*
X0155800Y0193988D01*
X0155800Y0193988D01*
X0155800Y0189588D01*
X0155454Y0189588D01*
X0154770Y0189697D01*
X0154111Y0189911D01*
X0153494Y0190225D01*
X0152934Y0190632D01*
X0152444Y0191122D01*
X0152037Y0191682D01*
X0151722Y0192299D01*
X0151508Y0192958D01*
X0151400Y0193642D01*
X0151400Y0193988D01*
X0155800Y0193988D01*
X0155800Y0193988D01*
X0155800Y0193988D01*
X0160200Y0193988D01*
X0160200Y0194334D01*
X0160092Y0195019D01*
X0159878Y0195677D01*
X0159563Y0196294D01*
X0159156Y0196855D01*
X0158666Y0197344D01*
X0159933Y0195507D02*
X0162099Y0195507D01*
X0161800Y0193908D02*
X0160200Y0193908D01*
X0159881Y0192310D02*
X0162166Y0192310D01*
X0163420Y0190711D02*
X0158745Y0190711D01*
X0155800Y0190711D02*
X0155800Y0190711D01*
X0155800Y0192310D02*
X0155800Y0192310D01*
X0155800Y0193908D02*
X0155800Y0193908D01*
X0155800Y0193988D02*
X0151400Y0193988D01*
X0151400Y0194334D01*
X0151508Y0195019D01*
X0151722Y0195677D01*
X0152037Y0196294D01*
X0152444Y0196855D01*
X0152934Y0197344D01*
X0153494Y0197751D01*
X0154111Y0198066D01*
X0154770Y0198280D01*
X0155454Y0198388D01*
X0155800Y0198388D01*
X0155800Y0193988D01*
X0155800Y0193988D01*
X0155800Y0195507D02*
X0155800Y0195507D01*
X0155800Y0197105D02*
X0155800Y0197105D01*
X0152694Y0197105D02*
X0083700Y0197105D01*
X0083700Y0195507D02*
X0151667Y0195507D01*
X0151400Y0193908D02*
X0083700Y0193908D01*
X0083700Y0192310D02*
X0151719Y0192310D01*
X0152855Y0190711D02*
X0083700Y0190711D01*
X0079900Y0192310D02*
X0079515Y0192310D01*
X0078836Y0190711D02*
X0077421Y0190711D01*
X0077237Y0189113D02*
X0058195Y0189113D01*
X0058200Y0189142D02*
X0058200Y0189488D01*
X0053800Y0189488D01*
X0053800Y0185088D01*
X0054146Y0185088D01*
X0054830Y0185197D01*
X0055489Y0185411D01*
X0056106Y0185725D01*
X0056666Y0186132D01*
X0057156Y0186622D01*
X0057563Y0187182D01*
X0057878Y0187799D01*
X0058092Y0188458D01*
X0058200Y0189142D01*
X0058200Y0189488D02*
X0058200Y0189834D01*
X0058092Y0190519D01*
X0057878Y0191177D01*
X0057563Y0191794D01*
X0057156Y0192355D01*
X0056666Y0192844D01*
X0056106Y0193251D01*
X0055489Y0193566D01*
X0054830Y0193780D01*
X0054146Y0193888D01*
X0053800Y0193888D01*
X0053800Y0189488D01*
X0053800Y0189488D01*
X0053800Y0185088D01*
X0053454Y0185088D01*
X0052770Y0185197D01*
X0052111Y0185411D01*
X0051494Y0185725D01*
X0050934Y0186132D01*
X0050444Y0186622D01*
X0050037Y0187182D01*
X0049722Y0187799D01*
X0049508Y0188458D01*
X0049400Y0189142D01*
X0049400Y0189488D01*
X0053800Y0189488D01*
X0053800Y0189488D01*
X0053800Y0189488D01*
X0058200Y0189488D01*
X0058029Y0190711D02*
X0063809Y0190711D01*
X0063781Y0190725D02*
X0064398Y0190411D01*
X0065057Y0190197D01*
X0065741Y0190088D01*
X0066087Y0190088D01*
X0066087Y0194488D01*
X0061687Y0194488D01*
X0061687Y0194142D01*
X0061796Y0193458D01*
X0062010Y0192799D01*
X0062324Y0192182D01*
X0062731Y0191622D01*
X0063221Y0191132D01*
X0063781Y0190725D01*
X0062259Y0192310D02*
X0057189Y0192310D01*
X0053800Y0192310D02*
X0053800Y0192310D01*
X0053800Y0193888D02*
X0053454Y0193888D01*
X0052770Y0193780D01*
X0052111Y0193566D01*
X0051494Y0193251D01*
X0050934Y0192844D01*
X0050444Y0192355D01*
X0050037Y0191794D01*
X0049722Y0191177D01*
X0049508Y0190519D01*
X0049400Y0189834D01*
X0049400Y0189488D01*
X0053800Y0189488D01*
X0053800Y0193888D01*
X0053800Y0190711D02*
X0053800Y0190711D01*
X0053800Y0189488D02*
X0053800Y0189488D01*
X0053800Y0189113D02*
X0053800Y0189113D01*
X0053800Y0187514D02*
X0053800Y0187514D01*
X0053800Y0185916D02*
X0053800Y0185916D01*
X0056368Y0185916D02*
X0074040Y0185916D01*
X0075639Y0187514D02*
X0057732Y0187514D01*
X0051232Y0185916D02*
X0045627Y0185916D01*
X0046066Y0186097D02*
X0047191Y0187222D01*
X0047800Y0188693D01*
X0047800Y0190284D01*
X0047191Y0191754D01*
X0046066Y0192879D01*
X0044596Y0193488D01*
X0043004Y0193488D01*
X0042639Y0193337D01*
X0039200Y0196775D01*
X0039200Y0222901D01*
X0046013Y0216088D01*
X0062257Y0216088D01*
X0062409Y0215722D01*
X0063534Y0214597D01*
X0065004Y0213988D01*
X0066596Y0213988D01*
X0068066Y0214597D01*
X0069191Y0215722D01*
X0069800Y0217193D01*
X0069800Y0218784D01*
X0069191Y0220254D01*
X0068066Y0221379D01*
X0066596Y0221988D01*
X0065004Y0221988D01*
X0063534Y0221379D01*
X0062409Y0220254D01*
X0062257Y0219888D01*
X0047587Y0219888D01*
X0041148Y0226327D01*
X0041300Y0226693D01*
X0041300Y0228284D01*
X0040691Y0229754D01*
X0039566Y0230879D01*
X0038096Y0231488D01*
X0036504Y0231488D01*
X0035034Y0230879D01*
X0033909Y0229754D01*
X0033300Y0228284D01*
X0033300Y0226693D01*
X0033909Y0225222D01*
X0035034Y0224097D01*
X0035400Y0223946D01*
X0035400Y0195201D01*
X0039952Y0190650D01*
X0039800Y0190284D01*
X0039800Y0188693D01*
X0040409Y0187222D01*
X0041534Y0186097D01*
X0043004Y0185488D01*
X0044596Y0185488D01*
X0046066Y0186097D01*
X0047312Y0187514D02*
X0049868Y0187514D01*
X0049405Y0189113D02*
X0047800Y0189113D01*
X0047623Y0190711D02*
X0049571Y0190711D01*
X0050411Y0192310D02*
X0046635Y0192310D01*
X0042067Y0193908D02*
X0061724Y0193908D01*
X0061687Y0194488D02*
X0066087Y0194488D01*
X0066087Y0194488D01*
X0066087Y0194488D01*
X0066087Y0198888D01*
X0065741Y0198888D01*
X0065057Y0198780D01*
X0064398Y0198566D01*
X0063781Y0198251D01*
X0063221Y0197844D01*
X0062731Y0197355D01*
X0062324Y0196794D01*
X0062010Y0196177D01*
X0061796Y0195519D01*
X0061687Y0194834D01*
X0061687Y0194488D01*
X0061794Y0195507D02*
X0040469Y0195507D01*
X0039200Y0197105D02*
X0062550Y0197105D01*
X0064822Y0198704D02*
X0039200Y0198704D01*
X0039200Y0200302D02*
X0040829Y0200302D01*
X0041034Y0200097D02*
X0042504Y0199488D01*
X0044096Y0199488D01*
X0045566Y0200097D01*
X0046691Y0201222D01*
X0047300Y0202693D01*
X0047300Y0204284D01*
X0046691Y0205754D01*
X0045566Y0206879D01*
X0044096Y0207488D01*
X0042504Y0207488D01*
X0041034Y0206879D01*
X0039909Y0205754D01*
X0039300Y0204284D01*
X0039300Y0202693D01*
X0039909Y0201222D01*
X0041034Y0200097D01*
X0039628Y0201901D02*
X0039200Y0201901D01*
X0039200Y0203499D02*
X0039300Y0203499D01*
X0039200Y0205098D02*
X0039637Y0205098D01*
X0039200Y0206696D02*
X0040851Y0206696D01*
X0039200Y0208295D02*
X0061400Y0208295D01*
X0061400Y0208334D02*
X0061400Y0207988D01*
X0061400Y0207642D01*
X0061508Y0206958D01*
X0061722Y0206299D01*
X0062037Y0205682D01*
X0062444Y0205122D01*
X0062934Y0204632D01*
X0063494Y0204225D01*
X0064111Y0203911D01*
X0064770Y0203697D01*
X0065454Y0203588D01*
X0065800Y0203588D01*
X0066146Y0203588D01*
X0066830Y0203697D01*
X0067489Y0203911D01*
X0068106Y0204225D01*
X0068666Y0204632D01*
X0069156Y0205122D01*
X0069563Y0205682D01*
X0069878Y0206299D01*
X0070092Y0206958D01*
X0070200Y0207642D01*
X0070200Y0207988D01*
X0065800Y0207988D01*
X0065800Y0203588D01*
X0065800Y0207988D01*
X0065800Y0207988D01*
X0065800Y0207988D01*
X0061400Y0207988D01*
X0065800Y0207988D01*
X0065800Y0207988D01*
X0070200Y0207988D01*
X0070200Y0208334D01*
X0070092Y0209019D01*
X0069878Y0209677D01*
X0069563Y0210294D01*
X0069156Y0210855D01*
X0068666Y0211344D01*
X0068106Y0211751D01*
X0067489Y0212066D01*
X0066830Y0212280D01*
X0066146Y0212388D01*
X0065800Y0212388D01*
X0065800Y0207988D01*
X0065800Y0212388D01*
X0065454Y0212388D01*
X0064770Y0212280D01*
X0064111Y0212066D01*
X0063494Y0211751D01*
X0062934Y0211344D01*
X0062444Y0210855D01*
X0062037Y0210294D01*
X0061722Y0209677D01*
X0061508Y0209019D01*
X0061400Y0208334D01*
X0061832Y0209893D02*
X0039200Y0209893D01*
X0039200Y0211492D02*
X0063136Y0211492D01*
X0065800Y0211492D02*
X0065800Y0211492D01*
X0065800Y0209893D02*
X0065800Y0209893D01*
X0065800Y0208295D02*
X0065800Y0208295D01*
X0065800Y0207988D02*
X0065800Y0207988D01*
X0065800Y0206696D02*
X0065800Y0206696D01*
X0065800Y0205098D02*
X0065800Y0205098D01*
X0069132Y0205098D02*
X0079900Y0205098D01*
X0079900Y0206696D02*
X0070007Y0206696D01*
X0070200Y0208295D02*
X0079900Y0208295D01*
X0079900Y0209893D02*
X0069768Y0209893D01*
X0068464Y0211492D02*
X0079900Y0211492D01*
X0079900Y0213090D02*
X0039200Y0213090D01*
X0039200Y0214689D02*
X0063443Y0214689D01*
X0068157Y0214689D02*
X0079900Y0214689D01*
X0081412Y0216287D02*
X0069425Y0216287D01*
X0069800Y0217886D02*
X0083011Y0217886D01*
X0084609Y0219484D02*
X0069510Y0219484D01*
X0068362Y0221083D02*
X0086208Y0221083D01*
X0087806Y0222681D02*
X0044794Y0222681D01*
X0046392Y0221083D02*
X0063238Y0221083D01*
X0064300Y0224280D02*
X0054248Y0224280D01*
X0054066Y0224097D02*
X0055191Y0225222D01*
X0055800Y0226693D01*
X0055800Y0228284D01*
X0055191Y0229754D01*
X0054066Y0230879D01*
X0052596Y0231488D01*
X0051004Y0231488D01*
X0049534Y0230879D01*
X0048409Y0229754D01*
X0047800Y0228284D01*
X0047800Y0226693D01*
X0048409Y0225222D01*
X0049534Y0224097D01*
X0051004Y0223488D01*
X0052596Y0223488D01*
X0054066Y0224097D01*
X0055463Y0225878D02*
X0062344Y0225878D01*
X0062409Y0225722D02*
X0063534Y0224597D01*
X0065004Y0223988D01*
X0066596Y0223988D01*
X0068066Y0224597D01*
X0069191Y0225722D01*
X0069343Y0226088D01*
X0086587Y0226088D01*
X0094639Y0234140D01*
X0095004Y0233988D01*
X0096596Y0233988D01*
X0098066Y0234597D01*
X0099191Y0235722D01*
X0099800Y0237193D01*
X0099800Y0238784D01*
X0099648Y0239150D01*
X0108087Y0247588D01*
X0117269Y0247588D01*
X0116934Y0247344D01*
X0116444Y0246855D01*
X0116037Y0246294D01*
X0115722Y0245677D01*
X0115508Y0245019D01*
X0115400Y0244334D01*
X0115400Y0243988D01*
X0115400Y0243642D01*
X0115508Y0242958D01*
X0115722Y0242299D01*
X0116037Y0241682D01*
X0116444Y0241122D01*
X0116934Y0240632D01*
X0117494Y0240225D01*
X0118111Y0239911D01*
X0118770Y0239697D01*
X0119454Y0239588D01*
X0119800Y0239588D01*
X0120146Y0239588D01*
X0120830Y0239697D01*
X0121489Y0239911D01*
X0122106Y0240225D01*
X0122666Y0240632D01*
X0123156Y0241122D01*
X0123563Y0241682D01*
X0123878Y0242299D01*
X0124092Y0242958D01*
X0124200Y0243642D01*
X0124200Y0243988D01*
X0119800Y0243988D01*
X0119800Y0239588D01*
X0119800Y0243988D01*
X0119800Y0243988D01*
X0119800Y0243988D01*
X0115400Y0243988D01*
X0119800Y0243988D01*
X0119800Y0243988D01*
X0124200Y0243988D01*
X0124200Y0244334D01*
X0124092Y0245019D01*
X0123878Y0245677D01*
X0123563Y0246294D01*
X0123156Y0246855D01*
X0122666Y0247344D01*
X0122331Y0247588D01*
X0138177Y0247588D01*
X0137944Y0247355D01*
X0137537Y0246794D01*
X0137222Y0246177D01*
X0137008Y0245519D01*
X0136900Y0244834D01*
X0136900Y0244488D01*
X0136900Y0244142D01*
X0137008Y0243458D01*
X0137222Y0242799D01*
X0137537Y0242182D01*
X0137944Y0241622D01*
X0138434Y0241132D01*
X0138994Y0240725D01*
X0139611Y0240411D01*
X0140270Y0240197D01*
X0140954Y0240088D01*
X0141300Y0240088D01*
X0141646Y0240088D01*
X0142330Y0240197D01*
X0142989Y0240411D01*
X0143606Y0240725D01*
X0144166Y0241132D01*
X0144656Y0241622D01*
X0145063Y0242182D01*
X0145378Y0242799D01*
X0145592Y0243458D01*
X0145700Y0244142D01*
X0145700Y0244488D01*
X0141300Y0244488D01*
X0141300Y0240088D01*
X0141300Y0244488D01*
X0141300Y0244488D01*
X0141300Y0244488D01*
X0136900Y0244488D01*
X0141300Y0244488D01*
X0141300Y0244488D01*
X0145700Y0244488D01*
X0145700Y0244834D01*
X0145592Y0245519D01*
X0145378Y0246177D01*
X0145063Y0246794D01*
X0144656Y0247355D01*
X0144423Y0247588D01*
X0149087Y0247588D01*
X0150200Y0248701D01*
X0153785Y0252286D01*
X0154504Y0251988D01*
X0156096Y0251988D01*
X0157566Y0252597D01*
X0158691Y0253722D01*
X0159300Y0255193D01*
X0159300Y0256784D01*
X0158691Y0258254D01*
X0157566Y0259379D01*
X0156096Y0259988D01*
X0154504Y0259988D01*
X0153034Y0259379D01*
X0151909Y0258254D01*
X0151300Y0256784D01*
X0151300Y0255193D01*
X0151305Y0255180D01*
X0147513Y0251388D01*
X0143857Y0251388D01*
X0144691Y0252222D01*
X0145300Y0253693D01*
X0145300Y0255284D01*
X0144691Y0256754D01*
X0143566Y0257879D01*
X0142096Y0258488D01*
X0140504Y0258488D01*
X0139034Y0257879D01*
X0137909Y0256754D01*
X0137757Y0256388D01*
X0133843Y0256388D01*
X0133691Y0256754D01*
X0132566Y0257879D01*
X0131096Y0258488D01*
X0129504Y0258488D01*
X0128034Y0257879D01*
X0126909Y0256754D01*
X0126300Y0255284D01*
X0126300Y0253693D01*
X0126909Y0252222D01*
X0127743Y0251388D01*
X0122857Y0251388D01*
X0123191Y0251722D01*
X0123800Y0253193D01*
X0123800Y0254784D01*
X0123191Y0256254D01*
X0122066Y0257379D01*
X0120596Y0257988D01*
X0119004Y0257988D01*
X0117534Y0257379D01*
X0116409Y0256254D01*
X0116257Y0255888D01*
X0111843Y0255888D01*
X0111691Y0256254D01*
X0110566Y0257379D01*
X0109096Y0257988D01*
X0107504Y0257988D01*
X0106034Y0257379D01*
X0104909Y0256254D01*
X0104757Y0255888D01*
X0101013Y0255888D01*
X0096961Y0251837D01*
X0096596Y0251988D01*
X0095004Y0251988D01*
X0093534Y0251379D01*
X0092409Y0250254D01*
X0091800Y0248784D01*
X0091800Y0247193D01*
X0092409Y0245722D01*
X0093534Y0244597D01*
X0095004Y0243988D01*
X0096596Y0243988D01*
X0098066Y0244597D01*
X0099191Y0245722D01*
X0099800Y0247193D01*
X0099800Y0248784D01*
X0099648Y0249150D01*
X0102587Y0252088D01*
X0104757Y0252088D01*
X0104909Y0251722D01*
X0105878Y0250753D01*
X0096961Y0241837D01*
X0096596Y0241988D01*
X0095004Y0241988D01*
X0093534Y0241379D01*
X0092409Y0240254D01*
X0091800Y0238784D01*
X0091800Y0237193D01*
X0091952Y0236827D01*
X0085013Y0229888D01*
X0069343Y0229888D01*
X0069191Y0230254D01*
X0068066Y0231379D01*
X0066596Y0231988D01*
X0065004Y0231988D01*
X0063534Y0231379D01*
X0062409Y0230254D01*
X0061800Y0228784D01*
X0061800Y0227193D01*
X0062409Y0225722D01*
X0061800Y0227477D02*
X0055800Y0227477D01*
X0055472Y0229075D02*
X0061921Y0229075D01*
X0062829Y0230674D02*
X0054271Y0230674D01*
X0049329Y0230674D02*
X0039771Y0230674D01*
X0040972Y0229075D02*
X0048128Y0229075D01*
X0047800Y0227477D02*
X0041300Y0227477D01*
X0041597Y0225878D02*
X0048137Y0225878D01*
X0049352Y0224280D02*
X0043195Y0224280D01*
X0041018Y0221083D02*
X0039200Y0221083D01*
X0039200Y0222681D02*
X0039420Y0222681D01*
X0039200Y0219484D02*
X0042617Y0219484D01*
X0044215Y0217886D02*
X0039200Y0217886D01*
X0039200Y0216287D02*
X0045814Y0216287D01*
X0035400Y0216287D02*
X0027998Y0216287D01*
X0027998Y0214689D02*
X0035400Y0214689D01*
X0035400Y0213090D02*
X0027998Y0213090D01*
X0027998Y0211492D02*
X0035400Y0211492D01*
X0035400Y0209893D02*
X0027998Y0209893D01*
X0027998Y0208295D02*
X0035400Y0208295D01*
X0035400Y0206696D02*
X0027998Y0206696D01*
X0027998Y0205098D02*
X0035400Y0205098D01*
X0035400Y0203499D02*
X0027998Y0203499D01*
X0027998Y0201901D02*
X0035400Y0201901D01*
X0035400Y0200302D02*
X0027998Y0200302D01*
X0027998Y0198704D02*
X0035400Y0198704D01*
X0035400Y0197105D02*
X0027998Y0197105D01*
X0027998Y0195507D02*
X0035400Y0195507D01*
X0036693Y0193908D02*
X0027998Y0193908D01*
X0027998Y0192310D02*
X0038292Y0192310D01*
X0039890Y0190711D02*
X0027998Y0190711D01*
X0027998Y0189113D02*
X0039800Y0189113D01*
X0040288Y0187514D02*
X0027998Y0187514D01*
X0027998Y0185916D02*
X0041973Y0185916D01*
X0027998Y0184317D02*
X0072442Y0184317D01*
X0070843Y0182718D02*
X0027998Y0182718D01*
X0027998Y0181120D02*
X0069245Y0181120D01*
X0067646Y0179521D02*
X0027998Y0179521D01*
X0027998Y0177923D02*
X0066048Y0177923D01*
X0064449Y0176324D02*
X0027998Y0176324D01*
X0027998Y0174726D02*
X0062851Y0174726D01*
X0061252Y0173127D02*
X0027998Y0173127D01*
X0027998Y0171529D02*
X0059654Y0171529D01*
X0058055Y0169930D02*
X0027998Y0169930D01*
X0027998Y0168332D02*
X0056457Y0168332D01*
X0054858Y0166733D02*
X0027998Y0166733D01*
X0027998Y0165135D02*
X0053260Y0165135D01*
X0051661Y0163536D02*
X0027998Y0163536D01*
X0027998Y0161938D02*
X0050282Y0161938D01*
X0050282Y0160339D02*
X0027998Y0160339D01*
X0027998Y0158741D02*
X0050282Y0158741D01*
X0050282Y0157142D02*
X0044303Y0157142D01*
X0044066Y0157379D02*
X0042596Y0157988D01*
X0041004Y0157988D01*
X0039534Y0157379D01*
X0038409Y0156254D01*
X0037800Y0154784D01*
X0037800Y0153193D01*
X0038409Y0151722D01*
X0039534Y0150597D01*
X0041004Y0149988D01*
X0042596Y0149988D01*
X0044066Y0150597D01*
X0045191Y0151722D01*
X0045800Y0153193D01*
X0045800Y0154784D01*
X0045191Y0156254D01*
X0044066Y0157379D01*
X0045485Y0155544D02*
X0050282Y0155544D01*
X0050282Y0153945D02*
X0045800Y0153945D01*
X0045450Y0152347D02*
X0050282Y0152347D01*
X0050282Y0150748D02*
X0044217Y0150748D01*
X0042596Y0147988D02*
X0041004Y0147988D01*
X0039534Y0147379D01*
X0038409Y0146254D01*
X0037800Y0144784D01*
X0037800Y0143193D01*
X0038409Y0141722D01*
X0039534Y0140597D01*
X0041004Y0139988D01*
X0042596Y0139988D01*
X0044066Y0140597D01*
X0045191Y0141722D01*
X0045800Y0143193D01*
X0045800Y0144784D01*
X0045191Y0146254D01*
X0044066Y0147379D01*
X0042596Y0147988D01*
X0043651Y0147551D02*
X0050282Y0147551D01*
X0050282Y0145953D02*
X0045316Y0145953D01*
X0045800Y0144354D02*
X0049479Y0144354D01*
X0047881Y0142756D02*
X0045619Y0142756D01*
X0046282Y0141157D02*
X0044626Y0141157D01*
X0044684Y0139559D02*
X0027998Y0139559D01*
X0027998Y0141157D02*
X0038974Y0141157D01*
X0037981Y0142756D02*
X0027998Y0142756D01*
X0027998Y0144354D02*
X0037800Y0144354D01*
X0038284Y0145953D02*
X0027998Y0145953D01*
X0027998Y0147551D02*
X0039949Y0147551D01*
X0039383Y0150748D02*
X0027998Y0150748D01*
X0027998Y0149150D02*
X0050282Y0149150D01*
X0054082Y0147551D02*
X0069949Y0147551D01*
X0068284Y0145953D02*
X0054082Y0145953D01*
X0054082Y0144354D02*
X0067800Y0144354D01*
X0067981Y0142756D02*
X0053255Y0142756D01*
X0051656Y0141157D02*
X0068974Y0141157D01*
X0074626Y0141157D02*
X0112944Y0141157D01*
X0114543Y0139559D02*
X0050057Y0139559D01*
X0043085Y0137960D02*
X0042663Y0137960D01*
X0040937Y0137960D02*
X0027998Y0137960D01*
X0027998Y0136362D02*
X0038517Y0136362D01*
X0037800Y0134763D02*
X0027998Y0134763D01*
X0027998Y0133165D02*
X0037812Y0133165D01*
X0038565Y0131566D02*
X0027998Y0131566D01*
X0027998Y0129968D02*
X0039900Y0129968D01*
X0039900Y0128369D02*
X0027998Y0128369D01*
X0027998Y0126771D02*
X0038926Y0126771D01*
X0037961Y0125172D02*
X0027998Y0125172D01*
X0027998Y0123574D02*
X0037800Y0123574D01*
X0038304Y0121975D02*
X0027998Y0121975D01*
X0027998Y0120377D02*
X0040067Y0120377D01*
X0039334Y0117180D02*
X0027998Y0117180D01*
X0027998Y0118778D02*
X0074323Y0118778D01*
X0074266Y0117180D02*
X0075922Y0117180D01*
X0074254Y0110785D02*
X0079316Y0110785D01*
X0080914Y0109187D02*
X0027998Y0109187D01*
X0027998Y0110785D02*
X0039346Y0110785D01*
X0038135Y0112384D02*
X0027998Y0112384D01*
X0027998Y0113982D02*
X0037800Y0113982D01*
X0038130Y0115581D02*
X0027998Y0115581D01*
X0027998Y0107588D02*
X0039270Y0107588D01*
X0037882Y0105990D02*
X0027998Y0105990D01*
X0027998Y0104391D02*
X0037409Y0104391D01*
X0037562Y0102793D02*
X0027998Y0102793D01*
X0027998Y0101194D02*
X0038391Y0101194D01*
X0041800Y0101194D02*
X0041800Y0101194D01*
X0041800Y0102793D02*
X0041800Y0102793D01*
X0041800Y0103988D02*
X0041800Y0108388D01*
X0041800Y0103988D01*
X0041800Y0103988D01*
X0041800Y0104391D02*
X0041800Y0104391D01*
X0041800Y0105990D02*
X0041800Y0105990D01*
X0041800Y0107588D02*
X0041800Y0107588D01*
X0041405Y0099596D02*
X0027998Y0099596D01*
X0027998Y0097997D02*
X0039977Y0097997D01*
X0041800Y0096399D02*
X0041800Y0096399D01*
X0041800Y0094800D02*
X0041800Y0094800D01*
X0041800Y0093988D02*
X0041800Y0093988D01*
X0041800Y0093202D02*
X0041800Y0093202D01*
X0041800Y0091603D02*
X0041800Y0091603D01*
X0041800Y0090005D02*
X0041800Y0090005D01*
X0043674Y0090005D02*
X0069900Y0090005D01*
X0069900Y0088406D02*
X0027998Y0088406D01*
X0027998Y0086808D02*
X0069900Y0086808D01*
X0069900Y0085209D02*
X0027998Y0085209D01*
X0027998Y0083611D02*
X0069900Y0083611D01*
X0069900Y0082012D02*
X0027998Y0082012D01*
X0027998Y0080414D02*
X0034427Y0080414D01*
X0034100Y0080278D02*
X0032510Y0078689D01*
X0031650Y0076612D01*
X0031650Y0074364D01*
X0032510Y0072288D01*
X0034100Y0070698D01*
X0036176Y0069838D01*
X0038424Y0069838D01*
X0040500Y0070698D01*
X0042090Y0072288D01*
X0042950Y0074364D01*
X0042950Y0076612D01*
X0042090Y0078689D01*
X0040500Y0080278D01*
X0038424Y0081138D01*
X0036176Y0081138D01*
X0034100Y0080278D01*
X0032637Y0078815D02*
X0027998Y0078815D01*
X0027998Y0077217D02*
X0031900Y0077217D01*
X0031650Y0075618D02*
X0027998Y0075618D01*
X0027998Y0074020D02*
X0031793Y0074020D01*
X0032455Y0072421D02*
X0027998Y0072421D01*
X0027998Y0070823D02*
X0033975Y0070823D01*
X0027998Y0069224D02*
X0074853Y0069224D01*
X0073255Y0070823D02*
X0040625Y0070823D01*
X0042145Y0072421D02*
X0071656Y0072421D01*
X0070058Y0074020D02*
X0042807Y0074020D01*
X0042950Y0075618D02*
X0069900Y0075618D01*
X0069900Y0077217D02*
X0042700Y0077217D01*
X0041963Y0078815D02*
X0069900Y0078815D01*
X0069900Y0080414D02*
X0040173Y0080414D01*
X0039926Y0090005D02*
X0027998Y0090005D01*
X0027998Y0091603D02*
X0038094Y0091603D01*
X0037470Y0093202D02*
X0027998Y0093202D01*
X0027998Y0094800D02*
X0037474Y0094800D01*
X0038113Y0096399D02*
X0027998Y0096399D01*
X0045487Y0096399D02*
X0068554Y0096399D01*
X0067807Y0094800D02*
X0046126Y0094800D01*
X0046130Y0093202D02*
X0067800Y0093202D01*
X0068528Y0091603D02*
X0045506Y0091603D01*
X0073700Y0090005D02*
X0081609Y0090005D01*
X0080322Y0091603D02*
X0075072Y0091603D01*
X0075800Y0093202D02*
X0079900Y0093202D01*
X0080100Y0094800D02*
X0075793Y0094800D01*
X0075046Y0096399D02*
X0080988Y0096399D01*
X0108387Y0107588D02*
X0110013Y0107588D01*
X0109985Y0105990D02*
X0111611Y0105990D01*
X0111584Y0104391D02*
X0113210Y0104391D01*
X0113182Y0102793D02*
X0114808Y0102793D01*
X0114781Y0101194D02*
X0116407Y0101194D01*
X0116379Y0099596D02*
X0118005Y0099596D01*
X0117978Y0097997D02*
X0119604Y0097997D01*
X0120400Y0096399D02*
X0118700Y0096399D01*
X0118700Y0094800D02*
X0120400Y0094800D01*
X0120400Y0093202D02*
X0118700Y0093202D01*
X0118700Y0091603D02*
X0120400Y0091603D01*
X0120400Y0090005D02*
X0118700Y0090005D01*
X0118700Y0088406D02*
X0120400Y0088406D01*
X0120397Y0086808D02*
X0118700Y0086808D01*
X0118700Y0085209D02*
X0121378Y0085209D01*
X0122928Y0083611D02*
X0118700Y0083611D01*
X0118700Y0082012D02*
X0124479Y0082012D01*
X0126029Y0080414D02*
X0118700Y0080414D01*
X0118700Y0078815D02*
X0127579Y0078815D01*
X0129129Y0077217D02*
X0118700Y0077217D01*
X0118700Y0075618D02*
X0130679Y0075618D01*
X0132229Y0074020D02*
X0118700Y0074020D01*
X0119554Y0072421D02*
X0133779Y0072421D01*
X0132448Y0066027D02*
X0185074Y0066027D01*
X0208300Y0083611D02*
X0208300Y0083611D01*
X0208300Y0085209D02*
X0208300Y0085209D01*
X0208300Y0086808D02*
X0208300Y0086808D01*
X0212077Y0085209D02*
X0213523Y0085209D01*
X0212953Y0086808D02*
X0212647Y0086808D01*
X0212609Y0088406D02*
X0212991Y0088406D01*
X0213690Y0090005D02*
X0211910Y0090005D01*
X0204690Y0090005D02*
X0192004Y0090005D01*
X0190749Y0088406D02*
X0203991Y0088406D01*
X0203953Y0086808D02*
X0190800Y0086808D01*
X0190178Y0085209D02*
X0204523Y0085209D01*
X0221077Y0085209D02*
X0243922Y0085209D01*
X0244160Y0090005D02*
X0233970Y0090005D01*
X0231793Y0086808D02*
X0221647Y0086808D01*
X0221609Y0088406D02*
X0230195Y0088406D01*
X0228596Y0090005D02*
X0220910Y0090005D01*
X0220269Y0094800D02*
X0244331Y0094800D01*
X0243422Y0096399D02*
X0221178Y0096399D01*
X0221300Y0097997D02*
X0243300Y0097997D01*
X0243843Y0099596D02*
X0220757Y0099596D01*
X0250269Y0094800D02*
X0264877Y0094800D01*
X0264300Y0096399D02*
X0261898Y0096399D01*
X0263496Y0097997D02*
X0264388Y0097997D01*
X0265095Y0099596D02*
X0265251Y0099596D01*
X0271349Y0099596D02*
X0274251Y0099596D01*
X0273388Y0097997D02*
X0272212Y0097997D01*
X0272300Y0096399D02*
X0273300Y0096399D01*
X0273877Y0094800D02*
X0271723Y0094800D01*
X0274455Y0074020D02*
X0377154Y0074020D01*
X0377154Y0072421D02*
X0276054Y0072421D01*
X0277652Y0070823D02*
X0377154Y0070823D01*
X0377154Y0069224D02*
X0279251Y0069224D01*
X0280850Y0067626D02*
X0377154Y0067626D01*
X0377154Y0174726D02*
X0068225Y0174726D01*
X0069823Y0176324D02*
X0098777Y0176324D01*
X0074754Y0190711D02*
X0068366Y0190711D01*
X0068393Y0190725D02*
X0068954Y0191132D01*
X0069444Y0191622D01*
X0069851Y0192182D01*
X0070165Y0192799D01*
X0070379Y0193458D01*
X0070487Y0194142D01*
X0070487Y0194488D01*
X0066088Y0194488D01*
X0066088Y0194488D01*
X0070487Y0194488D01*
X0070487Y0194834D01*
X0070379Y0195519D01*
X0070165Y0196177D01*
X0069851Y0196794D01*
X0069444Y0197355D01*
X0068954Y0197844D01*
X0068393Y0198251D01*
X0067776Y0198566D01*
X0067118Y0198780D01*
X0066434Y0198888D01*
X0066087Y0198888D01*
X0066087Y0194488D01*
X0066087Y0194488D01*
X0066087Y0190088D01*
X0066434Y0190088D01*
X0067118Y0190197D01*
X0067776Y0190411D01*
X0068393Y0190725D01*
X0069916Y0192310D02*
X0072660Y0192310D01*
X0072087Y0193908D02*
X0070450Y0193908D01*
X0070381Y0195507D02*
X0072180Y0195507D01*
X0073047Y0197105D02*
X0069625Y0197105D01*
X0067352Y0198704D02*
X0079900Y0198704D01*
X0079900Y0200302D02*
X0056336Y0200302D01*
X0056166Y0200132D02*
X0056656Y0200622D01*
X0057063Y0201182D01*
X0057378Y0201799D01*
X0057592Y0202458D01*
X0057700Y0203142D01*
X0057700Y0203488D01*
X0053300Y0203488D01*
X0053300Y0199088D01*
X0053646Y0199088D01*
X0054330Y0199197D01*
X0054989Y0199411D01*
X0055606Y0199725D01*
X0056166Y0200132D01*
X0057411Y0201901D02*
X0079900Y0201901D01*
X0079900Y0203499D02*
X0057700Y0203499D01*
X0057700Y0203488D02*
X0057700Y0203834D01*
X0057592Y0204519D01*
X0057378Y0205177D01*
X0057063Y0205794D01*
X0056656Y0206355D01*
X0056166Y0206844D01*
X0055606Y0207251D01*
X0054989Y0207566D01*
X0054330Y0207780D01*
X0053646Y0207888D01*
X0053300Y0207888D01*
X0053300Y0203488D01*
X0053300Y0203488D01*
X0053300Y0199088D01*
X0052954Y0199088D01*
X0052270Y0199197D01*
X0051611Y0199411D01*
X0050994Y0199725D01*
X0050434Y0200132D01*
X0049944Y0200622D01*
X0049537Y0201182D01*
X0049222Y0201799D01*
X0049008Y0202458D01*
X0048900Y0203142D01*
X0048900Y0203488D01*
X0053300Y0203488D01*
X0053300Y0203488D01*
X0053300Y0203488D01*
X0057700Y0203488D01*
X0057403Y0205098D02*
X0062468Y0205098D01*
X0061593Y0206696D02*
X0056315Y0206696D01*
X0053300Y0206696D02*
X0053300Y0206696D01*
X0053300Y0207888D02*
X0052954Y0207888D01*
X0052270Y0207780D01*
X0051611Y0207566D01*
X0050994Y0207251D01*
X0050434Y0206844D01*
X0049944Y0206355D01*
X0049537Y0205794D01*
X0049222Y0205177D01*
X0049008Y0204519D01*
X0048900Y0203834D01*
X0048900Y0203488D01*
X0053300Y0203488D01*
X0053300Y0207888D01*
X0053300Y0205098D02*
X0053300Y0205098D01*
X0053300Y0203499D02*
X0053300Y0203499D01*
X0053300Y0203488D02*
X0053300Y0203488D01*
X0053300Y0201901D02*
X0053300Y0201901D01*
X0053300Y0200302D02*
X0053300Y0200302D01*
X0050264Y0200302D02*
X0045771Y0200302D01*
X0046972Y0201901D02*
X0049189Y0201901D01*
X0048900Y0203499D02*
X0047300Y0203499D01*
X0046963Y0205098D02*
X0049197Y0205098D01*
X0050285Y0206696D02*
X0045749Y0206696D01*
X0035400Y0217886D02*
X0027998Y0217886D01*
X0027998Y0219484D02*
X0035400Y0219484D01*
X0035400Y0221083D02*
X0027998Y0221083D01*
X0027998Y0222681D02*
X0035400Y0222681D01*
X0034852Y0224280D02*
X0027998Y0224280D01*
X0027998Y0225878D02*
X0033637Y0225878D01*
X0033300Y0227477D02*
X0027998Y0227477D01*
X0027998Y0229075D02*
X0033628Y0229075D01*
X0034829Y0230674D02*
X0027998Y0230674D01*
X0027998Y0232272D02*
X0087397Y0232272D01*
X0085799Y0230674D02*
X0068771Y0230674D01*
X0066596Y0233988D02*
X0065004Y0233988D01*
X0063534Y0234597D01*
X0062409Y0235722D01*
X0061800Y0237193D01*
X0061800Y0238784D01*
X0062409Y0240254D01*
X0063534Y0241379D01*
X0065004Y0241988D01*
X0066596Y0241988D01*
X0068066Y0241379D01*
X0069191Y0240254D01*
X0069800Y0238784D01*
X0069800Y0237193D01*
X0069191Y0235722D01*
X0068066Y0234597D01*
X0066596Y0233988D01*
X0068938Y0235469D02*
X0090594Y0235469D01*
X0091852Y0237068D02*
X0069748Y0237068D01*
X0069800Y0238666D02*
X0091800Y0238666D01*
X0092420Y0240265D02*
X0069180Y0240265D01*
X0066897Y0241863D02*
X0094703Y0241863D01*
X0096897Y0241863D02*
X0096988Y0241863D01*
X0098587Y0243462D02*
X0027998Y0243462D01*
X0027998Y0245060D02*
X0063071Y0245060D01*
X0063534Y0244597D02*
X0065004Y0243988D01*
X0066596Y0243988D01*
X0068066Y0244597D01*
X0069191Y0245722D01*
X0069800Y0247193D01*
X0069800Y0248784D01*
X0069191Y0250254D01*
X0068066Y0251379D01*
X0067700Y0251531D01*
X0067700Y0254446D01*
X0068066Y0254597D01*
X0069191Y0255722D01*
X0069800Y0257193D01*
X0069800Y0258784D01*
X0069191Y0260254D01*
X0068357Y0261088D01*
X0078513Y0261088D01*
X0083513Y0256088D01*
X0092257Y0256088D01*
X0092409Y0255722D01*
X0093534Y0254597D01*
X0095004Y0253988D01*
X0096596Y0253988D01*
X0098066Y0254597D01*
X0099191Y0255722D01*
X0099800Y0257193D01*
X0099800Y0258784D01*
X0099191Y0260254D01*
X0098066Y0261379D01*
X0096596Y0261988D01*
X0095004Y0261988D01*
X0093534Y0261379D01*
X0092409Y0260254D01*
X0092257Y0259888D01*
X0085087Y0259888D01*
X0081200Y0263775D01*
X0080087Y0264888D01*
X0068357Y0264888D01*
X0069191Y0265722D01*
X0069800Y0267193D01*
X0069800Y0268784D01*
X0069191Y0270254D01*
X0068066Y0271379D01*
X0066596Y0271988D01*
X0065004Y0271988D01*
X0063534Y0271379D01*
X0062409Y0270254D01*
X0062257Y0269888D01*
X0047013Y0269888D01*
X0043400Y0266275D01*
X0038461Y0261337D01*
X0038096Y0261488D01*
X0036504Y0261488D01*
X0035034Y0260879D01*
X0033909Y0259754D01*
X0033300Y0258284D01*
X0033300Y0256693D01*
X0033909Y0255222D01*
X0035034Y0254097D01*
X0036504Y0253488D01*
X0038096Y0253488D01*
X0039566Y0254097D01*
X0040691Y0255222D01*
X0041300Y0256693D01*
X0041300Y0258284D01*
X0041148Y0258650D01*
X0046087Y0263588D01*
X0048587Y0266088D01*
X0062257Y0266088D01*
X0062409Y0265722D01*
X0063243Y0264888D01*
X0056513Y0264888D01*
X0052961Y0261337D01*
X0052596Y0261488D01*
X0051004Y0261488D01*
X0049534Y0260879D01*
X0048409Y0259754D01*
X0047800Y0258284D01*
X0047800Y0256693D01*
X0048409Y0255222D01*
X0049534Y0254097D01*
X0051004Y0253488D01*
X0052596Y0253488D01*
X0054066Y0254097D01*
X0055191Y0255222D01*
X0055800Y0256693D01*
X0055800Y0258284D01*
X0055648Y0258650D01*
X0058087Y0261088D01*
X0063243Y0261088D01*
X0062409Y0260254D01*
X0061800Y0258784D01*
X0061800Y0257193D01*
X0062409Y0255722D01*
X0063534Y0254597D01*
X0063900Y0254446D01*
X0063900Y0251531D01*
X0063534Y0251379D01*
X0062409Y0250254D01*
X0061800Y0248784D01*
X0061800Y0247193D01*
X0062409Y0245722D01*
X0063534Y0244597D01*
X0062021Y0246659D02*
X0027998Y0246659D01*
X0027998Y0248257D02*
X0061800Y0248257D01*
X0062244Y0249856D02*
X0027998Y0249856D01*
X0027998Y0251454D02*
X0063716Y0251454D01*
X0063900Y0253053D02*
X0027998Y0253053D01*
X0027998Y0254651D02*
X0034480Y0254651D01*
X0033483Y0256250D02*
X0027998Y0256250D01*
X0027998Y0257849D02*
X0033300Y0257849D01*
X0033782Y0259447D02*
X0027998Y0259447D01*
X0027998Y0261046D02*
X0035436Y0261046D01*
X0039769Y0262644D02*
X0027998Y0262644D01*
X0027998Y0264243D02*
X0041367Y0264243D01*
X0042966Y0265841D02*
X0027998Y0265841D01*
X0027998Y0267440D02*
X0044564Y0267440D01*
X0046163Y0269038D02*
X0027998Y0269038D01*
X0027998Y0270637D02*
X0062792Y0270637D01*
X0068808Y0270637D02*
X0092792Y0270637D01*
X0092409Y0270254D02*
X0091800Y0268784D01*
X0091800Y0267193D01*
X0092409Y0265722D01*
X0093534Y0264597D01*
X0095004Y0263988D01*
X0096596Y0263988D01*
X0098066Y0264597D01*
X0099191Y0265722D01*
X0099800Y0267193D01*
X0099800Y0268784D01*
X0099191Y0270254D01*
X0098066Y0271379D01*
X0096596Y0271988D01*
X0095004Y0271988D01*
X0093534Y0271379D01*
X0092409Y0270254D01*
X0091905Y0269038D02*
X0069695Y0269038D01*
X0069800Y0267440D02*
X0091800Y0267440D01*
X0092360Y0265841D02*
X0069240Y0265841D01*
X0068399Y0261046D02*
X0078556Y0261046D01*
X0080154Y0259447D02*
X0069525Y0259447D01*
X0069800Y0257849D02*
X0081753Y0257849D01*
X0083351Y0256250D02*
X0069410Y0256250D01*
X0068120Y0254651D02*
X0093480Y0254651D01*
X0093716Y0251454D02*
X0067884Y0251454D01*
X0067700Y0253053D02*
X0098178Y0253053D01*
X0098120Y0254651D02*
X0099776Y0254651D01*
X0099410Y0256250D02*
X0104907Y0256250D01*
X0107167Y0257849D02*
X0099800Y0257849D01*
X0099525Y0259447D02*
X0153198Y0259447D01*
X0151741Y0257849D02*
X0143597Y0257849D01*
X0144900Y0256250D02*
X0151300Y0256250D01*
X0150776Y0254651D02*
X0145300Y0254651D01*
X0145035Y0253053D02*
X0149178Y0253053D01*
X0147579Y0251454D02*
X0143923Y0251454D01*
X0145132Y0246659D02*
X0151300Y0246659D01*
X0151300Y0246784D02*
X0151300Y0245193D01*
X0151909Y0243722D01*
X0153034Y0242597D01*
X0154504Y0241988D01*
X0156096Y0241988D01*
X0157566Y0242597D01*
X0158691Y0243722D01*
X0159300Y0245193D01*
X0159300Y0246784D01*
X0158691Y0248254D01*
X0157566Y0249379D01*
X0156096Y0249988D01*
X0154504Y0249988D01*
X0153034Y0249379D01*
X0151909Y0248254D01*
X0151300Y0246784D01*
X0151912Y0248257D02*
X0149756Y0248257D01*
X0151355Y0249856D02*
X0154185Y0249856D01*
X0152953Y0251454D02*
X0178079Y0251454D01*
X0176481Y0249856D02*
X0156415Y0249856D01*
X0158688Y0248257D02*
X0174882Y0248257D01*
X0173900Y0247275D02*
X0166400Y0239775D01*
X0159513Y0232888D01*
X0157857Y0232888D01*
X0158691Y0233722D01*
X0159300Y0235193D01*
X0159300Y0236784D01*
X0158691Y0238254D01*
X0157566Y0239379D01*
X0156096Y0239988D01*
X0154504Y0239988D01*
X0153034Y0239379D01*
X0151909Y0238254D01*
X0151300Y0236784D01*
X0151300Y0235193D01*
X0151909Y0233722D01*
X0152743Y0232888D01*
X0114513Y0232888D01*
X0113513Y0231888D01*
X0109461Y0227837D01*
X0109096Y0227988D01*
X0107504Y0227988D01*
X0106034Y0227379D01*
X0104909Y0226254D01*
X0104300Y0224784D01*
X0104300Y0223193D01*
X0104909Y0221722D01*
X0106034Y0220597D01*
X0107504Y0219988D01*
X0109096Y0219988D01*
X0110566Y0220597D01*
X0111691Y0221722D01*
X0112300Y0223193D01*
X0112300Y0224784D01*
X0112148Y0225150D01*
X0116087Y0229088D01*
X0152743Y0229088D01*
X0151909Y0228254D01*
X0151300Y0226784D01*
X0151300Y0225193D01*
X0151909Y0223722D01*
X0153034Y0222597D01*
X0153539Y0222388D01*
X0135087Y0222388D01*
X0134148Y0223327D01*
X0134300Y0223693D01*
X0134300Y0225284D01*
X0133691Y0226754D01*
X0132566Y0227879D01*
X0131096Y0228488D01*
X0129504Y0228488D01*
X0128034Y0227879D01*
X0126909Y0226754D01*
X0126300Y0225284D01*
X0126300Y0223693D01*
X0126452Y0223327D01*
X0113013Y0209888D01*
X0099343Y0209888D01*
X0099191Y0210254D01*
X0098066Y0211379D01*
X0096596Y0211988D01*
X0095004Y0211988D01*
X0093534Y0211379D01*
X0092409Y0210254D01*
X0091800Y0208784D01*
X0091800Y0207193D01*
X0092409Y0205722D01*
X0093534Y0204597D01*
X0095004Y0203988D01*
X0096596Y0203988D01*
X0098066Y0204597D01*
X0099191Y0205722D01*
X0099343Y0206088D01*
X0114587Y0206088D01*
X0129139Y0220640D01*
X0129504Y0220488D01*
X0131096Y0220488D01*
X0131461Y0220640D01*
X0133513Y0218588D01*
X0152243Y0218588D01*
X0151909Y0218254D01*
X0151300Y0216784D01*
X0151300Y0215193D01*
X0151909Y0213722D01*
X0153034Y0212597D01*
X0154504Y0211988D01*
X0156096Y0211988D01*
X0157566Y0212597D01*
X0158691Y0213722D01*
X0159300Y0215193D01*
X0159300Y0216784D01*
X0158691Y0218254D01*
X0158357Y0218588D01*
X0160087Y0218588D01*
X0161200Y0219701D01*
X0165587Y0224088D01*
X0181757Y0224088D01*
X0181909Y0223722D01*
X0183034Y0222597D01*
X0184504Y0221988D01*
X0186096Y0221988D01*
X0187566Y0222597D01*
X0188691Y0223722D01*
X0189300Y0225193D01*
X0189300Y0226784D01*
X0188691Y0228254D01*
X0187566Y0229379D01*
X0186096Y0229988D01*
X0184504Y0229988D01*
X0183034Y0229379D01*
X0181909Y0228254D01*
X0181757Y0227888D01*
X0164013Y0227888D01*
X0158513Y0222388D01*
X0157061Y0222388D01*
X0157566Y0222597D01*
X0158691Y0223722D01*
X0159300Y0225193D01*
X0159300Y0226784D01*
X0158691Y0228254D01*
X0157857Y0229088D01*
X0161087Y0229088D01*
X0169087Y0237088D01*
X0176587Y0244588D01*
X0184139Y0252140D01*
X0184504Y0251988D01*
X0186096Y0251988D01*
X0187566Y0252597D01*
X0188691Y0253722D01*
X0189300Y0255193D01*
X0189300Y0256784D01*
X0188691Y0258254D01*
X0187566Y0259379D01*
X0186096Y0259988D01*
X0184504Y0259988D01*
X0183034Y0259379D01*
X0181909Y0258254D01*
X0181300Y0256784D01*
X0181300Y0255193D01*
X0181452Y0254827D01*
X0173900Y0247275D01*
X0173284Y0246659D02*
X0159300Y0246659D01*
X0159245Y0245060D02*
X0171685Y0245060D01*
X0170087Y0243462D02*
X0158431Y0243462D01*
X0158279Y0238666D02*
X0165291Y0238666D01*
X0163693Y0237068D02*
X0159182Y0237068D01*
X0159300Y0235469D02*
X0162094Y0235469D01*
X0160496Y0233871D02*
X0158753Y0233871D01*
X0162673Y0230674D02*
X0199400Y0230674D01*
X0199400Y0229075D02*
X0187870Y0229075D01*
X0189013Y0227477D02*
X0199400Y0227477D01*
X0199400Y0225878D02*
X0189300Y0225878D01*
X0188922Y0224280D02*
X0199400Y0224280D01*
X0199400Y0222681D02*
X0187650Y0222681D01*
X0186989Y0220066D02*
X0186330Y0220280D01*
X0185646Y0220388D01*
X0185300Y0220388D01*
X0185300Y0215988D01*
X0185300Y0211588D01*
X0185646Y0211588D01*
X0186330Y0211697D01*
X0186989Y0211911D01*
X0187606Y0212225D01*
X0188166Y0212632D01*
X0188656Y0213122D01*
X0189063Y0213682D01*
X0189378Y0214299D01*
X0189592Y0214958D01*
X0189700Y0215642D01*
X0189700Y0215988D01*
X0185300Y0215988D01*
X0185300Y0215988D01*
X0185300Y0211588D01*
X0184954Y0211588D01*
X0184270Y0211697D01*
X0183611Y0211911D01*
X0182994Y0212225D01*
X0182434Y0212632D01*
X0181944Y0213122D01*
X0181537Y0213682D01*
X0181222Y0214299D01*
X0181008Y0214958D01*
X0180900Y0215642D01*
X0180900Y0215988D01*
X0185300Y0215988D01*
X0185300Y0215988D01*
X0185300Y0215988D01*
X0189700Y0215988D01*
X0189700Y0216334D01*
X0189592Y0217019D01*
X0189378Y0217677D01*
X0189063Y0218294D01*
X0188656Y0218855D01*
X0188166Y0219344D01*
X0187606Y0219751D01*
X0186989Y0220066D01*
X0187974Y0219484D02*
X0199400Y0219484D01*
X0199400Y0217886D02*
X0189271Y0217886D01*
X0189700Y0216287D02*
X0199400Y0216287D01*
X0199400Y0214689D02*
X0189504Y0214689D01*
X0188625Y0213090D02*
X0199400Y0213090D01*
X0199400Y0211492D02*
X0119990Y0211492D01*
X0118392Y0209893D02*
X0153272Y0209893D01*
X0152994Y0209751D02*
X0153611Y0210066D01*
X0154270Y0210280D01*
X0154954Y0210388D01*
X0155300Y0210388D01*
X0155646Y0210388D01*
X0156330Y0210280D01*
X0156989Y0210066D01*
X0157606Y0209751D01*
X0158166Y0209344D01*
X0158656Y0208855D01*
X0159063Y0208294D01*
X0159378Y0207677D01*
X0159592Y0207019D01*
X0159700Y0206334D01*
X0159700Y0205988D01*
X0155300Y0205988D01*
X0155300Y0201588D01*
X0155646Y0201588D01*
X0156330Y0201697D01*
X0156989Y0201911D01*
X0157606Y0202225D01*
X0158166Y0202632D01*
X0158656Y0203122D01*
X0159063Y0203682D01*
X0159378Y0204299D01*
X0159592Y0204958D01*
X0159700Y0205642D01*
X0159700Y0205988D01*
X0155300Y0205988D01*
X0155300Y0205988D01*
X0155300Y0201588D01*
X0154954Y0201588D01*
X0154270Y0201697D01*
X0153611Y0201911D01*
X0152994Y0202225D01*
X0152434Y0202632D01*
X0151944Y0203122D01*
X0151537Y0203682D01*
X0151222Y0204299D01*
X0151008Y0204958D01*
X0150900Y0205642D01*
X0150900Y0205988D01*
X0155300Y0205988D01*
X0155300Y0205988D01*
X0155300Y0205988D01*
X0150900Y0205988D01*
X0150900Y0206334D01*
X0151008Y0207019D01*
X0151222Y0207677D01*
X0151537Y0208294D01*
X0151944Y0208855D01*
X0152434Y0209344D01*
X0152994Y0209751D01*
X0151537Y0208295D02*
X0116793Y0208295D01*
X0115195Y0206696D02*
X0150957Y0206696D01*
X0150986Y0205098D02*
X0098566Y0205098D01*
X0093034Y0205098D02*
X0083700Y0205098D01*
X0083700Y0206696D02*
X0092006Y0206696D01*
X0091800Y0208295D02*
X0083700Y0208295D01*
X0083700Y0209893D02*
X0092260Y0209893D01*
X0093806Y0211492D02*
X0083700Y0211492D01*
X0083700Y0213090D02*
X0116215Y0213090D01*
X0114616Y0211492D02*
X0097794Y0211492D01*
X0099340Y0209893D02*
X0113018Y0209893D01*
X0117814Y0214689D02*
X0098157Y0214689D01*
X0098066Y0214597D02*
X0099191Y0215722D01*
X0099800Y0217193D01*
X0099800Y0218784D01*
X0099191Y0220254D01*
X0098066Y0221379D01*
X0096596Y0221988D01*
X0095004Y0221988D01*
X0093534Y0221379D01*
X0092409Y0220254D01*
X0091800Y0218784D01*
X0091800Y0217193D01*
X0092409Y0215722D01*
X0093534Y0214597D01*
X0095004Y0213988D01*
X0096596Y0213988D01*
X0098066Y0214597D01*
X0099425Y0216287D02*
X0119412Y0216287D01*
X0121011Y0217886D02*
X0099800Y0217886D01*
X0099510Y0219484D02*
X0122609Y0219484D01*
X0124208Y0221083D02*
X0111051Y0221083D01*
X0112088Y0222681D02*
X0125806Y0222681D01*
X0126300Y0224280D02*
X0112300Y0224280D01*
X0112877Y0225878D02*
X0126546Y0225878D01*
X0127632Y0227477D02*
X0114476Y0227477D01*
X0116074Y0229075D02*
X0152730Y0229075D01*
X0151587Y0227477D02*
X0132968Y0227477D01*
X0134054Y0225878D02*
X0151300Y0225878D01*
X0151678Y0224280D02*
X0134300Y0224280D01*
X0134794Y0222681D02*
X0152950Y0222681D01*
X0157650Y0222681D02*
X0158806Y0222681D01*
X0158922Y0224280D02*
X0160405Y0224280D01*
X0159300Y0225878D02*
X0162003Y0225878D01*
X0163602Y0227477D02*
X0159013Y0227477D01*
X0157870Y0229075D02*
X0182730Y0229075D01*
X0183818Y0232272D02*
X0164271Y0232272D01*
X0165870Y0233871D02*
X0181847Y0233871D01*
X0181909Y0233722D02*
X0183034Y0232597D01*
X0184504Y0231988D01*
X0186096Y0231988D01*
X0187566Y0232597D01*
X0188691Y0233722D01*
X0189300Y0235193D01*
X0189300Y0236784D01*
X0188691Y0238254D01*
X0187566Y0239379D01*
X0186096Y0239988D01*
X0184504Y0239988D01*
X0183034Y0239379D01*
X0181909Y0238254D01*
X0181300Y0236784D01*
X0181300Y0235193D01*
X0181909Y0233722D01*
X0181300Y0235469D02*
X0167468Y0235469D01*
X0169067Y0237068D02*
X0181418Y0237068D01*
X0182321Y0238666D02*
X0170665Y0238666D01*
X0172264Y0240265D02*
X0211300Y0240265D01*
X0211333Y0241863D02*
X0173862Y0241863D01*
X0175461Y0243462D02*
X0182169Y0243462D01*
X0181909Y0243722D02*
X0183034Y0242597D01*
X0184504Y0241988D01*
X0186096Y0241988D01*
X0187566Y0242597D01*
X0188691Y0243722D01*
X0189300Y0245193D01*
X0189300Y0246784D01*
X0188691Y0248254D01*
X0187566Y0249379D01*
X0186096Y0249988D01*
X0184504Y0249988D01*
X0183034Y0249379D01*
X0181909Y0248254D01*
X0181300Y0246784D01*
X0181300Y0245193D01*
X0181909Y0243722D01*
X0181355Y0245060D02*
X0177059Y0245060D01*
X0178658Y0246659D02*
X0181300Y0246659D01*
X0181912Y0248257D02*
X0180256Y0248257D01*
X0181855Y0249856D02*
X0184185Y0249856D01*
X0183453Y0251454D02*
X0211300Y0251454D01*
X0211439Y0249856D02*
X0186415Y0249856D01*
X0188688Y0248257D02*
X0201349Y0248257D01*
X0200348Y0246659D02*
X0189300Y0246659D01*
X0189245Y0245060D02*
X0200454Y0245060D01*
X0201606Y0243462D02*
X0188431Y0243462D01*
X0188279Y0238666D02*
X0211965Y0238666D01*
X0212117Y0243462D02*
X0204994Y0243462D01*
X0205251Y0248257D02*
X0212374Y0248257D01*
X0211826Y0253053D02*
X0188022Y0253053D01*
X0189076Y0254651D02*
X0202416Y0254651D01*
X0201816Y0256250D02*
X0189300Y0256250D01*
X0188859Y0257849D02*
X0202133Y0257849D01*
X0204145Y0259447D02*
X0187402Y0259447D01*
X0186096Y0261988D02*
X0187566Y0262597D01*
X0188691Y0263722D01*
X0189300Y0265193D01*
X0189300Y0266784D01*
X0188691Y0268254D01*
X0187566Y0269379D01*
X0186096Y0269988D01*
X0184504Y0269988D01*
X0183034Y0269379D01*
X0181909Y0268254D01*
X0181300Y0266784D01*
X0181300Y0265193D01*
X0181909Y0263722D01*
X0183034Y0262597D01*
X0184504Y0261988D01*
X0186096Y0261988D01*
X0187613Y0262644D02*
X0211656Y0262644D01*
X0211300Y0261046D02*
X0098399Y0261046D01*
X0097210Y0264243D02*
X0151693Y0264243D01*
X0151909Y0263722D02*
X0153034Y0262597D01*
X0154504Y0261988D01*
X0156096Y0261988D01*
X0157566Y0262597D01*
X0158691Y0263722D01*
X0159300Y0265193D01*
X0159300Y0266784D01*
X0158691Y0268254D01*
X0157566Y0269379D01*
X0156096Y0269988D01*
X0154504Y0269988D01*
X0153034Y0269379D01*
X0151909Y0268254D01*
X0151300Y0266784D01*
X0151300Y0265193D01*
X0151909Y0263722D01*
X0152987Y0262644D02*
X0082331Y0262644D01*
X0080733Y0264243D02*
X0094390Y0264243D01*
X0093200Y0261046D02*
X0083930Y0261046D01*
X0092244Y0249856D02*
X0069356Y0249856D01*
X0069800Y0248257D02*
X0091800Y0248257D01*
X0092021Y0246659D02*
X0069579Y0246659D01*
X0068529Y0245060D02*
X0093071Y0245060D01*
X0098529Y0245060D02*
X0100185Y0245060D01*
X0099579Y0246659D02*
X0101784Y0246659D01*
X0103382Y0248257D02*
X0099800Y0248257D01*
X0100355Y0249856D02*
X0104981Y0249856D01*
X0105177Y0251454D02*
X0101953Y0251454D01*
X0107158Y0246659D02*
X0116302Y0246659D01*
X0115522Y0245060D02*
X0105559Y0245060D01*
X0103961Y0243462D02*
X0115429Y0243462D01*
X0115944Y0241863D02*
X0102362Y0241863D01*
X0100764Y0240265D02*
X0117439Y0240265D01*
X0119800Y0240265D02*
X0119800Y0240265D01*
X0119800Y0241863D02*
X0119800Y0241863D01*
X0119800Y0243462D02*
X0119800Y0243462D01*
X0122161Y0240265D02*
X0140059Y0240265D01*
X0141300Y0240265D02*
X0141300Y0240265D01*
X0142541Y0240265D02*
X0166890Y0240265D01*
X0168488Y0241863D02*
X0144832Y0241863D01*
X0145592Y0243462D02*
X0152169Y0243462D01*
X0151355Y0245060D02*
X0145664Y0245060D01*
X0141300Y0243462D02*
X0141300Y0243462D01*
X0141300Y0241863D02*
X0141300Y0241863D01*
X0137768Y0241863D02*
X0123656Y0241863D01*
X0124171Y0243462D02*
X0137008Y0243462D01*
X0136936Y0245060D02*
X0124078Y0245060D01*
X0123298Y0246659D02*
X0137468Y0246659D01*
X0127677Y0251454D02*
X0122923Y0251454D01*
X0123742Y0253053D02*
X0126565Y0253053D01*
X0126300Y0254651D02*
X0123800Y0254651D01*
X0123193Y0256250D02*
X0126700Y0256250D01*
X0128003Y0257849D02*
X0120933Y0257849D01*
X0118667Y0257849D02*
X0109433Y0257849D01*
X0111693Y0256250D02*
X0116407Y0256250D01*
X0132597Y0257849D02*
X0139003Y0257849D01*
X0151300Y0265841D02*
X0099240Y0265841D01*
X0099800Y0267440D02*
X0151572Y0267440D01*
X0152693Y0269038D02*
X0099695Y0269038D01*
X0098808Y0270637D02*
X0211300Y0270637D01*
X0211487Y0272235D02*
X0027998Y0272235D01*
X0027998Y0273834D02*
X0212489Y0273834D01*
X0218111Y0273834D02*
X0241929Y0273834D01*
X0241944Y0273855D02*
X0241537Y0273294D01*
X0241222Y0272677D01*
X0241008Y0272019D01*
X0240900Y0271334D01*
X0240900Y0270988D01*
X0245300Y0270988D01*
X0245300Y0270988D01*
X0249700Y0270988D01*
X0249700Y0271334D01*
X0249592Y0272019D01*
X0249378Y0272677D01*
X0249063Y0273294D01*
X0248656Y0273855D01*
X0248166Y0274344D01*
X0247606Y0274751D01*
X0246989Y0275066D01*
X0246330Y0275280D01*
X0245646Y0275388D01*
X0245300Y0275388D01*
X0245300Y0270988D01*
X0245300Y0275388D01*
X0244954Y0275388D01*
X0244270Y0275280D01*
X0243611Y0275066D01*
X0242994Y0274751D01*
X0242434Y0274344D01*
X0241944Y0273855D01*
X0241079Y0272235D02*
X0227240Y0272235D01*
X0228839Y0270637D02*
X0240901Y0270637D01*
X0241355Y0269038D02*
X0230437Y0269038D01*
X0245300Y0270988D02*
X0245300Y0270988D01*
X0245300Y0272235D02*
X0245300Y0272235D01*
X0245300Y0273834D02*
X0245300Y0273834D01*
X0248671Y0273834D02*
X0251863Y0273834D01*
X0251909Y0273722D02*
X0253034Y0272597D01*
X0254504Y0271988D01*
X0256096Y0271988D01*
X0257566Y0272597D01*
X0258691Y0273722D01*
X0259300Y0275193D01*
X0259300Y0276784D01*
X0258691Y0278254D01*
X0257566Y0279379D01*
X0256096Y0279988D01*
X0254504Y0279988D01*
X0253034Y0279379D01*
X0251909Y0278254D01*
X0251300Y0276784D01*
X0251300Y0275193D01*
X0251909Y0273722D01*
X0251300Y0275432D02*
X0027998Y0275432D01*
X0027998Y0277031D02*
X0251402Y0277031D01*
X0252284Y0278629D02*
X0027998Y0278629D01*
X0027998Y0280228D02*
X0264109Y0280228D01*
X0264270Y0280280D02*
X0263611Y0280066D01*
X0262994Y0279751D01*
X0262434Y0279344D01*
X0261944Y0278855D01*
X0261537Y0278294D01*
X0261222Y0277677D01*
X0261008Y0277019D01*
X0260900Y0276334D01*
X0260900Y0275988D01*
X0265300Y0275988D01*
X0265300Y0275988D01*
X0269700Y0275988D01*
X0269700Y0276334D01*
X0269592Y0277019D01*
X0269378Y0277677D01*
X0269063Y0278294D01*
X0268656Y0278855D01*
X0268166Y0279344D01*
X0267606Y0279751D01*
X0266989Y0280066D01*
X0266330Y0280280D01*
X0265646Y0280388D01*
X0265300Y0280388D01*
X0265300Y0275988D01*
X0265300Y0280388D01*
X0264954Y0280388D01*
X0264270Y0280280D01*
X0265300Y0280228D02*
X0265300Y0280228D01*
X0266491Y0280228D02*
X0377154Y0280228D01*
X0377154Y0281826D02*
X0027998Y0281826D01*
X0046741Y0264243D02*
X0055867Y0264243D01*
X0054269Y0262644D02*
X0045143Y0262644D01*
X0043544Y0261046D02*
X0049936Y0261046D01*
X0048282Y0259447D02*
X0041946Y0259447D01*
X0041300Y0257849D02*
X0047800Y0257849D01*
X0047983Y0256250D02*
X0041117Y0256250D01*
X0040120Y0254651D02*
X0048980Y0254651D01*
X0054620Y0254651D02*
X0063480Y0254651D01*
X0062190Y0256250D02*
X0055617Y0256250D01*
X0055800Y0257849D02*
X0061800Y0257849D01*
X0062075Y0259447D02*
X0056446Y0259447D01*
X0058044Y0261046D02*
X0063201Y0261046D01*
X0062360Y0265841D02*
X0048340Y0265841D01*
X0064703Y0241863D02*
X0027998Y0241863D01*
X0027998Y0240265D02*
X0062420Y0240265D01*
X0061800Y0238666D02*
X0027998Y0238666D01*
X0027998Y0237068D02*
X0061852Y0237068D01*
X0062662Y0235469D02*
X0027998Y0235469D01*
X0027998Y0233871D02*
X0088996Y0233871D01*
X0091173Y0230674D02*
X0092829Y0230674D01*
X0092771Y0232272D02*
X0113897Y0232272D01*
X0112299Y0230674D02*
X0098771Y0230674D01*
X0099679Y0229075D02*
X0110700Y0229075D01*
X0106270Y0227477D02*
X0099800Y0227477D01*
X0099256Y0225878D02*
X0104753Y0225878D01*
X0104300Y0224280D02*
X0097300Y0224280D01*
X0098362Y0221083D02*
X0105549Y0221083D01*
X0104512Y0222681D02*
X0093180Y0222681D01*
X0093238Y0221083D02*
X0091582Y0221083D01*
X0092090Y0219484D02*
X0089983Y0219484D01*
X0088385Y0217886D02*
X0091800Y0217886D01*
X0092175Y0216287D02*
X0086786Y0216287D01*
X0085188Y0214689D02*
X0093443Y0214689D01*
X0089405Y0224280D02*
X0067300Y0224280D01*
X0069256Y0225878D02*
X0091003Y0225878D01*
X0091800Y0227477D02*
X0087976Y0227477D01*
X0089574Y0229075D02*
X0091921Y0229075D01*
X0094370Y0233871D02*
X0151847Y0233871D01*
X0151300Y0235469D02*
X0098938Y0235469D01*
X0099748Y0237068D02*
X0151418Y0237068D01*
X0152321Y0238666D02*
X0099800Y0238666D01*
X0124786Y0216287D02*
X0151300Y0216287D01*
X0151509Y0214689D02*
X0123188Y0214689D01*
X0121589Y0213090D02*
X0152541Y0213090D01*
X0155300Y0210388D02*
X0155300Y0205988D01*
X0155300Y0205988D01*
X0155300Y0210388D01*
X0155300Y0209893D02*
X0155300Y0209893D01*
X0155300Y0208295D02*
X0155300Y0208295D01*
X0155300Y0206696D02*
X0155300Y0206696D01*
X0155300Y0205098D02*
X0155300Y0205098D01*
X0155300Y0203499D02*
X0155300Y0203499D01*
X0155300Y0201901D02*
X0155300Y0201901D01*
X0156958Y0201901D02*
X0190525Y0201901D01*
X0188927Y0200302D02*
X0083700Y0200302D01*
X0083700Y0198704D02*
X0187328Y0198704D01*
X0186096Y0201988D02*
X0187566Y0202597D01*
X0188691Y0203722D01*
X0189300Y0205193D01*
X0189300Y0206784D01*
X0188691Y0208254D01*
X0187566Y0209379D01*
X0186096Y0209988D01*
X0184504Y0209988D01*
X0183034Y0209379D01*
X0181909Y0208254D01*
X0181300Y0206784D01*
X0181300Y0205193D01*
X0181909Y0203722D01*
X0183034Y0202597D01*
X0184504Y0201988D01*
X0186096Y0201988D01*
X0188468Y0203499D02*
X0192124Y0203499D01*
X0193722Y0205098D02*
X0189261Y0205098D01*
X0189300Y0206696D02*
X0195321Y0206696D01*
X0196919Y0208295D02*
X0188650Y0208295D01*
X0186325Y0209893D02*
X0198518Y0209893D01*
X0207498Y0203499D02*
X0212154Y0203499D01*
X0211348Y0201901D02*
X0205899Y0201901D01*
X0204301Y0200302D02*
X0211300Y0200302D01*
X0211928Y0198704D02*
X0202702Y0198704D01*
X0201104Y0197105D02*
X0214222Y0197105D01*
X0214504Y0194988D02*
X0213034Y0194379D01*
X0211909Y0193254D01*
X0211300Y0191784D01*
X0211300Y0190193D01*
X0211909Y0188722D01*
X0213034Y0187597D01*
X0214504Y0186988D01*
X0216096Y0186988D01*
X0217566Y0187597D01*
X0217957Y0187988D01*
X0242643Y0187988D01*
X0243034Y0187597D01*
X0244504Y0186988D01*
X0246096Y0186988D01*
X0247566Y0187597D01*
X0248691Y0188722D01*
X0249300Y0190193D01*
X0249300Y0191784D01*
X0248691Y0193254D01*
X0247566Y0194379D01*
X0246096Y0194988D01*
X0244504Y0194988D01*
X0243034Y0194379D01*
X0242643Y0193988D01*
X0217957Y0193988D01*
X0217566Y0194379D01*
X0216096Y0194988D01*
X0214504Y0194988D01*
X0212563Y0193908D02*
X0199369Y0193908D01*
X0200624Y0195507D02*
X0323162Y0195507D01*
X0323534Y0195879D02*
X0322409Y0194754D01*
X0321800Y0193284D01*
X0321800Y0191693D01*
X0322409Y0190222D01*
X0323534Y0189097D01*
X0325004Y0188488D01*
X0326596Y0188488D01*
X0328066Y0189097D01*
X0329191Y0190222D01*
X0329800Y0191693D01*
X0329800Y0193284D01*
X0329191Y0194754D01*
X0328066Y0195879D01*
X0326596Y0196488D01*
X0325004Y0196488D01*
X0323534Y0195879D01*
X0322059Y0193908D02*
X0308037Y0193908D01*
X0307566Y0194379D02*
X0306096Y0194988D01*
X0304504Y0194988D01*
X0303034Y0194379D01*
X0302643Y0193988D01*
X0277957Y0193988D01*
X0277566Y0194379D01*
X0276096Y0194988D01*
X0274504Y0194988D01*
X0273034Y0194379D01*
X0271909Y0193254D01*
X0271300Y0191784D01*
X0271300Y0190193D01*
X0271909Y0188722D01*
X0273034Y0187597D01*
X0274504Y0186988D01*
X0276096Y0186988D01*
X0277566Y0187597D01*
X0277957Y0187988D01*
X0302643Y0187988D01*
X0303034Y0187597D01*
X0304504Y0186988D01*
X0306096Y0186988D01*
X0307566Y0187597D01*
X0308691Y0188722D01*
X0309300Y0190193D01*
X0309300Y0191784D01*
X0308691Y0193254D01*
X0307566Y0194379D01*
X0309082Y0192310D02*
X0321800Y0192310D01*
X0322207Y0190711D02*
X0309300Y0190711D01*
X0308853Y0189113D02*
X0323519Y0189113D01*
X0328081Y0189113D02*
X0332960Y0189113D01*
X0332934Y0189132D02*
X0333494Y0188725D01*
X0334111Y0188411D01*
X0334770Y0188197D01*
X0335454Y0188088D01*
X0335800Y0188088D01*
X0336146Y0188088D01*
X0336830Y0188197D01*
X0337489Y0188411D01*
X0338106Y0188725D01*
X0338666Y0189132D01*
X0339156Y0189622D01*
X0339563Y0190182D01*
X0339878Y0190799D01*
X0340092Y0191458D01*
X0340200Y0192142D01*
X0340200Y0192488D01*
X0335800Y0192488D01*
X0335800Y0188088D01*
X0335800Y0192488D01*
X0335800Y0192488D01*
X0335800Y0192488D01*
X0331400Y0192488D01*
X0331400Y0192142D01*
X0331508Y0191458D01*
X0331722Y0190799D01*
X0332037Y0190182D01*
X0332444Y0189622D01*
X0332934Y0189132D01*
X0331767Y0190711D02*
X0329393Y0190711D01*
X0329800Y0192310D02*
X0331400Y0192310D01*
X0331400Y0192488D02*
X0335800Y0192488D01*
X0335800Y0192488D01*
X0340200Y0192488D01*
X0340200Y0192834D01*
X0340092Y0193519D01*
X0339878Y0194177D01*
X0339563Y0194794D01*
X0339156Y0195355D01*
X0338666Y0195844D01*
X0338106Y0196251D01*
X0337489Y0196566D01*
X0336830Y0196780D01*
X0336146Y0196888D01*
X0335800Y0196888D01*
X0335800Y0192488D01*
X0335800Y0196888D01*
X0335454Y0196888D01*
X0334770Y0196780D01*
X0334111Y0196566D01*
X0333494Y0196251D01*
X0332934Y0195844D01*
X0332444Y0195355D01*
X0332037Y0194794D01*
X0331722Y0194177D01*
X0331508Y0193519D01*
X0331400Y0192834D01*
X0331400Y0192488D01*
X0331635Y0193908D02*
X0329541Y0193908D01*
X0328438Y0195507D02*
X0332596Y0195507D01*
X0335800Y0195507D02*
X0335800Y0195507D01*
X0335800Y0193908D02*
X0335800Y0193908D01*
X0335800Y0192488D02*
X0335800Y0192488D01*
X0335800Y0192310D02*
X0335800Y0192310D01*
X0335800Y0190711D02*
X0335800Y0190711D01*
X0335800Y0189113D02*
X0335800Y0189113D01*
X0338640Y0189113D02*
X0377154Y0189113D01*
X0377154Y0190711D02*
X0339833Y0190711D01*
X0340200Y0192310D02*
X0377154Y0192310D01*
X0377154Y0193908D02*
X0339965Y0193908D01*
X0339004Y0195507D02*
X0377154Y0195507D01*
X0377154Y0197105D02*
X0306378Y0197105D01*
X0304222Y0197105D02*
X0276378Y0197105D01*
X0274222Y0197105D02*
X0246378Y0197105D01*
X0244222Y0197105D02*
X0216378Y0197105D01*
X0218672Y0198704D02*
X0241928Y0198704D01*
X0241300Y0200302D02*
X0219300Y0200302D01*
X0219252Y0201901D02*
X0241348Y0201901D01*
X0242154Y0203499D02*
X0218446Y0203499D01*
X0211518Y0192310D02*
X0192308Y0192310D01*
X0193907Y0193908D02*
X0196231Y0193908D01*
X0190710Y0190711D02*
X0211300Y0190711D01*
X0211747Y0189113D02*
X0189111Y0189113D01*
X0187513Y0187514D02*
X0213235Y0187514D01*
X0217365Y0187514D02*
X0243235Y0187514D01*
X0247365Y0187514D02*
X0273235Y0187514D01*
X0271747Y0189113D02*
X0248853Y0189113D01*
X0249300Y0190711D02*
X0271300Y0190711D01*
X0271518Y0192310D02*
X0249082Y0192310D01*
X0248037Y0193908D02*
X0272563Y0193908D01*
X0271928Y0198704D02*
X0248672Y0198704D01*
X0249300Y0200302D02*
X0271300Y0200302D01*
X0271348Y0201901D02*
X0249252Y0201901D01*
X0248446Y0203499D02*
X0272154Y0203499D01*
X0278446Y0203499D02*
X0302154Y0203499D01*
X0301348Y0201901D02*
X0279252Y0201901D01*
X0279300Y0200302D02*
X0301300Y0200302D01*
X0301928Y0198704D02*
X0278672Y0198704D01*
X0278263Y0208295D02*
X0302337Y0208295D01*
X0301424Y0209893D02*
X0279176Y0209893D01*
X0279300Y0211492D02*
X0301300Y0211492D01*
X0301841Y0213090D02*
X0278759Y0213090D01*
X0276819Y0214689D02*
X0303781Y0214689D01*
X0306819Y0214689D02*
X0328300Y0214689D01*
X0328549Y0213090D02*
X0308759Y0213090D01*
X0309300Y0211492D02*
X0329640Y0211492D01*
X0328487Y0206696D02*
X0317195Y0206696D01*
X0315596Y0205098D02*
X0327942Y0205098D01*
X0328002Y0203499D02*
X0308446Y0203499D01*
X0309252Y0201901D02*
X0328741Y0201901D01*
X0330945Y0200302D02*
X0309300Y0200302D01*
X0308672Y0198704D02*
X0377154Y0198704D01*
X0377154Y0200302D02*
X0333655Y0200302D01*
X0332300Y0200302D02*
X0332300Y0200302D01*
X0332300Y0201901D02*
X0332300Y0201901D01*
X0332300Y0203499D02*
X0332300Y0203499D01*
X0335859Y0201901D02*
X0359231Y0201901D01*
X0365369Y0201901D02*
X0377154Y0201901D01*
X0377154Y0203499D02*
X0366220Y0203499D01*
X0366300Y0205098D02*
X0377154Y0205098D01*
X0377154Y0206696D02*
X0365715Y0206696D01*
X0363563Y0208295D02*
X0377154Y0208295D01*
X0377154Y0209893D02*
X0340582Y0209893D01*
X0342180Y0208295D02*
X0361037Y0208295D01*
X0361504Y0210488D02*
X0363096Y0210488D01*
X0364566Y0211097D01*
X0365691Y0212222D01*
X0366300Y0213693D01*
X0366300Y0215284D01*
X0365691Y0216754D01*
X0364566Y0217879D01*
X0363096Y0218488D01*
X0361504Y0218488D01*
X0360034Y0217879D01*
X0358909Y0216754D01*
X0358300Y0215284D01*
X0358300Y0213693D01*
X0358909Y0212222D01*
X0360034Y0211097D01*
X0361504Y0210488D01*
X0359640Y0211492D02*
X0334960Y0211492D01*
X0336050Y0213090D02*
X0358549Y0213090D01*
X0358300Y0214689D02*
X0336300Y0214689D01*
X0335884Y0216287D02*
X0358716Y0216287D01*
X0360050Y0217886D02*
X0334550Y0217886D01*
X0333096Y0220488D02*
X0331504Y0220488D01*
X0330034Y0221097D01*
X0328909Y0222222D01*
X0328300Y0223693D01*
X0328300Y0225284D01*
X0328909Y0226754D01*
X0330034Y0227879D01*
X0331504Y0228488D01*
X0333096Y0228488D01*
X0334566Y0227879D01*
X0335691Y0226754D01*
X0336300Y0225284D01*
X0336300Y0223693D01*
X0335691Y0222222D01*
X0334566Y0221097D01*
X0333096Y0220488D01*
X0334531Y0221083D02*
X0360069Y0221083D01*
X0360034Y0221097D02*
X0361504Y0220488D01*
X0363096Y0220488D01*
X0364566Y0221097D01*
X0365691Y0222222D01*
X0366300Y0223693D01*
X0366300Y0225284D01*
X0365691Y0226754D01*
X0364566Y0227879D01*
X0363096Y0228488D01*
X0361504Y0228488D01*
X0360034Y0227879D01*
X0358909Y0226754D01*
X0358300Y0225284D01*
X0358300Y0223693D01*
X0358909Y0222222D01*
X0360034Y0221097D01*
X0358719Y0222681D02*
X0335881Y0222681D01*
X0336300Y0224280D02*
X0358300Y0224280D01*
X0358546Y0225878D02*
X0336054Y0225878D01*
X0334968Y0227477D02*
X0359632Y0227477D01*
X0361056Y0230674D02*
X0333544Y0230674D01*
X0333096Y0230488D02*
X0334566Y0231097D01*
X0335691Y0232222D01*
X0336300Y0233693D01*
X0336300Y0235284D01*
X0335691Y0236754D01*
X0334566Y0237879D01*
X0333096Y0238488D01*
X0331504Y0238488D01*
X0330034Y0237879D01*
X0328909Y0236754D01*
X0328300Y0235284D01*
X0328300Y0233693D01*
X0328909Y0232222D01*
X0330034Y0231097D01*
X0331504Y0230488D01*
X0333096Y0230488D01*
X0331056Y0230674D02*
X0309300Y0230674D01*
X0309098Y0232272D02*
X0328888Y0232272D01*
X0328300Y0233871D02*
X0308074Y0233871D01*
X0306288Y0237068D02*
X0329223Y0237068D01*
X0328377Y0235469D02*
X0292506Y0235469D01*
X0294104Y0233871D02*
X0302526Y0233871D01*
X0304312Y0237068D02*
X0290907Y0237068D01*
X0292336Y0240265D02*
X0279300Y0240265D01*
X0279267Y0241863D02*
X0290738Y0241863D01*
X0289139Y0243462D02*
X0278483Y0243462D01*
X0278226Y0248257D02*
X0302374Y0248257D01*
X0302117Y0243462D02*
X0294513Y0243462D01*
X0292915Y0245060D02*
X0328300Y0245060D01*
X0328300Y0245284D02*
X0328300Y0243693D01*
X0328909Y0242222D01*
X0330034Y0241097D01*
X0331504Y0240488D01*
X0333096Y0240488D01*
X0334566Y0241097D01*
X0335691Y0242222D01*
X0336300Y0243693D01*
X0336300Y0245284D01*
X0335691Y0246754D01*
X0334566Y0247879D01*
X0333096Y0248488D01*
X0331504Y0248488D01*
X0330034Y0247879D01*
X0328909Y0246754D01*
X0328300Y0245284D01*
X0328870Y0246659D02*
X0291316Y0246659D01*
X0290245Y0249856D02*
X0279161Y0249856D01*
X0279300Y0251454D02*
X0288647Y0251454D01*
X0287048Y0253053D02*
X0278774Y0253053D01*
X0278991Y0259447D02*
X0292154Y0259447D01*
X0290556Y0261046D02*
X0279300Y0261046D01*
X0278944Y0262644D02*
X0288957Y0262644D01*
X0291134Y0265841D02*
X0328531Y0265841D01*
X0328300Y0265284D02*
X0328300Y0263693D01*
X0328909Y0262222D01*
X0330034Y0261097D01*
X0331504Y0260488D01*
X0333096Y0260488D01*
X0334566Y0261097D01*
X0335691Y0262222D01*
X0336300Y0263693D01*
X0336300Y0265284D01*
X0335691Y0266754D01*
X0334566Y0267879D01*
X0333096Y0268488D01*
X0331504Y0268488D01*
X0330034Y0267879D01*
X0328909Y0266754D01*
X0328300Y0265284D01*
X0328300Y0264243D02*
X0307702Y0264243D01*
X0308944Y0262644D02*
X0328734Y0262644D01*
X0330159Y0261046D02*
X0309300Y0261046D01*
X0308991Y0259447D02*
X0377154Y0259447D01*
X0377154Y0257849D02*
X0364597Y0257849D01*
X0364566Y0257879D02*
X0363096Y0258488D01*
X0361504Y0258488D01*
X0360034Y0257879D01*
X0358909Y0256754D01*
X0358300Y0255284D01*
X0358300Y0253693D01*
X0358909Y0252222D01*
X0360034Y0251097D01*
X0361504Y0250488D01*
X0363096Y0250488D01*
X0364566Y0251097D01*
X0365691Y0252222D01*
X0366300Y0253693D01*
X0366300Y0255284D01*
X0365691Y0256754D01*
X0364566Y0257879D01*
X0365900Y0256250D02*
X0377154Y0256250D01*
X0377154Y0254651D02*
X0366300Y0254651D01*
X0366035Y0253053D02*
X0377154Y0253053D01*
X0377154Y0251454D02*
X0364923Y0251454D01*
X0363653Y0248257D02*
X0377154Y0248257D01*
X0377154Y0246659D02*
X0365730Y0246659D01*
X0365691Y0246754D02*
X0364566Y0247879D01*
X0363096Y0248488D01*
X0361504Y0248488D01*
X0360034Y0247879D01*
X0358909Y0246754D01*
X0358300Y0245284D01*
X0358300Y0243693D01*
X0358909Y0242222D01*
X0360034Y0241097D01*
X0361504Y0240488D01*
X0363096Y0240488D01*
X0364566Y0241097D01*
X0365691Y0242222D01*
X0366300Y0243693D01*
X0366300Y0245284D01*
X0365691Y0246754D01*
X0366300Y0245060D02*
X0377154Y0245060D01*
X0377154Y0243462D02*
X0366204Y0243462D01*
X0365332Y0241863D02*
X0377154Y0241863D01*
X0377154Y0240265D02*
X0309300Y0240265D01*
X0309267Y0241863D02*
X0329268Y0241863D01*
X0328396Y0243462D02*
X0308483Y0243462D01*
X0308226Y0248257D02*
X0330947Y0248257D01*
X0331504Y0250488D02*
X0333096Y0250488D01*
X0334566Y0251097D01*
X0335691Y0252222D01*
X0336300Y0253693D01*
X0336300Y0255284D01*
X0335691Y0256754D01*
X0334566Y0257879D01*
X0333096Y0258488D01*
X0331504Y0258488D01*
X0330034Y0257879D01*
X0328909Y0256754D01*
X0328300Y0255284D01*
X0328300Y0253693D01*
X0328909Y0252222D01*
X0330034Y0251097D01*
X0331504Y0250488D01*
X0329677Y0251454D02*
X0309300Y0251454D01*
X0309161Y0249856D02*
X0377154Y0249856D01*
X0377154Y0261046D02*
X0364441Y0261046D01*
X0364566Y0261097D02*
X0365691Y0262222D01*
X0366300Y0263693D01*
X0366300Y0265284D01*
X0365691Y0266754D01*
X0364566Y0267879D01*
X0363096Y0268488D01*
X0361504Y0268488D01*
X0360034Y0267879D01*
X0358909Y0266754D01*
X0358300Y0265284D01*
X0358300Y0263693D01*
X0358909Y0262222D01*
X0360034Y0261097D01*
X0361504Y0260488D01*
X0363096Y0260488D01*
X0364566Y0261097D01*
X0365866Y0262644D02*
X0377154Y0262644D01*
X0377154Y0264243D02*
X0366300Y0264243D01*
X0366069Y0265841D02*
X0377154Y0265841D01*
X0377154Y0267440D02*
X0365005Y0267440D01*
X0359595Y0267440D02*
X0335005Y0267440D01*
X0336069Y0265841D02*
X0358531Y0265841D01*
X0358300Y0264243D02*
X0336300Y0264243D01*
X0335866Y0262644D02*
X0358734Y0262644D01*
X0360159Y0261046D02*
X0334441Y0261046D01*
X0334597Y0257849D02*
X0360003Y0257849D01*
X0358700Y0256250D02*
X0335900Y0256250D01*
X0336300Y0254651D02*
X0358300Y0254651D01*
X0358565Y0253053D02*
X0336035Y0253053D01*
X0334923Y0251454D02*
X0359677Y0251454D01*
X0360947Y0248257D02*
X0333653Y0248257D01*
X0335730Y0246659D02*
X0358870Y0246659D01*
X0358300Y0245060D02*
X0336300Y0245060D01*
X0336204Y0243462D02*
X0358396Y0243462D01*
X0359268Y0241863D02*
X0335332Y0241863D01*
X0335377Y0237068D02*
X0359223Y0237068D01*
X0358909Y0236754D02*
X0358300Y0235284D01*
X0358300Y0233693D01*
X0358909Y0232222D01*
X0360034Y0231097D01*
X0361504Y0230488D01*
X0363096Y0230488D01*
X0364566Y0231097D01*
X0365691Y0232222D01*
X0366300Y0233693D01*
X0366300Y0235284D01*
X0365691Y0236754D01*
X0364566Y0237879D01*
X0363096Y0238488D01*
X0361504Y0238488D01*
X0360034Y0237879D01*
X0358909Y0236754D01*
X0358377Y0235469D02*
X0336223Y0235469D01*
X0336300Y0233871D02*
X0358300Y0233871D01*
X0358888Y0232272D02*
X0335712Y0232272D01*
X0329632Y0227477D02*
X0307275Y0227477D01*
X0308837Y0229075D02*
X0377154Y0229075D01*
X0377154Y0227477D02*
X0364968Y0227477D01*
X0366054Y0225878D02*
X0377154Y0225878D01*
X0377154Y0224280D02*
X0366300Y0224280D01*
X0365881Y0222681D02*
X0377154Y0222681D01*
X0377154Y0221083D02*
X0364531Y0221083D01*
X0364550Y0217886D02*
X0377154Y0217886D01*
X0377154Y0219484D02*
X0309007Y0219484D01*
X0309300Y0221083D02*
X0330069Y0221083D01*
X0328719Y0222681D02*
X0308928Y0222681D01*
X0307665Y0224280D02*
X0328300Y0224280D01*
X0328546Y0225878D02*
X0291597Y0225878D01*
X0293195Y0224280D02*
X0302935Y0224280D01*
X0303325Y0227477D02*
X0289998Y0227477D01*
X0291927Y0230674D02*
X0279300Y0230674D01*
X0279098Y0232272D02*
X0290329Y0232272D01*
X0289420Y0222681D02*
X0278928Y0222681D01*
X0279300Y0221083D02*
X0291018Y0221083D01*
X0292617Y0219484D02*
X0279007Y0219484D01*
X0277854Y0217886D02*
X0302746Y0217886D01*
X0307854Y0217886D02*
X0330050Y0217886D01*
X0328716Y0216287D02*
X0272688Y0216287D01*
X0272746Y0217886D02*
X0271089Y0217886D01*
X0271593Y0219484D02*
X0263983Y0219484D01*
X0265582Y0221083D02*
X0271300Y0221083D01*
X0271672Y0222681D02*
X0267180Y0222681D01*
X0278837Y0229075D02*
X0301763Y0229075D01*
X0301965Y0238666D02*
X0278635Y0238666D01*
X0292422Y0253053D02*
X0301826Y0253053D01*
X0303692Y0254651D02*
X0290824Y0254651D01*
X0289225Y0256250D02*
X0328700Y0256250D01*
X0328300Y0254651D02*
X0306908Y0254651D01*
X0308774Y0253053D02*
X0328565Y0253053D01*
X0330003Y0257849D02*
X0307817Y0257849D01*
X0302783Y0257849D02*
X0287627Y0257849D01*
X0292733Y0264243D02*
X0302898Y0264243D01*
X0303611Y0266911D02*
X0304270Y0266697D01*
X0304954Y0266588D01*
X0305300Y0266588D01*
X0305646Y0266588D01*
X0306330Y0266697D01*
X0306989Y0266911D01*
X0307606Y0267225D01*
X0308166Y0267632D01*
X0308656Y0268122D01*
X0309063Y0268682D01*
X0309378Y0269299D01*
X0309592Y0269958D01*
X0309700Y0270642D01*
X0309700Y0270988D01*
X0305300Y0270988D01*
X0305300Y0266588D01*
X0305300Y0270988D01*
X0305300Y0270988D01*
X0305300Y0270988D01*
X0300900Y0270988D01*
X0300900Y0270642D01*
X0301008Y0269958D01*
X0301222Y0269299D01*
X0301537Y0268682D01*
X0301944Y0268122D01*
X0302434Y0267632D01*
X0302994Y0267225D01*
X0303611Y0266911D01*
X0302698Y0267440D02*
X0289536Y0267440D01*
X0279300Y0270637D02*
X0300901Y0270637D01*
X0300900Y0270988D02*
X0305300Y0270988D01*
X0305300Y0270988D01*
X0309700Y0270988D01*
X0309700Y0271334D01*
X0309592Y0272019D01*
X0309378Y0272677D01*
X0309063Y0273294D01*
X0308656Y0273855D01*
X0308166Y0274344D01*
X0307606Y0274751D01*
X0306989Y0275066D01*
X0306330Y0275280D01*
X0305646Y0275388D01*
X0305300Y0275388D01*
X0305300Y0270988D01*
X0305300Y0275388D01*
X0304954Y0275388D01*
X0304270Y0275280D01*
X0303611Y0275066D01*
X0302994Y0274751D01*
X0302434Y0274344D01*
X0301944Y0273855D01*
X0301537Y0273294D01*
X0301222Y0272677D01*
X0301008Y0272019D01*
X0300900Y0271334D01*
X0300900Y0270988D01*
X0301079Y0272235D02*
X0279113Y0272235D01*
X0278111Y0273834D02*
X0301929Y0273834D01*
X0305300Y0273834D02*
X0305300Y0273834D01*
X0305300Y0272235D02*
X0305300Y0272235D01*
X0305300Y0270988D02*
X0305300Y0270988D01*
X0305300Y0270637D02*
X0305300Y0270637D01*
X0305300Y0269038D02*
X0305300Y0269038D01*
X0305300Y0267440D02*
X0305300Y0267440D01*
X0307901Y0267440D02*
X0311698Y0267440D01*
X0311434Y0267632D02*
X0311994Y0267225D01*
X0312611Y0266911D01*
X0313270Y0266697D01*
X0313954Y0266588D01*
X0314300Y0266588D01*
X0314646Y0266588D01*
X0315330Y0266697D01*
X0315989Y0266911D01*
X0316606Y0267225D01*
X0317166Y0267632D01*
X0317656Y0268122D01*
X0318063Y0268682D01*
X0318378Y0269299D01*
X0318592Y0269958D01*
X0318700Y0270642D01*
X0318700Y0270988D01*
X0314300Y0270988D01*
X0314300Y0266588D01*
X0314300Y0270988D01*
X0314300Y0270988D01*
X0314300Y0270988D01*
X0309900Y0270988D01*
X0309900Y0270642D01*
X0310008Y0269958D01*
X0310222Y0269299D01*
X0310537Y0268682D01*
X0310944Y0268122D01*
X0311434Y0267632D01*
X0310355Y0269038D02*
X0309245Y0269038D01*
X0309699Y0270637D02*
X0309901Y0270637D01*
X0309900Y0270988D02*
X0314300Y0270988D01*
X0314300Y0270988D01*
X0318700Y0270988D01*
X0318700Y0271334D01*
X0318592Y0272019D01*
X0318378Y0272677D01*
X0318063Y0273294D01*
X0317656Y0273855D01*
X0317166Y0274344D01*
X0316606Y0274751D01*
X0315989Y0275066D01*
X0315330Y0275280D01*
X0314646Y0275388D01*
X0314300Y0275388D01*
X0314300Y0270988D01*
X0314300Y0275388D01*
X0313954Y0275388D01*
X0313270Y0275280D01*
X0312611Y0275066D01*
X0311994Y0274751D01*
X0311434Y0274344D01*
X0310944Y0273855D01*
X0310537Y0273294D01*
X0310222Y0272677D01*
X0310008Y0272019D01*
X0309900Y0271334D01*
X0309900Y0270988D01*
X0310079Y0272235D02*
X0309521Y0272235D01*
X0308671Y0273834D02*
X0310929Y0273834D01*
X0314300Y0273834D02*
X0314300Y0273834D01*
X0314300Y0272235D02*
X0314300Y0272235D01*
X0314300Y0270988D02*
X0314300Y0270988D01*
X0314300Y0270637D02*
X0314300Y0270637D01*
X0314300Y0269038D02*
X0314300Y0269038D01*
X0314300Y0267440D02*
X0314300Y0267440D01*
X0316901Y0267440D02*
X0322415Y0267440D01*
X0322034Y0267597D02*
X0323504Y0266988D01*
X0325096Y0266988D01*
X0326566Y0267597D01*
X0327691Y0268722D01*
X0328300Y0270193D01*
X0328300Y0271784D01*
X0327691Y0273254D01*
X0326566Y0274379D01*
X0325096Y0274988D01*
X0323504Y0274988D01*
X0322034Y0274379D01*
X0320909Y0273254D01*
X0320300Y0271784D01*
X0320300Y0270193D01*
X0320909Y0268722D01*
X0322034Y0267597D01*
X0320778Y0269038D02*
X0318245Y0269038D01*
X0318699Y0270637D02*
X0320300Y0270637D01*
X0320487Y0272235D02*
X0318521Y0272235D01*
X0317671Y0273834D02*
X0321489Y0273834D01*
X0327111Y0273834D02*
X0377154Y0273834D01*
X0377154Y0275432D02*
X0269667Y0275432D01*
X0269588Y0277031D02*
X0377154Y0277031D01*
X0377154Y0278629D02*
X0268820Y0278629D01*
X0265300Y0278629D02*
X0265300Y0278629D01*
X0265300Y0277031D02*
X0265300Y0277031D01*
X0265300Y0275988D02*
X0265300Y0275988D01*
X0261780Y0278629D02*
X0258316Y0278629D01*
X0259198Y0277031D02*
X0261012Y0277031D01*
X0260933Y0275432D02*
X0259300Y0275432D01*
X0258737Y0273834D02*
X0261460Y0273834D01*
X0257360Y0272235D02*
X0256692Y0272235D01*
X0255761Y0270637D02*
X0249699Y0270637D01*
X0249521Y0272235D02*
X0253908Y0272235D01*
X0254163Y0269038D02*
X0249245Y0269038D01*
X0269140Y0273834D02*
X0272489Y0273834D01*
X0278822Y0269038D02*
X0301355Y0269038D01*
X0326185Y0267440D02*
X0329595Y0267440D01*
X0327822Y0269038D02*
X0377154Y0269038D01*
X0377154Y0270637D02*
X0328300Y0270637D01*
X0328113Y0272235D02*
X0377154Y0272235D01*
X0377154Y0238666D02*
X0308635Y0238666D01*
X0309176Y0209893D02*
X0315018Y0209893D01*
X0313419Y0208295D02*
X0308263Y0208295D01*
X0307365Y0187514D02*
X0377154Y0187514D01*
X0377154Y0185916D02*
X0185914Y0185916D01*
X0184316Y0184317D02*
X0377154Y0184317D01*
X0377154Y0182718D02*
X0182717Y0182718D01*
X0181119Y0181120D02*
X0377154Y0181120D01*
X0377154Y0179521D02*
X0179520Y0179521D01*
X0177922Y0177923D02*
X0377154Y0177923D01*
X0377154Y0176324D02*
X0176323Y0176324D01*
X0153642Y0201901D02*
X0083700Y0201901D01*
X0083700Y0203499D02*
X0151670Y0203499D01*
X0158930Y0203499D02*
X0182132Y0203499D01*
X0181339Y0205098D02*
X0159614Y0205098D01*
X0159643Y0206696D02*
X0181300Y0206696D01*
X0181950Y0208295D02*
X0159063Y0208295D01*
X0157328Y0209893D02*
X0184275Y0209893D01*
X0185300Y0213090D02*
X0185300Y0213090D01*
X0185300Y0214689D02*
X0185300Y0214689D01*
X0185300Y0215988D02*
X0180900Y0215988D01*
X0180900Y0216334D01*
X0181008Y0217019D01*
X0181222Y0217677D01*
X0181537Y0218294D01*
X0181944Y0218855D01*
X0182434Y0219344D01*
X0182994Y0219751D01*
X0183611Y0220066D01*
X0184270Y0220280D01*
X0184954Y0220388D01*
X0185300Y0220388D01*
X0185300Y0215988D01*
X0185300Y0215988D01*
X0185300Y0216287D02*
X0185300Y0216287D01*
X0185300Y0217886D02*
X0185300Y0217886D01*
X0185300Y0219484D02*
X0185300Y0219484D01*
X0182626Y0219484D02*
X0160983Y0219484D01*
X0162582Y0221083D02*
X0199400Y0221083D01*
X0199897Y0232272D02*
X0186782Y0232272D01*
X0188753Y0233871D02*
X0201496Y0233871D01*
X0203094Y0235469D02*
X0189300Y0235469D01*
X0189182Y0237068D02*
X0204693Y0237068D01*
X0182950Y0222681D02*
X0164180Y0222681D01*
X0158844Y0217886D02*
X0181329Y0217886D01*
X0180900Y0216287D02*
X0159300Y0216287D01*
X0159091Y0214689D02*
X0181096Y0214689D01*
X0181975Y0213090D02*
X0158059Y0213090D01*
X0151756Y0217886D02*
X0126385Y0217886D01*
X0127983Y0219484D02*
X0132617Y0219484D01*
X0158022Y0253053D02*
X0179678Y0253053D01*
X0181276Y0254651D02*
X0159076Y0254651D01*
X0159300Y0256250D02*
X0181300Y0256250D01*
X0181741Y0257849D02*
X0158859Y0257849D01*
X0157402Y0259447D02*
X0183198Y0259447D01*
X0182987Y0262644D02*
X0157613Y0262644D01*
X0158906Y0264243D02*
X0181693Y0264243D01*
X0181300Y0265841D02*
X0159300Y0265841D01*
X0159028Y0267440D02*
X0181572Y0267440D01*
X0182693Y0269038D02*
X0157907Y0269038D01*
X0187907Y0269038D02*
X0207370Y0269038D01*
X0206177Y0267440D02*
X0189028Y0267440D01*
X0189300Y0265841D02*
X0206051Y0265841D01*
X0207038Y0264243D02*
X0188906Y0264243D01*
X0205455Y0259447D02*
X0211609Y0259447D01*
X0210987Y0264243D02*
X0212898Y0264243D01*
X0211778Y0269038D02*
X0210655Y0269038D01*
X0277365Y0187514D02*
X0303235Y0187514D01*
X0336598Y0203499D02*
X0341602Y0203499D01*
X0341400Y0203701D02*
X0341400Y0203701D01*
X0340004Y0205098D02*
X0336658Y0205098D01*
X0336113Y0206696D02*
X0338405Y0206696D01*
X0343779Y0206696D02*
X0358885Y0206696D01*
X0364960Y0211492D02*
X0377154Y0211492D01*
X0377154Y0213090D02*
X0366050Y0213090D01*
X0366300Y0214689D02*
X0377154Y0214689D01*
X0377154Y0216287D02*
X0365884Y0216287D01*
X0363544Y0230674D02*
X0377154Y0230674D01*
X0377154Y0232272D02*
X0365712Y0232272D01*
X0366300Y0233871D02*
X0377154Y0233871D01*
X0377154Y0235469D02*
X0366223Y0235469D01*
X0365377Y0237068D02*
X0377154Y0237068D01*
X0127944Y0054838D02*
X0120524Y0054838D01*
X0123360Y0053239D02*
X0125099Y0053239D01*
X0112354Y0054838D02*
X0104933Y0054838D01*
X0107769Y0053239D02*
X0109508Y0053239D01*
X0116173Y0064429D02*
X0098802Y0064429D01*
X0079649Y0064429D02*
X0040791Y0064429D01*
X0036014Y0064429D02*
X0027998Y0064429D01*
X0027998Y0066027D02*
X0078050Y0066027D01*
X0076452Y0067626D02*
X0027998Y0067626D01*
X0027998Y0062830D02*
X0034350Y0062830D01*
X0033702Y0061232D02*
X0027998Y0061232D01*
X0027998Y0059633D02*
X0033702Y0059633D01*
X0033786Y0058035D02*
X0027998Y0058035D01*
X0027998Y0056436D02*
X0033786Y0056436D01*
X0033786Y0054838D02*
X0027998Y0054838D01*
X0027998Y0053239D02*
X0031555Y0053239D01*
X0109700Y0120377D02*
X0110189Y0120377D01*
X0087182Y0147551D02*
X0087182Y0147551D01*
X0087182Y0149150D02*
X0087182Y0149150D01*
X0087182Y0150488D02*
X0087182Y0150488D01*
X0087182Y0150488D01*
X0082782Y0150488D01*
X0082782Y0150834D01*
X0082890Y0151519D01*
X0083104Y0152177D01*
X0083419Y0152794D01*
X0083826Y0153355D01*
X0084315Y0153844D01*
X0084876Y0154251D01*
X0085493Y0154566D01*
X0086152Y0154780D01*
X0086836Y0154888D01*
X0087182Y0154888D01*
X0087182Y0150488D01*
X0087182Y0150748D02*
X0087182Y0150748D01*
X0087182Y0152347D02*
X0087182Y0152347D01*
X0087182Y0153945D02*
X0087182Y0153945D01*
X0086793Y0155544D02*
X0075485Y0155544D01*
X0075800Y0153945D02*
X0084454Y0153945D01*
X0083191Y0152347D02*
X0075450Y0152347D01*
X0074217Y0150748D02*
X0082782Y0150748D01*
X0039297Y0157142D02*
X0027998Y0157142D01*
X0027998Y0155544D02*
X0038115Y0155544D01*
X0037800Y0153945D02*
X0027998Y0153945D01*
X0027998Y0152347D02*
X0038150Y0152347D01*
X0066087Y0190711D02*
X0066087Y0190711D01*
X0066087Y0192310D02*
X0066087Y0192310D01*
X0066087Y0193908D02*
X0066087Y0193908D01*
X0066087Y0195507D02*
X0066087Y0195507D01*
X0066087Y0197105D02*
X0066087Y0197105D01*
X0066087Y0198704D02*
X0066087Y0198704D01*
X0079127Y0197105D02*
X0079900Y0197105D01*
D20*
X0081800Y0190988D02*
X0081800Y0213988D01*
X0095800Y0227988D01*
X0085800Y0227988D02*
X0095800Y0237988D01*
X0107300Y0249488D01*
X0148300Y0249488D01*
X0154800Y0255988D01*
X0155300Y0255988D01*
X0141300Y0254488D02*
X0130300Y0254488D01*
X0119800Y0253988D02*
X0108300Y0253988D01*
X0101800Y0253988D01*
X0095800Y0247988D01*
X0095800Y0257988D02*
X0084300Y0257988D01*
X0079300Y0262988D01*
X0057300Y0262988D01*
X0051800Y0257488D01*
X0045300Y0265488D02*
X0047800Y0267988D01*
X0065800Y0267988D01*
X0065800Y0257988D02*
X0065800Y0247988D01*
X0046800Y0266988D02*
X0045300Y0265488D01*
X0037300Y0257488D01*
X0037300Y0227488D02*
X0046800Y0217988D01*
X0053800Y0217988D01*
X0065800Y0217988D01*
X0065800Y0227988D02*
X0085800Y0227988D01*
X0108300Y0223988D02*
X0114300Y0229988D01*
X0115300Y0230988D01*
X0160300Y0230988D01*
X0168300Y0238988D01*
X0175800Y0246488D01*
X0185300Y0255988D01*
X0204800Y0256488D02*
X0226300Y0256488D01*
X0227300Y0255488D01*
X0231800Y0250988D01*
X0245300Y0250988D01*
X0257300Y0250988D01*
X0261300Y0254988D01*
X0262300Y0255988D01*
X0286800Y0255988D01*
X0291800Y0250988D01*
X0305300Y0250988D01*
X0305300Y0240988D02*
X0294300Y0240988D01*
X0289300Y0245988D01*
X0262800Y0245988D01*
X0257800Y0240988D01*
X0245300Y0240988D01*
X0229300Y0240988D01*
X0225300Y0244988D01*
X0224300Y0245988D01*
X0203300Y0245988D01*
X0206300Y0235988D02*
X0223800Y0235988D01*
X0228800Y0230988D01*
X0245300Y0230988D01*
X0260300Y0230988D01*
X0264800Y0235488D01*
X0289800Y0235488D01*
X0293800Y0231488D01*
X0294300Y0230988D01*
X0305300Y0230988D01*
X0305300Y0220988D02*
X0293800Y0220988D01*
X0288800Y0225988D01*
X0267800Y0225988D01*
X0262800Y0220988D01*
X0245300Y0220988D01*
X0226300Y0220988D01*
X0221800Y0216488D01*
X0210300Y0216488D01*
X0181300Y0186988D01*
X0177300Y0182988D01*
X0175300Y0180988D01*
X0174800Y0180488D01*
X0104800Y0180488D01*
X0102300Y0182988D01*
X0103800Y0186988D02*
X0107800Y0182988D01*
X0174300Y0182988D01*
X0178300Y0186988D01*
X0201300Y0209988D01*
X0201300Y0230988D01*
X0206300Y0235988D01*
X0215300Y0230988D02*
X0224300Y0230988D01*
X0229300Y0225988D01*
X0261800Y0225988D01*
X0266800Y0230988D01*
X0275300Y0230988D01*
X0275300Y0240988D02*
X0263800Y0240988D01*
X0258800Y0235988D01*
X0229800Y0235988D01*
X0226300Y0239488D01*
X0224800Y0240988D01*
X0215300Y0240988D01*
X0215300Y0250988D02*
X0226800Y0250988D01*
X0231800Y0245988D01*
X0256300Y0245988D01*
X0261300Y0250988D01*
X0275300Y0250988D01*
X0275300Y0260988D02*
X0262300Y0260988D01*
X0257800Y0256488D01*
X0230800Y0256488D01*
X0226300Y0260988D01*
X0215300Y0260988D01*
X0209013Y0266488D02*
X0225300Y0266488D01*
X0227300Y0264488D01*
X0230800Y0260988D01*
X0245300Y0260988D01*
X0253800Y0260988D01*
X0258800Y0265988D01*
X0288300Y0265988D01*
X0293300Y0260988D01*
X0305300Y0260988D01*
X0275300Y0270988D02*
X0258800Y0270988D01*
X0256300Y0268488D01*
X0257800Y0269988D01*
X0256300Y0268488D02*
X0254300Y0266488D01*
X0230300Y0266488D01*
X0225800Y0270988D01*
X0215300Y0270988D01*
X0185300Y0225988D02*
X0164800Y0225988D01*
X0159300Y0220488D01*
X0134300Y0220488D01*
X0130300Y0224488D01*
X0113800Y0207988D01*
X0095800Y0207988D01*
X0081800Y0190988D02*
X0067800Y0176988D01*
X0052182Y0161370D01*
X0052182Y0144370D01*
X0041800Y0133988D01*
X0041800Y0123988D01*
X0071800Y0123988D02*
X0087800Y0107988D01*
X0102300Y0107988D01*
X0114800Y0095488D01*
X0114800Y0085988D01*
X0114800Y0071488D01*
X0118800Y0067488D01*
X0119300Y0066988D01*
X0125800Y0066988D01*
X0133800Y0058988D01*
X0146300Y0058988D01*
X0147800Y0057488D01*
X0147800Y0046988D01*
X0149800Y0044988D01*
X0148238Y0044988D01*
X0147738Y0045488D01*
X0147738Y0053050D01*
X0147738Y0045488D02*
X0147620Y0043441D01*
X0132029Y0043441D02*
X0131800Y0043824D01*
X0131800Y0045988D01*
X0132300Y0046488D01*
X0132300Y0057488D01*
X0124800Y0064988D01*
X0118300Y0064988D01*
X0112800Y0070488D01*
X0112800Y0084488D01*
X0112800Y0094488D01*
X0101300Y0105988D01*
X0086800Y0105988D01*
X0078800Y0113988D01*
X0071800Y0113988D01*
X0076300Y0122988D02*
X0089300Y0109988D01*
X0103300Y0109988D01*
X0116800Y0096488D01*
X0116800Y0087488D01*
X0116800Y0072488D01*
X0120300Y0068988D01*
X0126800Y0068988D01*
X0134800Y0060988D01*
X0158300Y0060988D01*
X0162800Y0056488D01*
X0162800Y0046988D01*
X0163300Y0046488D01*
X0140800Y0067988D02*
X0138300Y0070488D01*
X0122300Y0086988D01*
X0122300Y0097988D01*
X0103300Y0116988D01*
X0103300Y0123488D01*
X0107800Y0125488D02*
X0107800Y0115488D01*
X0124300Y0098988D01*
X0124300Y0087988D01*
X0139800Y0072488D01*
X0142300Y0069988D01*
X0186800Y0069988D01*
X0200800Y0055988D01*
X0208300Y0055988D01*
X0210100Y0054188D01*
X0209982Y0043441D01*
X0194800Y0043767D02*
X0194391Y0043441D01*
X0194509Y0059279D01*
X0185800Y0067988D01*
X0140800Y0067988D01*
X0143800Y0071988D02*
X0141800Y0073988D01*
X0126300Y0088988D01*
X0126300Y0099488D01*
X0116300Y0109988D01*
X0116300Y0116488D01*
X0123300Y0123488D01*
X0123300Y0133488D02*
X0112800Y0143988D01*
X0071800Y0143988D01*
X0071800Y0133988D02*
X0076300Y0129488D01*
X0076300Y0122988D01*
X0103300Y0129988D02*
X0107800Y0125488D01*
X0103300Y0129988D02*
X0103300Y0133488D01*
X0126800Y0168988D02*
X0145800Y0149988D01*
X0145800Y0106488D01*
X0149300Y0102988D01*
X0171300Y0102988D01*
X0186800Y0087488D01*
X0191800Y0092488D01*
X0212800Y0092488D01*
X0228800Y0092488D01*
X0233800Y0087488D01*
X0247300Y0087488D01*
X0247300Y0097488D02*
X0260300Y0097488D01*
X0264800Y0101988D01*
X0315300Y0101988D01*
X0325300Y0111988D01*
X0338300Y0111988D01*
X0343300Y0116988D01*
X0362300Y0116988D01*
X0357300Y0091988D02*
X0362300Y0086988D01*
X0357300Y0091988D02*
X0321300Y0091988D01*
X0320800Y0091488D01*
X0316300Y0086988D01*
X0307300Y0086988D01*
X0326300Y0064988D02*
X0280800Y0064988D01*
X0272300Y0073488D01*
X0266300Y0073488D01*
X0263800Y0069988D02*
X0272300Y0069988D01*
X0279300Y0062988D01*
X0324800Y0062988D01*
X0333300Y0054488D01*
X0333300Y0048988D01*
X0335800Y0046488D01*
X0334300Y0056988D02*
X0347800Y0056988D01*
X0349800Y0054988D01*
X0349800Y0046988D01*
X0350300Y0046488D01*
X0334300Y0056988D02*
X0326300Y0064988D01*
X0317300Y0054488D02*
X0317300Y0045410D01*
X0319116Y0043441D01*
X0303525Y0043441D02*
X0302800Y0044320D01*
X0302800Y0054488D01*
X0298300Y0058988D01*
X0277300Y0058988D01*
X0271300Y0064988D01*
X0255800Y0064988D01*
X0253800Y0066988D01*
X0253800Y0070488D01*
X0258300Y0067988D02*
X0271300Y0067988D01*
X0278300Y0060988D01*
X0310800Y0060988D01*
X0317300Y0054488D01*
X0289800Y0041729D02*
X0287935Y0043441D01*
X0289800Y0041729D02*
X0289800Y0040988D01*
X0285300Y0045488D01*
X0285300Y0053988D01*
X0283300Y0055988D01*
X0275800Y0055988D01*
X0270300Y0061488D01*
X0244800Y0061488D01*
X0231800Y0074488D01*
X0209300Y0074488D01*
X0208800Y0074988D01*
X0206800Y0076988D01*
X0206800Y0072488D02*
X0230800Y0072488D01*
X0243800Y0059488D01*
X0266300Y0059488D01*
X0267800Y0057988D01*
X0267800Y0057488D01*
X0269300Y0055988D01*
X0269300Y0047988D01*
X0271800Y0045488D01*
X0271800Y0044139D01*
X0272344Y0043441D01*
X0256800Y0043548D02*
X0256754Y0043441D01*
X0256800Y0043548D02*
X0256800Y0045988D01*
X0256800Y0046488D01*
X0256800Y0053988D01*
X0253300Y0057488D01*
X0242800Y0057488D01*
X0229800Y0070488D01*
X0205800Y0070488D01*
X0203800Y0072488D01*
X0200800Y0072488D01*
X0202800Y0068488D02*
X0228800Y0068488D01*
X0240800Y0056488D01*
X0240800Y0048988D01*
X0237800Y0045988D01*
X0238769Y0045988D01*
X0241163Y0043441D01*
X0227800Y0048488D02*
X0227800Y0054488D01*
X0224300Y0057988D01*
X0201800Y0057988D01*
X0187800Y0071988D01*
X0143800Y0071988D01*
X0101001Y0059543D02*
X0101001Y0050094D01*
X0100607Y0049701D01*
X0100607Y0046945D01*
X0101001Y0059543D02*
X0096670Y0063874D01*
X0082891Y0063874D01*
X0071800Y0074965D01*
X0071800Y0093988D01*
X0156800Y0107488D02*
X0175300Y0107488D01*
X0180300Y0112488D01*
X0180300Y0119988D01*
X0182800Y0122488D01*
X0259300Y0122488D01*
X0265300Y0122488D01*
X0269300Y0126488D01*
X0269800Y0126988D01*
X0277300Y0126988D01*
X0270800Y0121988D02*
X0327300Y0121988D01*
X0332300Y0126988D01*
X0325300Y0141988D02*
X0315300Y0131988D01*
X0267800Y0131988D01*
X0263300Y0127488D01*
X0257300Y0127488D01*
X0247300Y0127488D01*
X0257300Y0112988D02*
X0235300Y0112988D01*
X0229800Y0107488D01*
X0217300Y0107488D01*
X0232300Y0102488D02*
X0258800Y0102488D01*
X0267800Y0111488D01*
X0268300Y0111988D01*
X0302300Y0111988D01*
X0307300Y0116988D01*
X0302800Y0142488D02*
X0307300Y0146988D01*
X0302800Y0142488D02*
X0262800Y0142488D01*
X0237800Y0142488D01*
X0227800Y0132488D01*
X0212300Y0132488D01*
X0207300Y0127488D01*
X0186800Y0127488D01*
X0165300Y0137488D02*
X0179800Y0151988D01*
X0232300Y0151988D01*
X0242800Y0162488D01*
X0271800Y0162488D01*
X0277300Y0156988D01*
X0256300Y0151988D02*
X0327300Y0151988D01*
X0332300Y0156988D01*
X0325300Y0141988D02*
X0357300Y0141988D01*
X0362300Y0146988D01*
X0362300Y0204488D02*
X0343300Y0204488D01*
X0338300Y0209488D01*
X0317300Y0209488D01*
X0313300Y0205488D01*
X0266300Y0205488D01*
X0206800Y0205488D01*
X0197800Y0196488D01*
X0208300Y0210988D02*
X0175300Y0177988D01*
X0099800Y0177988D01*
X0099300Y0178488D01*
X0093800Y0183988D01*
X0089800Y0186988D02*
X0103800Y0186988D01*
X0099300Y0178488D02*
X0099800Y0177988D01*
X0043800Y0189488D02*
X0037300Y0195988D01*
X0037300Y0217488D01*
X0037300Y0220488D01*
X0037300Y0227488D01*
X0156800Y0137488D02*
X0165300Y0137488D01*
X0191800Y0102488D02*
X0232300Y0102488D01*
X0257300Y0112988D02*
X0261800Y0112988D01*
X0270800Y0121988D01*
X0256300Y0151988D02*
X0241300Y0151988D01*
X0231800Y0142488D01*
X0226800Y0137488D01*
X0217300Y0137488D01*
X0191800Y0102488D02*
X0186800Y0097488D01*
X0199800Y0077488D02*
X0201800Y0077488D01*
X0206800Y0072488D01*
X0225691Y0053598D02*
X0225691Y0050598D01*
X0227800Y0048488D01*
X0225572Y0043441D02*
X0225691Y0053598D01*
X0261300Y0072488D02*
X0263800Y0069988D01*
X0275300Y0210988D02*
X0270300Y0215988D01*
X0229800Y0215988D01*
X0224800Y0210988D01*
X0215300Y0210988D01*
X0208300Y0210988D01*
D21*
X0197800Y0196488D03*
X0203300Y0245988D03*
X0204800Y0256488D03*
X0209013Y0266488D03*
X0102300Y0182988D03*
X0093800Y0183988D03*
X0089800Y0186988D03*
X0126800Y0168988D03*
X0199800Y0077488D03*
X0200800Y0072488D03*
X0202800Y0068488D03*
X0206800Y0076988D03*
X0253800Y0070488D03*
X0258300Y0067988D03*
X0261300Y0072488D03*
X0266300Y0073488D03*
M02*
