G75*
%MOIN*%
%OFA0B0*%
%FSLAX25Y25*%
%IPPOS*%
%LPD*%
%AMOC8*
5,1,8,0,0,1.08239X$1,22.5*
%
%ADD10C,0.00000*%
%ADD11C,0.00600*%
D10*
X0026198Y0005295D02*
X0030135Y0001394D01*
X0074623Y0001394D01*
X0074623Y0052181D01*
X0080135Y0052181D01*
X0080135Y0001394D01*
X0355331Y0001000D01*
X0355331Y0051394D01*
X0360843Y0051787D01*
X0360843Y0001394D01*
X0376198Y0001394D01*
X0378954Y0004150D01*
X0378954Y0050606D01*
X0378954Y0050488D02*
X0378954Y0284587D01*
X0026198Y0284587D01*
X0026198Y0051094D01*
X0026198Y0051295D02*
X0026198Y0005295D01*
D11*
X0194175Y0167997D02*
X0194175Y0172268D01*
X0195242Y0173335D01*
X0197377Y0173335D01*
X0198445Y0172268D01*
X0198445Y0171200D01*
X0197377Y0170133D01*
X0194175Y0170133D01*
X0194175Y0167997D02*
X0195242Y0166930D01*
X0197377Y0166930D01*
X0198445Y0167997D01*
X0200620Y0166930D02*
X0204890Y0166930D01*
X0202755Y0166930D02*
X0202755Y0173335D01*
X0204890Y0171200D01*
X0207066Y0172268D02*
X0207066Y0167997D01*
X0208133Y0166930D01*
X0210268Y0166930D01*
X0211336Y0167997D01*
X0207066Y0172268D01*
X0208133Y0173335D01*
X0210268Y0173335D01*
X0211336Y0172268D01*
X0211336Y0167997D01*
X0213511Y0166930D02*
X0217781Y0166930D01*
X0213511Y0171200D01*
X0213511Y0172268D01*
X0214579Y0173335D01*
X0216714Y0173335D01*
X0217781Y0172268D01*
X0226402Y0170133D02*
X0226402Y0166930D01*
X0226402Y0170133D02*
X0227470Y0171200D01*
X0229605Y0171200D01*
X0230672Y0170133D01*
X0232847Y0171200D02*
X0236050Y0171200D01*
X0237118Y0170133D01*
X0237118Y0167997D01*
X0236050Y0166930D01*
X0232847Y0166930D01*
X0230672Y0166930D02*
X0230672Y0173335D01*
X0239286Y0171200D02*
X0240354Y0171200D01*
X0242489Y0169065D01*
X0242489Y0166930D02*
X0242489Y0171200D01*
X0244664Y0170133D02*
X0244664Y0166930D01*
X0247867Y0166930D01*
X0248935Y0167997D01*
X0247867Y0169065D01*
X0244664Y0169065D01*
X0244664Y0170133D02*
X0245732Y0171200D01*
X0247867Y0171200D01*
X0251110Y0173335D02*
X0251110Y0166930D01*
X0255380Y0166930D02*
X0255380Y0173335D01*
X0253245Y0171200D01*
X0251110Y0173335D01*
X0251083Y0177430D02*
X0251083Y0183835D01*
X0247880Y0183835D01*
X0246813Y0182768D01*
X0246813Y0180633D01*
X0247880Y0179565D01*
X0251083Y0179565D01*
X0248948Y0179565D02*
X0246813Y0177430D01*
X0244638Y0177430D02*
X0240367Y0177430D01*
X0242502Y0177430D02*
X0242502Y0183835D01*
X0244638Y0181700D01*
X0259690Y0178497D02*
X0260758Y0178497D01*
X0260758Y0177430D01*
X0259690Y0177430D01*
X0259690Y0178497D01*
X0259690Y0177430D02*
X0261826Y0175295D01*
X0264001Y0177430D02*
X0268271Y0177430D01*
X0264001Y0181700D01*
X0264001Y0182768D01*
X0265068Y0183835D01*
X0267203Y0183835D01*
X0268271Y0182768D01*
X0270446Y0183835D02*
X0270446Y0179565D01*
X0272581Y0177430D01*
X0274717Y0179565D01*
X0274717Y0183835D01*
X0272581Y0173335D02*
X0272581Y0166930D01*
X0270446Y0166930D02*
X0274717Y0166930D01*
X0274717Y0171200D02*
X0272581Y0173335D01*
X0268271Y0172268D02*
X0267203Y0173335D01*
X0265068Y0173335D01*
X0264001Y0172268D01*
X0264001Y0171200D01*
X0268271Y0166930D01*
X0264001Y0166930D01*
M02*
