G75*
%MOIN*%
%OFA0B0*%
%FSLAX25Y25*%
%IPPOS*%
%LPD*%
%AMOC8*
5,1,8,0,0,1.08239X$1,22.5*
%
%ADD10C,0.00000*%
%ADD11C,0.03000*%
D10*
X0026198Y0005295D02*
X0030135Y0001394D01*
X0074623Y0001394D01*
X0074623Y0052181D01*
X0080135Y0052181D01*
X0080135Y0001394D01*
X0355331Y0001000D01*
X0355331Y0051394D01*
X0360843Y0051787D01*
X0360843Y0001394D01*
X0376198Y0001394D01*
X0378954Y0004150D01*
X0378954Y0050606D01*
X0378954Y0050488D02*
X0378954Y0284587D01*
X0026198Y0284587D01*
X0026198Y0051094D01*
X0026198Y0051295D02*
X0026198Y0005295D01*
D11*
X0034986Y0034941D02*
X0041986Y0034941D01*
X0034986Y0034941D02*
X0034986Y0051941D01*
X0041986Y0051941D01*
X0041986Y0034941D01*
X0041986Y0037940D02*
X0034986Y0037940D01*
X0034986Y0040939D02*
X0041986Y0040939D01*
X0041986Y0043938D02*
X0034986Y0043938D01*
X0034986Y0046937D02*
X0041986Y0046937D01*
X0041986Y0049936D02*
X0034986Y0049936D01*
X0050576Y0034941D02*
X0057576Y0034941D01*
X0050576Y0034941D02*
X0050576Y0051941D01*
X0057576Y0051941D01*
X0057576Y0034941D01*
X0057576Y0037940D02*
X0050576Y0037940D01*
X0050576Y0040939D02*
X0057576Y0040939D01*
X0057576Y0043938D02*
X0050576Y0043938D01*
X0050576Y0046937D02*
X0057576Y0046937D01*
X0057576Y0049936D02*
X0050576Y0049936D01*
X0066167Y0034941D02*
X0073167Y0034941D01*
X0066167Y0034941D02*
X0066167Y0051941D01*
X0073167Y0051941D01*
X0073167Y0034941D01*
X0073167Y0037940D02*
X0066167Y0037940D01*
X0066167Y0040939D02*
X0073167Y0040939D01*
X0073167Y0043938D02*
X0066167Y0043938D01*
X0066167Y0046937D02*
X0073167Y0046937D01*
X0073167Y0049936D02*
X0066167Y0049936D01*
X0081757Y0034941D02*
X0088757Y0034941D01*
X0081757Y0034941D02*
X0081757Y0051941D01*
X0088757Y0051941D01*
X0088757Y0034941D01*
X0088757Y0037940D02*
X0081757Y0037940D01*
X0081757Y0040939D02*
X0088757Y0040939D01*
X0088757Y0043938D02*
X0081757Y0043938D01*
X0081757Y0046937D02*
X0088757Y0046937D01*
X0088757Y0049936D02*
X0081757Y0049936D01*
X0097348Y0034941D02*
X0104348Y0034941D01*
X0097348Y0034941D02*
X0097348Y0051941D01*
X0104348Y0051941D01*
X0104348Y0034941D01*
X0104348Y0037940D02*
X0097348Y0037940D01*
X0097348Y0040939D02*
X0104348Y0040939D01*
X0104348Y0043938D02*
X0097348Y0043938D01*
X0097348Y0046937D02*
X0104348Y0046937D01*
X0104348Y0049936D02*
X0097348Y0049936D01*
X0112939Y0034941D02*
X0119939Y0034941D01*
X0112939Y0034941D02*
X0112939Y0051941D01*
X0119939Y0051941D01*
X0119939Y0034941D01*
X0119939Y0037940D02*
X0112939Y0037940D01*
X0112939Y0040939D02*
X0119939Y0040939D01*
X0119939Y0043938D02*
X0112939Y0043938D01*
X0112939Y0046937D02*
X0119939Y0046937D01*
X0119939Y0049936D02*
X0112939Y0049936D01*
X0128529Y0034941D02*
X0135529Y0034941D01*
X0128529Y0034941D02*
X0128529Y0051941D01*
X0135529Y0051941D01*
X0135529Y0034941D01*
X0135529Y0037940D02*
X0128529Y0037940D01*
X0128529Y0040939D02*
X0135529Y0040939D01*
X0135529Y0043938D02*
X0128529Y0043938D01*
X0128529Y0046937D02*
X0135529Y0046937D01*
X0135529Y0049936D02*
X0128529Y0049936D01*
X0144120Y0034941D02*
X0151120Y0034941D01*
X0144120Y0034941D02*
X0144120Y0051941D01*
X0151120Y0051941D01*
X0151120Y0034941D01*
X0151120Y0037940D02*
X0144120Y0037940D01*
X0144120Y0040939D02*
X0151120Y0040939D01*
X0151120Y0043938D02*
X0144120Y0043938D01*
X0144120Y0046937D02*
X0151120Y0046937D01*
X0151120Y0049936D02*
X0144120Y0049936D01*
X0159710Y0034941D02*
X0166710Y0034941D01*
X0159710Y0034941D02*
X0159710Y0051941D01*
X0166710Y0051941D01*
X0166710Y0034941D01*
X0166710Y0037940D02*
X0159710Y0037940D01*
X0159710Y0040939D02*
X0166710Y0040939D01*
X0166710Y0043938D02*
X0159710Y0043938D01*
X0159710Y0046937D02*
X0166710Y0046937D01*
X0166710Y0049936D02*
X0159710Y0049936D01*
X0175301Y0034941D02*
X0182301Y0034941D01*
X0175301Y0034941D02*
X0175301Y0051941D01*
X0182301Y0051941D01*
X0182301Y0034941D01*
X0182301Y0037940D02*
X0175301Y0037940D01*
X0175301Y0040939D02*
X0182301Y0040939D01*
X0182301Y0043938D02*
X0175301Y0043938D01*
X0175301Y0046937D02*
X0182301Y0046937D01*
X0182301Y0049936D02*
X0175301Y0049936D01*
X0190891Y0034941D02*
X0197891Y0034941D01*
X0190891Y0034941D02*
X0190891Y0051941D01*
X0197891Y0051941D01*
X0197891Y0034941D01*
X0197891Y0037940D02*
X0190891Y0037940D01*
X0190891Y0040939D02*
X0197891Y0040939D01*
X0197891Y0043938D02*
X0190891Y0043938D01*
X0190891Y0046937D02*
X0197891Y0046937D01*
X0197891Y0049936D02*
X0190891Y0049936D01*
X0206482Y0034941D02*
X0213482Y0034941D01*
X0206482Y0034941D02*
X0206482Y0051941D01*
X0213482Y0051941D01*
X0213482Y0034941D01*
X0213482Y0037940D02*
X0206482Y0037940D01*
X0206482Y0040939D02*
X0213482Y0040939D01*
X0213482Y0043938D02*
X0206482Y0043938D01*
X0206482Y0046937D02*
X0213482Y0046937D01*
X0213482Y0049936D02*
X0206482Y0049936D01*
X0222072Y0034941D02*
X0229072Y0034941D01*
X0222072Y0034941D02*
X0222072Y0051941D01*
X0229072Y0051941D01*
X0229072Y0034941D01*
X0229072Y0037940D02*
X0222072Y0037940D01*
X0222072Y0040939D02*
X0229072Y0040939D01*
X0229072Y0043938D02*
X0222072Y0043938D01*
X0222072Y0046937D02*
X0229072Y0046937D01*
X0229072Y0049936D02*
X0222072Y0049936D01*
X0237663Y0034941D02*
X0244663Y0034941D01*
X0237663Y0034941D02*
X0237663Y0051941D01*
X0244663Y0051941D01*
X0244663Y0034941D01*
X0244663Y0037940D02*
X0237663Y0037940D01*
X0237663Y0040939D02*
X0244663Y0040939D01*
X0244663Y0043938D02*
X0237663Y0043938D01*
X0237663Y0046937D02*
X0244663Y0046937D01*
X0244663Y0049936D02*
X0237663Y0049936D01*
X0253254Y0034941D02*
X0260254Y0034941D01*
X0253254Y0034941D02*
X0253254Y0051941D01*
X0260254Y0051941D01*
X0260254Y0034941D01*
X0260254Y0037940D02*
X0253254Y0037940D01*
X0253254Y0040939D02*
X0260254Y0040939D01*
X0260254Y0043938D02*
X0253254Y0043938D01*
X0253254Y0046937D02*
X0260254Y0046937D01*
X0260254Y0049936D02*
X0253254Y0049936D01*
X0268844Y0034941D02*
X0275844Y0034941D01*
X0268844Y0034941D02*
X0268844Y0051941D01*
X0275844Y0051941D01*
X0275844Y0034941D01*
X0275844Y0037940D02*
X0268844Y0037940D01*
X0268844Y0040939D02*
X0275844Y0040939D01*
X0275844Y0043938D02*
X0268844Y0043938D01*
X0268844Y0046937D02*
X0275844Y0046937D01*
X0275844Y0049936D02*
X0268844Y0049936D01*
X0284435Y0034941D02*
X0291435Y0034941D01*
X0284435Y0034941D02*
X0284435Y0051941D01*
X0291435Y0051941D01*
X0291435Y0034941D01*
X0291435Y0037940D02*
X0284435Y0037940D01*
X0284435Y0040939D02*
X0291435Y0040939D01*
X0291435Y0043938D02*
X0284435Y0043938D01*
X0284435Y0046937D02*
X0291435Y0046937D01*
X0291435Y0049936D02*
X0284435Y0049936D01*
X0300025Y0034941D02*
X0307025Y0034941D01*
X0300025Y0034941D02*
X0300025Y0051941D01*
X0307025Y0051941D01*
X0307025Y0034941D01*
X0307025Y0037940D02*
X0300025Y0037940D01*
X0300025Y0040939D02*
X0307025Y0040939D01*
X0307025Y0043938D02*
X0300025Y0043938D01*
X0300025Y0046937D02*
X0307025Y0046937D01*
X0307025Y0049936D02*
X0300025Y0049936D01*
X0315616Y0034941D02*
X0322616Y0034941D01*
X0315616Y0034941D02*
X0315616Y0051941D01*
X0322616Y0051941D01*
X0322616Y0034941D01*
X0322616Y0037940D02*
X0315616Y0037940D01*
X0315616Y0040939D02*
X0322616Y0040939D01*
X0322616Y0043938D02*
X0315616Y0043938D01*
X0315616Y0046937D02*
X0322616Y0046937D01*
X0322616Y0049936D02*
X0315616Y0049936D01*
X0331206Y0034941D02*
X0338206Y0034941D01*
X0331206Y0034941D02*
X0331206Y0051941D01*
X0338206Y0051941D01*
X0338206Y0034941D01*
X0338206Y0037940D02*
X0331206Y0037940D01*
X0331206Y0040939D02*
X0338206Y0040939D01*
X0338206Y0043938D02*
X0331206Y0043938D01*
X0331206Y0046937D02*
X0338206Y0046937D01*
X0338206Y0049936D02*
X0331206Y0049936D01*
X0346797Y0034941D02*
X0353797Y0034941D01*
X0346797Y0034941D02*
X0346797Y0051941D01*
X0353797Y0051941D01*
X0353797Y0034941D01*
X0353797Y0037940D02*
X0346797Y0037940D01*
X0346797Y0040939D02*
X0353797Y0040939D01*
X0353797Y0043938D02*
X0346797Y0043938D01*
X0346797Y0046937D02*
X0353797Y0046937D01*
X0353797Y0049936D02*
X0346797Y0049936D01*
X0362387Y0034941D02*
X0369387Y0034941D01*
X0362387Y0034941D02*
X0362387Y0051941D01*
X0369387Y0051941D01*
X0369387Y0034941D01*
X0369387Y0037940D02*
X0362387Y0037940D01*
X0362387Y0040939D02*
X0369387Y0040939D01*
X0369387Y0043938D02*
X0362387Y0043938D01*
X0362387Y0046937D02*
X0369387Y0046937D01*
X0369387Y0049936D02*
X0362387Y0049936D01*
M02*
