%
M48
M72
T01C0.01969
T02C0.03200
T03C0.03937
T04C0.04000
%
T01
X200800Y72488
X202800Y68488
X206800Y76988
X199800Y77488
X253800Y70488
X258300Y67988
X261300Y72488
X266300Y73488
X126800Y168988
X102300Y182988
X93800Y183988
X89800Y186988
X197800Y196488
X203300Y245988
X204800Y256488
X209013Y266488
T02
X215300Y270988
X215300Y260988
X215300Y250988
X215300Y240988
X215300Y230988
X215300Y220988
X215300Y210988
X215300Y200988
X215300Y190988
X245300Y190988
X245300Y200988
X245300Y210988
X245300Y220988
X245300Y230988
X245300Y240988
X245300Y250988
X245300Y260988
X245300Y270988
X255300Y275988
X265300Y275988
X275300Y270988
X275300Y260988
X275300Y250988
X275300Y240988
X275300Y230988
X275300Y220988
X275300Y210988
X275300Y200988
X275300Y190988
X305300Y190988
X305300Y200988
X305300Y210988
X305300Y220988
X305300Y230988
X305300Y240988
X305300Y250988
X305300Y260988
X305300Y270988
X314300Y270988
X324300Y270988
X332300Y264488
X332300Y254488
X332300Y244488
X332300Y234488
X332300Y224488
X332300Y214488
X332300Y204488
X335800Y192488
X325800Y192488
X362300Y204488
X362300Y214488
X362300Y224488
X362300Y234488
X362300Y244488
X362300Y254488
X362300Y264488
X362300Y156988
X362300Y146988
X362300Y136988
X362300Y126988
X362300Y116988
X362300Y106988
X362300Y96988
X362300Y86988
X332300Y86988
X323300Y86988
X323300Y96988
X332300Y96988
X332300Y106988
X332300Y116988
X332300Y126988
X332300Y136988
X332300Y146988
X332300Y156988
X307300Y156988
X307300Y146988
X307300Y136988
X307300Y126988
X307300Y116988
X307300Y106988
X307300Y96988
X307300Y86988
X277300Y86988
X268300Y86988
X268300Y96988
X277300Y96988
X277300Y106988
X277300Y116988
X277300Y126988
X277300Y136988
X277300Y146988
X277300Y156988
X247300Y157488
X247300Y147488
X247300Y137488
X247300Y127488
X247300Y117488
X247300Y107488
X247300Y97488
X247300Y87488
X217300Y87488
X208300Y87488
X208300Y97488
X217300Y97488
X217300Y107488
X217300Y117488
X217300Y127488
X217300Y137488
X217300Y147488
X217300Y157488
X186800Y157488
X186800Y147488
X186800Y137488
X186800Y127488
X186800Y117488
X186800Y107488
X186800Y97488
X186800Y87488
X156800Y87488
X146300Y87988
X156800Y97488
X146300Y97988
X156800Y107488
X156800Y117488
X156800Y127488
X156800Y137488
X156800Y147488
X156800Y157488
X117182Y159937
X117182Y150488
X87182Y150488
X87182Y159937
X71800Y153988
X71800Y143988
X71800Y133988
X71800Y123988
X71800Y113988
X71800Y103988
X71800Y93988
X84300Y93488
X94300Y93488
X97300Y75488
X41800Y93988
X41800Y103988
X41800Y113988
X41800Y123988
X41800Y133988
X41800Y143988
X41800Y153988
X43800Y189488
X53800Y189488
X66087Y194488
X76087Y194488
X65800Y207988
X65800Y217988
X65800Y227988
X65800Y237988
X65800Y247988
X65800Y257988
X65800Y267988
X51800Y257488
X37300Y257488
X37300Y227488
X51800Y227488
X53300Y203488
X43300Y203488
X95800Y207988
X95800Y217988
X95800Y227988
X95800Y237988
X95800Y247988
X95800Y257988
X95800Y267988
X108300Y253988
X119800Y253988
X130300Y254488
X141300Y254488
X141300Y244488
X155300Y245988
X155300Y235988
X155300Y225988
X155300Y215988
X155300Y205988
X155800Y193988
X165800Y193988
X185300Y205988
X185300Y215988
X185300Y225988
X185300Y235988
X185300Y245988
X185300Y255988
X185300Y265988
X155300Y265988
X155300Y255988
X119800Y243988
X130300Y224488
X108300Y223988
X37300Y75488
T03
X38402Y60331
X365800Y59776
T04
X123300Y123488
X113300Y123488
X103300Y123488
X103300Y133488
X113300Y133488
X123300Y133488
M30
