G75*
%MOIN*%
%OFA0B0*%
%FSLAX25Y25*%
%IPPOS*%
%LPD*%
%AMOC8*
5,1,8,0,0,1.08239X$1,22.5*
%
%ADD10C,0.00000*%
%ADD11C,0.00600*%
%ADD12C,0.00500*%
%ADD13C,0.01000*%
%ADD14R,0.02000X0.01500*%
%ADD15C,0.00400*%
%ADD16C,0.01200*%
%ADD17R,0.02000X0.10000*%
%ADD18R,0.03000X0.02000*%
%ADD19R,0.01500X0.02000*%
D10*
X0026198Y0005295D02*
X0030135Y0001394D01*
X0074623Y0001394D01*
X0074623Y0052181D01*
X0080135Y0052181D01*
X0080135Y0001394D01*
X0355331Y0001000D01*
X0355331Y0051394D01*
X0360843Y0051787D01*
X0360843Y0001394D01*
X0376198Y0001394D01*
X0378954Y0004150D01*
X0378954Y0050606D01*
X0378954Y0050488D02*
X0378954Y0284587D01*
X0026198Y0284587D01*
X0026198Y0051094D01*
X0026198Y0051295D02*
X0026198Y0005295D01*
D11*
X0045800Y0065488D02*
X0044800Y0066488D01*
X0044800Y0084488D01*
X0045300Y0084988D01*
X0045800Y0085488D01*
X0083800Y0085488D01*
X0083800Y0085288D01*
X0045800Y0085288D01*
X0045300Y0084988D02*
X0084300Y0084988D01*
X0083800Y0085488D01*
X0084300Y0084988D02*
X0084800Y0084488D01*
X0084800Y0084288D01*
X0086300Y0084288D01*
X0086300Y0084488D01*
X0086800Y0084988D01*
X0089300Y0084988D01*
X0088800Y0085488D01*
X0088800Y0085288D01*
X0087300Y0085288D01*
X0087300Y0085488D02*
X0088800Y0085488D01*
X0089300Y0084988D02*
X0089800Y0084488D01*
X0089800Y0066488D01*
X0086300Y0066488D01*
X0084800Y0066488D01*
X0044800Y0066488D01*
X0045800Y0065488D02*
X0083800Y0065488D01*
X0084800Y0066488D01*
X0084800Y0067488D01*
X0084800Y0083988D01*
X0086300Y0083988D01*
X0086300Y0084288D01*
X0086300Y0084488D02*
X0084800Y0084488D01*
X0084800Y0084288D02*
X0084800Y0083988D01*
X0086300Y0083988D02*
X0086300Y0067488D01*
X0084800Y0067488D01*
X0086300Y0067488D02*
X0086300Y0066488D01*
X0087300Y0065488D01*
X0088800Y0065488D01*
X0089800Y0066488D01*
X0083300Y0071988D02*
X0081300Y0071988D01*
X0082300Y0070988D02*
X0082300Y0072988D01*
X0083300Y0075488D02*
X0079800Y0075488D01*
X0079800Y0070488D01*
X0077800Y0070488D01*
X0077800Y0080488D01*
X0079800Y0080488D01*
X0079800Y0075488D01*
X0074800Y0075488D02*
X0046800Y0075488D01*
X0045300Y0088988D02*
X0052800Y0088988D01*
X0052802Y0089114D01*
X0052808Y0089239D01*
X0052818Y0089364D01*
X0052832Y0089489D01*
X0052849Y0089614D01*
X0052871Y0089738D01*
X0052896Y0089861D01*
X0052926Y0089983D01*
X0052959Y0090104D01*
X0052996Y0090224D01*
X0053036Y0090343D01*
X0053081Y0090460D01*
X0053129Y0090577D01*
X0053181Y0090691D01*
X0053236Y0090804D01*
X0053295Y0090915D01*
X0053357Y0091024D01*
X0053423Y0091131D01*
X0053492Y0091236D01*
X0053564Y0091339D01*
X0053639Y0091440D01*
X0053718Y0091538D01*
X0053800Y0091633D01*
X0053884Y0091726D01*
X0053972Y0091816D01*
X0054062Y0091904D01*
X0054155Y0091988D01*
X0054250Y0092070D01*
X0054348Y0092149D01*
X0054449Y0092224D01*
X0054552Y0092296D01*
X0054657Y0092365D01*
X0054764Y0092431D01*
X0054873Y0092493D01*
X0054984Y0092552D01*
X0055097Y0092607D01*
X0055211Y0092659D01*
X0055328Y0092707D01*
X0055445Y0092752D01*
X0055564Y0092792D01*
X0055684Y0092829D01*
X0055805Y0092862D01*
X0055927Y0092892D01*
X0056050Y0092917D01*
X0056174Y0092939D01*
X0056299Y0092956D01*
X0056424Y0092970D01*
X0056549Y0092980D01*
X0056674Y0092986D01*
X0056800Y0092988D01*
X0056926Y0092986D01*
X0057051Y0092980D01*
X0057176Y0092970D01*
X0057301Y0092956D01*
X0057426Y0092939D01*
X0057550Y0092917D01*
X0057673Y0092892D01*
X0057795Y0092862D01*
X0057916Y0092829D01*
X0058036Y0092792D01*
X0058155Y0092752D01*
X0058272Y0092707D01*
X0058389Y0092659D01*
X0058503Y0092607D01*
X0058616Y0092552D01*
X0058727Y0092493D01*
X0058836Y0092431D01*
X0058943Y0092365D01*
X0059048Y0092296D01*
X0059151Y0092224D01*
X0059252Y0092149D01*
X0059350Y0092070D01*
X0059445Y0091988D01*
X0059538Y0091904D01*
X0059628Y0091816D01*
X0059716Y0091726D01*
X0059800Y0091633D01*
X0059882Y0091538D01*
X0059961Y0091440D01*
X0060036Y0091339D01*
X0060108Y0091236D01*
X0060177Y0091131D01*
X0060243Y0091024D01*
X0060305Y0090915D01*
X0060364Y0090804D01*
X0060419Y0090691D01*
X0060471Y0090577D01*
X0060519Y0090460D01*
X0060564Y0090343D01*
X0060604Y0090224D01*
X0060641Y0090104D01*
X0060674Y0089983D01*
X0060704Y0089861D01*
X0060729Y0089738D01*
X0060751Y0089614D01*
X0060768Y0089489D01*
X0060782Y0089364D01*
X0060792Y0089239D01*
X0060798Y0089114D01*
X0060800Y0088988D01*
X0068300Y0088988D01*
X0068300Y0158988D01*
X0045300Y0158988D01*
X0045300Y0088988D01*
X0079800Y0089488D02*
X0079800Y0097488D01*
X0079802Y0097548D01*
X0079807Y0097609D01*
X0079816Y0097668D01*
X0079829Y0097727D01*
X0079845Y0097786D01*
X0079865Y0097843D01*
X0079888Y0097898D01*
X0079915Y0097953D01*
X0079944Y0098005D01*
X0079977Y0098056D01*
X0080013Y0098105D01*
X0080051Y0098151D01*
X0080093Y0098195D01*
X0080137Y0098237D01*
X0080183Y0098275D01*
X0080232Y0098311D01*
X0080283Y0098344D01*
X0080335Y0098373D01*
X0080390Y0098400D01*
X0080445Y0098423D01*
X0080502Y0098443D01*
X0080561Y0098459D01*
X0080620Y0098472D01*
X0080679Y0098481D01*
X0080740Y0098486D01*
X0080800Y0098488D01*
X0097800Y0098488D01*
X0097860Y0098486D01*
X0097921Y0098481D01*
X0097980Y0098472D01*
X0098039Y0098459D01*
X0098098Y0098443D01*
X0098155Y0098423D01*
X0098210Y0098400D01*
X0098265Y0098373D01*
X0098317Y0098344D01*
X0098368Y0098311D01*
X0098417Y0098275D01*
X0098463Y0098237D01*
X0098507Y0098195D01*
X0098549Y0098151D01*
X0098587Y0098105D01*
X0098623Y0098056D01*
X0098656Y0098005D01*
X0098685Y0097953D01*
X0098712Y0097898D01*
X0098735Y0097843D01*
X0098755Y0097786D01*
X0098771Y0097727D01*
X0098784Y0097668D01*
X0098793Y0097609D01*
X0098798Y0097548D01*
X0098800Y0097488D01*
X0098800Y0089488D01*
X0098798Y0089428D01*
X0098793Y0089367D01*
X0098784Y0089308D01*
X0098771Y0089249D01*
X0098755Y0089190D01*
X0098735Y0089133D01*
X0098712Y0089078D01*
X0098685Y0089023D01*
X0098656Y0088971D01*
X0098623Y0088920D01*
X0098587Y0088871D01*
X0098549Y0088825D01*
X0098507Y0088781D01*
X0098463Y0088739D01*
X0098417Y0088701D01*
X0098368Y0088665D01*
X0098317Y0088632D01*
X0098265Y0088603D01*
X0098210Y0088576D01*
X0098155Y0088553D01*
X0098098Y0088533D01*
X0098039Y0088517D01*
X0097980Y0088504D01*
X0097921Y0088495D01*
X0097860Y0088490D01*
X0097800Y0088488D01*
X0080800Y0088488D01*
X0080740Y0088490D01*
X0080679Y0088495D01*
X0080620Y0088504D01*
X0080561Y0088517D01*
X0080502Y0088533D01*
X0080445Y0088553D01*
X0080390Y0088576D01*
X0080335Y0088603D01*
X0080283Y0088632D01*
X0080232Y0088665D01*
X0080183Y0088701D01*
X0080137Y0088739D01*
X0080093Y0088781D01*
X0080051Y0088825D01*
X0080013Y0088871D01*
X0079977Y0088920D01*
X0079944Y0088971D01*
X0079915Y0089023D01*
X0079888Y0089078D01*
X0079865Y0089133D01*
X0079845Y0089190D01*
X0079829Y0089249D01*
X0079816Y0089308D01*
X0079807Y0089367D01*
X0079802Y0089428D01*
X0079800Y0089488D01*
X0086800Y0084988D02*
X0087300Y0085488D01*
X0087800Y0093488D02*
X0088300Y0093488D01*
X0090300Y0093488D02*
X0090800Y0093488D01*
X0111100Y0110288D02*
X0115370Y0114559D01*
X0115370Y0115626D01*
X0114303Y0116694D01*
X0112168Y0116694D01*
X0111100Y0115626D01*
X0110800Y0118488D02*
X0108300Y0120988D01*
X0105800Y0118488D01*
X0100800Y0118488D01*
X0098300Y0120988D01*
X0098300Y0135988D01*
X0100800Y0138488D01*
X0105800Y0138488D01*
X0108300Y0135988D01*
X0110800Y0138488D01*
X0115800Y0138488D01*
X0118300Y0135988D01*
X0120800Y0138488D01*
X0125800Y0138488D01*
X0128300Y0135988D01*
X0128300Y0120988D01*
X0125800Y0118488D01*
X0120800Y0118488D01*
X0118300Y0120988D01*
X0115800Y0118488D01*
X0110800Y0118488D01*
X0111100Y0110288D02*
X0115370Y0110288D01*
X0131100Y0126288D02*
X0134303Y0126288D01*
X0135370Y0127356D01*
X0135370Y0128423D01*
X0134303Y0129491D01*
X0131100Y0129491D01*
X0131100Y0126288D02*
X0131100Y0132694D01*
X0134303Y0132694D01*
X0135370Y0131626D01*
X0135370Y0130559D01*
X0134303Y0129491D01*
X0114870Y0141788D02*
X0110600Y0141788D01*
X0112735Y0141788D02*
X0112735Y0148194D01*
X0110600Y0146059D01*
X0111182Y0146488D02*
X0109682Y0146488D01*
X0109182Y0146988D01*
X0095182Y0146988D01*
X0094682Y0146488D01*
X0093182Y0146488D01*
X0093122Y0146490D01*
X0093061Y0146495D01*
X0093002Y0146504D01*
X0092943Y0146517D01*
X0092884Y0146533D01*
X0092827Y0146553D01*
X0092772Y0146576D01*
X0092717Y0146603D01*
X0092665Y0146632D01*
X0092614Y0146665D01*
X0092565Y0146701D01*
X0092519Y0146739D01*
X0092475Y0146781D01*
X0092433Y0146825D01*
X0092395Y0146871D01*
X0092359Y0146920D01*
X0092326Y0146971D01*
X0092297Y0147023D01*
X0092270Y0147078D01*
X0092247Y0147133D01*
X0092227Y0147190D01*
X0092211Y0147249D01*
X0092198Y0147308D01*
X0092189Y0147367D01*
X0092184Y0147428D01*
X0092182Y0147488D01*
X0092182Y0153488D01*
X0092184Y0153548D01*
X0092189Y0153609D01*
X0092198Y0153668D01*
X0092211Y0153727D01*
X0092227Y0153786D01*
X0092247Y0153843D01*
X0092270Y0153898D01*
X0092297Y0153953D01*
X0092326Y0154005D01*
X0092359Y0154056D01*
X0092395Y0154105D01*
X0092433Y0154151D01*
X0092475Y0154195D01*
X0092519Y0154237D01*
X0092565Y0154275D01*
X0092614Y0154311D01*
X0092665Y0154344D01*
X0092717Y0154373D01*
X0092772Y0154400D01*
X0092827Y0154423D01*
X0092884Y0154443D01*
X0092943Y0154459D01*
X0093002Y0154472D01*
X0093061Y0154481D01*
X0093122Y0154486D01*
X0093182Y0154488D01*
X0094682Y0154488D01*
X0095182Y0153988D01*
X0109182Y0153988D01*
X0109682Y0154488D01*
X0111182Y0154488D01*
X0111242Y0154486D01*
X0111303Y0154481D01*
X0111362Y0154472D01*
X0111421Y0154459D01*
X0111480Y0154443D01*
X0111537Y0154423D01*
X0111592Y0154400D01*
X0111647Y0154373D01*
X0111699Y0154344D01*
X0111750Y0154311D01*
X0111799Y0154275D01*
X0111845Y0154237D01*
X0111889Y0154195D01*
X0111931Y0154151D01*
X0111969Y0154105D01*
X0112005Y0154056D01*
X0112038Y0154005D01*
X0112067Y0153953D01*
X0112094Y0153898D01*
X0112117Y0153843D01*
X0112137Y0153786D01*
X0112153Y0153727D01*
X0112166Y0153668D01*
X0112175Y0153609D01*
X0112180Y0153548D01*
X0112182Y0153488D01*
X0112182Y0147488D01*
X0112180Y0147428D01*
X0112175Y0147367D01*
X0112166Y0147308D01*
X0112153Y0147249D01*
X0112137Y0147190D01*
X0112117Y0147133D01*
X0112094Y0147078D01*
X0112067Y0147023D01*
X0112038Y0146971D01*
X0112005Y0146920D01*
X0111969Y0146871D01*
X0111931Y0146825D01*
X0111889Y0146781D01*
X0111845Y0146739D01*
X0111799Y0146701D01*
X0111750Y0146665D01*
X0111699Y0146632D01*
X0111647Y0146603D01*
X0111592Y0146576D01*
X0111537Y0146553D01*
X0111480Y0146533D01*
X0111421Y0146517D01*
X0111362Y0146504D01*
X0111303Y0146495D01*
X0111242Y0146490D01*
X0111182Y0146488D01*
X0111182Y0155937D02*
X0109682Y0155937D01*
X0109182Y0156437D01*
X0095182Y0156437D01*
X0094682Y0155937D01*
X0093182Y0155937D01*
X0093122Y0155939D01*
X0093061Y0155944D01*
X0093002Y0155953D01*
X0092943Y0155966D01*
X0092884Y0155982D01*
X0092827Y0156002D01*
X0092772Y0156025D01*
X0092717Y0156052D01*
X0092665Y0156081D01*
X0092614Y0156114D01*
X0092565Y0156150D01*
X0092519Y0156188D01*
X0092475Y0156230D01*
X0092433Y0156274D01*
X0092395Y0156320D01*
X0092359Y0156369D01*
X0092326Y0156420D01*
X0092297Y0156472D01*
X0092270Y0156527D01*
X0092247Y0156582D01*
X0092227Y0156639D01*
X0092211Y0156698D01*
X0092198Y0156757D01*
X0092189Y0156816D01*
X0092184Y0156877D01*
X0092182Y0156937D01*
X0092182Y0162937D01*
X0092184Y0162997D01*
X0092189Y0163058D01*
X0092198Y0163117D01*
X0092211Y0163176D01*
X0092227Y0163235D01*
X0092247Y0163292D01*
X0092270Y0163347D01*
X0092297Y0163402D01*
X0092326Y0163454D01*
X0092359Y0163505D01*
X0092395Y0163554D01*
X0092433Y0163600D01*
X0092475Y0163644D01*
X0092519Y0163686D01*
X0092565Y0163724D01*
X0092614Y0163760D01*
X0092665Y0163793D01*
X0092717Y0163822D01*
X0092772Y0163849D01*
X0092827Y0163872D01*
X0092884Y0163892D01*
X0092943Y0163908D01*
X0093002Y0163921D01*
X0093061Y0163930D01*
X0093122Y0163935D01*
X0093182Y0163937D01*
X0094682Y0163937D01*
X0095182Y0163437D01*
X0109182Y0163437D01*
X0109682Y0163937D01*
X0111182Y0163937D01*
X0111242Y0163935D01*
X0111303Y0163930D01*
X0111362Y0163921D01*
X0111421Y0163908D01*
X0111480Y0163892D01*
X0111537Y0163872D01*
X0111592Y0163849D01*
X0111647Y0163822D01*
X0111699Y0163793D01*
X0111750Y0163760D01*
X0111799Y0163724D01*
X0111845Y0163686D01*
X0111889Y0163644D01*
X0111931Y0163600D01*
X0111969Y0163554D01*
X0112005Y0163505D01*
X0112038Y0163454D01*
X0112067Y0163402D01*
X0112094Y0163347D01*
X0112117Y0163292D01*
X0112137Y0163235D01*
X0112153Y0163176D01*
X0112166Y0163117D01*
X0112175Y0163058D01*
X0112180Y0162997D01*
X0112182Y0162937D01*
X0112182Y0156937D01*
X0112180Y0156877D01*
X0112175Y0156816D01*
X0112166Y0156757D01*
X0112153Y0156698D01*
X0112137Y0156639D01*
X0112117Y0156582D01*
X0112094Y0156527D01*
X0112067Y0156472D01*
X0112038Y0156420D01*
X0112005Y0156369D01*
X0111969Y0156320D01*
X0111931Y0156274D01*
X0111889Y0156230D01*
X0111845Y0156188D01*
X0111799Y0156150D01*
X0111750Y0156114D01*
X0111699Y0156081D01*
X0111647Y0156052D01*
X0111592Y0156025D01*
X0111537Y0156002D01*
X0111480Y0155982D01*
X0111421Y0155966D01*
X0111362Y0155953D01*
X0111303Y0155944D01*
X0111242Y0155939D01*
X0111182Y0155937D01*
X0111837Y0168111D02*
X0108634Y0168111D01*
X0107566Y0169179D01*
X0107566Y0171314D01*
X0108634Y0172381D01*
X0111837Y0172381D01*
X0114012Y0174516D02*
X0116147Y0172381D01*
X0116147Y0170246D01*
X0114012Y0168111D01*
X0105404Y0168111D02*
X0103269Y0170246D01*
X0103269Y0172381D01*
X0105404Y0174516D01*
X0105404Y0178611D02*
X0107540Y0180746D01*
X0107540Y0185016D01*
X0109715Y0182881D02*
X0110782Y0182881D01*
X0110782Y0178611D01*
X0109715Y0178611D02*
X0111850Y0178611D01*
X0114012Y0178611D02*
X0118282Y0182881D01*
X0120457Y0181814D02*
X0121525Y0182881D01*
X0123660Y0182881D01*
X0124728Y0181814D01*
X0124728Y0180746D01*
X0120457Y0180746D01*
X0120457Y0179679D02*
X0120457Y0181814D01*
X0120457Y0179679D02*
X0121525Y0178611D01*
X0123660Y0178611D01*
X0126903Y0178611D02*
X0126903Y0182881D01*
X0130106Y0182881D01*
X0131173Y0181814D01*
X0131173Y0178611D01*
X0132267Y0174516D02*
X0131200Y0173449D01*
X0131200Y0169179D01*
X0135470Y0173449D01*
X0135470Y0169179D01*
X0134403Y0168111D01*
X0132267Y0168111D01*
X0131200Y0169179D01*
X0129025Y0168111D02*
X0124754Y0168111D01*
X0129025Y0172381D01*
X0129025Y0173449D01*
X0127957Y0174516D01*
X0125822Y0174516D01*
X0124754Y0173449D01*
X0118282Y0178611D02*
X0114012Y0182881D01*
X0110782Y0185016D02*
X0110782Y0186084D01*
X0103269Y0185016D02*
X0103269Y0180746D01*
X0105404Y0178611D01*
X0132267Y0174516D02*
X0134403Y0174516D01*
X0135470Y0173449D01*
X0137645Y0172381D02*
X0139780Y0174516D01*
X0139780Y0168111D01*
X0137645Y0168111D02*
X0141916Y0168111D01*
X0144091Y0169179D02*
X0145158Y0168111D01*
X0147294Y0168111D01*
X0148361Y0169179D01*
X0148361Y0173449D01*
X0147294Y0174516D01*
X0145158Y0174516D01*
X0144091Y0173449D01*
X0144091Y0172381D01*
X0145158Y0171314D01*
X0148361Y0171314D01*
X0148368Y0178611D02*
X0146233Y0178611D01*
X0145165Y0179679D01*
X0145165Y0181814D01*
X0146233Y0182881D01*
X0148368Y0182881D01*
X0149435Y0181814D01*
X0149435Y0180746D01*
X0145165Y0180746D01*
X0142997Y0182881D02*
X0141929Y0182881D01*
X0139794Y0180746D01*
X0139794Y0178611D02*
X0139794Y0182881D01*
X0151611Y0181814D02*
X0155881Y0181814D01*
X0158056Y0182881D02*
X0161259Y0182881D01*
X0162326Y0181814D01*
X0162326Y0179679D01*
X0161259Y0178611D01*
X0158056Y0178611D01*
X0158056Y0185016D01*
X0164502Y0182881D02*
X0164502Y0179679D01*
X0165569Y0178611D01*
X0168772Y0178611D01*
X0168772Y0182881D01*
X0170947Y0182881D02*
X0172015Y0182881D01*
X0172015Y0178611D01*
X0173082Y0178611D02*
X0170947Y0178611D01*
X0175244Y0178611D02*
X0177379Y0178611D01*
X0176312Y0178611D02*
X0176312Y0185016D01*
X0175244Y0185016D01*
X0172015Y0185016D02*
X0172015Y0186084D01*
X0169300Y0188988D02*
X0152300Y0188988D01*
X0152240Y0188990D01*
X0152179Y0188995D01*
X0152120Y0189004D01*
X0152061Y0189017D01*
X0152002Y0189033D01*
X0151945Y0189053D01*
X0151890Y0189076D01*
X0151835Y0189103D01*
X0151783Y0189132D01*
X0151732Y0189165D01*
X0151683Y0189201D01*
X0151637Y0189239D01*
X0151593Y0189281D01*
X0151551Y0189325D01*
X0151513Y0189371D01*
X0151477Y0189420D01*
X0151444Y0189471D01*
X0151415Y0189523D01*
X0151388Y0189578D01*
X0151365Y0189633D01*
X0151345Y0189690D01*
X0151329Y0189749D01*
X0151316Y0189808D01*
X0151307Y0189867D01*
X0151302Y0189928D01*
X0151300Y0189988D01*
X0151300Y0197988D01*
X0151302Y0198048D01*
X0151307Y0198109D01*
X0151316Y0198168D01*
X0151329Y0198227D01*
X0151345Y0198286D01*
X0151365Y0198343D01*
X0151388Y0198398D01*
X0151415Y0198453D01*
X0151444Y0198505D01*
X0151477Y0198556D01*
X0151513Y0198605D01*
X0151551Y0198651D01*
X0151593Y0198695D01*
X0151637Y0198737D01*
X0151683Y0198775D01*
X0151732Y0198811D01*
X0151783Y0198844D01*
X0151835Y0198873D01*
X0151890Y0198900D01*
X0151945Y0198923D01*
X0152002Y0198943D01*
X0152061Y0198959D01*
X0152120Y0198972D01*
X0152179Y0198981D01*
X0152240Y0198986D01*
X0152300Y0198988D01*
X0169300Y0198988D01*
X0169360Y0198986D01*
X0169421Y0198981D01*
X0169480Y0198972D01*
X0169539Y0198959D01*
X0169598Y0198943D01*
X0169655Y0198923D01*
X0169710Y0198900D01*
X0169765Y0198873D01*
X0169817Y0198844D01*
X0169868Y0198811D01*
X0169917Y0198775D01*
X0169963Y0198737D01*
X0170007Y0198695D01*
X0170049Y0198651D01*
X0170087Y0198605D01*
X0170123Y0198556D01*
X0170156Y0198505D01*
X0170185Y0198453D01*
X0170212Y0198398D01*
X0170235Y0198343D01*
X0170255Y0198286D01*
X0170271Y0198227D01*
X0170284Y0198168D01*
X0170293Y0198109D01*
X0170298Y0198048D01*
X0170300Y0197988D01*
X0170300Y0189988D01*
X0170298Y0189928D01*
X0170293Y0189867D01*
X0170284Y0189808D01*
X0170271Y0189749D01*
X0170255Y0189690D01*
X0170235Y0189633D01*
X0170212Y0189578D01*
X0170185Y0189523D01*
X0170156Y0189471D01*
X0170123Y0189420D01*
X0170087Y0189371D01*
X0170049Y0189325D01*
X0170007Y0189281D01*
X0169963Y0189239D01*
X0169917Y0189201D01*
X0169868Y0189165D01*
X0169817Y0189132D01*
X0169765Y0189103D01*
X0169710Y0189076D01*
X0169655Y0189053D01*
X0169598Y0189033D01*
X0169539Y0189017D01*
X0169480Y0189004D01*
X0169421Y0188995D01*
X0169360Y0188990D01*
X0169300Y0188988D01*
X0162300Y0193988D02*
X0161800Y0193988D01*
X0159800Y0193988D02*
X0159300Y0193988D01*
X0158800Y0200988D02*
X0166300Y0200988D01*
X0166302Y0201114D01*
X0166308Y0201239D01*
X0166318Y0201364D01*
X0166332Y0201489D01*
X0166349Y0201614D01*
X0166371Y0201738D01*
X0166396Y0201861D01*
X0166426Y0201983D01*
X0166459Y0202104D01*
X0166496Y0202224D01*
X0166536Y0202343D01*
X0166581Y0202460D01*
X0166629Y0202577D01*
X0166681Y0202691D01*
X0166736Y0202804D01*
X0166795Y0202915D01*
X0166857Y0203024D01*
X0166923Y0203131D01*
X0166992Y0203236D01*
X0167064Y0203339D01*
X0167139Y0203440D01*
X0167218Y0203538D01*
X0167300Y0203633D01*
X0167384Y0203726D01*
X0167472Y0203816D01*
X0167562Y0203904D01*
X0167655Y0203988D01*
X0167750Y0204070D01*
X0167848Y0204149D01*
X0167949Y0204224D01*
X0168052Y0204296D01*
X0168157Y0204365D01*
X0168264Y0204431D01*
X0168373Y0204493D01*
X0168484Y0204552D01*
X0168597Y0204607D01*
X0168711Y0204659D01*
X0168828Y0204707D01*
X0168945Y0204752D01*
X0169064Y0204792D01*
X0169184Y0204829D01*
X0169305Y0204862D01*
X0169427Y0204892D01*
X0169550Y0204917D01*
X0169674Y0204939D01*
X0169799Y0204956D01*
X0169924Y0204970D01*
X0170049Y0204980D01*
X0170174Y0204986D01*
X0170300Y0204988D01*
X0170426Y0204986D01*
X0170551Y0204980D01*
X0170676Y0204970D01*
X0170801Y0204956D01*
X0170926Y0204939D01*
X0171050Y0204917D01*
X0171173Y0204892D01*
X0171295Y0204862D01*
X0171416Y0204829D01*
X0171536Y0204792D01*
X0171655Y0204752D01*
X0171772Y0204707D01*
X0171889Y0204659D01*
X0172003Y0204607D01*
X0172116Y0204552D01*
X0172227Y0204493D01*
X0172336Y0204431D01*
X0172443Y0204365D01*
X0172548Y0204296D01*
X0172651Y0204224D01*
X0172752Y0204149D01*
X0172850Y0204070D01*
X0172945Y0203988D01*
X0173038Y0203904D01*
X0173128Y0203816D01*
X0173216Y0203726D01*
X0173300Y0203633D01*
X0173382Y0203538D01*
X0173461Y0203440D01*
X0173536Y0203339D01*
X0173608Y0203236D01*
X0173677Y0203131D01*
X0173743Y0203024D01*
X0173805Y0202915D01*
X0173864Y0202804D01*
X0173919Y0202691D01*
X0173971Y0202577D01*
X0174019Y0202460D01*
X0174064Y0202343D01*
X0174104Y0202224D01*
X0174141Y0202104D01*
X0174174Y0201983D01*
X0174204Y0201861D01*
X0174229Y0201738D01*
X0174251Y0201614D01*
X0174268Y0201489D01*
X0174282Y0201364D01*
X0174292Y0201239D01*
X0174298Y0201114D01*
X0174300Y0200988D01*
X0181800Y0200988D01*
X0181800Y0270988D01*
X0158800Y0270988D01*
X0158800Y0200988D01*
X0179541Y0181814D02*
X0180609Y0182881D01*
X0183811Y0182881D01*
X0183811Y0185016D02*
X0183811Y0178611D01*
X0180609Y0178611D01*
X0179541Y0179679D01*
X0179541Y0181814D01*
X0179521Y0174516D02*
X0176318Y0174516D01*
X0176318Y0168111D01*
X0179521Y0168111D01*
X0180589Y0169179D01*
X0180589Y0173449D01*
X0179521Y0174516D01*
X0182764Y0171314D02*
X0182764Y0169179D01*
X0183831Y0168111D01*
X0185966Y0168111D01*
X0187034Y0169179D01*
X0187034Y0171314D01*
X0185966Y0172381D01*
X0183831Y0172381D01*
X0182764Y0171314D01*
X0189209Y0171314D02*
X0189209Y0169179D01*
X0190277Y0168111D01*
X0192412Y0168111D01*
X0193480Y0169179D01*
X0193480Y0171314D01*
X0192412Y0172381D01*
X0190277Y0172381D01*
X0189209Y0171314D01*
X0195655Y0170246D02*
X0198857Y0172381D01*
X0200513Y0173396D02*
X0202649Y0171261D01*
X0204784Y0173396D01*
X0204784Y0177666D01*
X0206959Y0176599D02*
X0208026Y0177666D01*
X0210162Y0177666D01*
X0211229Y0176599D01*
X0211229Y0175531D01*
X0206959Y0171261D01*
X0211229Y0171261D01*
X0213404Y0169125D02*
X0215540Y0171261D01*
X0214472Y0171261D01*
X0214472Y0172328D01*
X0215540Y0172328D01*
X0215540Y0171261D01*
X0224147Y0171261D02*
X0224147Y0177666D01*
X0227350Y0177666D01*
X0228417Y0176599D01*
X0228417Y0174463D01*
X0227350Y0173396D01*
X0224147Y0173396D01*
X0226282Y0173396D02*
X0228417Y0171261D01*
X0230592Y0171261D02*
X0234863Y0171261D01*
X0232728Y0171261D02*
X0232728Y0177666D01*
X0230592Y0175531D01*
X0234300Y0185988D02*
X0234298Y0186114D01*
X0234292Y0186239D01*
X0234282Y0186364D01*
X0234268Y0186489D01*
X0234251Y0186614D01*
X0234229Y0186738D01*
X0234204Y0186861D01*
X0234174Y0186983D01*
X0234141Y0187104D01*
X0234104Y0187224D01*
X0234064Y0187343D01*
X0234019Y0187460D01*
X0233971Y0187577D01*
X0233919Y0187691D01*
X0233864Y0187804D01*
X0233805Y0187915D01*
X0233743Y0188024D01*
X0233677Y0188131D01*
X0233608Y0188236D01*
X0233536Y0188339D01*
X0233461Y0188440D01*
X0233382Y0188538D01*
X0233300Y0188633D01*
X0233216Y0188726D01*
X0233128Y0188816D01*
X0233038Y0188904D01*
X0232945Y0188988D01*
X0232850Y0189070D01*
X0232752Y0189149D01*
X0232651Y0189224D01*
X0232548Y0189296D01*
X0232443Y0189365D01*
X0232336Y0189431D01*
X0232227Y0189493D01*
X0232116Y0189552D01*
X0232003Y0189607D01*
X0231889Y0189659D01*
X0231772Y0189707D01*
X0231655Y0189752D01*
X0231536Y0189792D01*
X0231416Y0189829D01*
X0231295Y0189862D01*
X0231173Y0189892D01*
X0231050Y0189917D01*
X0230926Y0189939D01*
X0230801Y0189956D01*
X0230676Y0189970D01*
X0230551Y0189980D01*
X0230426Y0189986D01*
X0230300Y0189988D01*
X0230174Y0189986D01*
X0230049Y0189980D01*
X0229924Y0189970D01*
X0229799Y0189956D01*
X0229674Y0189939D01*
X0229550Y0189917D01*
X0229427Y0189892D01*
X0229305Y0189862D01*
X0229184Y0189829D01*
X0229064Y0189792D01*
X0228945Y0189752D01*
X0228828Y0189707D01*
X0228711Y0189659D01*
X0228597Y0189607D01*
X0228484Y0189552D01*
X0228373Y0189493D01*
X0228264Y0189431D01*
X0228157Y0189365D01*
X0228052Y0189296D01*
X0227949Y0189224D01*
X0227848Y0189149D01*
X0227750Y0189070D01*
X0227655Y0188988D01*
X0227562Y0188904D01*
X0227472Y0188816D01*
X0227384Y0188726D01*
X0227300Y0188633D01*
X0227218Y0188538D01*
X0227139Y0188440D01*
X0227064Y0188339D01*
X0226992Y0188236D01*
X0226923Y0188131D01*
X0226857Y0188024D01*
X0226795Y0187915D01*
X0226736Y0187804D01*
X0226681Y0187691D01*
X0226629Y0187577D01*
X0226581Y0187460D01*
X0226536Y0187343D01*
X0226496Y0187224D01*
X0226459Y0187104D01*
X0226426Y0186983D01*
X0226396Y0186861D01*
X0226371Y0186738D01*
X0226349Y0186614D01*
X0226332Y0186489D01*
X0226318Y0186364D01*
X0226308Y0186239D01*
X0226302Y0186114D01*
X0226300Y0185988D01*
X0218800Y0185988D01*
X0218800Y0275988D01*
X0241800Y0275988D01*
X0241800Y0185988D01*
X0234300Y0185988D01*
X0243800Y0162488D02*
X0220800Y0162488D01*
X0220800Y0082488D01*
X0228300Y0082488D01*
X0228302Y0082614D01*
X0228308Y0082739D01*
X0228318Y0082864D01*
X0228332Y0082989D01*
X0228349Y0083114D01*
X0228371Y0083238D01*
X0228396Y0083361D01*
X0228426Y0083483D01*
X0228459Y0083604D01*
X0228496Y0083724D01*
X0228536Y0083843D01*
X0228581Y0083960D01*
X0228629Y0084077D01*
X0228681Y0084191D01*
X0228736Y0084304D01*
X0228795Y0084415D01*
X0228857Y0084524D01*
X0228923Y0084631D01*
X0228992Y0084736D01*
X0229064Y0084839D01*
X0229139Y0084940D01*
X0229218Y0085038D01*
X0229300Y0085133D01*
X0229384Y0085226D01*
X0229472Y0085316D01*
X0229562Y0085404D01*
X0229655Y0085488D01*
X0229750Y0085570D01*
X0229848Y0085649D01*
X0229949Y0085724D01*
X0230052Y0085796D01*
X0230157Y0085865D01*
X0230264Y0085931D01*
X0230373Y0085993D01*
X0230484Y0086052D01*
X0230597Y0086107D01*
X0230711Y0086159D01*
X0230828Y0086207D01*
X0230945Y0086252D01*
X0231064Y0086292D01*
X0231184Y0086329D01*
X0231305Y0086362D01*
X0231427Y0086392D01*
X0231550Y0086417D01*
X0231674Y0086439D01*
X0231799Y0086456D01*
X0231924Y0086470D01*
X0232049Y0086480D01*
X0232174Y0086486D01*
X0232300Y0086488D01*
X0232426Y0086486D01*
X0232551Y0086480D01*
X0232676Y0086470D01*
X0232801Y0086456D01*
X0232926Y0086439D01*
X0233050Y0086417D01*
X0233173Y0086392D01*
X0233295Y0086362D01*
X0233416Y0086329D01*
X0233536Y0086292D01*
X0233655Y0086252D01*
X0233772Y0086207D01*
X0233889Y0086159D01*
X0234003Y0086107D01*
X0234116Y0086052D01*
X0234227Y0085993D01*
X0234336Y0085931D01*
X0234443Y0085865D01*
X0234548Y0085796D01*
X0234651Y0085724D01*
X0234752Y0085649D01*
X0234850Y0085570D01*
X0234945Y0085488D01*
X0235038Y0085404D01*
X0235128Y0085316D01*
X0235216Y0085226D01*
X0235300Y0085133D01*
X0235382Y0085038D01*
X0235461Y0084940D01*
X0235536Y0084839D01*
X0235608Y0084736D01*
X0235677Y0084631D01*
X0235743Y0084524D01*
X0235805Y0084415D01*
X0235864Y0084304D01*
X0235919Y0084191D01*
X0235971Y0084077D01*
X0236019Y0083960D01*
X0236064Y0083843D01*
X0236104Y0083724D01*
X0236141Y0083604D01*
X0236174Y0083483D01*
X0236204Y0083361D01*
X0236229Y0083238D01*
X0236251Y0083114D01*
X0236268Y0082989D01*
X0236282Y0082864D01*
X0236292Y0082739D01*
X0236298Y0082614D01*
X0236300Y0082488D01*
X0243800Y0082488D01*
X0243800Y0162488D01*
X0278800Y0185988D02*
X0286300Y0185988D01*
X0286302Y0186114D01*
X0286308Y0186239D01*
X0286318Y0186364D01*
X0286332Y0186489D01*
X0286349Y0186614D01*
X0286371Y0186738D01*
X0286396Y0186861D01*
X0286426Y0186983D01*
X0286459Y0187104D01*
X0286496Y0187224D01*
X0286536Y0187343D01*
X0286581Y0187460D01*
X0286629Y0187577D01*
X0286681Y0187691D01*
X0286736Y0187804D01*
X0286795Y0187915D01*
X0286857Y0188024D01*
X0286923Y0188131D01*
X0286992Y0188236D01*
X0287064Y0188339D01*
X0287139Y0188440D01*
X0287218Y0188538D01*
X0287300Y0188633D01*
X0287384Y0188726D01*
X0287472Y0188816D01*
X0287562Y0188904D01*
X0287655Y0188988D01*
X0287750Y0189070D01*
X0287848Y0189149D01*
X0287949Y0189224D01*
X0288052Y0189296D01*
X0288157Y0189365D01*
X0288264Y0189431D01*
X0288373Y0189493D01*
X0288484Y0189552D01*
X0288597Y0189607D01*
X0288711Y0189659D01*
X0288828Y0189707D01*
X0288945Y0189752D01*
X0289064Y0189792D01*
X0289184Y0189829D01*
X0289305Y0189862D01*
X0289427Y0189892D01*
X0289550Y0189917D01*
X0289674Y0189939D01*
X0289799Y0189956D01*
X0289924Y0189970D01*
X0290049Y0189980D01*
X0290174Y0189986D01*
X0290300Y0189988D01*
X0290426Y0189986D01*
X0290551Y0189980D01*
X0290676Y0189970D01*
X0290801Y0189956D01*
X0290926Y0189939D01*
X0291050Y0189917D01*
X0291173Y0189892D01*
X0291295Y0189862D01*
X0291416Y0189829D01*
X0291536Y0189792D01*
X0291655Y0189752D01*
X0291772Y0189707D01*
X0291889Y0189659D01*
X0292003Y0189607D01*
X0292116Y0189552D01*
X0292227Y0189493D01*
X0292336Y0189431D01*
X0292443Y0189365D01*
X0292548Y0189296D01*
X0292651Y0189224D01*
X0292752Y0189149D01*
X0292850Y0189070D01*
X0292945Y0188988D01*
X0293038Y0188904D01*
X0293128Y0188816D01*
X0293216Y0188726D01*
X0293300Y0188633D01*
X0293382Y0188538D01*
X0293461Y0188440D01*
X0293536Y0188339D01*
X0293608Y0188236D01*
X0293677Y0188131D01*
X0293743Y0188024D01*
X0293805Y0187915D01*
X0293864Y0187804D01*
X0293919Y0187691D01*
X0293971Y0187577D01*
X0294019Y0187460D01*
X0294064Y0187343D01*
X0294104Y0187224D01*
X0294141Y0187104D01*
X0294174Y0186983D01*
X0294204Y0186861D01*
X0294229Y0186738D01*
X0294251Y0186614D01*
X0294268Y0186489D01*
X0294282Y0186364D01*
X0294292Y0186239D01*
X0294298Y0186114D01*
X0294300Y0185988D01*
X0301800Y0185988D01*
X0301800Y0275988D01*
X0278800Y0275988D01*
X0278800Y0185988D01*
X0280800Y0161988D02*
X0303800Y0161988D01*
X0303800Y0081988D01*
X0296300Y0081988D01*
X0296298Y0082114D01*
X0296292Y0082239D01*
X0296282Y0082364D01*
X0296268Y0082489D01*
X0296251Y0082614D01*
X0296229Y0082738D01*
X0296204Y0082861D01*
X0296174Y0082983D01*
X0296141Y0083104D01*
X0296104Y0083224D01*
X0296064Y0083343D01*
X0296019Y0083460D01*
X0295971Y0083577D01*
X0295919Y0083691D01*
X0295864Y0083804D01*
X0295805Y0083915D01*
X0295743Y0084024D01*
X0295677Y0084131D01*
X0295608Y0084236D01*
X0295536Y0084339D01*
X0295461Y0084440D01*
X0295382Y0084538D01*
X0295300Y0084633D01*
X0295216Y0084726D01*
X0295128Y0084816D01*
X0295038Y0084904D01*
X0294945Y0084988D01*
X0294850Y0085070D01*
X0294752Y0085149D01*
X0294651Y0085224D01*
X0294548Y0085296D01*
X0294443Y0085365D01*
X0294336Y0085431D01*
X0294227Y0085493D01*
X0294116Y0085552D01*
X0294003Y0085607D01*
X0293889Y0085659D01*
X0293772Y0085707D01*
X0293655Y0085752D01*
X0293536Y0085792D01*
X0293416Y0085829D01*
X0293295Y0085862D01*
X0293173Y0085892D01*
X0293050Y0085917D01*
X0292926Y0085939D01*
X0292801Y0085956D01*
X0292676Y0085970D01*
X0292551Y0085980D01*
X0292426Y0085986D01*
X0292300Y0085988D01*
X0292174Y0085986D01*
X0292049Y0085980D01*
X0291924Y0085970D01*
X0291799Y0085956D01*
X0291674Y0085939D01*
X0291550Y0085917D01*
X0291427Y0085892D01*
X0291305Y0085862D01*
X0291184Y0085829D01*
X0291064Y0085792D01*
X0290945Y0085752D01*
X0290828Y0085707D01*
X0290711Y0085659D01*
X0290597Y0085607D01*
X0290484Y0085552D01*
X0290373Y0085493D01*
X0290264Y0085431D01*
X0290157Y0085365D01*
X0290052Y0085296D01*
X0289949Y0085224D01*
X0289848Y0085149D01*
X0289750Y0085070D01*
X0289655Y0084988D01*
X0289562Y0084904D01*
X0289472Y0084816D01*
X0289384Y0084726D01*
X0289300Y0084633D01*
X0289218Y0084538D01*
X0289139Y0084440D01*
X0289064Y0084339D01*
X0288992Y0084236D01*
X0288923Y0084131D01*
X0288857Y0084024D01*
X0288795Y0083915D01*
X0288736Y0083804D01*
X0288681Y0083691D01*
X0288629Y0083577D01*
X0288581Y0083460D01*
X0288536Y0083343D01*
X0288496Y0083224D01*
X0288459Y0083104D01*
X0288426Y0082983D01*
X0288396Y0082861D01*
X0288371Y0082738D01*
X0288349Y0082614D01*
X0288332Y0082489D01*
X0288318Y0082364D01*
X0288308Y0082239D01*
X0288302Y0082114D01*
X0288300Y0081988D01*
X0280800Y0081988D01*
X0280800Y0161988D01*
X0321300Y0188488D02*
X0321300Y0196488D01*
X0321302Y0196548D01*
X0321307Y0196609D01*
X0321316Y0196668D01*
X0321329Y0196727D01*
X0321345Y0196786D01*
X0321365Y0196843D01*
X0321388Y0196898D01*
X0321415Y0196953D01*
X0321444Y0197005D01*
X0321477Y0197056D01*
X0321513Y0197105D01*
X0321551Y0197151D01*
X0321593Y0197195D01*
X0321637Y0197237D01*
X0321683Y0197275D01*
X0321732Y0197311D01*
X0321783Y0197344D01*
X0321835Y0197373D01*
X0321890Y0197400D01*
X0321945Y0197423D01*
X0322002Y0197443D01*
X0322061Y0197459D01*
X0322120Y0197472D01*
X0322179Y0197481D01*
X0322240Y0197486D01*
X0322300Y0197488D01*
X0339300Y0197488D01*
X0339360Y0197486D01*
X0339421Y0197481D01*
X0339480Y0197472D01*
X0339539Y0197459D01*
X0339598Y0197443D01*
X0339655Y0197423D01*
X0339710Y0197400D01*
X0339765Y0197373D01*
X0339817Y0197344D01*
X0339868Y0197311D01*
X0339917Y0197275D01*
X0339963Y0197237D01*
X0340007Y0197195D01*
X0340049Y0197151D01*
X0340087Y0197105D01*
X0340123Y0197056D01*
X0340156Y0197005D01*
X0340185Y0196953D01*
X0340212Y0196898D01*
X0340235Y0196843D01*
X0340255Y0196786D01*
X0340271Y0196727D01*
X0340284Y0196668D01*
X0340293Y0196609D01*
X0340298Y0196548D01*
X0340300Y0196488D01*
X0340300Y0188488D01*
X0340298Y0188428D01*
X0340293Y0188367D01*
X0340284Y0188308D01*
X0340271Y0188249D01*
X0340255Y0188190D01*
X0340235Y0188133D01*
X0340212Y0188078D01*
X0340185Y0188023D01*
X0340156Y0187971D01*
X0340123Y0187920D01*
X0340087Y0187871D01*
X0340049Y0187825D01*
X0340007Y0187781D01*
X0339963Y0187739D01*
X0339917Y0187701D01*
X0339868Y0187665D01*
X0339817Y0187632D01*
X0339765Y0187603D01*
X0339710Y0187576D01*
X0339655Y0187553D01*
X0339598Y0187533D01*
X0339539Y0187517D01*
X0339480Y0187504D01*
X0339421Y0187495D01*
X0339360Y0187490D01*
X0339300Y0187488D01*
X0322300Y0187488D01*
X0322240Y0187490D01*
X0322179Y0187495D01*
X0322120Y0187504D01*
X0322061Y0187517D01*
X0322002Y0187533D01*
X0321945Y0187553D01*
X0321890Y0187576D01*
X0321835Y0187603D01*
X0321783Y0187632D01*
X0321732Y0187665D01*
X0321683Y0187701D01*
X0321637Y0187739D01*
X0321593Y0187781D01*
X0321551Y0187825D01*
X0321513Y0187871D01*
X0321477Y0187920D01*
X0321444Y0187971D01*
X0321415Y0188023D01*
X0321388Y0188078D01*
X0321365Y0188133D01*
X0321345Y0188190D01*
X0321329Y0188249D01*
X0321316Y0188308D01*
X0321307Y0188367D01*
X0321302Y0188428D01*
X0321300Y0188488D01*
X0329300Y0192488D02*
X0329800Y0192488D01*
X0331800Y0192488D02*
X0332300Y0192488D01*
X0335800Y0199488D02*
X0343300Y0199488D01*
X0343302Y0199614D01*
X0343308Y0199739D01*
X0343318Y0199864D01*
X0343332Y0199989D01*
X0343349Y0200114D01*
X0343371Y0200238D01*
X0343396Y0200361D01*
X0343426Y0200483D01*
X0343459Y0200604D01*
X0343496Y0200724D01*
X0343536Y0200843D01*
X0343581Y0200960D01*
X0343629Y0201077D01*
X0343681Y0201191D01*
X0343736Y0201304D01*
X0343795Y0201415D01*
X0343857Y0201524D01*
X0343923Y0201631D01*
X0343992Y0201736D01*
X0344064Y0201839D01*
X0344139Y0201940D01*
X0344218Y0202038D01*
X0344300Y0202133D01*
X0344384Y0202226D01*
X0344472Y0202316D01*
X0344562Y0202404D01*
X0344655Y0202488D01*
X0344750Y0202570D01*
X0344848Y0202649D01*
X0344949Y0202724D01*
X0345052Y0202796D01*
X0345157Y0202865D01*
X0345264Y0202931D01*
X0345373Y0202993D01*
X0345484Y0203052D01*
X0345597Y0203107D01*
X0345711Y0203159D01*
X0345828Y0203207D01*
X0345945Y0203252D01*
X0346064Y0203292D01*
X0346184Y0203329D01*
X0346305Y0203362D01*
X0346427Y0203392D01*
X0346550Y0203417D01*
X0346674Y0203439D01*
X0346799Y0203456D01*
X0346924Y0203470D01*
X0347049Y0203480D01*
X0347174Y0203486D01*
X0347300Y0203488D01*
X0347426Y0203486D01*
X0347551Y0203480D01*
X0347676Y0203470D01*
X0347801Y0203456D01*
X0347926Y0203439D01*
X0348050Y0203417D01*
X0348173Y0203392D01*
X0348295Y0203362D01*
X0348416Y0203329D01*
X0348536Y0203292D01*
X0348655Y0203252D01*
X0348772Y0203207D01*
X0348889Y0203159D01*
X0349003Y0203107D01*
X0349116Y0203052D01*
X0349227Y0202993D01*
X0349336Y0202931D01*
X0349443Y0202865D01*
X0349548Y0202796D01*
X0349651Y0202724D01*
X0349752Y0202649D01*
X0349850Y0202570D01*
X0349945Y0202488D01*
X0350038Y0202404D01*
X0350128Y0202316D01*
X0350216Y0202226D01*
X0350300Y0202133D01*
X0350382Y0202038D01*
X0350461Y0201940D01*
X0350536Y0201839D01*
X0350608Y0201736D01*
X0350677Y0201631D01*
X0350743Y0201524D01*
X0350805Y0201415D01*
X0350864Y0201304D01*
X0350919Y0201191D01*
X0350971Y0201077D01*
X0351019Y0200960D01*
X0351064Y0200843D01*
X0351104Y0200724D01*
X0351141Y0200604D01*
X0351174Y0200483D01*
X0351204Y0200361D01*
X0351229Y0200238D01*
X0351251Y0200114D01*
X0351268Y0199989D01*
X0351282Y0199864D01*
X0351292Y0199739D01*
X0351298Y0199614D01*
X0351300Y0199488D01*
X0358800Y0199488D01*
X0358800Y0269488D01*
X0335800Y0269488D01*
X0335800Y0199488D01*
X0335800Y0161988D02*
X0358800Y0161988D01*
X0358800Y0081988D01*
X0351300Y0081988D01*
X0351298Y0082114D01*
X0351292Y0082239D01*
X0351282Y0082364D01*
X0351268Y0082489D01*
X0351251Y0082614D01*
X0351229Y0082738D01*
X0351204Y0082861D01*
X0351174Y0082983D01*
X0351141Y0083104D01*
X0351104Y0083224D01*
X0351064Y0083343D01*
X0351019Y0083460D01*
X0350971Y0083577D01*
X0350919Y0083691D01*
X0350864Y0083804D01*
X0350805Y0083915D01*
X0350743Y0084024D01*
X0350677Y0084131D01*
X0350608Y0084236D01*
X0350536Y0084339D01*
X0350461Y0084440D01*
X0350382Y0084538D01*
X0350300Y0084633D01*
X0350216Y0084726D01*
X0350128Y0084816D01*
X0350038Y0084904D01*
X0349945Y0084988D01*
X0349850Y0085070D01*
X0349752Y0085149D01*
X0349651Y0085224D01*
X0349548Y0085296D01*
X0349443Y0085365D01*
X0349336Y0085431D01*
X0349227Y0085493D01*
X0349116Y0085552D01*
X0349003Y0085607D01*
X0348889Y0085659D01*
X0348772Y0085707D01*
X0348655Y0085752D01*
X0348536Y0085792D01*
X0348416Y0085829D01*
X0348295Y0085862D01*
X0348173Y0085892D01*
X0348050Y0085917D01*
X0347926Y0085939D01*
X0347801Y0085956D01*
X0347676Y0085970D01*
X0347551Y0085980D01*
X0347426Y0085986D01*
X0347300Y0085988D01*
X0347174Y0085986D01*
X0347049Y0085980D01*
X0346924Y0085970D01*
X0346799Y0085956D01*
X0346674Y0085939D01*
X0346550Y0085917D01*
X0346427Y0085892D01*
X0346305Y0085862D01*
X0346184Y0085829D01*
X0346064Y0085792D01*
X0345945Y0085752D01*
X0345828Y0085707D01*
X0345711Y0085659D01*
X0345597Y0085607D01*
X0345484Y0085552D01*
X0345373Y0085493D01*
X0345264Y0085431D01*
X0345157Y0085365D01*
X0345052Y0085296D01*
X0344949Y0085224D01*
X0344848Y0085149D01*
X0344750Y0085070D01*
X0344655Y0084988D01*
X0344562Y0084904D01*
X0344472Y0084816D01*
X0344384Y0084726D01*
X0344300Y0084633D01*
X0344218Y0084538D01*
X0344139Y0084440D01*
X0344064Y0084339D01*
X0343992Y0084236D01*
X0343923Y0084131D01*
X0343857Y0084024D01*
X0343795Y0083915D01*
X0343736Y0083804D01*
X0343681Y0083691D01*
X0343629Y0083577D01*
X0343581Y0083460D01*
X0343536Y0083343D01*
X0343496Y0083224D01*
X0343459Y0083104D01*
X0343426Y0082983D01*
X0343396Y0082861D01*
X0343371Y0082738D01*
X0343349Y0082614D01*
X0343332Y0082489D01*
X0343318Y0082364D01*
X0343308Y0082239D01*
X0343302Y0082114D01*
X0343300Y0081988D01*
X0335800Y0081988D01*
X0335800Y0161988D01*
X0327300Y0101488D02*
X0319300Y0101488D01*
X0319240Y0101486D01*
X0319179Y0101481D01*
X0319120Y0101472D01*
X0319061Y0101459D01*
X0319002Y0101443D01*
X0318945Y0101423D01*
X0318890Y0101400D01*
X0318835Y0101373D01*
X0318783Y0101344D01*
X0318732Y0101311D01*
X0318683Y0101275D01*
X0318637Y0101237D01*
X0318593Y0101195D01*
X0318551Y0101151D01*
X0318513Y0101105D01*
X0318477Y0101056D01*
X0318444Y0101005D01*
X0318415Y0100953D01*
X0318388Y0100898D01*
X0318365Y0100843D01*
X0318345Y0100786D01*
X0318329Y0100727D01*
X0318316Y0100668D01*
X0318307Y0100609D01*
X0318302Y0100548D01*
X0318300Y0100488D01*
X0318300Y0083488D01*
X0318302Y0083428D01*
X0318307Y0083367D01*
X0318316Y0083308D01*
X0318329Y0083249D01*
X0318345Y0083190D01*
X0318365Y0083133D01*
X0318388Y0083078D01*
X0318415Y0083023D01*
X0318444Y0082971D01*
X0318477Y0082920D01*
X0318513Y0082871D01*
X0318551Y0082825D01*
X0318593Y0082781D01*
X0318637Y0082739D01*
X0318683Y0082701D01*
X0318732Y0082665D01*
X0318783Y0082632D01*
X0318835Y0082603D01*
X0318890Y0082576D01*
X0318945Y0082553D01*
X0319002Y0082533D01*
X0319061Y0082517D01*
X0319120Y0082504D01*
X0319179Y0082495D01*
X0319240Y0082490D01*
X0319300Y0082488D01*
X0327300Y0082488D01*
X0327360Y0082490D01*
X0327421Y0082495D01*
X0327480Y0082504D01*
X0327539Y0082517D01*
X0327598Y0082533D01*
X0327655Y0082553D01*
X0327710Y0082576D01*
X0327765Y0082603D01*
X0327817Y0082632D01*
X0327868Y0082665D01*
X0327917Y0082701D01*
X0327963Y0082739D01*
X0328007Y0082781D01*
X0328049Y0082825D01*
X0328087Y0082871D01*
X0328123Y0082920D01*
X0328156Y0082971D01*
X0328185Y0083023D01*
X0328212Y0083078D01*
X0328235Y0083133D01*
X0328255Y0083190D01*
X0328271Y0083249D01*
X0328284Y0083308D01*
X0328293Y0083367D01*
X0328298Y0083428D01*
X0328300Y0083488D01*
X0328300Y0100488D01*
X0328298Y0100548D01*
X0328293Y0100609D01*
X0328284Y0100668D01*
X0328271Y0100727D01*
X0328255Y0100786D01*
X0328235Y0100843D01*
X0328212Y0100898D01*
X0328185Y0100953D01*
X0328156Y0101005D01*
X0328123Y0101056D01*
X0328087Y0101105D01*
X0328049Y0101151D01*
X0328007Y0101195D01*
X0327963Y0101237D01*
X0327917Y0101275D01*
X0327868Y0101311D01*
X0327817Y0101344D01*
X0327765Y0101373D01*
X0327710Y0101400D01*
X0327655Y0101423D01*
X0327598Y0101443D01*
X0327539Y0101459D01*
X0327480Y0101472D01*
X0327421Y0101481D01*
X0327360Y0101486D01*
X0327300Y0101488D01*
X0323300Y0093488D02*
X0323300Y0092988D01*
X0323300Y0090988D02*
X0323300Y0090488D01*
X0273300Y0083488D02*
X0273300Y0100488D01*
X0273298Y0100548D01*
X0273293Y0100609D01*
X0273284Y0100668D01*
X0273271Y0100727D01*
X0273255Y0100786D01*
X0273235Y0100843D01*
X0273212Y0100898D01*
X0273185Y0100953D01*
X0273156Y0101005D01*
X0273123Y0101056D01*
X0273087Y0101105D01*
X0273049Y0101151D01*
X0273007Y0101195D01*
X0272963Y0101237D01*
X0272917Y0101275D01*
X0272868Y0101311D01*
X0272817Y0101344D01*
X0272765Y0101373D01*
X0272710Y0101400D01*
X0272655Y0101423D01*
X0272598Y0101443D01*
X0272539Y0101459D01*
X0272480Y0101472D01*
X0272421Y0101481D01*
X0272360Y0101486D01*
X0272300Y0101488D01*
X0264300Y0101488D01*
X0264240Y0101486D01*
X0264179Y0101481D01*
X0264120Y0101472D01*
X0264061Y0101459D01*
X0264002Y0101443D01*
X0263945Y0101423D01*
X0263890Y0101400D01*
X0263835Y0101373D01*
X0263783Y0101344D01*
X0263732Y0101311D01*
X0263683Y0101275D01*
X0263637Y0101237D01*
X0263593Y0101195D01*
X0263551Y0101151D01*
X0263513Y0101105D01*
X0263477Y0101056D01*
X0263444Y0101005D01*
X0263415Y0100953D01*
X0263388Y0100898D01*
X0263365Y0100843D01*
X0263345Y0100786D01*
X0263329Y0100727D01*
X0263316Y0100668D01*
X0263307Y0100609D01*
X0263302Y0100548D01*
X0263300Y0100488D01*
X0263300Y0083488D01*
X0263302Y0083428D01*
X0263307Y0083367D01*
X0263316Y0083308D01*
X0263329Y0083249D01*
X0263345Y0083190D01*
X0263365Y0083133D01*
X0263388Y0083078D01*
X0263415Y0083023D01*
X0263444Y0082971D01*
X0263477Y0082920D01*
X0263513Y0082871D01*
X0263551Y0082825D01*
X0263593Y0082781D01*
X0263637Y0082739D01*
X0263683Y0082701D01*
X0263732Y0082665D01*
X0263783Y0082632D01*
X0263835Y0082603D01*
X0263890Y0082576D01*
X0263945Y0082553D01*
X0264002Y0082533D01*
X0264061Y0082517D01*
X0264120Y0082504D01*
X0264179Y0082495D01*
X0264240Y0082490D01*
X0264300Y0082488D01*
X0272300Y0082488D01*
X0272360Y0082490D01*
X0272421Y0082495D01*
X0272480Y0082504D01*
X0272539Y0082517D01*
X0272598Y0082533D01*
X0272655Y0082553D01*
X0272710Y0082576D01*
X0272765Y0082603D01*
X0272817Y0082632D01*
X0272868Y0082665D01*
X0272917Y0082701D01*
X0272963Y0082739D01*
X0273007Y0082781D01*
X0273049Y0082825D01*
X0273087Y0082871D01*
X0273123Y0082920D01*
X0273156Y0082971D01*
X0273185Y0083023D01*
X0273212Y0083078D01*
X0273235Y0083133D01*
X0273255Y0083190D01*
X0273271Y0083249D01*
X0273284Y0083308D01*
X0273293Y0083367D01*
X0273298Y0083428D01*
X0273300Y0083488D01*
X0268300Y0090488D02*
X0268300Y0090988D01*
X0268300Y0092988D02*
X0268300Y0093488D01*
X0213300Y0100988D02*
X0213300Y0083988D01*
X0213298Y0083928D01*
X0213293Y0083867D01*
X0213284Y0083808D01*
X0213271Y0083749D01*
X0213255Y0083690D01*
X0213235Y0083633D01*
X0213212Y0083578D01*
X0213185Y0083523D01*
X0213156Y0083471D01*
X0213123Y0083420D01*
X0213087Y0083371D01*
X0213049Y0083325D01*
X0213007Y0083281D01*
X0212963Y0083239D01*
X0212917Y0083201D01*
X0212868Y0083165D01*
X0212817Y0083132D01*
X0212765Y0083103D01*
X0212710Y0083076D01*
X0212655Y0083053D01*
X0212598Y0083033D01*
X0212539Y0083017D01*
X0212480Y0083004D01*
X0212421Y0082995D01*
X0212360Y0082990D01*
X0212300Y0082988D01*
X0204300Y0082988D01*
X0204240Y0082990D01*
X0204179Y0082995D01*
X0204120Y0083004D01*
X0204061Y0083017D01*
X0204002Y0083033D01*
X0203945Y0083053D01*
X0203890Y0083076D01*
X0203835Y0083103D01*
X0203783Y0083132D01*
X0203732Y0083165D01*
X0203683Y0083201D01*
X0203637Y0083239D01*
X0203593Y0083281D01*
X0203551Y0083325D01*
X0203513Y0083371D01*
X0203477Y0083420D01*
X0203444Y0083471D01*
X0203415Y0083523D01*
X0203388Y0083578D01*
X0203365Y0083633D01*
X0203345Y0083690D01*
X0203329Y0083749D01*
X0203316Y0083808D01*
X0203307Y0083867D01*
X0203302Y0083928D01*
X0203300Y0083988D01*
X0203300Y0100988D01*
X0203302Y0101048D01*
X0203307Y0101109D01*
X0203316Y0101168D01*
X0203329Y0101227D01*
X0203345Y0101286D01*
X0203365Y0101343D01*
X0203388Y0101398D01*
X0203415Y0101453D01*
X0203444Y0101505D01*
X0203477Y0101556D01*
X0203513Y0101605D01*
X0203551Y0101651D01*
X0203593Y0101695D01*
X0203637Y0101737D01*
X0203683Y0101775D01*
X0203732Y0101811D01*
X0203783Y0101844D01*
X0203835Y0101873D01*
X0203890Y0101900D01*
X0203945Y0101923D01*
X0204002Y0101943D01*
X0204061Y0101959D01*
X0204120Y0101972D01*
X0204179Y0101981D01*
X0204240Y0101986D01*
X0204300Y0101988D01*
X0212300Y0101988D01*
X0212360Y0101986D01*
X0212421Y0101981D01*
X0212480Y0101972D01*
X0212539Y0101959D01*
X0212598Y0101943D01*
X0212655Y0101923D01*
X0212710Y0101900D01*
X0212765Y0101873D01*
X0212817Y0101844D01*
X0212868Y0101811D01*
X0212917Y0101775D01*
X0212963Y0101737D01*
X0213007Y0101695D01*
X0213049Y0101651D01*
X0213087Y0101605D01*
X0213123Y0101556D01*
X0213156Y0101505D01*
X0213185Y0101453D01*
X0213212Y0101398D01*
X0213235Y0101343D01*
X0213255Y0101286D01*
X0213271Y0101227D01*
X0213284Y0101168D01*
X0213293Y0101109D01*
X0213298Y0101048D01*
X0213300Y0100988D01*
X0208300Y0093988D02*
X0208300Y0093488D01*
X0208300Y0091488D02*
X0208300Y0090988D01*
X0183300Y0082488D02*
X0175800Y0082488D01*
X0175798Y0082614D01*
X0175792Y0082739D01*
X0175782Y0082864D01*
X0175768Y0082989D01*
X0175751Y0083114D01*
X0175729Y0083238D01*
X0175704Y0083361D01*
X0175674Y0083483D01*
X0175641Y0083604D01*
X0175604Y0083724D01*
X0175564Y0083843D01*
X0175519Y0083960D01*
X0175471Y0084077D01*
X0175419Y0084191D01*
X0175364Y0084304D01*
X0175305Y0084415D01*
X0175243Y0084524D01*
X0175177Y0084631D01*
X0175108Y0084736D01*
X0175036Y0084839D01*
X0174961Y0084940D01*
X0174882Y0085038D01*
X0174800Y0085133D01*
X0174716Y0085226D01*
X0174628Y0085316D01*
X0174538Y0085404D01*
X0174445Y0085488D01*
X0174350Y0085570D01*
X0174252Y0085649D01*
X0174151Y0085724D01*
X0174048Y0085796D01*
X0173943Y0085865D01*
X0173836Y0085931D01*
X0173727Y0085993D01*
X0173616Y0086052D01*
X0173503Y0086107D01*
X0173389Y0086159D01*
X0173272Y0086207D01*
X0173155Y0086252D01*
X0173036Y0086292D01*
X0172916Y0086329D01*
X0172795Y0086362D01*
X0172673Y0086392D01*
X0172550Y0086417D01*
X0172426Y0086439D01*
X0172301Y0086456D01*
X0172176Y0086470D01*
X0172051Y0086480D01*
X0171926Y0086486D01*
X0171800Y0086488D01*
X0171674Y0086486D01*
X0171549Y0086480D01*
X0171424Y0086470D01*
X0171299Y0086456D01*
X0171174Y0086439D01*
X0171050Y0086417D01*
X0170927Y0086392D01*
X0170805Y0086362D01*
X0170684Y0086329D01*
X0170564Y0086292D01*
X0170445Y0086252D01*
X0170328Y0086207D01*
X0170211Y0086159D01*
X0170097Y0086107D01*
X0169984Y0086052D01*
X0169873Y0085993D01*
X0169764Y0085931D01*
X0169657Y0085865D01*
X0169552Y0085796D01*
X0169449Y0085724D01*
X0169348Y0085649D01*
X0169250Y0085570D01*
X0169155Y0085488D01*
X0169062Y0085404D01*
X0168972Y0085316D01*
X0168884Y0085226D01*
X0168800Y0085133D01*
X0168718Y0085038D01*
X0168639Y0084940D01*
X0168564Y0084839D01*
X0168492Y0084736D01*
X0168423Y0084631D01*
X0168357Y0084524D01*
X0168295Y0084415D01*
X0168236Y0084304D01*
X0168181Y0084191D01*
X0168129Y0084077D01*
X0168081Y0083960D01*
X0168036Y0083843D01*
X0167996Y0083724D01*
X0167959Y0083604D01*
X0167926Y0083483D01*
X0167896Y0083361D01*
X0167871Y0083238D01*
X0167849Y0083114D01*
X0167832Y0082989D01*
X0167818Y0082864D01*
X0167808Y0082739D01*
X0167802Y0082614D01*
X0167800Y0082488D01*
X0160300Y0082488D01*
X0160300Y0162488D01*
X0183300Y0162488D01*
X0183300Y0082488D01*
X0151300Y0084488D02*
X0151300Y0101488D01*
X0151298Y0101548D01*
X0151293Y0101609D01*
X0151284Y0101668D01*
X0151271Y0101727D01*
X0151255Y0101786D01*
X0151235Y0101843D01*
X0151212Y0101898D01*
X0151185Y0101953D01*
X0151156Y0102005D01*
X0151123Y0102056D01*
X0151087Y0102105D01*
X0151049Y0102151D01*
X0151007Y0102195D01*
X0150963Y0102237D01*
X0150917Y0102275D01*
X0150868Y0102311D01*
X0150817Y0102344D01*
X0150765Y0102373D01*
X0150710Y0102400D01*
X0150655Y0102423D01*
X0150598Y0102443D01*
X0150539Y0102459D01*
X0150480Y0102472D01*
X0150421Y0102481D01*
X0150360Y0102486D01*
X0150300Y0102488D01*
X0142300Y0102488D01*
X0142240Y0102486D01*
X0142179Y0102481D01*
X0142120Y0102472D01*
X0142061Y0102459D01*
X0142002Y0102443D01*
X0141945Y0102423D01*
X0141890Y0102400D01*
X0141835Y0102373D01*
X0141783Y0102344D01*
X0141732Y0102311D01*
X0141683Y0102275D01*
X0141637Y0102237D01*
X0141593Y0102195D01*
X0141551Y0102151D01*
X0141513Y0102105D01*
X0141477Y0102056D01*
X0141444Y0102005D01*
X0141415Y0101953D01*
X0141388Y0101898D01*
X0141365Y0101843D01*
X0141345Y0101786D01*
X0141329Y0101727D01*
X0141316Y0101668D01*
X0141307Y0101609D01*
X0141302Y0101548D01*
X0141300Y0101488D01*
X0141300Y0084488D01*
X0141302Y0084428D01*
X0141307Y0084367D01*
X0141316Y0084308D01*
X0141329Y0084249D01*
X0141345Y0084190D01*
X0141365Y0084133D01*
X0141388Y0084078D01*
X0141415Y0084023D01*
X0141444Y0083971D01*
X0141477Y0083920D01*
X0141513Y0083871D01*
X0141551Y0083825D01*
X0141593Y0083781D01*
X0141637Y0083739D01*
X0141683Y0083701D01*
X0141732Y0083665D01*
X0141783Y0083632D01*
X0141835Y0083603D01*
X0141890Y0083576D01*
X0141945Y0083553D01*
X0142002Y0083533D01*
X0142061Y0083517D01*
X0142120Y0083504D01*
X0142179Y0083495D01*
X0142240Y0083490D01*
X0142300Y0083488D01*
X0150300Y0083488D01*
X0150360Y0083490D01*
X0150421Y0083495D01*
X0150480Y0083504D01*
X0150539Y0083517D01*
X0150598Y0083533D01*
X0150655Y0083553D01*
X0150710Y0083576D01*
X0150765Y0083603D01*
X0150817Y0083632D01*
X0150868Y0083665D01*
X0150917Y0083701D01*
X0150963Y0083739D01*
X0151007Y0083781D01*
X0151049Y0083825D01*
X0151087Y0083871D01*
X0151123Y0083920D01*
X0151156Y0083971D01*
X0151185Y0084023D01*
X0151212Y0084078D01*
X0151235Y0084133D01*
X0151255Y0084190D01*
X0151271Y0084249D01*
X0151284Y0084308D01*
X0151293Y0084367D01*
X0151298Y0084428D01*
X0151300Y0084488D01*
X0146300Y0091488D02*
X0146300Y0091988D01*
X0146300Y0093988D02*
X0146300Y0094488D01*
X0095370Y0126788D02*
X0095370Y0131059D01*
X0093235Y0133194D01*
X0091100Y0131059D01*
X0091100Y0126788D01*
X0091100Y0129991D02*
X0095370Y0129991D01*
X0156982Y0168111D02*
X0160184Y0168111D01*
X0161252Y0169179D01*
X0161252Y0170246D01*
X0160184Y0171314D01*
X0156982Y0171314D01*
X0156982Y0174516D02*
X0156982Y0168111D01*
X0160184Y0171314D02*
X0161252Y0172381D01*
X0161252Y0173449D01*
X0160184Y0174516D01*
X0156982Y0174516D01*
X0163427Y0169179D02*
X0164495Y0168111D01*
X0165562Y0168111D01*
X0166630Y0169179D01*
X0166630Y0174516D01*
X0165562Y0174516D02*
X0167698Y0174516D01*
X0195655Y0174516D02*
X0195655Y0168111D01*
X0195655Y0170246D02*
X0198857Y0168111D01*
X0201026Y0168111D02*
X0204229Y0168111D01*
X0205296Y0169179D01*
X0204229Y0170246D01*
X0202094Y0170246D01*
X0201026Y0171314D01*
X0202094Y0172381D01*
X0205296Y0172381D01*
X0200513Y0173396D02*
X0200513Y0177666D01*
X0134300Y0230488D02*
X0134300Y0231988D01*
X0133800Y0232488D01*
X0133800Y0246488D01*
X0134300Y0246988D01*
X0134300Y0248488D01*
X0134298Y0248548D01*
X0134293Y0248609D01*
X0134284Y0248668D01*
X0134271Y0248727D01*
X0134255Y0248786D01*
X0134235Y0248843D01*
X0134212Y0248898D01*
X0134185Y0248953D01*
X0134156Y0249005D01*
X0134123Y0249056D01*
X0134087Y0249105D01*
X0134049Y0249151D01*
X0134007Y0249195D01*
X0133963Y0249237D01*
X0133917Y0249275D01*
X0133868Y0249311D01*
X0133817Y0249344D01*
X0133765Y0249373D01*
X0133710Y0249400D01*
X0133655Y0249423D01*
X0133598Y0249443D01*
X0133539Y0249459D01*
X0133480Y0249472D01*
X0133421Y0249481D01*
X0133360Y0249486D01*
X0133300Y0249488D01*
X0127300Y0249488D01*
X0127240Y0249486D01*
X0127179Y0249481D01*
X0127120Y0249472D01*
X0127061Y0249459D01*
X0127002Y0249443D01*
X0126945Y0249423D01*
X0126890Y0249400D01*
X0126835Y0249373D01*
X0126783Y0249344D01*
X0126732Y0249311D01*
X0126683Y0249275D01*
X0126637Y0249237D01*
X0126593Y0249195D01*
X0126551Y0249151D01*
X0126513Y0249105D01*
X0126477Y0249056D01*
X0126444Y0249005D01*
X0126415Y0248953D01*
X0126388Y0248898D01*
X0126365Y0248843D01*
X0126345Y0248786D01*
X0126329Y0248727D01*
X0126316Y0248668D01*
X0126307Y0248609D01*
X0126302Y0248548D01*
X0126300Y0248488D01*
X0126300Y0246988D01*
X0126800Y0246488D01*
X0126800Y0232488D01*
X0126300Y0231988D01*
X0126300Y0230488D01*
X0126302Y0230428D01*
X0126307Y0230367D01*
X0126316Y0230308D01*
X0126329Y0230249D01*
X0126345Y0230190D01*
X0126365Y0230133D01*
X0126388Y0230078D01*
X0126415Y0230023D01*
X0126444Y0229971D01*
X0126477Y0229920D01*
X0126513Y0229871D01*
X0126551Y0229825D01*
X0126593Y0229781D01*
X0126637Y0229739D01*
X0126683Y0229701D01*
X0126732Y0229665D01*
X0126783Y0229632D01*
X0126835Y0229603D01*
X0126890Y0229576D01*
X0126945Y0229553D01*
X0127002Y0229533D01*
X0127061Y0229517D01*
X0127120Y0229504D01*
X0127179Y0229495D01*
X0127240Y0229490D01*
X0127300Y0229488D01*
X0133300Y0229488D01*
X0133360Y0229490D01*
X0133421Y0229495D01*
X0133480Y0229504D01*
X0133539Y0229517D01*
X0133598Y0229533D01*
X0133655Y0229553D01*
X0133710Y0229576D01*
X0133765Y0229603D01*
X0133817Y0229632D01*
X0133868Y0229665D01*
X0133917Y0229701D01*
X0133963Y0229739D01*
X0134007Y0229781D01*
X0134049Y0229825D01*
X0134087Y0229871D01*
X0134123Y0229920D01*
X0134156Y0229971D01*
X0134185Y0230023D01*
X0134212Y0230078D01*
X0134235Y0230133D01*
X0134255Y0230190D01*
X0134271Y0230249D01*
X0134284Y0230308D01*
X0134293Y0230367D01*
X0134298Y0230428D01*
X0134300Y0230488D01*
X0137300Y0239988D02*
X0145300Y0239988D01*
X0145360Y0239990D01*
X0145421Y0239995D01*
X0145480Y0240004D01*
X0145539Y0240017D01*
X0145598Y0240033D01*
X0145655Y0240053D01*
X0145710Y0240076D01*
X0145765Y0240103D01*
X0145817Y0240132D01*
X0145868Y0240165D01*
X0145917Y0240201D01*
X0145963Y0240239D01*
X0146007Y0240281D01*
X0146049Y0240325D01*
X0146087Y0240371D01*
X0146123Y0240420D01*
X0146156Y0240471D01*
X0146185Y0240523D01*
X0146212Y0240578D01*
X0146235Y0240633D01*
X0146255Y0240690D01*
X0146271Y0240749D01*
X0146284Y0240808D01*
X0146293Y0240867D01*
X0146298Y0240928D01*
X0146300Y0240988D01*
X0146300Y0257988D01*
X0146298Y0258048D01*
X0146293Y0258109D01*
X0146284Y0258168D01*
X0146271Y0258227D01*
X0146255Y0258286D01*
X0146235Y0258343D01*
X0146212Y0258398D01*
X0146185Y0258453D01*
X0146156Y0258505D01*
X0146123Y0258556D01*
X0146087Y0258605D01*
X0146049Y0258651D01*
X0146007Y0258695D01*
X0145963Y0258737D01*
X0145917Y0258775D01*
X0145868Y0258811D01*
X0145817Y0258844D01*
X0145765Y0258873D01*
X0145710Y0258900D01*
X0145655Y0258923D01*
X0145598Y0258943D01*
X0145539Y0258959D01*
X0145480Y0258972D01*
X0145421Y0258981D01*
X0145360Y0258986D01*
X0145300Y0258988D01*
X0137300Y0258988D01*
X0137240Y0258986D01*
X0137179Y0258981D01*
X0137120Y0258972D01*
X0137061Y0258959D01*
X0137002Y0258943D01*
X0136945Y0258923D01*
X0136890Y0258900D01*
X0136835Y0258873D01*
X0136783Y0258844D01*
X0136732Y0258811D01*
X0136683Y0258775D01*
X0136637Y0258737D01*
X0136593Y0258695D01*
X0136551Y0258651D01*
X0136513Y0258605D01*
X0136477Y0258556D01*
X0136444Y0258505D01*
X0136415Y0258453D01*
X0136388Y0258398D01*
X0136365Y0258343D01*
X0136345Y0258286D01*
X0136329Y0258227D01*
X0136316Y0258168D01*
X0136307Y0258109D01*
X0136302Y0258048D01*
X0136300Y0257988D01*
X0136300Y0240988D01*
X0136302Y0240928D01*
X0136307Y0240867D01*
X0136316Y0240808D01*
X0136329Y0240749D01*
X0136345Y0240690D01*
X0136365Y0240633D01*
X0136388Y0240578D01*
X0136415Y0240523D01*
X0136444Y0240471D01*
X0136477Y0240420D01*
X0136513Y0240371D01*
X0136551Y0240325D01*
X0136593Y0240281D01*
X0136637Y0240239D01*
X0136683Y0240201D01*
X0136732Y0240165D01*
X0136783Y0240132D01*
X0136835Y0240103D01*
X0136890Y0240076D01*
X0136945Y0240053D01*
X0137002Y0240033D01*
X0137061Y0240017D01*
X0137120Y0240004D01*
X0137179Y0239995D01*
X0137240Y0239990D01*
X0137300Y0239988D01*
X0141300Y0247988D02*
X0141300Y0248488D01*
X0141300Y0250488D02*
X0141300Y0250988D01*
X0124800Y0257488D02*
X0124800Y0240488D01*
X0124798Y0240428D01*
X0124793Y0240367D01*
X0124784Y0240308D01*
X0124771Y0240249D01*
X0124755Y0240190D01*
X0124735Y0240133D01*
X0124712Y0240078D01*
X0124685Y0240023D01*
X0124656Y0239971D01*
X0124623Y0239920D01*
X0124587Y0239871D01*
X0124549Y0239825D01*
X0124507Y0239781D01*
X0124463Y0239739D01*
X0124417Y0239701D01*
X0124368Y0239665D01*
X0124317Y0239632D01*
X0124265Y0239603D01*
X0124210Y0239576D01*
X0124155Y0239553D01*
X0124098Y0239533D01*
X0124039Y0239517D01*
X0123980Y0239504D01*
X0123921Y0239495D01*
X0123860Y0239490D01*
X0123800Y0239488D01*
X0115800Y0239488D01*
X0115740Y0239490D01*
X0115679Y0239495D01*
X0115620Y0239504D01*
X0115561Y0239517D01*
X0115502Y0239533D01*
X0115445Y0239553D01*
X0115390Y0239576D01*
X0115335Y0239603D01*
X0115283Y0239632D01*
X0115232Y0239665D01*
X0115183Y0239701D01*
X0115137Y0239739D01*
X0115093Y0239781D01*
X0115051Y0239825D01*
X0115013Y0239871D01*
X0114977Y0239920D01*
X0114944Y0239971D01*
X0114915Y0240023D01*
X0114888Y0240078D01*
X0114865Y0240133D01*
X0114845Y0240190D01*
X0114829Y0240249D01*
X0114816Y0240308D01*
X0114807Y0240367D01*
X0114802Y0240428D01*
X0114800Y0240488D01*
X0114800Y0257488D01*
X0114802Y0257548D01*
X0114807Y0257609D01*
X0114816Y0257668D01*
X0114829Y0257727D01*
X0114845Y0257786D01*
X0114865Y0257843D01*
X0114888Y0257898D01*
X0114915Y0257953D01*
X0114944Y0258005D01*
X0114977Y0258056D01*
X0115013Y0258105D01*
X0115051Y0258151D01*
X0115093Y0258195D01*
X0115137Y0258237D01*
X0115183Y0258275D01*
X0115232Y0258311D01*
X0115283Y0258344D01*
X0115335Y0258373D01*
X0115390Y0258400D01*
X0115445Y0258423D01*
X0115502Y0258443D01*
X0115561Y0258459D01*
X0115620Y0258472D01*
X0115679Y0258481D01*
X0115740Y0258486D01*
X0115800Y0258488D01*
X0123800Y0258488D01*
X0123860Y0258486D01*
X0123921Y0258481D01*
X0123980Y0258472D01*
X0124039Y0258459D01*
X0124098Y0258443D01*
X0124155Y0258423D01*
X0124210Y0258400D01*
X0124265Y0258373D01*
X0124317Y0258344D01*
X0124368Y0258311D01*
X0124417Y0258275D01*
X0124463Y0258237D01*
X0124507Y0258195D01*
X0124549Y0258151D01*
X0124587Y0258105D01*
X0124623Y0258056D01*
X0124656Y0258005D01*
X0124685Y0257953D01*
X0124712Y0257898D01*
X0124735Y0257843D01*
X0124755Y0257786D01*
X0124771Y0257727D01*
X0124784Y0257668D01*
X0124793Y0257609D01*
X0124798Y0257548D01*
X0124800Y0257488D01*
X0119800Y0250488D02*
X0119800Y0249988D01*
X0119800Y0247988D02*
X0119800Y0247488D01*
X0112300Y0247988D02*
X0112300Y0246488D01*
X0111800Y0245988D01*
X0111800Y0231988D01*
X0112300Y0231488D01*
X0112300Y0229988D01*
X0112298Y0229928D01*
X0112293Y0229867D01*
X0112284Y0229808D01*
X0112271Y0229749D01*
X0112255Y0229690D01*
X0112235Y0229633D01*
X0112212Y0229578D01*
X0112185Y0229523D01*
X0112156Y0229471D01*
X0112123Y0229420D01*
X0112087Y0229371D01*
X0112049Y0229325D01*
X0112007Y0229281D01*
X0111963Y0229239D01*
X0111917Y0229201D01*
X0111868Y0229165D01*
X0111817Y0229132D01*
X0111765Y0229103D01*
X0111710Y0229076D01*
X0111655Y0229053D01*
X0111598Y0229033D01*
X0111539Y0229017D01*
X0111480Y0229004D01*
X0111421Y0228995D01*
X0111360Y0228990D01*
X0111300Y0228988D01*
X0105300Y0228988D01*
X0105240Y0228990D01*
X0105179Y0228995D01*
X0105120Y0229004D01*
X0105061Y0229017D01*
X0105002Y0229033D01*
X0104945Y0229053D01*
X0104890Y0229076D01*
X0104835Y0229103D01*
X0104783Y0229132D01*
X0104732Y0229165D01*
X0104683Y0229201D01*
X0104637Y0229239D01*
X0104593Y0229281D01*
X0104551Y0229325D01*
X0104513Y0229371D01*
X0104477Y0229420D01*
X0104444Y0229471D01*
X0104415Y0229523D01*
X0104388Y0229578D01*
X0104365Y0229633D01*
X0104345Y0229690D01*
X0104329Y0229749D01*
X0104316Y0229808D01*
X0104307Y0229867D01*
X0104302Y0229928D01*
X0104300Y0229988D01*
X0104300Y0231488D01*
X0104800Y0231988D01*
X0104800Y0245988D01*
X0104300Y0246488D01*
X0104300Y0247988D01*
X0104302Y0248048D01*
X0104307Y0248109D01*
X0104316Y0248168D01*
X0104329Y0248227D01*
X0104345Y0248286D01*
X0104365Y0248343D01*
X0104388Y0248398D01*
X0104415Y0248453D01*
X0104444Y0248505D01*
X0104477Y0248556D01*
X0104513Y0248605D01*
X0104551Y0248651D01*
X0104593Y0248695D01*
X0104637Y0248737D01*
X0104683Y0248775D01*
X0104732Y0248811D01*
X0104783Y0248844D01*
X0104835Y0248873D01*
X0104890Y0248900D01*
X0104945Y0248923D01*
X0105002Y0248943D01*
X0105061Y0248959D01*
X0105120Y0248972D01*
X0105179Y0248981D01*
X0105240Y0248986D01*
X0105300Y0248988D01*
X0111300Y0248988D01*
X0111360Y0248986D01*
X0111421Y0248981D01*
X0111480Y0248972D01*
X0111539Y0248959D01*
X0111598Y0248943D01*
X0111655Y0248923D01*
X0111710Y0248900D01*
X0111765Y0248873D01*
X0111817Y0248844D01*
X0111868Y0248811D01*
X0111917Y0248775D01*
X0111963Y0248737D01*
X0112007Y0248695D01*
X0112049Y0248651D01*
X0112087Y0248605D01*
X0112123Y0248556D01*
X0112156Y0248505D01*
X0112185Y0248453D01*
X0112212Y0248398D01*
X0112235Y0248343D01*
X0112255Y0248286D01*
X0112271Y0248227D01*
X0112284Y0248168D01*
X0112293Y0248109D01*
X0112298Y0248048D01*
X0112300Y0247988D01*
X0092300Y0272988D02*
X0069300Y0272988D01*
X0069300Y0202988D01*
X0076800Y0202988D01*
X0076802Y0203114D01*
X0076808Y0203239D01*
X0076818Y0203364D01*
X0076832Y0203489D01*
X0076849Y0203614D01*
X0076871Y0203738D01*
X0076896Y0203861D01*
X0076926Y0203983D01*
X0076959Y0204104D01*
X0076996Y0204224D01*
X0077036Y0204343D01*
X0077081Y0204460D01*
X0077129Y0204577D01*
X0077181Y0204691D01*
X0077236Y0204804D01*
X0077295Y0204915D01*
X0077357Y0205024D01*
X0077423Y0205131D01*
X0077492Y0205236D01*
X0077564Y0205339D01*
X0077639Y0205440D01*
X0077718Y0205538D01*
X0077800Y0205633D01*
X0077884Y0205726D01*
X0077972Y0205816D01*
X0078062Y0205904D01*
X0078155Y0205988D01*
X0078250Y0206070D01*
X0078348Y0206149D01*
X0078449Y0206224D01*
X0078552Y0206296D01*
X0078657Y0206365D01*
X0078764Y0206431D01*
X0078873Y0206493D01*
X0078984Y0206552D01*
X0079097Y0206607D01*
X0079211Y0206659D01*
X0079328Y0206707D01*
X0079445Y0206752D01*
X0079564Y0206792D01*
X0079684Y0206829D01*
X0079805Y0206862D01*
X0079927Y0206892D01*
X0080050Y0206917D01*
X0080174Y0206939D01*
X0080299Y0206956D01*
X0080424Y0206970D01*
X0080549Y0206980D01*
X0080674Y0206986D01*
X0080800Y0206988D01*
X0080926Y0206986D01*
X0081051Y0206980D01*
X0081176Y0206970D01*
X0081301Y0206956D01*
X0081426Y0206939D01*
X0081550Y0206917D01*
X0081673Y0206892D01*
X0081795Y0206862D01*
X0081916Y0206829D01*
X0082036Y0206792D01*
X0082155Y0206752D01*
X0082272Y0206707D01*
X0082389Y0206659D01*
X0082503Y0206607D01*
X0082616Y0206552D01*
X0082727Y0206493D01*
X0082836Y0206431D01*
X0082943Y0206365D01*
X0083048Y0206296D01*
X0083151Y0206224D01*
X0083252Y0206149D01*
X0083350Y0206070D01*
X0083445Y0205988D01*
X0083538Y0205904D01*
X0083628Y0205816D01*
X0083716Y0205726D01*
X0083800Y0205633D01*
X0083882Y0205538D01*
X0083961Y0205440D01*
X0084036Y0205339D01*
X0084108Y0205236D01*
X0084177Y0205131D01*
X0084243Y0205024D01*
X0084305Y0204915D01*
X0084364Y0204804D01*
X0084419Y0204691D01*
X0084471Y0204577D01*
X0084519Y0204460D01*
X0084564Y0204343D01*
X0084604Y0204224D01*
X0084641Y0204104D01*
X0084674Y0203983D01*
X0084704Y0203861D01*
X0084729Y0203738D01*
X0084751Y0203614D01*
X0084768Y0203489D01*
X0084782Y0203364D01*
X0084792Y0203239D01*
X0084798Y0203114D01*
X0084800Y0202988D01*
X0092300Y0202988D01*
X0092300Y0272988D01*
X0055800Y0251488D02*
X0055800Y0249988D01*
X0055300Y0249488D01*
X0055300Y0235488D01*
X0055800Y0234988D01*
X0055800Y0233488D01*
X0055798Y0233428D01*
X0055793Y0233367D01*
X0055784Y0233308D01*
X0055771Y0233249D01*
X0055755Y0233190D01*
X0055735Y0233133D01*
X0055712Y0233078D01*
X0055685Y0233023D01*
X0055656Y0232971D01*
X0055623Y0232920D01*
X0055587Y0232871D01*
X0055549Y0232825D01*
X0055507Y0232781D01*
X0055463Y0232739D01*
X0055417Y0232701D01*
X0055368Y0232665D01*
X0055317Y0232632D01*
X0055265Y0232603D01*
X0055210Y0232576D01*
X0055155Y0232553D01*
X0055098Y0232533D01*
X0055039Y0232517D01*
X0054980Y0232504D01*
X0054921Y0232495D01*
X0054860Y0232490D01*
X0054800Y0232488D01*
X0048800Y0232488D01*
X0048740Y0232490D01*
X0048679Y0232495D01*
X0048620Y0232504D01*
X0048561Y0232517D01*
X0048502Y0232533D01*
X0048445Y0232553D01*
X0048390Y0232576D01*
X0048335Y0232603D01*
X0048283Y0232632D01*
X0048232Y0232665D01*
X0048183Y0232701D01*
X0048137Y0232739D01*
X0048093Y0232781D01*
X0048051Y0232825D01*
X0048013Y0232871D01*
X0047977Y0232920D01*
X0047944Y0232971D01*
X0047915Y0233023D01*
X0047888Y0233078D01*
X0047865Y0233133D01*
X0047845Y0233190D01*
X0047829Y0233249D01*
X0047816Y0233308D01*
X0047807Y0233367D01*
X0047802Y0233428D01*
X0047800Y0233488D01*
X0047800Y0234988D01*
X0048300Y0235488D01*
X0048300Y0249488D01*
X0047800Y0249988D01*
X0047800Y0251488D01*
X0047802Y0251548D01*
X0047807Y0251609D01*
X0047816Y0251668D01*
X0047829Y0251727D01*
X0047845Y0251786D01*
X0047865Y0251843D01*
X0047888Y0251898D01*
X0047915Y0251953D01*
X0047944Y0252005D01*
X0047977Y0252056D01*
X0048013Y0252105D01*
X0048051Y0252151D01*
X0048093Y0252195D01*
X0048137Y0252237D01*
X0048183Y0252275D01*
X0048232Y0252311D01*
X0048283Y0252344D01*
X0048335Y0252373D01*
X0048390Y0252400D01*
X0048445Y0252423D01*
X0048502Y0252443D01*
X0048561Y0252459D01*
X0048620Y0252472D01*
X0048679Y0252481D01*
X0048740Y0252486D01*
X0048800Y0252488D01*
X0054800Y0252488D01*
X0054860Y0252486D01*
X0054921Y0252481D01*
X0054980Y0252472D01*
X0055039Y0252459D01*
X0055098Y0252443D01*
X0055155Y0252423D01*
X0055210Y0252400D01*
X0055265Y0252373D01*
X0055317Y0252344D01*
X0055368Y0252311D01*
X0055417Y0252275D01*
X0055463Y0252237D01*
X0055507Y0252195D01*
X0055549Y0252151D01*
X0055587Y0252105D01*
X0055623Y0252056D01*
X0055656Y0252005D01*
X0055685Y0251953D01*
X0055712Y0251898D01*
X0055735Y0251843D01*
X0055755Y0251786D01*
X0055771Y0251727D01*
X0055784Y0251668D01*
X0055793Y0251609D01*
X0055798Y0251548D01*
X0055800Y0251488D01*
X0041300Y0251488D02*
X0041300Y0249988D01*
X0040800Y0249488D01*
X0040800Y0235488D01*
X0041300Y0234988D01*
X0041300Y0233488D01*
X0041298Y0233428D01*
X0041293Y0233367D01*
X0041284Y0233308D01*
X0041271Y0233249D01*
X0041255Y0233190D01*
X0041235Y0233133D01*
X0041212Y0233078D01*
X0041185Y0233023D01*
X0041156Y0232971D01*
X0041123Y0232920D01*
X0041087Y0232871D01*
X0041049Y0232825D01*
X0041007Y0232781D01*
X0040963Y0232739D01*
X0040917Y0232701D01*
X0040868Y0232665D01*
X0040817Y0232632D01*
X0040765Y0232603D01*
X0040710Y0232576D01*
X0040655Y0232553D01*
X0040598Y0232533D01*
X0040539Y0232517D01*
X0040480Y0232504D01*
X0040421Y0232495D01*
X0040360Y0232490D01*
X0040300Y0232488D01*
X0034300Y0232488D01*
X0034240Y0232490D01*
X0034179Y0232495D01*
X0034120Y0232504D01*
X0034061Y0232517D01*
X0034002Y0232533D01*
X0033945Y0232553D01*
X0033890Y0232576D01*
X0033835Y0232603D01*
X0033783Y0232632D01*
X0033732Y0232665D01*
X0033683Y0232701D01*
X0033637Y0232739D01*
X0033593Y0232781D01*
X0033551Y0232825D01*
X0033513Y0232871D01*
X0033477Y0232920D01*
X0033444Y0232971D01*
X0033415Y0233023D01*
X0033388Y0233078D01*
X0033365Y0233133D01*
X0033345Y0233190D01*
X0033329Y0233249D01*
X0033316Y0233308D01*
X0033307Y0233367D01*
X0033302Y0233428D01*
X0033300Y0233488D01*
X0033300Y0234988D01*
X0033800Y0235488D01*
X0033800Y0249488D01*
X0033300Y0249988D01*
X0033300Y0251488D01*
X0033302Y0251548D01*
X0033307Y0251609D01*
X0033316Y0251668D01*
X0033329Y0251727D01*
X0033345Y0251786D01*
X0033365Y0251843D01*
X0033388Y0251898D01*
X0033415Y0251953D01*
X0033444Y0252005D01*
X0033477Y0252056D01*
X0033513Y0252105D01*
X0033551Y0252151D01*
X0033593Y0252195D01*
X0033637Y0252237D01*
X0033683Y0252275D01*
X0033732Y0252311D01*
X0033783Y0252344D01*
X0033835Y0252373D01*
X0033890Y0252400D01*
X0033945Y0252423D01*
X0034002Y0252443D01*
X0034061Y0252459D01*
X0034120Y0252472D01*
X0034179Y0252481D01*
X0034240Y0252486D01*
X0034300Y0252488D01*
X0040300Y0252488D01*
X0040360Y0252486D01*
X0040421Y0252481D01*
X0040480Y0252472D01*
X0040539Y0252459D01*
X0040598Y0252443D01*
X0040655Y0252423D01*
X0040710Y0252400D01*
X0040765Y0252373D01*
X0040817Y0252344D01*
X0040868Y0252311D01*
X0040917Y0252275D01*
X0040963Y0252237D01*
X0041007Y0252195D01*
X0041049Y0252151D01*
X0041087Y0252105D01*
X0041123Y0252056D01*
X0041156Y0252005D01*
X0041185Y0251953D01*
X0041212Y0251898D01*
X0041235Y0251843D01*
X0041255Y0251786D01*
X0041271Y0251727D01*
X0041284Y0251668D01*
X0041293Y0251609D01*
X0041298Y0251548D01*
X0041300Y0251488D01*
X0039800Y0208488D02*
X0056800Y0208488D01*
X0056860Y0208486D01*
X0056921Y0208481D01*
X0056980Y0208472D01*
X0057039Y0208459D01*
X0057098Y0208443D01*
X0057155Y0208423D01*
X0057210Y0208400D01*
X0057265Y0208373D01*
X0057317Y0208344D01*
X0057368Y0208311D01*
X0057417Y0208275D01*
X0057463Y0208237D01*
X0057507Y0208195D01*
X0057549Y0208151D01*
X0057587Y0208105D01*
X0057623Y0208056D01*
X0057656Y0208005D01*
X0057685Y0207953D01*
X0057712Y0207898D01*
X0057735Y0207843D01*
X0057755Y0207786D01*
X0057771Y0207727D01*
X0057784Y0207668D01*
X0057793Y0207609D01*
X0057798Y0207548D01*
X0057800Y0207488D01*
X0057800Y0199488D01*
X0057798Y0199428D01*
X0057793Y0199367D01*
X0057784Y0199308D01*
X0057771Y0199249D01*
X0057755Y0199190D01*
X0057735Y0199133D01*
X0057712Y0199078D01*
X0057685Y0199023D01*
X0057656Y0198971D01*
X0057623Y0198920D01*
X0057587Y0198871D01*
X0057549Y0198825D01*
X0057507Y0198781D01*
X0057463Y0198739D01*
X0057417Y0198701D01*
X0057368Y0198665D01*
X0057317Y0198632D01*
X0057265Y0198603D01*
X0057210Y0198576D01*
X0057155Y0198553D01*
X0057098Y0198533D01*
X0057039Y0198517D01*
X0056980Y0198504D01*
X0056921Y0198495D01*
X0056860Y0198490D01*
X0056800Y0198488D01*
X0039800Y0198488D01*
X0039740Y0198490D01*
X0039679Y0198495D01*
X0039620Y0198504D01*
X0039561Y0198517D01*
X0039502Y0198533D01*
X0039445Y0198553D01*
X0039390Y0198576D01*
X0039335Y0198603D01*
X0039283Y0198632D01*
X0039232Y0198665D01*
X0039183Y0198701D01*
X0039137Y0198739D01*
X0039093Y0198781D01*
X0039051Y0198825D01*
X0039013Y0198871D01*
X0038977Y0198920D01*
X0038944Y0198971D01*
X0038915Y0199023D01*
X0038888Y0199078D01*
X0038865Y0199133D01*
X0038845Y0199190D01*
X0038829Y0199249D01*
X0038816Y0199308D01*
X0038807Y0199367D01*
X0038802Y0199428D01*
X0038800Y0199488D01*
X0038800Y0207488D01*
X0038802Y0207548D01*
X0038807Y0207609D01*
X0038816Y0207668D01*
X0038829Y0207727D01*
X0038845Y0207786D01*
X0038865Y0207843D01*
X0038888Y0207898D01*
X0038915Y0207953D01*
X0038944Y0208005D01*
X0038977Y0208056D01*
X0039013Y0208105D01*
X0039051Y0208151D01*
X0039093Y0208195D01*
X0039137Y0208237D01*
X0039183Y0208275D01*
X0039232Y0208311D01*
X0039283Y0208344D01*
X0039335Y0208373D01*
X0039390Y0208400D01*
X0039445Y0208423D01*
X0039502Y0208443D01*
X0039561Y0208459D01*
X0039620Y0208472D01*
X0039679Y0208481D01*
X0039740Y0208486D01*
X0039800Y0208488D01*
X0046800Y0203488D02*
X0047300Y0203488D01*
X0049300Y0203488D02*
X0049800Y0203488D01*
X0057300Y0194488D02*
X0040300Y0194488D01*
X0040240Y0194486D01*
X0040179Y0194481D01*
X0040120Y0194472D01*
X0040061Y0194459D01*
X0040002Y0194443D01*
X0039945Y0194423D01*
X0039890Y0194400D01*
X0039835Y0194373D01*
X0039783Y0194344D01*
X0039732Y0194311D01*
X0039683Y0194275D01*
X0039637Y0194237D01*
X0039593Y0194195D01*
X0039551Y0194151D01*
X0039513Y0194105D01*
X0039477Y0194056D01*
X0039444Y0194005D01*
X0039415Y0193953D01*
X0039388Y0193898D01*
X0039365Y0193843D01*
X0039345Y0193786D01*
X0039329Y0193727D01*
X0039316Y0193668D01*
X0039307Y0193609D01*
X0039302Y0193548D01*
X0039300Y0193488D01*
X0039300Y0185488D01*
X0039302Y0185428D01*
X0039307Y0185367D01*
X0039316Y0185308D01*
X0039329Y0185249D01*
X0039345Y0185190D01*
X0039365Y0185133D01*
X0039388Y0185078D01*
X0039415Y0185023D01*
X0039444Y0184971D01*
X0039477Y0184920D01*
X0039513Y0184871D01*
X0039551Y0184825D01*
X0039593Y0184781D01*
X0039637Y0184739D01*
X0039683Y0184701D01*
X0039732Y0184665D01*
X0039783Y0184632D01*
X0039835Y0184603D01*
X0039890Y0184576D01*
X0039945Y0184553D01*
X0040002Y0184533D01*
X0040061Y0184517D01*
X0040120Y0184504D01*
X0040179Y0184495D01*
X0040240Y0184490D01*
X0040300Y0184488D01*
X0057300Y0184488D01*
X0057360Y0184490D01*
X0057421Y0184495D01*
X0057480Y0184504D01*
X0057539Y0184517D01*
X0057598Y0184533D01*
X0057655Y0184553D01*
X0057710Y0184576D01*
X0057765Y0184603D01*
X0057817Y0184632D01*
X0057868Y0184665D01*
X0057917Y0184701D01*
X0057963Y0184739D01*
X0058007Y0184781D01*
X0058049Y0184825D01*
X0058087Y0184871D01*
X0058123Y0184920D01*
X0058156Y0184971D01*
X0058185Y0185023D01*
X0058212Y0185078D01*
X0058235Y0185133D01*
X0058255Y0185190D01*
X0058271Y0185249D01*
X0058284Y0185308D01*
X0058293Y0185367D01*
X0058298Y0185428D01*
X0058300Y0185488D01*
X0058300Y0193488D01*
X0058298Y0193548D01*
X0058293Y0193609D01*
X0058284Y0193668D01*
X0058271Y0193727D01*
X0058255Y0193786D01*
X0058235Y0193843D01*
X0058212Y0193898D01*
X0058185Y0193953D01*
X0058156Y0194005D01*
X0058123Y0194056D01*
X0058087Y0194105D01*
X0058049Y0194151D01*
X0058007Y0194195D01*
X0057963Y0194237D01*
X0057917Y0194275D01*
X0057868Y0194311D01*
X0057817Y0194344D01*
X0057765Y0194373D01*
X0057710Y0194400D01*
X0057655Y0194423D01*
X0057598Y0194443D01*
X0057539Y0194459D01*
X0057480Y0194472D01*
X0057421Y0194481D01*
X0057360Y0194486D01*
X0057300Y0194488D01*
X0061587Y0198488D02*
X0061587Y0190488D01*
X0061589Y0190428D01*
X0061594Y0190367D01*
X0061603Y0190308D01*
X0061616Y0190249D01*
X0061632Y0190190D01*
X0061652Y0190133D01*
X0061675Y0190078D01*
X0061702Y0190023D01*
X0061731Y0189971D01*
X0061764Y0189920D01*
X0061800Y0189871D01*
X0061838Y0189825D01*
X0061880Y0189781D01*
X0061924Y0189739D01*
X0061970Y0189701D01*
X0062019Y0189665D01*
X0062070Y0189632D01*
X0062122Y0189603D01*
X0062177Y0189576D01*
X0062232Y0189553D01*
X0062289Y0189533D01*
X0062348Y0189517D01*
X0062407Y0189504D01*
X0062466Y0189495D01*
X0062527Y0189490D01*
X0062587Y0189488D01*
X0079587Y0189488D01*
X0079647Y0189490D01*
X0079708Y0189495D01*
X0079767Y0189504D01*
X0079826Y0189517D01*
X0079885Y0189533D01*
X0079942Y0189553D01*
X0079997Y0189576D01*
X0080052Y0189603D01*
X0080104Y0189632D01*
X0080155Y0189665D01*
X0080204Y0189701D01*
X0080250Y0189739D01*
X0080294Y0189781D01*
X0080336Y0189825D01*
X0080374Y0189871D01*
X0080410Y0189920D01*
X0080443Y0189971D01*
X0080472Y0190023D01*
X0080499Y0190078D01*
X0080522Y0190133D01*
X0080542Y0190190D01*
X0080558Y0190249D01*
X0080571Y0190308D01*
X0080580Y0190367D01*
X0080585Y0190428D01*
X0080587Y0190488D01*
X0080587Y0198488D01*
X0080585Y0198548D01*
X0080580Y0198609D01*
X0080571Y0198668D01*
X0080558Y0198727D01*
X0080542Y0198786D01*
X0080522Y0198843D01*
X0080499Y0198898D01*
X0080472Y0198953D01*
X0080443Y0199005D01*
X0080410Y0199056D01*
X0080374Y0199105D01*
X0080336Y0199151D01*
X0080294Y0199195D01*
X0080250Y0199237D01*
X0080204Y0199275D01*
X0080155Y0199311D01*
X0080104Y0199344D01*
X0080052Y0199373D01*
X0079997Y0199400D01*
X0079942Y0199423D01*
X0079885Y0199443D01*
X0079826Y0199459D01*
X0079767Y0199472D01*
X0079708Y0199481D01*
X0079647Y0199486D01*
X0079587Y0199488D01*
X0062587Y0199488D01*
X0062527Y0199486D01*
X0062466Y0199481D01*
X0062407Y0199472D01*
X0062348Y0199459D01*
X0062289Y0199443D01*
X0062232Y0199423D01*
X0062177Y0199400D01*
X0062122Y0199373D01*
X0062070Y0199344D01*
X0062019Y0199311D01*
X0061970Y0199275D01*
X0061924Y0199237D01*
X0061880Y0199195D01*
X0061838Y0199151D01*
X0061800Y0199105D01*
X0061764Y0199056D01*
X0061731Y0199005D01*
X0061702Y0198953D01*
X0061675Y0198898D01*
X0061652Y0198843D01*
X0061632Y0198786D01*
X0061616Y0198727D01*
X0061603Y0198668D01*
X0061594Y0198609D01*
X0061589Y0198548D01*
X0061587Y0198488D01*
X0069587Y0194488D02*
X0070087Y0194488D01*
X0072087Y0194488D02*
X0072587Y0194488D01*
X0050300Y0189488D02*
X0049800Y0189488D01*
X0047800Y0189488D02*
X0047300Y0189488D01*
X0250800Y0271988D02*
X0250800Y0279988D01*
X0250802Y0280048D01*
X0250807Y0280109D01*
X0250816Y0280168D01*
X0250829Y0280227D01*
X0250845Y0280286D01*
X0250865Y0280343D01*
X0250888Y0280398D01*
X0250915Y0280453D01*
X0250944Y0280505D01*
X0250977Y0280556D01*
X0251013Y0280605D01*
X0251051Y0280651D01*
X0251093Y0280695D01*
X0251137Y0280737D01*
X0251183Y0280775D01*
X0251232Y0280811D01*
X0251283Y0280844D01*
X0251335Y0280873D01*
X0251390Y0280900D01*
X0251445Y0280923D01*
X0251502Y0280943D01*
X0251561Y0280959D01*
X0251620Y0280972D01*
X0251679Y0280981D01*
X0251740Y0280986D01*
X0251800Y0280988D01*
X0268800Y0280988D01*
X0268860Y0280986D01*
X0268921Y0280981D01*
X0268980Y0280972D01*
X0269039Y0280959D01*
X0269098Y0280943D01*
X0269155Y0280923D01*
X0269210Y0280900D01*
X0269265Y0280873D01*
X0269317Y0280844D01*
X0269368Y0280811D01*
X0269417Y0280775D01*
X0269463Y0280737D01*
X0269507Y0280695D01*
X0269549Y0280651D01*
X0269587Y0280605D01*
X0269623Y0280556D01*
X0269656Y0280505D01*
X0269685Y0280453D01*
X0269712Y0280398D01*
X0269735Y0280343D01*
X0269755Y0280286D01*
X0269771Y0280227D01*
X0269784Y0280168D01*
X0269793Y0280109D01*
X0269798Y0280048D01*
X0269800Y0279988D01*
X0269800Y0271988D01*
X0269798Y0271928D01*
X0269793Y0271867D01*
X0269784Y0271808D01*
X0269771Y0271749D01*
X0269755Y0271690D01*
X0269735Y0271633D01*
X0269712Y0271578D01*
X0269685Y0271523D01*
X0269656Y0271471D01*
X0269623Y0271420D01*
X0269587Y0271371D01*
X0269549Y0271325D01*
X0269507Y0271281D01*
X0269463Y0271239D01*
X0269417Y0271201D01*
X0269368Y0271165D01*
X0269317Y0271132D01*
X0269265Y0271103D01*
X0269210Y0271076D01*
X0269155Y0271053D01*
X0269098Y0271033D01*
X0269039Y0271017D01*
X0268980Y0271004D01*
X0268921Y0270995D01*
X0268860Y0270990D01*
X0268800Y0270988D01*
X0251800Y0270988D01*
X0251740Y0270990D01*
X0251679Y0270995D01*
X0251620Y0271004D01*
X0251561Y0271017D01*
X0251502Y0271033D01*
X0251445Y0271053D01*
X0251390Y0271076D01*
X0251335Y0271103D01*
X0251283Y0271132D01*
X0251232Y0271165D01*
X0251183Y0271201D01*
X0251137Y0271239D01*
X0251093Y0271281D01*
X0251051Y0271325D01*
X0251013Y0271371D01*
X0250977Y0271420D01*
X0250944Y0271471D01*
X0250915Y0271523D01*
X0250888Y0271578D01*
X0250865Y0271633D01*
X0250845Y0271690D01*
X0250829Y0271749D01*
X0250816Y0271808D01*
X0250807Y0271867D01*
X0250802Y0271928D01*
X0250800Y0271988D01*
X0258800Y0275988D02*
X0259300Y0275988D01*
X0261300Y0275988D02*
X0261800Y0275988D01*
X0309800Y0274988D02*
X0309800Y0266988D01*
X0309802Y0266928D01*
X0309807Y0266867D01*
X0309816Y0266808D01*
X0309829Y0266749D01*
X0309845Y0266690D01*
X0309865Y0266633D01*
X0309888Y0266578D01*
X0309915Y0266523D01*
X0309944Y0266471D01*
X0309977Y0266420D01*
X0310013Y0266371D01*
X0310051Y0266325D01*
X0310093Y0266281D01*
X0310137Y0266239D01*
X0310183Y0266201D01*
X0310232Y0266165D01*
X0310283Y0266132D01*
X0310335Y0266103D01*
X0310390Y0266076D01*
X0310445Y0266053D01*
X0310502Y0266033D01*
X0310561Y0266017D01*
X0310620Y0266004D01*
X0310679Y0265995D01*
X0310740Y0265990D01*
X0310800Y0265988D01*
X0327800Y0265988D01*
X0327860Y0265990D01*
X0327921Y0265995D01*
X0327980Y0266004D01*
X0328039Y0266017D01*
X0328098Y0266033D01*
X0328155Y0266053D01*
X0328210Y0266076D01*
X0328265Y0266103D01*
X0328317Y0266132D01*
X0328368Y0266165D01*
X0328417Y0266201D01*
X0328463Y0266239D01*
X0328507Y0266281D01*
X0328549Y0266325D01*
X0328587Y0266371D01*
X0328623Y0266420D01*
X0328656Y0266471D01*
X0328685Y0266523D01*
X0328712Y0266578D01*
X0328735Y0266633D01*
X0328755Y0266690D01*
X0328771Y0266749D01*
X0328784Y0266808D01*
X0328793Y0266867D01*
X0328798Y0266928D01*
X0328800Y0266988D01*
X0328800Y0274988D01*
X0328798Y0275048D01*
X0328793Y0275109D01*
X0328784Y0275168D01*
X0328771Y0275227D01*
X0328755Y0275286D01*
X0328735Y0275343D01*
X0328712Y0275398D01*
X0328685Y0275453D01*
X0328656Y0275505D01*
X0328623Y0275556D01*
X0328587Y0275605D01*
X0328549Y0275651D01*
X0328507Y0275695D01*
X0328463Y0275737D01*
X0328417Y0275775D01*
X0328368Y0275811D01*
X0328317Y0275844D01*
X0328265Y0275873D01*
X0328210Y0275900D01*
X0328155Y0275923D01*
X0328098Y0275943D01*
X0328039Y0275959D01*
X0327980Y0275972D01*
X0327921Y0275981D01*
X0327860Y0275986D01*
X0327800Y0275988D01*
X0310800Y0275988D01*
X0310740Y0275986D01*
X0310679Y0275981D01*
X0310620Y0275972D01*
X0310561Y0275959D01*
X0310502Y0275943D01*
X0310445Y0275923D01*
X0310390Y0275900D01*
X0310335Y0275873D01*
X0310283Y0275844D01*
X0310232Y0275811D01*
X0310183Y0275775D01*
X0310137Y0275737D01*
X0310093Y0275695D01*
X0310051Y0275651D01*
X0310013Y0275605D01*
X0309977Y0275556D01*
X0309944Y0275505D01*
X0309915Y0275453D01*
X0309888Y0275398D01*
X0309865Y0275343D01*
X0309845Y0275286D01*
X0309829Y0275227D01*
X0309816Y0275168D01*
X0309807Y0275109D01*
X0309802Y0275048D01*
X0309800Y0274988D01*
X0317800Y0270988D02*
X0318300Y0270988D01*
X0320300Y0270988D02*
X0320800Y0270988D01*
D12*
X0319155Y0264242D02*
X0319155Y0259738D01*
X0317654Y0259738D02*
X0320656Y0259738D01*
X0322258Y0260489D02*
X0325260Y0263491D01*
X0325260Y0260489D01*
X0324510Y0259738D01*
X0323008Y0259738D01*
X0322258Y0260489D01*
X0322258Y0263491D01*
X0323008Y0264242D01*
X0324510Y0264242D01*
X0325260Y0263491D01*
X0319155Y0264242D02*
X0317654Y0262741D01*
X0316053Y0263491D02*
X0315302Y0264242D01*
X0313801Y0264242D01*
X0313050Y0263491D01*
X0313050Y0260489D01*
X0313801Y0259738D01*
X0315302Y0259738D01*
X0316053Y0260489D01*
X0262949Y0265489D02*
X0262949Y0266239D01*
X0262198Y0266990D01*
X0259946Y0266990D01*
X0259946Y0265489D01*
X0260697Y0264738D01*
X0262198Y0264738D01*
X0262949Y0265489D01*
X0261447Y0268491D02*
X0259946Y0266990D01*
X0261447Y0268491D02*
X0262949Y0269242D01*
X0258345Y0268491D02*
X0257594Y0269242D01*
X0256093Y0269242D01*
X0255342Y0268491D01*
X0255342Y0265489D01*
X0256093Y0264738D01*
X0257594Y0264738D01*
X0258345Y0265489D01*
X0180949Y0198491D02*
X0180198Y0199242D01*
X0178697Y0199242D01*
X0177946Y0198491D01*
X0177946Y0197741D01*
X0178697Y0196990D01*
X0180949Y0196990D01*
X0180949Y0195489D02*
X0180949Y0198491D01*
X0180949Y0195489D02*
X0180198Y0194738D01*
X0178697Y0194738D01*
X0177946Y0195489D01*
X0176345Y0195489D02*
X0175594Y0194738D01*
X0174093Y0194738D01*
X0173342Y0195489D01*
X0173342Y0198491D01*
X0174093Y0199242D01*
X0175594Y0199242D01*
X0176345Y0198491D01*
X0171774Y0199242D02*
X0170273Y0199242D01*
X0171023Y0199242D02*
X0171023Y0194738D01*
X0170273Y0194738D02*
X0171774Y0194738D01*
X0150260Y0194991D02*
X0150260Y0194241D01*
X0149510Y0193490D01*
X0150260Y0192739D01*
X0150260Y0191989D01*
X0149510Y0191238D01*
X0148008Y0191238D01*
X0147258Y0191989D01*
X0145656Y0191238D02*
X0142654Y0191238D01*
X0144155Y0191238D02*
X0144155Y0195742D01*
X0142654Y0194241D01*
X0141053Y0194991D02*
X0140302Y0195742D01*
X0138801Y0195742D01*
X0138050Y0194991D01*
X0138050Y0191989D01*
X0138801Y0191238D01*
X0140302Y0191238D01*
X0141053Y0191989D01*
X0147258Y0194991D02*
X0148008Y0195742D01*
X0149510Y0195742D01*
X0150260Y0194991D01*
X0149510Y0193490D02*
X0148759Y0193490D01*
X0091449Y0197489D02*
X0090698Y0196738D01*
X0089197Y0196738D01*
X0088446Y0197489D01*
X0088446Y0198239D01*
X0089197Y0198990D01*
X0090698Y0198990D01*
X0091449Y0198239D01*
X0091449Y0197489D01*
X0090698Y0198990D02*
X0091449Y0199741D01*
X0091449Y0200491D01*
X0090698Y0201242D01*
X0089197Y0201242D01*
X0088446Y0200491D01*
X0088446Y0199741D01*
X0089197Y0198990D01*
X0086845Y0197489D02*
X0086094Y0196738D01*
X0084593Y0196738D01*
X0083842Y0197489D01*
X0083842Y0200491D01*
X0084593Y0201242D01*
X0086094Y0201242D01*
X0086845Y0200491D01*
X0082274Y0201242D02*
X0080773Y0201242D01*
X0081523Y0201242D02*
X0081523Y0196738D01*
X0080773Y0196738D02*
X0082274Y0196738D01*
X0066944Y0183491D02*
X0066944Y0182741D01*
X0066193Y0181990D01*
X0064692Y0181990D01*
X0063941Y0182741D01*
X0063941Y0183491D01*
X0064692Y0184242D01*
X0066193Y0184242D01*
X0066944Y0183491D01*
X0066193Y0181990D02*
X0066944Y0181239D01*
X0066944Y0180489D01*
X0066193Y0179738D01*
X0064692Y0179738D01*
X0063941Y0180489D01*
X0063941Y0181239D01*
X0064692Y0181990D01*
X0062340Y0180489D02*
X0061589Y0179738D01*
X0060088Y0179738D01*
X0059337Y0180489D01*
X0059337Y0183491D01*
X0060088Y0184242D01*
X0061589Y0184242D01*
X0062340Y0183491D01*
X0037449Y0187238D02*
X0034446Y0187238D01*
X0035947Y0187238D02*
X0035947Y0191742D01*
X0034446Y0190241D01*
X0032845Y0190991D02*
X0032094Y0191742D01*
X0030593Y0191742D01*
X0029842Y0190991D01*
X0029842Y0187989D01*
X0030593Y0187238D01*
X0032094Y0187238D01*
X0032845Y0187989D01*
X0033946Y0202238D02*
X0036949Y0205241D01*
X0036949Y0205991D01*
X0036198Y0206742D01*
X0034697Y0206742D01*
X0033946Y0205991D01*
X0032345Y0205991D02*
X0031594Y0206742D01*
X0030093Y0206742D01*
X0029342Y0205991D01*
X0029342Y0202989D01*
X0030093Y0202238D01*
X0031594Y0202238D01*
X0032345Y0202989D01*
X0033946Y0202238D02*
X0036949Y0202238D01*
X0117046Y0260489D02*
X0117797Y0259738D01*
X0120799Y0259738D01*
X0121550Y0260489D01*
X0121550Y0261990D01*
X0120799Y0262741D01*
X0120799Y0264342D02*
X0121550Y0265093D01*
X0121550Y0266594D01*
X0120799Y0267345D01*
X0120049Y0267345D01*
X0119298Y0266594D01*
X0119298Y0265843D01*
X0119298Y0266594D02*
X0118547Y0267345D01*
X0117797Y0267345D01*
X0117046Y0266594D01*
X0117046Y0265093D01*
X0117797Y0264342D01*
X0117797Y0262741D02*
X0117046Y0261990D01*
X0117046Y0260489D01*
X0138046Y0260989D02*
X0138797Y0260238D01*
X0141799Y0260238D01*
X0142550Y0260989D01*
X0142550Y0262490D01*
X0141799Y0263241D01*
X0140298Y0264842D02*
X0140298Y0267845D01*
X0142550Y0267094D02*
X0138046Y0267094D01*
X0140298Y0264842D01*
X0138797Y0263241D02*
X0138046Y0262490D01*
X0138046Y0260989D01*
X0233342Y0184742D02*
X0233342Y0180989D01*
X0234093Y0180238D01*
X0235594Y0180238D01*
X0236345Y0180989D01*
X0236345Y0184742D01*
X0237946Y0183241D02*
X0239447Y0184742D01*
X0239447Y0180238D01*
X0237946Y0180238D02*
X0240949Y0180238D01*
X0293342Y0180989D02*
X0294093Y0180238D01*
X0295594Y0180238D01*
X0296345Y0180989D01*
X0296345Y0184742D01*
X0297946Y0183991D02*
X0298697Y0184742D01*
X0300198Y0184742D01*
X0300949Y0183991D01*
X0300949Y0183241D01*
X0297946Y0180238D01*
X0300949Y0180238D01*
X0293342Y0180989D02*
X0293342Y0184742D01*
X0330842Y0185491D02*
X0330842Y0182489D01*
X0331593Y0181738D01*
X0333094Y0181738D01*
X0333845Y0182489D01*
X0335446Y0182489D02*
X0336197Y0181738D01*
X0337698Y0181738D01*
X0338449Y0182489D01*
X0338449Y0183990D01*
X0337698Y0184741D01*
X0336947Y0184741D01*
X0335446Y0183990D01*
X0335446Y0186242D01*
X0338449Y0186242D01*
X0333845Y0185491D02*
X0333094Y0186242D01*
X0331593Y0186242D01*
X0330842Y0185491D01*
X0347273Y0193238D02*
X0348774Y0193238D01*
X0348023Y0193238D02*
X0348023Y0197742D01*
X0347273Y0197742D02*
X0348774Y0197742D01*
X0350342Y0196991D02*
X0350342Y0193989D01*
X0351093Y0193238D01*
X0352594Y0193238D01*
X0353345Y0193989D01*
X0354946Y0193238D02*
X0357949Y0193238D01*
X0356447Y0193238D02*
X0356447Y0197742D01*
X0354946Y0196241D01*
X0353345Y0196991D02*
X0352594Y0197742D01*
X0351093Y0197742D01*
X0350342Y0196991D01*
X0262050Y0094698D02*
X0257546Y0094698D01*
X0259798Y0092446D01*
X0259798Y0095449D01*
X0262050Y0090845D02*
X0262050Y0087842D01*
X0262050Y0089343D02*
X0257546Y0089343D01*
X0259047Y0087842D01*
X0258297Y0086241D02*
X0257546Y0085490D01*
X0257546Y0083989D01*
X0258297Y0083238D01*
X0261299Y0083238D01*
X0262050Y0083989D01*
X0262050Y0085490D01*
X0261299Y0086241D01*
X0242449Y0079991D02*
X0242449Y0079241D01*
X0241698Y0078490D01*
X0242449Y0077739D01*
X0242449Y0076989D01*
X0241698Y0076238D01*
X0240197Y0076238D01*
X0239446Y0076989D01*
X0237845Y0076989D02*
X0237094Y0076238D01*
X0235593Y0076238D01*
X0234842Y0076989D01*
X0234842Y0079991D01*
X0235593Y0080742D01*
X0237094Y0080742D01*
X0237845Y0079991D01*
X0239446Y0079991D02*
X0240197Y0080742D01*
X0241698Y0080742D01*
X0242449Y0079991D01*
X0241698Y0078490D02*
X0240947Y0078490D01*
X0233274Y0076238D02*
X0231773Y0076238D01*
X0232523Y0076238D02*
X0232523Y0080742D01*
X0231773Y0080742D02*
X0233274Y0080742D01*
X0202050Y0084489D02*
X0201299Y0083738D01*
X0198297Y0083738D01*
X0197546Y0084489D01*
X0197546Y0085990D01*
X0198297Y0086741D01*
X0199047Y0088342D02*
X0197546Y0089843D01*
X0202050Y0089843D01*
X0202050Y0088342D02*
X0202050Y0091345D01*
X0201299Y0092946D02*
X0202050Y0093697D01*
X0202050Y0095198D01*
X0201299Y0095949D01*
X0199798Y0095949D01*
X0199047Y0095198D01*
X0199047Y0094447D01*
X0199798Y0092946D01*
X0197546Y0092946D01*
X0197546Y0095949D01*
X0201299Y0086741D02*
X0202050Y0085990D01*
X0202050Y0084489D01*
X0181949Y0079991D02*
X0181198Y0080742D01*
X0179697Y0080742D01*
X0178946Y0079991D01*
X0177345Y0079991D02*
X0176594Y0080742D01*
X0175093Y0080742D01*
X0174342Y0079991D01*
X0174342Y0076989D01*
X0175093Y0076238D01*
X0176594Y0076238D01*
X0177345Y0076989D01*
X0178946Y0076238D02*
X0181949Y0079241D01*
X0181949Y0079991D01*
X0181949Y0076238D02*
X0178946Y0076238D01*
X0172774Y0076238D02*
X0171273Y0076238D01*
X0172023Y0076238D02*
X0172023Y0080742D01*
X0171273Y0080742D02*
X0172774Y0080742D01*
X0140050Y0084989D02*
X0140050Y0086490D01*
X0139299Y0087241D01*
X0140050Y0088842D02*
X0140050Y0091845D01*
X0140050Y0090343D02*
X0135546Y0090343D01*
X0137047Y0088842D01*
X0136297Y0087241D02*
X0135546Y0086490D01*
X0135546Y0084989D01*
X0136297Y0084238D01*
X0139299Y0084238D01*
X0140050Y0084989D01*
X0140050Y0093446D02*
X0140050Y0096449D01*
X0140050Y0094947D02*
X0135546Y0094947D01*
X0137047Y0093446D01*
X0099449Y0068491D02*
X0099449Y0065489D01*
X0098698Y0064738D01*
X0097197Y0064738D01*
X0096446Y0065489D01*
X0094845Y0065489D02*
X0094094Y0064738D01*
X0092593Y0064738D01*
X0091842Y0065489D01*
X0091842Y0068491D01*
X0092593Y0069242D01*
X0094094Y0069242D01*
X0094845Y0068491D01*
X0096446Y0068491D02*
X0096446Y0067741D01*
X0097197Y0066990D01*
X0099449Y0066990D01*
X0099449Y0068491D02*
X0098698Y0069242D01*
X0097197Y0069242D01*
X0096446Y0068491D01*
X0092760Y0099738D02*
X0089758Y0099738D01*
X0092760Y0102741D01*
X0092760Y0103491D01*
X0092010Y0104242D01*
X0090508Y0104242D01*
X0089758Y0103491D01*
X0086655Y0104242D02*
X0086655Y0099738D01*
X0085154Y0099738D02*
X0088156Y0099738D01*
X0085154Y0102741D02*
X0086655Y0104242D01*
X0083553Y0103491D02*
X0082802Y0104242D01*
X0081301Y0104242D01*
X0080550Y0103491D01*
X0080550Y0100489D01*
X0081301Y0099738D01*
X0082802Y0099738D01*
X0083553Y0100489D01*
X0085489Y0115238D02*
X0084738Y0115989D01*
X0085489Y0115238D02*
X0086990Y0115238D01*
X0087741Y0115989D01*
X0087741Y0116739D01*
X0086990Y0117490D01*
X0085489Y0117490D01*
X0084738Y0118241D01*
X0084738Y0118991D01*
X0085489Y0119742D01*
X0086990Y0119742D01*
X0087741Y0118991D01*
X0089342Y0119742D02*
X0089342Y0116739D01*
X0090843Y0115238D01*
X0092345Y0116739D01*
X0092345Y0119742D01*
X0093697Y0121238D02*
X0095198Y0121238D01*
X0095949Y0121989D01*
X0095949Y0122739D01*
X0095198Y0123490D01*
X0092946Y0123490D01*
X0092946Y0121989D01*
X0093697Y0121238D01*
X0095447Y0119742D02*
X0095447Y0115238D01*
X0093946Y0115238D02*
X0096949Y0115238D01*
X0093946Y0118241D02*
X0095447Y0119742D01*
X0092946Y0123490D02*
X0094447Y0124991D01*
X0095949Y0125742D01*
X0121446Y0140238D02*
X0124449Y0140238D01*
X0122947Y0140238D02*
X0122947Y0144742D01*
X0121446Y0143241D01*
X0040949Y0088742D02*
X0039447Y0087991D01*
X0037946Y0086490D01*
X0040198Y0086490D01*
X0040949Y0085739D01*
X0040949Y0084989D01*
X0040198Y0084238D01*
X0038697Y0084238D01*
X0037946Y0084989D01*
X0037946Y0086490D01*
X0036345Y0084989D02*
X0035594Y0084238D01*
X0034093Y0084238D01*
X0033342Y0084989D01*
X0033342Y0087991D01*
X0034093Y0088742D01*
X0035594Y0088742D01*
X0036345Y0087991D01*
X0031774Y0088742D02*
X0030273Y0088742D01*
X0031023Y0088742D02*
X0031023Y0084238D01*
X0030273Y0084238D02*
X0031774Y0084238D01*
X0291773Y0080242D02*
X0293274Y0080242D01*
X0292523Y0080242D02*
X0292523Y0075738D01*
X0291773Y0075738D02*
X0293274Y0075738D01*
X0294842Y0076489D02*
X0295593Y0075738D01*
X0297094Y0075738D01*
X0297845Y0076489D01*
X0299446Y0076489D02*
X0300197Y0075738D01*
X0301698Y0075738D01*
X0302449Y0076489D01*
X0302449Y0077990D01*
X0301698Y0078741D01*
X0300947Y0078741D01*
X0299446Y0077990D01*
X0299446Y0080242D01*
X0302449Y0080242D01*
X0297845Y0079491D02*
X0297094Y0080242D01*
X0295593Y0080242D01*
X0294842Y0079491D01*
X0294842Y0076489D01*
X0312546Y0083989D02*
X0313297Y0083238D01*
X0316299Y0083238D01*
X0317050Y0083989D01*
X0317050Y0085490D01*
X0316299Y0086241D01*
X0316299Y0087842D02*
X0313297Y0090845D01*
X0312546Y0090845D01*
X0312546Y0087842D01*
X0313297Y0086241D02*
X0312546Y0085490D01*
X0312546Y0083989D01*
X0316299Y0087842D02*
X0317050Y0087842D01*
X0346773Y0080242D02*
X0348274Y0080242D01*
X0347523Y0080242D02*
X0347523Y0075738D01*
X0346773Y0075738D02*
X0348274Y0075738D01*
X0349842Y0076489D02*
X0350593Y0075738D01*
X0352094Y0075738D01*
X0352845Y0076489D01*
X0354446Y0077990D02*
X0357449Y0077990D01*
X0356698Y0075738D02*
X0356698Y0080242D01*
X0354446Y0077990D01*
X0352845Y0079491D02*
X0352094Y0080242D01*
X0350593Y0080242D01*
X0349842Y0079491D01*
X0349842Y0076489D01*
D13*
X0326300Y0090988D02*
X0323300Y0090988D01*
X0320300Y0090988D01*
X0320300Y0092988D02*
X0323300Y0092988D01*
X0326300Y0092988D01*
X0271300Y0092988D02*
X0268300Y0092988D01*
X0265300Y0092988D01*
X0265300Y0090988D02*
X0268300Y0090988D01*
X0271300Y0090988D01*
X0211300Y0091488D02*
X0208300Y0091488D01*
X0205300Y0091488D01*
X0205300Y0093488D02*
X0208300Y0093488D01*
X0211300Y0093488D01*
X0149300Y0093988D02*
X0146300Y0093988D01*
X0143300Y0093988D01*
X0143300Y0091988D02*
X0146300Y0091988D01*
X0149300Y0091988D01*
X0090300Y0093488D02*
X0090300Y0090488D01*
X0088300Y0090488D02*
X0088300Y0093488D01*
X0088300Y0096488D01*
X0090300Y0096488D02*
X0090300Y0093488D01*
X0049800Y0186488D02*
X0049800Y0189488D01*
X0049800Y0192488D01*
X0047800Y0192488D02*
X0047800Y0189488D01*
X0047800Y0186488D01*
X0047300Y0200488D02*
X0047300Y0203488D01*
X0047300Y0206488D01*
X0049300Y0206488D02*
X0049300Y0203488D01*
X0049300Y0200488D01*
X0070087Y0197488D02*
X0070087Y0194488D01*
X0070087Y0191488D01*
X0072087Y0191488D02*
X0072087Y0194488D01*
X0072087Y0197488D01*
X0116800Y0247988D02*
X0119800Y0247988D01*
X0122800Y0247988D01*
X0122800Y0249988D02*
X0119800Y0249988D01*
X0116800Y0249988D01*
X0138300Y0250488D02*
X0141300Y0250488D01*
X0144300Y0250488D01*
X0144300Y0248488D02*
X0141300Y0248488D01*
X0138300Y0248488D01*
X0159800Y0196988D02*
X0159800Y0193988D01*
X0159800Y0190988D01*
X0161800Y0190988D02*
X0161800Y0193988D01*
X0161800Y0196988D01*
X0259300Y0272988D02*
X0259300Y0275988D01*
X0259300Y0278988D01*
X0261300Y0278988D02*
X0261300Y0275988D01*
X0261300Y0272988D01*
X0318300Y0273988D02*
X0318300Y0270988D01*
X0318300Y0267988D01*
X0320300Y0267988D02*
X0320300Y0270988D01*
X0320300Y0273988D01*
X0329800Y0195488D02*
X0329800Y0192488D01*
X0329800Y0189488D01*
X0331800Y0189488D02*
X0331800Y0192488D01*
X0331800Y0195488D01*
D14*
X0130300Y0228738D03*
X0108300Y0228238D03*
X0108300Y0249738D03*
X0130300Y0250238D03*
X0051800Y0253238D03*
X0037300Y0253238D03*
X0037300Y0231738D03*
X0051800Y0231738D03*
D15*
X0057097Y0245506D02*
X0057097Y0247258D01*
X0057681Y0247841D01*
X0058849Y0247841D01*
X0059432Y0247258D01*
X0059432Y0245506D01*
X0059432Y0246674D02*
X0060600Y0247841D01*
X0060600Y0249097D02*
X0058265Y0251432D01*
X0057681Y0251432D01*
X0057097Y0250849D01*
X0057097Y0249681D01*
X0057681Y0249097D01*
X0060600Y0249097D02*
X0060600Y0251432D01*
X0060600Y0245506D02*
X0057097Y0245506D01*
X0046100Y0245506D02*
X0042597Y0245506D01*
X0042597Y0247258D01*
X0043181Y0247841D01*
X0044349Y0247841D01*
X0044932Y0247258D01*
X0044932Y0245506D01*
X0044932Y0246674D02*
X0046100Y0247841D01*
X0046100Y0249097D02*
X0046100Y0251432D01*
X0046100Y0250265D02*
X0042597Y0250265D01*
X0043765Y0249097D01*
X0099497Y0234531D02*
X0100081Y0235115D01*
X0100665Y0235115D01*
X0101249Y0234531D01*
X0101832Y0235115D01*
X0102416Y0235115D01*
X0103000Y0234531D01*
X0103000Y0233363D01*
X0102416Y0232779D01*
X0103000Y0231524D02*
X0101832Y0230356D01*
X0101832Y0230940D02*
X0101832Y0229188D01*
X0103000Y0229188D02*
X0099497Y0229188D01*
X0099497Y0230940D01*
X0100081Y0231524D01*
X0101249Y0231524D01*
X0101832Y0230940D01*
X0100081Y0232779D02*
X0099497Y0233363D01*
X0099497Y0234531D01*
X0101249Y0234531D02*
X0101249Y0233947D01*
X0121497Y0235031D02*
X0123249Y0233279D01*
X0123249Y0235615D01*
X0125000Y0235031D02*
X0121497Y0235031D01*
X0122081Y0232024D02*
X0123249Y0232024D01*
X0123832Y0231440D01*
X0123832Y0229688D01*
X0123832Y0230856D02*
X0125000Y0232024D01*
X0125000Y0229688D02*
X0121497Y0229688D01*
X0121497Y0231440D01*
X0122081Y0232024D01*
X0122303Y0162834D02*
X0124055Y0162834D01*
X0124638Y0162251D01*
X0124638Y0161083D01*
X0124055Y0160499D01*
X0122303Y0160499D01*
X0122303Y0159331D02*
X0122303Y0162834D01*
X0123471Y0160499D02*
X0124638Y0159331D01*
X0125894Y0159915D02*
X0126478Y0159331D01*
X0127646Y0159331D01*
X0128230Y0159915D01*
X0128230Y0160499D01*
X0127646Y0161083D01*
X0125894Y0161083D01*
X0125894Y0159915D01*
X0125894Y0161083D02*
X0127062Y0162251D01*
X0128230Y0162834D01*
X0128230Y0152992D02*
X0125894Y0152992D01*
X0125894Y0151240D01*
X0127062Y0151824D01*
X0127646Y0151824D01*
X0128230Y0151240D01*
X0128230Y0150073D01*
X0127646Y0149489D01*
X0126478Y0149489D01*
X0125894Y0150073D01*
X0124638Y0149489D02*
X0123471Y0150657D01*
X0124055Y0150657D02*
X0122303Y0150657D01*
X0122303Y0149489D02*
X0122303Y0152992D01*
X0124055Y0152992D01*
X0124638Y0152408D01*
X0124638Y0151240D01*
X0124055Y0150657D01*
X0159512Y0063422D02*
X0158745Y0062655D01*
X0158745Y0059585D01*
X0159512Y0058818D01*
X0161047Y0058818D01*
X0161814Y0059585D01*
X0163349Y0058818D02*
X0163349Y0063422D01*
X0166418Y0058818D01*
X0166418Y0063422D01*
X0167953Y0061887D02*
X0169487Y0063422D01*
X0169487Y0058818D01*
X0167953Y0058818D02*
X0171022Y0058818D01*
X0161814Y0062655D02*
X0161047Y0063422D01*
X0159512Y0063422D01*
D16*
X0088800Y0065988D02*
X0087300Y0065988D01*
X0085800Y0066988D02*
X0085300Y0066988D01*
X0083800Y0065988D02*
X0045800Y0065988D01*
D17*
X0075300Y0075488D03*
D18*
X0091300Y0075488D03*
X0043300Y0075488D03*
D19*
X0091432Y0150488D03*
X0091432Y0159937D03*
X0112932Y0159937D03*
X0112932Y0150488D03*
M02*
