G75*
%MOIN*%
%OFA0B0*%
%FSLAX25Y25*%
%IPPOS*%
%LPD*%
%AMOC8*
5,1,8,0,0,1.08239X$1,22.5*
%
%ADD10C,0.00000*%
%ADD11C,0.05200*%
%ADD12C,0.08500*%
%ADD13C,0.06000*%
%ADD14C,0.03000*%
%ADD15R,0.11693X0.50669*%
%ADD16C,0.03200*%
%ADD17C,0.06600*%
%ADD18C,0.05906*%
%ADD19C,0.01600*%
%ADD20C,0.01000*%
%ADD21C,0.03169*%
D10*
X0026198Y0007776D02*
X0030135Y0003874D01*
X0074623Y0003874D01*
X0074623Y0054661D01*
X0080135Y0054661D01*
X0080135Y0003874D01*
X0339583Y0003874D01*
X0339583Y0054268D01*
X0345489Y0054268D01*
X0345489Y0003874D01*
X0376198Y0003874D01*
X0378954Y0006630D01*
X0378954Y0053087D01*
X0378954Y0052969D02*
X0378954Y0287067D01*
X0026198Y0287067D01*
X0026198Y0053575D01*
X0026198Y0053776D02*
X0026198Y0007776D01*
D11*
X0041800Y0096469D03*
X0041800Y0106469D03*
X0041800Y0116469D03*
X0041800Y0126469D03*
X0041800Y0136469D03*
X0041800Y0146469D03*
X0041800Y0156469D03*
X0071800Y0156469D03*
X0071800Y0146469D03*
X0071800Y0136469D03*
X0071800Y0126469D03*
X0071800Y0116469D03*
X0071800Y0106469D03*
X0071800Y0096469D03*
X0084300Y0095969D03*
X0094300Y0095969D03*
X0146300Y0100469D03*
X0156800Y0099969D03*
X0156800Y0109969D03*
X0156800Y0119969D03*
X0156800Y0129969D03*
X0156800Y0139969D03*
X0156800Y0149969D03*
X0156800Y0159969D03*
X0186800Y0159969D03*
X0186800Y0149969D03*
X0186800Y0139969D03*
X0186800Y0129969D03*
X0186800Y0119969D03*
X0186800Y0109969D03*
X0186800Y0099969D03*
X0186800Y0089969D03*
X0208300Y0089969D03*
X0217300Y0089969D03*
X0217300Y0099969D03*
X0208300Y0099969D03*
X0217300Y0109969D03*
X0217300Y0119969D03*
X0217300Y0129969D03*
X0217300Y0139969D03*
X0217300Y0149969D03*
X0217300Y0159969D03*
X0247300Y0159969D03*
X0247300Y0149969D03*
X0247300Y0139969D03*
X0247300Y0129969D03*
X0247300Y0119969D03*
X0247300Y0109969D03*
X0247300Y0099969D03*
X0247300Y0089969D03*
X0268300Y0089469D03*
X0277300Y0089469D03*
X0277300Y0099469D03*
X0268300Y0099469D03*
X0277300Y0109469D03*
X0277300Y0119469D03*
X0277300Y0129469D03*
X0277300Y0139469D03*
X0277300Y0149469D03*
X0277300Y0159469D03*
X0307300Y0159469D03*
X0307300Y0149469D03*
X0307300Y0139469D03*
X0307300Y0129469D03*
X0307300Y0119469D03*
X0307300Y0109469D03*
X0307300Y0099469D03*
X0307300Y0089469D03*
X0323300Y0089469D03*
X0332300Y0089469D03*
X0332300Y0099469D03*
X0323300Y0099469D03*
X0332300Y0109469D03*
X0332300Y0119469D03*
X0332300Y0129469D03*
X0332300Y0139469D03*
X0332300Y0149469D03*
X0332300Y0159469D03*
X0362300Y0159469D03*
X0362300Y0149469D03*
X0362300Y0139469D03*
X0362300Y0129469D03*
X0362300Y0119469D03*
X0362300Y0109469D03*
X0362300Y0099469D03*
X0362300Y0089469D03*
X0305300Y0193469D03*
X0305300Y0203469D03*
X0305300Y0213469D03*
X0305300Y0223469D03*
X0305300Y0233469D03*
X0305300Y0243469D03*
X0305300Y0253469D03*
X0305300Y0263469D03*
X0305300Y0273469D03*
X0314300Y0273469D03*
X0324300Y0273469D03*
X0332300Y0266969D03*
X0332300Y0256969D03*
X0332300Y0246969D03*
X0332300Y0236969D03*
X0332300Y0226969D03*
X0332300Y0216969D03*
X0332300Y0206969D03*
X0335800Y0194969D03*
X0325800Y0194969D03*
X0362300Y0206969D03*
X0362300Y0216969D03*
X0362300Y0226969D03*
X0362300Y0236969D03*
X0362300Y0246969D03*
X0362300Y0256969D03*
X0362300Y0266969D03*
X0275300Y0263469D03*
X0275300Y0273469D03*
X0265300Y0278469D03*
X0255300Y0278469D03*
X0245300Y0273469D03*
X0245300Y0263469D03*
X0245300Y0253469D03*
X0245300Y0243469D03*
X0245300Y0233469D03*
X0245300Y0223469D03*
X0245300Y0213469D03*
X0245300Y0203469D03*
X0245300Y0193469D03*
X0275300Y0193469D03*
X0275300Y0203469D03*
X0275300Y0213469D03*
X0275300Y0223469D03*
X0275300Y0233469D03*
X0275300Y0243469D03*
X0275300Y0253469D03*
X0215300Y0253469D03*
X0215300Y0263469D03*
X0215300Y0273469D03*
X0185300Y0268469D03*
X0185300Y0258469D03*
X0185300Y0248469D03*
X0185300Y0238469D03*
X0185300Y0228469D03*
X0185300Y0218469D03*
X0185300Y0208469D03*
X0165800Y0196469D03*
X0155800Y0196469D03*
X0155300Y0208469D03*
X0155300Y0218469D03*
X0155300Y0228469D03*
X0155300Y0238469D03*
X0155300Y0248469D03*
X0155300Y0258469D03*
X0155300Y0268469D03*
X0141300Y0256969D03*
X0141300Y0246969D03*
X0130300Y0256969D03*
X0119800Y0256469D03*
X0119800Y0246469D03*
X0108300Y0256469D03*
X0095800Y0260469D03*
X0095800Y0270469D03*
X0095800Y0250469D03*
X0095800Y0240469D03*
X0095800Y0230469D03*
X0095800Y0220469D03*
X0095800Y0210469D03*
X0076087Y0196969D03*
X0066087Y0196969D03*
X0053800Y0191969D03*
X0043800Y0191969D03*
X0043300Y0205969D03*
X0053300Y0205969D03*
X0065800Y0210469D03*
X0065800Y0220469D03*
X0065800Y0230469D03*
X0065800Y0240469D03*
X0065800Y0250469D03*
X0065800Y0260469D03*
X0065800Y0270469D03*
X0051800Y0259969D03*
X0037300Y0259969D03*
X0037300Y0229969D03*
X0051800Y0229969D03*
X0108300Y0226469D03*
X0130300Y0226969D03*
X0117182Y0162417D03*
X0117182Y0152969D03*
X0087182Y0152969D03*
X0087182Y0162417D03*
X0146300Y0090469D03*
X0156800Y0089969D03*
X0215300Y0193469D03*
X0215300Y0203469D03*
X0215300Y0213469D03*
X0215300Y0223469D03*
X0215300Y0233469D03*
X0215300Y0243469D03*
D12*
X0097300Y0077969D03*
X0037300Y0077969D03*
D13*
X0103300Y0125969D03*
X0113300Y0125969D03*
X0113300Y0135969D03*
X0103300Y0135969D03*
X0123300Y0135969D03*
X0123300Y0125969D03*
D14*
X0119939Y0037421D02*
X0112939Y0037421D01*
X0112939Y0054421D01*
X0119939Y0054421D01*
X0119939Y0037421D01*
X0119939Y0040420D02*
X0112939Y0040420D01*
X0112939Y0043419D02*
X0119939Y0043419D01*
X0119939Y0046418D02*
X0112939Y0046418D01*
X0112939Y0049417D02*
X0119939Y0049417D01*
X0119939Y0052416D02*
X0112939Y0052416D01*
X0104348Y0037421D02*
X0097348Y0037421D01*
X0097348Y0054421D01*
X0104348Y0054421D01*
X0104348Y0037421D01*
X0104348Y0040420D02*
X0097348Y0040420D01*
X0097348Y0043419D02*
X0104348Y0043419D01*
X0104348Y0046418D02*
X0097348Y0046418D01*
X0097348Y0049417D02*
X0104348Y0049417D01*
X0104348Y0052416D02*
X0097348Y0052416D01*
X0088757Y0037421D02*
X0081757Y0037421D01*
X0081757Y0054421D01*
X0088757Y0054421D01*
X0088757Y0037421D01*
X0088757Y0040420D02*
X0081757Y0040420D01*
X0081757Y0043419D02*
X0088757Y0043419D01*
X0088757Y0046418D02*
X0081757Y0046418D01*
X0081757Y0049417D02*
X0088757Y0049417D01*
X0088757Y0052416D02*
X0081757Y0052416D01*
X0073167Y0037421D02*
X0066167Y0037421D01*
X0066167Y0054421D01*
X0073167Y0054421D01*
X0073167Y0037421D01*
X0073167Y0040420D02*
X0066167Y0040420D01*
X0066167Y0043419D02*
X0073167Y0043419D01*
X0073167Y0046418D02*
X0066167Y0046418D01*
X0066167Y0049417D02*
X0073167Y0049417D01*
X0073167Y0052416D02*
X0066167Y0052416D01*
X0057576Y0037421D02*
X0050576Y0037421D01*
X0050576Y0054421D01*
X0057576Y0054421D01*
X0057576Y0037421D01*
X0057576Y0040420D02*
X0050576Y0040420D01*
X0050576Y0043419D02*
X0057576Y0043419D01*
X0057576Y0046418D02*
X0050576Y0046418D01*
X0050576Y0049417D02*
X0057576Y0049417D01*
X0057576Y0052416D02*
X0050576Y0052416D01*
X0041986Y0037421D02*
X0034986Y0037421D01*
X0034986Y0054421D01*
X0041986Y0054421D01*
X0041986Y0037421D01*
X0041986Y0040420D02*
X0034986Y0040420D01*
X0034986Y0043419D02*
X0041986Y0043419D01*
X0041986Y0046418D02*
X0034986Y0046418D01*
X0034986Y0049417D02*
X0041986Y0049417D01*
X0041986Y0052416D02*
X0034986Y0052416D01*
X0128529Y0037421D02*
X0135529Y0037421D01*
X0128529Y0037421D02*
X0128529Y0054421D01*
X0135529Y0054421D01*
X0135529Y0037421D01*
X0135529Y0040420D02*
X0128529Y0040420D01*
X0128529Y0043419D02*
X0135529Y0043419D01*
X0135529Y0046418D02*
X0128529Y0046418D01*
X0128529Y0049417D02*
X0135529Y0049417D01*
X0135529Y0052416D02*
X0128529Y0052416D01*
X0144120Y0037421D02*
X0151120Y0037421D01*
X0144120Y0037421D02*
X0144120Y0054421D01*
X0151120Y0054421D01*
X0151120Y0037421D01*
X0151120Y0040420D02*
X0144120Y0040420D01*
X0144120Y0043419D02*
X0151120Y0043419D01*
X0151120Y0046418D02*
X0144120Y0046418D01*
X0144120Y0049417D02*
X0151120Y0049417D01*
X0151120Y0052416D02*
X0144120Y0052416D01*
X0159710Y0037421D02*
X0166710Y0037421D01*
X0159710Y0037421D02*
X0159710Y0054421D01*
X0166710Y0054421D01*
X0166710Y0037421D01*
X0166710Y0040420D02*
X0159710Y0040420D01*
X0159710Y0043419D02*
X0166710Y0043419D01*
X0166710Y0046418D02*
X0159710Y0046418D01*
X0159710Y0049417D02*
X0166710Y0049417D01*
X0166710Y0052416D02*
X0159710Y0052416D01*
X0175301Y0037421D02*
X0182301Y0037421D01*
X0175301Y0037421D02*
X0175301Y0054421D01*
X0182301Y0054421D01*
X0182301Y0037421D01*
X0182301Y0040420D02*
X0175301Y0040420D01*
X0175301Y0043419D02*
X0182301Y0043419D01*
X0182301Y0046418D02*
X0175301Y0046418D01*
X0175301Y0049417D02*
X0182301Y0049417D01*
X0182301Y0052416D02*
X0175301Y0052416D01*
X0190891Y0037421D02*
X0197891Y0037421D01*
X0190891Y0037421D02*
X0190891Y0054421D01*
X0197891Y0054421D01*
X0197891Y0037421D01*
X0197891Y0040420D02*
X0190891Y0040420D01*
X0190891Y0043419D02*
X0197891Y0043419D01*
X0197891Y0046418D02*
X0190891Y0046418D01*
X0190891Y0049417D02*
X0197891Y0049417D01*
X0197891Y0052416D02*
X0190891Y0052416D01*
X0206482Y0037421D02*
X0213482Y0037421D01*
X0206482Y0037421D02*
X0206482Y0054421D01*
X0213482Y0054421D01*
X0213482Y0037421D01*
X0213482Y0040420D02*
X0206482Y0040420D01*
X0206482Y0043419D02*
X0213482Y0043419D01*
X0213482Y0046418D02*
X0206482Y0046418D01*
X0206482Y0049417D02*
X0213482Y0049417D01*
X0213482Y0052416D02*
X0206482Y0052416D01*
X0222072Y0037421D02*
X0229072Y0037421D01*
X0222072Y0037421D02*
X0222072Y0054421D01*
X0229072Y0054421D01*
X0229072Y0037421D01*
X0229072Y0040420D02*
X0222072Y0040420D01*
X0222072Y0043419D02*
X0229072Y0043419D01*
X0229072Y0046418D02*
X0222072Y0046418D01*
X0222072Y0049417D02*
X0229072Y0049417D01*
X0229072Y0052416D02*
X0222072Y0052416D01*
X0237663Y0037421D02*
X0244663Y0037421D01*
X0237663Y0037421D02*
X0237663Y0054421D01*
X0244663Y0054421D01*
X0244663Y0037421D01*
X0244663Y0040420D02*
X0237663Y0040420D01*
X0237663Y0043419D02*
X0244663Y0043419D01*
X0244663Y0046418D02*
X0237663Y0046418D01*
X0237663Y0049417D02*
X0244663Y0049417D01*
X0244663Y0052416D02*
X0237663Y0052416D01*
X0253254Y0037421D02*
X0260254Y0037421D01*
X0253254Y0037421D02*
X0253254Y0054421D01*
X0260254Y0054421D01*
X0260254Y0037421D01*
X0260254Y0040420D02*
X0253254Y0040420D01*
X0253254Y0043419D02*
X0260254Y0043419D01*
X0260254Y0046418D02*
X0253254Y0046418D01*
X0253254Y0049417D02*
X0260254Y0049417D01*
X0260254Y0052416D02*
X0253254Y0052416D01*
X0268844Y0037421D02*
X0275844Y0037421D01*
X0268844Y0037421D02*
X0268844Y0054421D01*
X0275844Y0054421D01*
X0275844Y0037421D01*
X0275844Y0040420D02*
X0268844Y0040420D01*
X0268844Y0043419D02*
X0275844Y0043419D01*
X0275844Y0046418D02*
X0268844Y0046418D01*
X0268844Y0049417D02*
X0275844Y0049417D01*
X0275844Y0052416D02*
X0268844Y0052416D01*
X0284435Y0037421D02*
X0291435Y0037421D01*
X0284435Y0037421D02*
X0284435Y0054421D01*
X0291435Y0054421D01*
X0291435Y0037421D01*
X0291435Y0040420D02*
X0284435Y0040420D01*
X0284435Y0043419D02*
X0291435Y0043419D01*
X0291435Y0046418D02*
X0284435Y0046418D01*
X0284435Y0049417D02*
X0291435Y0049417D01*
X0291435Y0052416D02*
X0284435Y0052416D01*
X0300025Y0037421D02*
X0307025Y0037421D01*
X0300025Y0037421D02*
X0300025Y0054421D01*
X0307025Y0054421D01*
X0307025Y0037421D01*
X0307025Y0040420D02*
X0300025Y0040420D01*
X0300025Y0043419D02*
X0307025Y0043419D01*
X0307025Y0046418D02*
X0300025Y0046418D01*
X0300025Y0049417D02*
X0307025Y0049417D01*
X0307025Y0052416D02*
X0300025Y0052416D01*
X0315616Y0037421D02*
X0322616Y0037421D01*
X0315616Y0037421D02*
X0315616Y0054421D01*
X0322616Y0054421D01*
X0322616Y0037421D01*
X0322616Y0040420D02*
X0315616Y0040420D01*
X0315616Y0043419D02*
X0322616Y0043419D01*
X0322616Y0046418D02*
X0315616Y0046418D01*
X0315616Y0049417D02*
X0322616Y0049417D01*
X0322616Y0052416D02*
X0315616Y0052416D01*
X0331206Y0037421D02*
X0338206Y0037421D01*
X0331206Y0037421D02*
X0331206Y0054421D01*
X0338206Y0054421D01*
X0338206Y0037421D01*
X0338206Y0040420D02*
X0331206Y0040420D01*
X0331206Y0043419D02*
X0338206Y0043419D01*
X0338206Y0046418D02*
X0331206Y0046418D01*
X0331206Y0049417D02*
X0338206Y0049417D01*
X0338206Y0052416D02*
X0331206Y0052416D01*
X0346797Y0037421D02*
X0353797Y0037421D01*
X0346797Y0037421D02*
X0346797Y0054421D01*
X0353797Y0054421D01*
X0353797Y0037421D01*
X0353797Y0040420D02*
X0346797Y0040420D01*
X0346797Y0043419D02*
X0353797Y0043419D01*
X0353797Y0046418D02*
X0346797Y0046418D01*
X0346797Y0049417D02*
X0353797Y0049417D01*
X0353797Y0052416D02*
X0346797Y0052416D01*
X0362387Y0037421D02*
X0369387Y0037421D01*
X0362387Y0037421D02*
X0362387Y0054421D01*
X0369387Y0054421D01*
X0369387Y0037421D01*
X0369387Y0040420D02*
X0362387Y0040420D01*
X0362387Y0043419D02*
X0369387Y0043419D01*
X0369387Y0046418D02*
X0362387Y0046418D01*
X0362387Y0049417D02*
X0369387Y0049417D01*
X0369387Y0052416D02*
X0362387Y0052416D01*
D15*
X0365883Y0029484D03*
X0350292Y0029484D03*
X0334702Y0029484D03*
X0319111Y0029484D03*
X0303520Y0029484D03*
X0287930Y0029484D03*
X0272339Y0029484D03*
X0256749Y0029484D03*
X0241158Y0029484D03*
X0225568Y0029484D03*
X0209977Y0029484D03*
X0194387Y0029484D03*
X0178796Y0029484D03*
X0163206Y0029484D03*
X0147615Y0029484D03*
X0132024Y0029484D03*
X0116434Y0029484D03*
X0100843Y0029484D03*
X0085253Y0029484D03*
X0069662Y0029484D03*
X0054072Y0029484D03*
X0038481Y0029484D03*
D16*
X0156800Y0149969D02*
X0157300Y0149969D01*
X0168300Y0149969D01*
X0178300Y0159969D01*
X0186800Y0159969D01*
X0215300Y0193469D02*
X0245300Y0193469D01*
X0275300Y0193469D02*
X0305300Y0193469D01*
D17*
X0365800Y0062256D02*
X0366006Y0061263D01*
X0365887Y0045921D01*
X0055300Y0062469D02*
X0054194Y0061363D01*
X0054076Y0045921D01*
X0038486Y0045921D02*
X0038486Y0062728D01*
X0038402Y0062811D01*
D18*
X0038402Y0062811D03*
X0365800Y0062256D03*
D19*
X0366490Y0066909D02*
X0377154Y0066909D01*
X0377154Y0068507D02*
X0327948Y0068507D01*
X0327087Y0069368D02*
X0281587Y0069368D01*
X0273087Y0077868D01*
X0269281Y0077868D01*
X0268039Y0078449D01*
X0267990Y0078498D01*
X0267504Y0078700D01*
X0266852Y0079005D01*
X0266852Y0079005D01*
X0266852Y0079005D01*
X0266707Y0078953D01*
X0265706Y0078953D01*
X0264610Y0078498D01*
X0263770Y0077659D01*
X0263495Y0076994D01*
X0262990Y0077498D01*
X0261894Y0077953D01*
X0260706Y0077953D01*
X0259610Y0077498D01*
X0258770Y0076659D01*
X0258316Y0075562D01*
X0258316Y0074375D01*
X0258698Y0073453D01*
X0257706Y0073453D01*
X0256784Y0073071D01*
X0256784Y0073562D01*
X0256330Y0074659D01*
X0255490Y0075498D01*
X0254394Y0075953D01*
X0253206Y0075953D01*
X0252110Y0075498D01*
X0251270Y0074659D01*
X0250816Y0073562D01*
X0250816Y0072561D01*
X0250763Y0072417D01*
X0251037Y0071831D01*
X0251069Y0071764D01*
X0251270Y0071278D01*
X0251319Y0071229D01*
X0251900Y0069987D01*
X0251900Y0068681D01*
X0253900Y0066681D01*
X0254713Y0065868D01*
X0245587Y0065868D01*
X0232587Y0078868D01*
X0210192Y0078868D01*
X0209784Y0079993D01*
X0209784Y0080062D01*
X0209583Y0080549D01*
X0209533Y0080687D01*
X0209337Y0081226D01*
X0209198Y0081291D01*
X0208490Y0081998D01*
X0207394Y0082453D01*
X0206206Y0082453D01*
X0205110Y0081998D01*
X0204270Y0081159D01*
X0204021Y0080557D01*
X0203992Y0080577D01*
X0203969Y0080673D01*
X0203491Y0080964D01*
X0202587Y0081868D01*
X0202249Y0081868D01*
X0201754Y0082235D01*
X0201490Y0082498D01*
X0201281Y0082585D01*
X0200943Y0082835D01*
X0200748Y0082806D01*
X0200394Y0082953D01*
X0199206Y0082953D01*
X0198110Y0082498D01*
X0197270Y0081659D01*
X0196816Y0080562D01*
X0196816Y0079375D01*
X0197270Y0078278D01*
X0198110Y0077439D01*
X0198774Y0077163D01*
X0198270Y0076659D01*
X0197816Y0075562D01*
X0197816Y0074375D01*
X0198270Y0073278D01*
X0199110Y0072439D01*
X0200022Y0072061D01*
X0199816Y0071562D01*
X0199816Y0070375D01*
X0200270Y0069278D01*
X0201110Y0068439D01*
X0202206Y0067984D01*
X0203207Y0067984D01*
X0203352Y0067932D01*
X0204004Y0068237D01*
X0204490Y0068439D01*
X0204539Y0068488D01*
X0205781Y0069069D01*
X0228013Y0069069D01*
X0238900Y0058181D01*
X0238900Y0057321D01*
X0237086Y0057321D01*
X0236020Y0056880D01*
X0235359Y0056219D01*
X0234732Y0056219D01*
X0233912Y0055399D01*
X0233912Y0054969D01*
X0232814Y0054969D01*
X0232814Y0055399D01*
X0231994Y0056219D01*
X0231376Y0056219D01*
X0230715Y0056880D01*
X0229700Y0057300D01*
X0229700Y0057755D01*
X0226200Y0061255D01*
X0225087Y0062368D01*
X0202587Y0062368D01*
X0189700Y0075255D01*
X0188587Y0076368D01*
X0144587Y0076368D01*
X0143687Y0077268D01*
X0143687Y0077287D01*
X0143132Y0077823D01*
X0142587Y0078368D01*
X0142569Y0078368D01*
X0128200Y0092274D01*
X0128200Y0101945D01*
X0128219Y0102709D01*
X0128200Y0102728D01*
X0128200Y0102755D01*
X0127660Y0103295D01*
X0118200Y0113228D01*
X0118200Y0118181D01*
X0121832Y0121814D01*
X0122425Y0121569D01*
X0124175Y0121569D01*
X0125792Y0122238D01*
X0127030Y0123476D01*
X0127700Y0125093D01*
X0127700Y0126844D01*
X0127030Y0128461D01*
X0125792Y0129699D01*
X0124175Y0130368D01*
X0122425Y0130368D01*
X0120808Y0129699D01*
X0119570Y0128461D01*
X0118900Y0126844D01*
X0118900Y0125093D01*
X0119145Y0124501D01*
X0114400Y0119755D01*
X0114400Y0114055D01*
X0109700Y0118755D01*
X0109700Y0123346D01*
X0110808Y0122238D01*
X0112425Y0121569D01*
X0114175Y0121569D01*
X0115792Y0122238D01*
X0117030Y0123476D01*
X0117700Y0125093D01*
X0117700Y0126844D01*
X0117030Y0128461D01*
X0115792Y0129699D01*
X0114175Y0130368D01*
X0112425Y0130368D01*
X0110808Y0129699D01*
X0109700Y0128591D01*
X0109700Y0128755D01*
X0108587Y0129868D01*
X0106005Y0132451D01*
X0107030Y0133476D01*
X0107700Y0135093D01*
X0107700Y0136844D01*
X0107030Y0138461D01*
X0105792Y0139699D01*
X0104175Y0140368D01*
X0102425Y0140368D01*
X0100808Y0139699D01*
X0099570Y0138461D01*
X0098900Y0136844D01*
X0098900Y0135093D01*
X0099570Y0133476D01*
X0100808Y0132238D01*
X0101400Y0131993D01*
X0101400Y0131681D01*
X0102713Y0130368D01*
X0102425Y0130368D01*
X0100808Y0129699D01*
X0099570Y0128461D01*
X0098900Y0126844D01*
X0098900Y0125093D01*
X0099570Y0123476D01*
X0100808Y0122238D01*
X0101400Y0121993D01*
X0101400Y0118681D01*
X0120400Y0099681D01*
X0120400Y0089483D01*
X0120388Y0088711D01*
X0120400Y0088699D01*
X0120400Y0088681D01*
X0120946Y0088135D01*
X0136400Y0072199D01*
X0136400Y0072181D01*
X0136946Y0071635D01*
X0137484Y0071081D01*
X0137501Y0071081D01*
X0140013Y0068569D01*
X0185013Y0068569D01*
X0192604Y0060978D01*
X0192576Y0057321D01*
X0190314Y0057321D01*
X0189249Y0056880D01*
X0188588Y0056219D01*
X0187960Y0056219D01*
X0187140Y0055399D01*
X0187140Y0054968D01*
X0186043Y0054968D01*
X0186043Y0055399D01*
X0185222Y0056219D01*
X0184604Y0056219D01*
X0183944Y0056880D01*
X0182878Y0057321D01*
X0174724Y0057321D01*
X0173658Y0056880D01*
X0172997Y0056219D01*
X0172370Y0056219D01*
X0171550Y0055399D01*
X0171550Y0054968D01*
X0170452Y0054968D01*
X0170452Y0055399D01*
X0169632Y0056219D01*
X0169014Y0056219D01*
X0168353Y0056880D01*
X0167287Y0057321D01*
X0164700Y0057321D01*
X0164700Y0059755D01*
X0163587Y0060868D01*
X0159087Y0065368D01*
X0135587Y0065368D01*
X0127587Y0073368D01*
X0121087Y0073368D01*
X0118700Y0075755D01*
X0118700Y0099755D01*
X0117587Y0100868D01*
X0104087Y0114368D01*
X0090087Y0114368D01*
X0078200Y0126255D01*
X0078200Y0132755D01*
X0077087Y0133868D01*
X0075648Y0135307D01*
X0075800Y0135673D01*
X0075800Y0137264D01*
X0075191Y0138734D01*
X0074066Y0139860D01*
X0072596Y0140468D01*
X0071004Y0140468D01*
X0069534Y0139860D01*
X0068409Y0138734D01*
X0067800Y0137264D01*
X0067800Y0135673D01*
X0068409Y0134203D01*
X0069534Y0133077D01*
X0071004Y0132469D01*
X0072596Y0132469D01*
X0072961Y0132620D01*
X0074400Y0131181D01*
X0074400Y0129525D01*
X0074066Y0129860D01*
X0072596Y0130468D01*
X0071004Y0130468D01*
X0069534Y0129860D01*
X0068409Y0128734D01*
X0067800Y0127264D01*
X0067800Y0125673D01*
X0068409Y0124203D01*
X0069534Y0123077D01*
X0071004Y0122469D01*
X0072596Y0122469D01*
X0072961Y0122620D01*
X0077213Y0118368D01*
X0075343Y0118368D01*
X0075191Y0118734D01*
X0074066Y0119860D01*
X0072596Y0120468D01*
X0071004Y0120468D01*
X0069534Y0119860D01*
X0068409Y0118734D01*
X0067800Y0117264D01*
X0067800Y0115673D01*
X0068409Y0114203D01*
X0069534Y0113077D01*
X0071004Y0112469D01*
X0072596Y0112469D01*
X0074066Y0113077D01*
X0075191Y0114203D01*
X0075343Y0114569D01*
X0078013Y0114569D01*
X0084900Y0107681D01*
X0086013Y0106569D01*
X0100513Y0106569D01*
X0110900Y0096181D01*
X0110900Y0072181D01*
X0116400Y0066681D01*
X0117513Y0065569D01*
X0124013Y0065569D01*
X0130400Y0059181D01*
X0130400Y0057321D01*
X0127952Y0057321D01*
X0126886Y0056880D01*
X0126226Y0056219D01*
X0125598Y0056219D01*
X0124778Y0055399D01*
X0124778Y0054968D01*
X0123680Y0054968D01*
X0123680Y0055399D01*
X0122860Y0056219D01*
X0122242Y0056219D01*
X0121581Y0056880D01*
X0120515Y0057321D01*
X0112362Y0057321D01*
X0111296Y0056880D01*
X0110635Y0056219D01*
X0110007Y0056219D01*
X0109187Y0055399D01*
X0109187Y0054968D01*
X0108090Y0054968D01*
X0108090Y0055399D01*
X0107270Y0056219D01*
X0106652Y0056219D01*
X0105991Y0056880D01*
X0104925Y0057321D01*
X0096771Y0057321D01*
X0095705Y0056880D01*
X0095044Y0056219D01*
X0094417Y0056219D01*
X0093597Y0055399D01*
X0093597Y0054968D01*
X0092499Y0054968D01*
X0092499Y0055399D01*
X0091679Y0056219D01*
X0091061Y0056219D01*
X0090400Y0056880D01*
X0089334Y0057321D01*
X0081181Y0057321D01*
X0080115Y0056880D01*
X0079696Y0056461D01*
X0075228Y0056461D01*
X0074810Y0056880D01*
X0073744Y0057321D01*
X0065590Y0057321D01*
X0064524Y0056880D01*
X0063863Y0056219D01*
X0063236Y0056219D01*
X0062416Y0055399D01*
X0062416Y0054969D01*
X0061318Y0054969D01*
X0061318Y0055399D01*
X0060498Y0056219D01*
X0060344Y0056219D01*
X0060140Y0056525D01*
X0059680Y0056985D01*
X0059140Y0057346D01*
X0058539Y0057594D01*
X0057901Y0057721D01*
X0054876Y0057721D01*
X0054876Y0056219D01*
X0053276Y0056219D01*
X0053276Y0057721D01*
X0050251Y0057721D01*
X0049614Y0057594D01*
X0049013Y0057346D01*
X0048473Y0056985D01*
X0048013Y0056525D01*
X0047809Y0056219D01*
X0047645Y0056219D01*
X0046825Y0055399D01*
X0046825Y0054969D01*
X0045728Y0054969D01*
X0045728Y0055399D01*
X0044907Y0056219D01*
X0044289Y0056219D01*
X0043629Y0056880D01*
X0043186Y0057063D01*
X0043186Y0063662D01*
X0042470Y0065390D01*
X0041065Y0066795D01*
X0039337Y0067511D01*
X0037467Y0067511D01*
X0035740Y0066795D01*
X0034418Y0065473D01*
X0033702Y0063746D01*
X0033702Y0061876D01*
X0033786Y0061675D01*
X0033786Y0057063D01*
X0033343Y0056880D01*
X0032682Y0056219D01*
X0032055Y0056219D01*
X0031235Y0055399D01*
X0031235Y0054969D01*
X0027998Y0054969D01*
X0027998Y0285267D01*
X0377154Y0285267D01*
X0377154Y0054969D01*
X0373129Y0054969D01*
X0373129Y0055399D01*
X0372309Y0056219D01*
X0371691Y0056219D01*
X0371030Y0056880D01*
X0370673Y0057028D01*
X0370702Y0060801D01*
X0370797Y0061300D01*
X0370709Y0061726D01*
X0370713Y0062162D01*
X0370522Y0062633D01*
X0370213Y0064124D01*
X0369162Y0065671D01*
X0367599Y0066697D01*
X0365763Y0067048D01*
X0363932Y0066669D01*
X0362385Y0065618D01*
X0361359Y0064055D01*
X0361008Y0062219D01*
X0361302Y0060800D01*
X0361273Y0057099D01*
X0360745Y0056880D01*
X0360084Y0056219D01*
X0359456Y0056219D01*
X0358636Y0055399D01*
X0358636Y0054969D01*
X0357539Y0054969D01*
X0357539Y0055399D01*
X0356718Y0056219D01*
X0356100Y0056219D01*
X0355440Y0056880D01*
X0354374Y0057321D01*
X0351700Y0057321D01*
X0351700Y0058255D01*
X0350587Y0059368D01*
X0348587Y0061368D01*
X0335087Y0061368D01*
X0327087Y0069368D01*
X0329547Y0066909D02*
X0365092Y0066909D01*
X0362183Y0065310D02*
X0331145Y0065310D01*
X0332744Y0063712D02*
X0361293Y0063712D01*
X0361030Y0062113D02*
X0334342Y0062113D01*
X0349441Y0060515D02*
X0361300Y0060515D01*
X0361287Y0058916D02*
X0351039Y0058916D01*
X0354382Y0057318D02*
X0361275Y0057318D01*
X0358957Y0055719D02*
X0357218Y0055719D01*
X0370675Y0057318D02*
X0377154Y0057318D01*
X0377154Y0058916D02*
X0370688Y0058916D01*
X0370700Y0060515D02*
X0377154Y0060515D01*
X0377154Y0062113D02*
X0370712Y0062113D01*
X0370298Y0063712D02*
X0377154Y0063712D01*
X0377154Y0065310D02*
X0369407Y0065310D01*
X0377154Y0070106D02*
X0280850Y0070106D01*
X0279251Y0071704D02*
X0377154Y0071704D01*
X0377154Y0073303D02*
X0277652Y0073303D01*
X0276054Y0074902D02*
X0377154Y0074902D01*
X0377154Y0076500D02*
X0274455Y0076500D01*
X0268790Y0078099D02*
X0377154Y0078099D01*
X0377154Y0079697D02*
X0209892Y0079697D01*
X0209337Y0081226D02*
X0209337Y0081226D01*
X0209337Y0081226D01*
X0209193Y0081296D02*
X0377154Y0081296D01*
X0377154Y0082894D02*
X0200535Y0082894D01*
X0199065Y0082894D02*
X0137892Y0082894D01*
X0136241Y0084493D02*
X0377154Y0084493D01*
X0377154Y0086091D02*
X0364579Y0086091D01*
X0364566Y0086077D02*
X0365691Y0087203D01*
X0366300Y0088673D01*
X0366300Y0090264D01*
X0365691Y0091734D01*
X0364566Y0092860D01*
X0363096Y0093468D01*
X0361504Y0093468D01*
X0361139Y0093317D01*
X0358087Y0096368D01*
X0334857Y0096368D01*
X0335691Y0097203D01*
X0336300Y0098673D01*
X0336300Y0100264D01*
X0335691Y0101734D01*
X0334566Y0102860D01*
X0333096Y0103468D01*
X0331504Y0103468D01*
X0330034Y0102860D01*
X0328909Y0101734D01*
X0328300Y0100264D01*
X0328300Y0098673D01*
X0328909Y0097203D01*
X0329743Y0096368D01*
X0325857Y0096368D01*
X0326691Y0097203D01*
X0327300Y0098673D01*
X0327300Y0100264D01*
X0326691Y0101734D01*
X0325566Y0102860D01*
X0324096Y0103468D01*
X0322504Y0103468D01*
X0321034Y0102860D01*
X0319909Y0101734D01*
X0319300Y0100264D01*
X0319300Y0098673D01*
X0319909Y0097203D01*
X0320743Y0096368D01*
X0320513Y0096368D01*
X0319400Y0095255D01*
X0318900Y0094755D01*
X0315513Y0091368D01*
X0310843Y0091368D01*
X0310691Y0091734D01*
X0309566Y0092860D01*
X0308096Y0093468D01*
X0306504Y0093468D01*
X0305034Y0092860D01*
X0303909Y0091734D01*
X0303300Y0090264D01*
X0303300Y0088673D01*
X0303909Y0087203D01*
X0305034Y0086077D01*
X0306504Y0085469D01*
X0308096Y0085469D01*
X0309566Y0086077D01*
X0310691Y0087203D01*
X0310843Y0087569D01*
X0317087Y0087569D01*
X0318900Y0089382D01*
X0318900Y0089122D01*
X0319008Y0088438D01*
X0319222Y0087779D01*
X0319537Y0087162D01*
X0319944Y0086602D01*
X0320434Y0086112D01*
X0320994Y0085705D01*
X0321611Y0085391D01*
X0322270Y0085177D01*
X0322954Y0085069D01*
X0323300Y0085068D01*
X0323300Y0089468D01*
X0323300Y0085069D01*
X0323646Y0085069D01*
X0324330Y0085177D01*
X0324989Y0085391D01*
X0325606Y0085705D01*
X0326166Y0086112D01*
X0326656Y0086602D01*
X0327063Y0087162D01*
X0327378Y0087779D01*
X0327592Y0088438D01*
X0327700Y0089122D01*
X0327700Y0089468D01*
X0323300Y0089468D01*
X0323300Y0089468D01*
X0323300Y0089469D01*
X0327700Y0089469D01*
X0327700Y0089815D01*
X0327592Y0090499D01*
X0327378Y0091158D01*
X0327063Y0091775D01*
X0326656Y0092335D01*
X0326423Y0092569D01*
X0329177Y0092569D01*
X0328944Y0092335D01*
X0328537Y0091775D01*
X0328222Y0091158D01*
X0328008Y0090499D01*
X0327900Y0089815D01*
X0327900Y0089469D01*
X0332300Y0089469D01*
X0336700Y0089469D01*
X0336700Y0089815D01*
X0336592Y0090499D01*
X0336378Y0091158D01*
X0336063Y0091775D01*
X0335656Y0092335D01*
X0335423Y0092569D01*
X0356513Y0092569D01*
X0358452Y0090630D01*
X0358300Y0090264D01*
X0358300Y0088673D01*
X0358909Y0087203D01*
X0360034Y0086077D01*
X0361504Y0085469D01*
X0363096Y0085469D01*
X0364566Y0086077D01*
X0365893Y0087690D02*
X0377154Y0087690D01*
X0377154Y0089288D02*
X0366300Y0089288D01*
X0366042Y0090887D02*
X0377154Y0090887D01*
X0377154Y0092485D02*
X0364940Y0092485D01*
X0363611Y0095682D02*
X0377154Y0095682D01*
X0377154Y0094084D02*
X0360372Y0094084D01*
X0360989Y0095682D02*
X0358773Y0095682D01*
X0360034Y0096077D02*
X0361504Y0095469D01*
X0363096Y0095469D01*
X0364566Y0096077D01*
X0365691Y0097203D01*
X0366300Y0098673D01*
X0366300Y0100264D01*
X0365691Y0101734D01*
X0364566Y0102860D01*
X0363096Y0103468D01*
X0361504Y0103468D01*
X0360034Y0102860D01*
X0358909Y0101734D01*
X0358300Y0100264D01*
X0358300Y0098673D01*
X0358909Y0097203D01*
X0360034Y0096077D01*
X0358877Y0097281D02*
X0335723Y0097281D01*
X0336300Y0098879D02*
X0358300Y0098879D01*
X0358388Y0100478D02*
X0336212Y0100478D01*
X0335349Y0102076D02*
X0359251Y0102076D01*
X0361504Y0105469D02*
X0363096Y0105469D01*
X0364566Y0106077D01*
X0365691Y0107203D01*
X0366300Y0108673D01*
X0366300Y0110264D01*
X0365691Y0111734D01*
X0364566Y0112860D01*
X0363096Y0113468D01*
X0361504Y0113468D01*
X0360034Y0112860D01*
X0358909Y0111734D01*
X0358300Y0110264D01*
X0358300Y0108673D01*
X0358909Y0107203D01*
X0360034Y0106077D01*
X0361504Y0105469D01*
X0359240Y0106872D02*
X0335360Y0106872D01*
X0335691Y0107203D02*
X0336300Y0108673D01*
X0336300Y0110264D01*
X0335691Y0111734D01*
X0334857Y0112569D01*
X0339087Y0112569D01*
X0340200Y0113681D01*
X0344087Y0117569D01*
X0358757Y0117569D01*
X0358909Y0117203D01*
X0360034Y0116077D01*
X0361504Y0115469D01*
X0363096Y0115469D01*
X0364566Y0116077D01*
X0365691Y0117203D01*
X0366300Y0118673D01*
X0366300Y0120264D01*
X0365691Y0121734D01*
X0364566Y0122860D01*
X0363096Y0123468D01*
X0361504Y0123468D01*
X0360034Y0122860D01*
X0358909Y0121734D01*
X0358757Y0121368D01*
X0342513Y0121368D01*
X0337513Y0116368D01*
X0334857Y0116368D01*
X0335691Y0117203D01*
X0336300Y0118673D01*
X0336300Y0120264D01*
X0335691Y0121734D01*
X0334566Y0122860D01*
X0333096Y0123468D01*
X0331504Y0123468D01*
X0330034Y0122860D01*
X0328909Y0121734D01*
X0328300Y0120264D01*
X0328300Y0118673D01*
X0328909Y0117203D01*
X0329743Y0116368D01*
X0324513Y0116368D01*
X0314513Y0106368D01*
X0309857Y0106368D01*
X0310691Y0107203D01*
X0311300Y0108673D01*
X0311300Y0110264D01*
X0310691Y0111734D01*
X0309566Y0112860D01*
X0308096Y0113468D01*
X0306504Y0113468D01*
X0305034Y0112860D01*
X0303909Y0111734D01*
X0303300Y0110264D01*
X0303300Y0108673D01*
X0303909Y0107203D01*
X0304743Y0106368D01*
X0279857Y0106368D01*
X0280691Y0107203D01*
X0281300Y0108673D01*
X0281300Y0110264D01*
X0280691Y0111734D01*
X0279857Y0112569D01*
X0303087Y0112569D01*
X0306139Y0115620D01*
X0306504Y0115469D01*
X0308096Y0115469D01*
X0309566Y0116077D01*
X0310691Y0117203D01*
X0311300Y0118673D01*
X0311300Y0120264D01*
X0310691Y0121734D01*
X0309857Y0122569D01*
X0328087Y0122569D01*
X0331139Y0125620D01*
X0331504Y0125469D01*
X0333096Y0125469D01*
X0334566Y0126077D01*
X0335691Y0127203D01*
X0336300Y0128673D01*
X0336300Y0130264D01*
X0335691Y0131734D01*
X0334566Y0132860D01*
X0333096Y0133468D01*
X0331504Y0133468D01*
X0330034Y0132860D01*
X0328909Y0131734D01*
X0328300Y0130264D01*
X0328300Y0128673D01*
X0328452Y0128307D01*
X0326513Y0126368D01*
X0309857Y0126368D01*
X0310691Y0127203D01*
X0311300Y0128673D01*
X0311300Y0130264D01*
X0310691Y0131734D01*
X0309857Y0132569D01*
X0316087Y0132569D01*
X0326087Y0142569D01*
X0329743Y0142569D01*
X0328909Y0141734D01*
X0328300Y0140264D01*
X0328300Y0138673D01*
X0328909Y0137203D01*
X0330034Y0136077D01*
X0331504Y0135469D01*
X0333096Y0135469D01*
X0334566Y0136077D01*
X0335691Y0137203D01*
X0336300Y0138673D01*
X0336300Y0140264D01*
X0335691Y0141734D01*
X0334857Y0142569D01*
X0358087Y0142569D01*
X0361139Y0145620D01*
X0361504Y0145469D01*
X0363096Y0145469D01*
X0364566Y0146077D01*
X0365691Y0147203D01*
X0366300Y0148673D01*
X0366300Y0150264D01*
X0365691Y0151734D01*
X0364566Y0152860D01*
X0363096Y0153468D01*
X0361504Y0153468D01*
X0360034Y0152860D01*
X0358909Y0151734D01*
X0358300Y0150264D01*
X0358300Y0148673D01*
X0358452Y0148307D01*
X0356513Y0146368D01*
X0334857Y0146368D01*
X0335691Y0147203D01*
X0336300Y0148673D01*
X0336300Y0150264D01*
X0335691Y0151734D01*
X0334566Y0152860D01*
X0333096Y0153468D01*
X0331504Y0153468D01*
X0330034Y0152860D01*
X0328909Y0151734D01*
X0328300Y0150264D01*
X0328300Y0148673D01*
X0328909Y0147203D01*
X0329743Y0146368D01*
X0324513Y0146368D01*
X0323400Y0145255D01*
X0314513Y0136368D01*
X0309857Y0136368D01*
X0310691Y0137203D01*
X0311300Y0138673D01*
X0311300Y0140264D01*
X0310691Y0141734D01*
X0309566Y0142860D01*
X0308096Y0143468D01*
X0306504Y0143468D01*
X0305034Y0142860D01*
X0303909Y0141734D01*
X0303300Y0140264D01*
X0303300Y0138673D01*
X0303909Y0137203D01*
X0304743Y0136368D01*
X0279857Y0136368D01*
X0280691Y0137203D01*
X0281300Y0138673D01*
X0281300Y0140264D01*
X0280691Y0141734D01*
X0279566Y0142860D01*
X0279061Y0143069D01*
X0303587Y0143069D01*
X0306139Y0145620D01*
X0306504Y0145469D01*
X0308096Y0145469D01*
X0309566Y0146077D01*
X0310691Y0147203D01*
X0311300Y0148673D01*
X0311300Y0150264D01*
X0310691Y0151734D01*
X0309857Y0152569D01*
X0328087Y0152569D01*
X0331139Y0155620D01*
X0331504Y0155469D01*
X0333096Y0155469D01*
X0334566Y0156077D01*
X0335691Y0157203D01*
X0336300Y0158673D01*
X0336300Y0160264D01*
X0335691Y0161734D01*
X0334566Y0162860D01*
X0333096Y0163468D01*
X0331504Y0163468D01*
X0330034Y0162860D01*
X0328909Y0161734D01*
X0328300Y0160264D01*
X0328300Y0158673D01*
X0328452Y0158307D01*
X0326513Y0156368D01*
X0309857Y0156368D01*
X0310691Y0157203D01*
X0311300Y0158673D01*
X0311300Y0160264D01*
X0310691Y0161734D01*
X0309566Y0162860D01*
X0308096Y0163468D01*
X0306504Y0163468D01*
X0305034Y0162860D01*
X0303909Y0161734D01*
X0303300Y0160264D01*
X0303300Y0158673D01*
X0303909Y0157203D01*
X0304743Y0156368D01*
X0279857Y0156368D01*
X0280691Y0157203D01*
X0281300Y0158673D01*
X0281300Y0160264D01*
X0280691Y0161734D01*
X0279566Y0162860D01*
X0278096Y0163468D01*
X0276504Y0163468D01*
X0276139Y0163317D01*
X0272587Y0166868D01*
X0242013Y0166868D01*
X0240900Y0165755D01*
X0231513Y0156368D01*
X0219061Y0156368D01*
X0219566Y0156577D01*
X0220691Y0157703D01*
X0221300Y0159173D01*
X0221300Y0160764D01*
X0220691Y0162234D01*
X0219566Y0163360D01*
X0218096Y0163968D01*
X0216504Y0163968D01*
X0215034Y0163360D01*
X0213909Y0162234D01*
X0213300Y0160764D01*
X0213300Y0159173D01*
X0213909Y0157703D01*
X0215034Y0156577D01*
X0215539Y0156368D01*
X0188561Y0156368D01*
X0189066Y0156577D01*
X0190191Y0157703D01*
X0190800Y0159173D01*
X0190800Y0160764D01*
X0190191Y0162234D01*
X0189066Y0163360D01*
X0187596Y0163968D01*
X0186004Y0163968D01*
X0184534Y0163360D01*
X0184143Y0162968D01*
X0177703Y0162968D01*
X0176601Y0162512D01*
X0175757Y0161668D01*
X0167057Y0152968D01*
X0159457Y0152968D01*
X0159066Y0153360D01*
X0157596Y0153968D01*
X0156004Y0153968D01*
X0154534Y0153360D01*
X0153409Y0152234D01*
X0152800Y0150764D01*
X0152800Y0149173D01*
X0153409Y0147703D01*
X0154534Y0146577D01*
X0156004Y0145969D01*
X0157596Y0145969D01*
X0159066Y0146577D01*
X0159457Y0146969D01*
X0168897Y0146969D01*
X0169999Y0147425D01*
X0179543Y0156969D01*
X0184143Y0156969D01*
X0184534Y0156577D01*
X0185039Y0156368D01*
X0179013Y0156368D01*
X0177900Y0155255D01*
X0164513Y0141868D01*
X0160343Y0141868D01*
X0160191Y0142234D01*
X0159066Y0143360D01*
X0157596Y0143968D01*
X0156004Y0143968D01*
X0154534Y0143360D01*
X0153409Y0142234D01*
X0152800Y0140764D01*
X0152800Y0139173D01*
X0153409Y0137703D01*
X0154534Y0136577D01*
X0156004Y0135969D01*
X0157596Y0135969D01*
X0159066Y0136577D01*
X0160191Y0137703D01*
X0160343Y0138069D01*
X0166087Y0138069D01*
X0180587Y0152569D01*
X0183743Y0152569D01*
X0183409Y0152234D01*
X0182800Y0150764D01*
X0182800Y0149173D01*
X0183409Y0147703D01*
X0184534Y0146577D01*
X0186004Y0145969D01*
X0187596Y0145969D01*
X0189066Y0146577D01*
X0190191Y0147703D01*
X0190800Y0149173D01*
X0190800Y0150764D01*
X0190191Y0152234D01*
X0189857Y0152569D01*
X0214243Y0152569D01*
X0213909Y0152234D01*
X0213300Y0150764D01*
X0213300Y0149173D01*
X0213909Y0147703D01*
X0215034Y0146577D01*
X0216504Y0145969D01*
X0218096Y0145969D01*
X0219566Y0146577D01*
X0220691Y0147703D01*
X0221300Y0149173D01*
X0221300Y0150764D01*
X0220691Y0152234D01*
X0220357Y0152569D01*
X0233087Y0152569D01*
X0243587Y0163069D01*
X0244743Y0163069D01*
X0243909Y0162234D01*
X0243300Y0160764D01*
X0243300Y0159173D01*
X0243909Y0157703D01*
X0245034Y0156577D01*
X0245539Y0156368D01*
X0240513Y0156368D01*
X0239400Y0155255D01*
X0229900Y0145755D01*
X0226013Y0141868D01*
X0220843Y0141868D01*
X0220691Y0142234D01*
X0219566Y0143360D01*
X0218096Y0143968D01*
X0216504Y0143968D01*
X0215034Y0143360D01*
X0213909Y0142234D01*
X0213300Y0140764D01*
X0213300Y0139173D01*
X0213909Y0137703D01*
X0214743Y0136868D01*
X0211513Y0136868D01*
X0210400Y0135755D01*
X0206513Y0131868D01*
X0190343Y0131868D01*
X0190191Y0132234D01*
X0189066Y0133360D01*
X0187596Y0133968D01*
X0186004Y0133968D01*
X0184534Y0133360D01*
X0183409Y0132234D01*
X0182800Y0130764D01*
X0182800Y0129173D01*
X0183409Y0127703D01*
X0184243Y0126868D01*
X0182013Y0126868D01*
X0179513Y0124368D01*
X0178400Y0123255D01*
X0178400Y0115755D01*
X0174513Y0111868D01*
X0160343Y0111868D01*
X0160191Y0112234D01*
X0159066Y0113360D01*
X0157596Y0113968D01*
X0156004Y0113968D01*
X0154534Y0113360D01*
X0153409Y0112234D01*
X0152800Y0110764D01*
X0152800Y0109173D01*
X0153409Y0107703D01*
X0153743Y0107368D01*
X0150087Y0107368D01*
X0147700Y0109755D01*
X0147700Y0153255D01*
X0130252Y0170704D01*
X0129784Y0171993D01*
X0129784Y0172062D01*
X0129583Y0172549D01*
X0129533Y0172687D01*
X0129337Y0173226D01*
X0129198Y0173291D01*
X0128490Y0173998D01*
X0127394Y0174453D01*
X0126206Y0174453D01*
X0125110Y0173998D01*
X0124270Y0173159D01*
X0123816Y0172062D01*
X0123816Y0170875D01*
X0124270Y0169778D01*
X0124978Y0169070D01*
X0125043Y0168931D01*
X0125720Y0168686D01*
X0126206Y0168484D01*
X0126276Y0168484D01*
X0127565Y0168017D01*
X0143900Y0151681D01*
X0143900Y0108181D01*
X0145013Y0107069D01*
X0147400Y0104681D01*
X0147979Y0104103D01*
X0147096Y0104468D01*
X0145504Y0104468D01*
X0144034Y0103860D01*
X0142909Y0102734D01*
X0142300Y0101264D01*
X0142300Y0099673D01*
X0142909Y0098203D01*
X0144034Y0097077D01*
X0145504Y0096469D01*
X0147096Y0096469D01*
X0148566Y0097077D01*
X0149691Y0098203D01*
X0150300Y0099673D01*
X0150300Y0101264D01*
X0149691Y0102734D01*
X0148857Y0103569D01*
X0155039Y0103569D01*
X0154534Y0103360D01*
X0153409Y0102234D01*
X0152800Y0100764D01*
X0152800Y0099173D01*
X0153409Y0097703D01*
X0154534Y0096577D01*
X0156004Y0095969D01*
X0157596Y0095969D01*
X0159066Y0096577D01*
X0160191Y0097703D01*
X0160800Y0099173D01*
X0160800Y0100764D01*
X0160191Y0102234D01*
X0159066Y0103360D01*
X0158561Y0103569D01*
X0170513Y0103569D01*
X0182952Y0091130D01*
X0182800Y0090764D01*
X0182800Y0089173D01*
X0183409Y0087703D01*
X0184534Y0086577D01*
X0186004Y0085969D01*
X0187596Y0085969D01*
X0189066Y0086577D01*
X0190191Y0087703D01*
X0190800Y0089173D01*
X0190800Y0090764D01*
X0190648Y0091130D01*
X0192587Y0093069D01*
X0205177Y0093069D01*
X0204944Y0092835D01*
X0204537Y0092275D01*
X0204222Y0091658D01*
X0204008Y0090999D01*
X0203900Y0090315D01*
X0203900Y0089969D01*
X0208300Y0089969D01*
X0212700Y0089969D01*
X0212700Y0090315D01*
X0212592Y0090999D01*
X0212378Y0091658D01*
X0212063Y0092275D01*
X0211656Y0092835D01*
X0211423Y0093069D01*
X0214177Y0093069D01*
X0213944Y0092835D01*
X0213537Y0092275D01*
X0213222Y0091658D01*
X0213008Y0090999D01*
X0212900Y0090315D01*
X0212900Y0089969D01*
X0217300Y0089969D01*
X0221700Y0089969D01*
X0221700Y0090315D01*
X0221592Y0090999D01*
X0221378Y0091658D01*
X0221063Y0092275D01*
X0220656Y0092835D01*
X0220423Y0093069D01*
X0228013Y0093069D01*
X0231900Y0089181D01*
X0233013Y0088069D01*
X0243757Y0088069D01*
X0243909Y0087703D01*
X0245034Y0086577D01*
X0246504Y0085969D01*
X0248096Y0085969D01*
X0249566Y0086577D01*
X0250691Y0087703D01*
X0251300Y0089173D01*
X0251300Y0090764D01*
X0250691Y0092234D01*
X0249566Y0093360D01*
X0248096Y0093968D01*
X0246504Y0093968D01*
X0245034Y0093360D01*
X0243909Y0092234D01*
X0243757Y0091868D01*
X0234587Y0091868D01*
X0229587Y0096868D01*
X0219857Y0096868D01*
X0220691Y0097703D01*
X0221300Y0099173D01*
X0221300Y0100764D01*
X0220691Y0102234D01*
X0219857Y0103069D01*
X0244743Y0103069D01*
X0243909Y0102234D01*
X0243300Y0100764D01*
X0243300Y0099173D01*
X0243909Y0097703D01*
X0245034Y0096577D01*
X0246504Y0095969D01*
X0248096Y0095969D01*
X0249566Y0096577D01*
X0250691Y0097703D01*
X0250843Y0098069D01*
X0261087Y0098069D01*
X0262200Y0099181D01*
X0265587Y0102569D01*
X0265743Y0102569D01*
X0264909Y0101734D01*
X0264300Y0100264D01*
X0264300Y0098673D01*
X0264909Y0097203D01*
X0266034Y0096077D01*
X0267504Y0095469D01*
X0269096Y0095469D01*
X0270566Y0096077D01*
X0271691Y0097203D01*
X0272300Y0098673D01*
X0272300Y0100264D01*
X0271691Y0101734D01*
X0270857Y0102569D01*
X0274743Y0102569D01*
X0273909Y0101734D01*
X0273300Y0100264D01*
X0273300Y0098673D01*
X0273909Y0097203D01*
X0275034Y0096077D01*
X0276504Y0095469D01*
X0278096Y0095469D01*
X0279566Y0096077D01*
X0280691Y0097203D01*
X0281300Y0098673D01*
X0281300Y0100264D01*
X0280691Y0101734D01*
X0279857Y0102569D01*
X0304743Y0102569D01*
X0303909Y0101734D01*
X0303300Y0100264D01*
X0303300Y0098673D01*
X0303909Y0097203D01*
X0305034Y0096077D01*
X0306504Y0095469D01*
X0308096Y0095469D01*
X0309566Y0096077D01*
X0310691Y0097203D01*
X0311300Y0098673D01*
X0311300Y0100264D01*
X0310691Y0101734D01*
X0309857Y0102569D01*
X0316087Y0102569D01*
X0317200Y0103681D01*
X0326087Y0112569D01*
X0329743Y0112569D01*
X0328909Y0111734D01*
X0328300Y0110264D01*
X0328300Y0108673D01*
X0328909Y0107203D01*
X0330034Y0106077D01*
X0331504Y0105469D01*
X0333096Y0105469D01*
X0334566Y0106077D01*
X0335691Y0107203D01*
X0336216Y0108470D02*
X0358384Y0108470D01*
X0358300Y0110069D02*
X0336300Y0110069D01*
X0335719Y0111667D02*
X0358881Y0111667D01*
X0361015Y0113266D02*
X0339784Y0113266D01*
X0341383Y0114864D02*
X0377154Y0114864D01*
X0377154Y0113266D02*
X0363585Y0113266D01*
X0365719Y0111667D02*
X0377154Y0111667D01*
X0377154Y0110069D02*
X0366300Y0110069D01*
X0366216Y0108470D02*
X0377154Y0108470D01*
X0377154Y0106872D02*
X0365360Y0106872D01*
X0365349Y0102076D02*
X0377154Y0102076D01*
X0377154Y0100478D02*
X0366212Y0100478D01*
X0366300Y0098879D02*
X0377154Y0098879D01*
X0377154Y0097281D02*
X0365723Y0097281D01*
X0358195Y0090887D02*
X0336466Y0090887D01*
X0336700Y0089468D02*
X0332300Y0089468D01*
X0332300Y0085069D01*
X0332646Y0085069D01*
X0333330Y0085177D01*
X0333989Y0085391D01*
X0334606Y0085705D01*
X0335166Y0086112D01*
X0335656Y0086602D01*
X0336063Y0087162D01*
X0336378Y0087779D01*
X0336592Y0088438D01*
X0336700Y0089122D01*
X0336700Y0089468D01*
X0336700Y0089288D02*
X0358300Y0089288D01*
X0358707Y0087690D02*
X0336332Y0087690D01*
X0335137Y0086091D02*
X0360021Y0086091D01*
X0356596Y0092485D02*
X0335506Y0092485D01*
X0332300Y0089469D02*
X0332300Y0089468D01*
X0332300Y0089468D01*
X0332300Y0085069D01*
X0331954Y0085069D01*
X0331270Y0085177D01*
X0330611Y0085391D01*
X0329994Y0085705D01*
X0329434Y0086112D01*
X0328944Y0086602D01*
X0328537Y0087162D01*
X0328222Y0087779D01*
X0328008Y0088438D01*
X0327900Y0089122D01*
X0327900Y0089468D01*
X0332300Y0089468D01*
X0332300Y0089469D01*
X0332300Y0089288D02*
X0332300Y0089288D01*
X0332300Y0087690D02*
X0332300Y0087690D01*
X0332300Y0086091D02*
X0332300Y0086091D01*
X0329463Y0086091D02*
X0326137Y0086091D01*
X0327332Y0087690D02*
X0328268Y0087690D01*
X0327900Y0089288D02*
X0327700Y0089288D01*
X0327466Y0090887D02*
X0328134Y0090887D01*
X0329094Y0092485D02*
X0326506Y0092485D01*
X0323300Y0089288D02*
X0323300Y0089288D01*
X0323300Y0087690D02*
X0323300Y0087690D01*
X0323300Y0086091D02*
X0323300Y0086091D01*
X0320463Y0086091D02*
X0309579Y0086091D01*
X0305021Y0086091D02*
X0280137Y0086091D01*
X0280166Y0086112D02*
X0280656Y0086602D01*
X0281063Y0087162D01*
X0281378Y0087779D01*
X0281592Y0088438D01*
X0281700Y0089122D01*
X0281700Y0089468D01*
X0277300Y0089468D01*
X0277300Y0085069D01*
X0277646Y0085069D01*
X0278330Y0085177D01*
X0278989Y0085391D01*
X0279606Y0085705D01*
X0280166Y0086112D01*
X0281332Y0087690D02*
X0303707Y0087690D01*
X0303300Y0089288D02*
X0281700Y0089288D01*
X0281700Y0089469D02*
X0281700Y0089815D01*
X0281592Y0090499D01*
X0281378Y0091158D01*
X0281063Y0091775D01*
X0280656Y0092335D01*
X0280166Y0092825D01*
X0279606Y0093232D01*
X0278989Y0093546D01*
X0278330Y0093760D01*
X0277646Y0093868D01*
X0277300Y0093868D01*
X0276954Y0093868D01*
X0276270Y0093760D01*
X0275611Y0093546D01*
X0274994Y0093232D01*
X0274434Y0092825D01*
X0273944Y0092335D01*
X0273537Y0091775D01*
X0273222Y0091158D01*
X0273008Y0090499D01*
X0272900Y0089815D01*
X0272900Y0089469D01*
X0277300Y0089469D01*
X0277300Y0093868D01*
X0277300Y0089469D01*
X0277300Y0089469D01*
X0281700Y0089469D01*
X0281466Y0090887D02*
X0303558Y0090887D01*
X0304660Y0092485D02*
X0280506Y0092485D01*
X0277300Y0092485D02*
X0277300Y0092485D01*
X0277300Y0090887D02*
X0277300Y0090887D01*
X0277300Y0089469D02*
X0277300Y0089468D01*
X0277300Y0089468D01*
X0277300Y0085069D01*
X0276954Y0085069D01*
X0276270Y0085177D01*
X0275611Y0085391D01*
X0274994Y0085705D01*
X0274434Y0086112D01*
X0273944Y0086602D01*
X0273537Y0087162D01*
X0273222Y0087779D01*
X0273008Y0088438D01*
X0272900Y0089122D01*
X0272900Y0089468D01*
X0277300Y0089468D01*
X0277300Y0089469D01*
X0277300Y0089288D02*
X0277300Y0089288D01*
X0277300Y0087690D02*
X0277300Y0087690D01*
X0277300Y0086091D02*
X0277300Y0086091D01*
X0274463Y0086091D02*
X0271137Y0086091D01*
X0271166Y0086112D02*
X0271656Y0086602D01*
X0272063Y0087162D01*
X0272378Y0087779D01*
X0272592Y0088438D01*
X0272700Y0089122D01*
X0272700Y0089468D01*
X0268300Y0089468D01*
X0268300Y0085069D01*
X0268646Y0085069D01*
X0269330Y0085177D01*
X0269989Y0085391D01*
X0270606Y0085705D01*
X0271166Y0086112D01*
X0272332Y0087690D02*
X0273268Y0087690D01*
X0272900Y0089288D02*
X0272700Y0089288D01*
X0272700Y0089469D02*
X0272700Y0089815D01*
X0272592Y0090499D01*
X0272378Y0091158D01*
X0272063Y0091775D01*
X0271656Y0092335D01*
X0271166Y0092825D01*
X0270606Y0093232D01*
X0269989Y0093546D01*
X0269330Y0093760D01*
X0268646Y0093868D01*
X0268300Y0093868D01*
X0267954Y0093868D01*
X0267270Y0093760D01*
X0266611Y0093546D01*
X0265994Y0093232D01*
X0265434Y0092825D01*
X0264944Y0092335D01*
X0264537Y0091775D01*
X0264222Y0091158D01*
X0264008Y0090499D01*
X0263900Y0089815D01*
X0263900Y0089469D01*
X0268300Y0089469D01*
X0268300Y0093868D01*
X0268300Y0089469D01*
X0268300Y0089469D01*
X0268300Y0089468D01*
X0268300Y0089468D01*
X0268300Y0085068D01*
X0267954Y0085069D01*
X0267270Y0085177D01*
X0266611Y0085391D01*
X0265994Y0085705D01*
X0265434Y0086112D01*
X0264944Y0086602D01*
X0264537Y0087162D01*
X0264222Y0087779D01*
X0264008Y0088438D01*
X0263900Y0089122D01*
X0263900Y0089468D01*
X0268300Y0089468D01*
X0268300Y0089469D01*
X0272700Y0089469D01*
X0272466Y0090887D02*
X0273134Y0090887D01*
X0274094Y0092485D02*
X0271506Y0092485D01*
X0268300Y0092485D02*
X0268300Y0092485D01*
X0268300Y0090887D02*
X0268300Y0090887D01*
X0268300Y0089288D02*
X0268300Y0089288D01*
X0268300Y0087690D02*
X0268300Y0087690D01*
X0268300Y0086091D02*
X0268300Y0086091D01*
X0265463Y0086091D02*
X0248392Y0086091D01*
X0246208Y0086091D02*
X0219382Y0086091D01*
X0219606Y0086205D02*
X0220166Y0086612D01*
X0220656Y0087102D01*
X0221063Y0087662D01*
X0221378Y0088279D01*
X0221592Y0088938D01*
X0221700Y0089622D01*
X0221700Y0089968D01*
X0217300Y0089968D01*
X0217300Y0085569D01*
X0217646Y0085569D01*
X0218330Y0085677D01*
X0218989Y0085891D01*
X0219606Y0086205D01*
X0221077Y0087690D02*
X0243922Y0087690D01*
X0244160Y0092485D02*
X0233970Y0092485D01*
X0232372Y0094084D02*
X0318228Y0094084D01*
X0319827Y0095682D02*
X0308611Y0095682D01*
X0305989Y0095682D02*
X0278611Y0095682D01*
X0275989Y0095682D02*
X0269611Y0095682D01*
X0266989Y0095682D02*
X0230773Y0095682D01*
X0228596Y0092485D02*
X0220910Y0092485D01*
X0221609Y0090887D02*
X0230195Y0090887D01*
X0231793Y0089288D02*
X0221647Y0089288D01*
X0217300Y0089288D02*
X0217300Y0089288D01*
X0217300Y0089968D02*
X0217300Y0089968D01*
X0217300Y0085569D01*
X0216954Y0085569D01*
X0216270Y0085677D01*
X0215611Y0085891D01*
X0214994Y0086205D01*
X0214434Y0086612D01*
X0213944Y0087102D01*
X0213537Y0087662D01*
X0213222Y0088279D01*
X0213008Y0088938D01*
X0212900Y0089622D01*
X0212900Y0089968D01*
X0217300Y0089968D01*
X0217300Y0089969D01*
X0217300Y0089968D01*
X0217300Y0087690D02*
X0217300Y0087690D01*
X0217300Y0086091D02*
X0217300Y0086091D01*
X0215218Y0086091D02*
X0210382Y0086091D01*
X0210606Y0086205D02*
X0211166Y0086612D01*
X0211656Y0087102D01*
X0212063Y0087662D01*
X0212378Y0088279D01*
X0212592Y0088938D01*
X0212700Y0089622D01*
X0212700Y0089968D01*
X0208300Y0089968D01*
X0208300Y0085569D01*
X0208646Y0085569D01*
X0209330Y0085677D01*
X0209989Y0085891D01*
X0210606Y0086205D01*
X0212077Y0087690D02*
X0213523Y0087690D01*
X0212953Y0089288D02*
X0212647Y0089288D01*
X0212609Y0090887D02*
X0212991Y0090887D01*
X0213690Y0092485D02*
X0211910Y0092485D01*
X0208300Y0089968D02*
X0208300Y0089969D01*
X0208300Y0089968D01*
X0208300Y0089968D01*
X0208300Y0085568D01*
X0207954Y0085569D01*
X0207270Y0085677D01*
X0206611Y0085891D01*
X0205994Y0086205D01*
X0205434Y0086612D01*
X0204944Y0087102D01*
X0204537Y0087662D01*
X0204222Y0088279D01*
X0204008Y0088938D01*
X0203900Y0089622D01*
X0203900Y0089968D01*
X0208300Y0089968D01*
X0208300Y0089288D02*
X0208300Y0089288D01*
X0208300Y0087690D02*
X0208300Y0087690D01*
X0208300Y0086091D02*
X0208300Y0086091D01*
X0206218Y0086091D02*
X0187892Y0086091D01*
X0185708Y0086091D02*
X0158882Y0086091D01*
X0159106Y0086205D02*
X0159666Y0086612D01*
X0160156Y0087102D01*
X0160563Y0087662D01*
X0160878Y0088279D01*
X0161092Y0088938D01*
X0161200Y0089622D01*
X0161200Y0089968D01*
X0156800Y0089968D01*
X0156800Y0085569D01*
X0157146Y0085569D01*
X0157830Y0085677D01*
X0158489Y0085891D01*
X0159106Y0086205D01*
X0160577Y0087690D02*
X0183422Y0087690D01*
X0182800Y0089288D02*
X0161147Y0089288D01*
X0161200Y0089969D02*
X0161200Y0090315D01*
X0161092Y0090999D01*
X0160878Y0091658D01*
X0160563Y0092275D01*
X0160156Y0092835D01*
X0159666Y0093325D01*
X0159106Y0093732D01*
X0158489Y0094046D01*
X0157830Y0094260D01*
X0157146Y0094368D01*
X0156800Y0094368D01*
X0156454Y0094368D01*
X0155770Y0094260D01*
X0155111Y0094046D01*
X0154494Y0093732D01*
X0153934Y0093325D01*
X0153444Y0092835D01*
X0153037Y0092275D01*
X0152722Y0091658D01*
X0152508Y0090999D01*
X0152400Y0090315D01*
X0152400Y0089969D01*
X0156800Y0089969D01*
X0156800Y0094368D01*
X0156800Y0089969D01*
X0156800Y0089969D01*
X0161200Y0089969D01*
X0161109Y0090887D02*
X0182851Y0090887D01*
X0181596Y0092485D02*
X0160410Y0092485D01*
X0158374Y0094084D02*
X0179998Y0094084D01*
X0178399Y0095682D02*
X0128200Y0095682D01*
X0128200Y0094084D02*
X0143790Y0094084D01*
X0143994Y0094232D02*
X0143434Y0093825D01*
X0142944Y0093335D01*
X0142537Y0092775D01*
X0142222Y0092158D01*
X0142008Y0091499D01*
X0141900Y0090815D01*
X0141900Y0090469D01*
X0146300Y0090469D01*
X0146300Y0094868D01*
X0145954Y0094868D01*
X0145270Y0094760D01*
X0144611Y0094546D01*
X0143994Y0094232D01*
X0146300Y0094084D02*
X0146300Y0094084D01*
X0146300Y0094868D02*
X0146300Y0090469D01*
X0146300Y0090469D01*
X0146300Y0090468D01*
X0146300Y0086069D01*
X0146646Y0086069D01*
X0147330Y0086177D01*
X0147989Y0086391D01*
X0148606Y0086705D01*
X0149166Y0087112D01*
X0149656Y0087602D01*
X0150063Y0088162D01*
X0150378Y0088779D01*
X0150592Y0089438D01*
X0150700Y0090122D01*
X0150700Y0090468D01*
X0146300Y0090468D01*
X0146300Y0090468D01*
X0146300Y0086068D01*
X0145954Y0086069D01*
X0145270Y0086177D01*
X0144611Y0086391D01*
X0143994Y0086705D01*
X0143434Y0087112D01*
X0142944Y0087602D01*
X0142537Y0088162D01*
X0142222Y0088779D01*
X0142008Y0089438D01*
X0141900Y0090122D01*
X0141900Y0090468D01*
X0146300Y0090468D01*
X0146300Y0090469D01*
X0150700Y0090469D01*
X0150700Y0090815D01*
X0150592Y0091499D01*
X0150378Y0092158D01*
X0150063Y0092775D01*
X0149656Y0093335D01*
X0149166Y0093825D01*
X0148606Y0094232D01*
X0147989Y0094546D01*
X0147330Y0094760D01*
X0146646Y0094868D01*
X0146300Y0094868D01*
X0146300Y0092485D02*
X0146300Y0092485D01*
X0146300Y0090887D02*
X0146300Y0090887D01*
X0146300Y0089288D02*
X0146300Y0089288D01*
X0146300Y0087690D02*
X0146300Y0087690D01*
X0146300Y0086091D02*
X0146300Y0086091D01*
X0146789Y0086091D02*
X0154718Y0086091D01*
X0154494Y0086205D02*
X0155111Y0085891D01*
X0155770Y0085677D01*
X0156454Y0085569D01*
X0156800Y0085569D01*
X0156800Y0089968D01*
X0156800Y0089968D01*
X0156800Y0089969D01*
X0156800Y0089968D01*
X0152400Y0089968D01*
X0152400Y0089622D01*
X0152508Y0088938D01*
X0152722Y0088279D01*
X0153037Y0087662D01*
X0153444Y0087102D01*
X0153934Y0086612D01*
X0154494Y0086205D01*
X0153023Y0087690D02*
X0149720Y0087690D01*
X0150543Y0089288D02*
X0152453Y0089288D01*
X0152491Y0090887D02*
X0150689Y0090887D01*
X0150211Y0092485D02*
X0153190Y0092485D01*
X0155226Y0094084D02*
X0148810Y0094084D01*
X0148769Y0097281D02*
X0153831Y0097281D01*
X0152922Y0098879D02*
X0149971Y0098879D01*
X0150300Y0100478D02*
X0152800Y0100478D01*
X0153343Y0102076D02*
X0149964Y0102076D01*
X0146808Y0105273D02*
X0125776Y0105273D01*
X0124254Y0106872D02*
X0145210Y0106872D01*
X0143900Y0108470D02*
X0122732Y0108470D01*
X0121209Y0110069D02*
X0143900Y0110069D01*
X0143900Y0111667D02*
X0119687Y0111667D01*
X0118200Y0113266D02*
X0143900Y0113266D01*
X0143900Y0114864D02*
X0118200Y0114864D01*
X0118200Y0116463D02*
X0143900Y0116463D01*
X0143900Y0118061D02*
X0118200Y0118061D01*
X0119678Y0119660D02*
X0143900Y0119660D01*
X0143900Y0121258D02*
X0121277Y0121258D01*
X0119100Y0124455D02*
X0117436Y0124455D01*
X0117501Y0122857D02*
X0116411Y0122857D01*
X0115903Y0121258D02*
X0109700Y0121258D01*
X0109700Y0119660D02*
X0114400Y0119660D01*
X0114400Y0118061D02*
X0110394Y0118061D01*
X0111993Y0116463D02*
X0114400Y0116463D01*
X0114400Y0114864D02*
X0113591Y0114864D01*
X0110013Y0110069D02*
X0108387Y0110069D01*
X0108414Y0111667D02*
X0106788Y0111667D01*
X0106816Y0113266D02*
X0105190Y0113266D01*
X0105217Y0114864D02*
X0089591Y0114864D01*
X0087993Y0116463D02*
X0103619Y0116463D01*
X0102020Y0118061D02*
X0086394Y0118061D01*
X0084796Y0119660D02*
X0101400Y0119660D01*
X0101400Y0121258D02*
X0083197Y0121258D01*
X0081599Y0122857D02*
X0100189Y0122857D01*
X0099164Y0124455D02*
X0080000Y0124455D01*
X0078402Y0126054D02*
X0098900Y0126054D01*
X0099235Y0127652D02*
X0078200Y0127652D01*
X0078200Y0129251D02*
X0100360Y0129251D01*
X0102232Y0130849D02*
X0078200Y0130849D01*
X0078200Y0132448D02*
X0100598Y0132448D01*
X0099334Y0134046D02*
X0076909Y0134046D01*
X0075788Y0135645D02*
X0098900Y0135645D01*
X0099066Y0137243D02*
X0075800Y0137243D01*
X0075083Y0138842D02*
X0099951Y0138842D01*
X0106649Y0138842D02*
X0109951Y0138842D01*
X0109570Y0138461D02*
X0108900Y0136844D01*
X0108900Y0135093D01*
X0109570Y0133476D01*
X0110808Y0132238D01*
X0112425Y0131569D01*
X0114175Y0131569D01*
X0115792Y0132238D01*
X0117030Y0133476D01*
X0117700Y0135093D01*
X0117700Y0136844D01*
X0117030Y0138461D01*
X0115792Y0139699D01*
X0114175Y0140368D01*
X0112425Y0140368D01*
X0110808Y0139699D01*
X0109570Y0138461D01*
X0109066Y0137243D02*
X0107534Y0137243D01*
X0107700Y0135645D02*
X0108900Y0135645D01*
X0109334Y0134046D02*
X0107266Y0134046D01*
X0106008Y0132448D02*
X0110598Y0132448D01*
X0110360Y0129251D02*
X0109205Y0129251D01*
X0107606Y0130849D02*
X0143900Y0130849D01*
X0143900Y0129251D02*
X0126240Y0129251D01*
X0127365Y0127652D02*
X0143900Y0127652D01*
X0143900Y0126054D02*
X0127700Y0126054D01*
X0127436Y0124455D02*
X0143900Y0124455D01*
X0143900Y0122857D02*
X0126411Y0122857D01*
X0118900Y0126054D02*
X0117700Y0126054D01*
X0117365Y0127652D02*
X0119235Y0127652D01*
X0120360Y0129251D02*
X0116240Y0129251D01*
X0116002Y0132448D02*
X0120598Y0132448D01*
X0120808Y0132238D02*
X0122425Y0131569D01*
X0124175Y0131569D01*
X0125792Y0132238D01*
X0127030Y0133476D01*
X0127700Y0135093D01*
X0127700Y0136844D01*
X0127030Y0138461D01*
X0125792Y0139699D01*
X0124175Y0140368D01*
X0122425Y0140368D01*
X0121832Y0140123D01*
X0113587Y0148368D01*
X0075343Y0148368D01*
X0075191Y0148734D01*
X0074066Y0149860D01*
X0072596Y0150468D01*
X0071004Y0150468D01*
X0069534Y0149860D01*
X0068409Y0148734D01*
X0067800Y0147264D01*
X0067800Y0145673D01*
X0068409Y0144203D01*
X0069534Y0143077D01*
X0071004Y0142469D01*
X0072596Y0142469D01*
X0074066Y0143077D01*
X0075191Y0144203D01*
X0075343Y0144569D01*
X0112013Y0144569D01*
X0119145Y0137436D01*
X0118900Y0136844D01*
X0118900Y0135093D01*
X0119570Y0133476D01*
X0120808Y0132238D01*
X0119334Y0134046D02*
X0117266Y0134046D01*
X0117700Y0135645D02*
X0118900Y0135645D01*
X0119066Y0137243D02*
X0117534Y0137243D01*
X0117740Y0138842D02*
X0116649Y0138842D01*
X0116141Y0140440D02*
X0072663Y0140440D01*
X0070937Y0140440D02*
X0048459Y0140440D01*
X0046860Y0138842D02*
X0068517Y0138842D01*
X0067800Y0137243D02*
X0045800Y0137243D01*
X0045800Y0137264D02*
X0045648Y0137630D01*
X0052969Y0144950D01*
X0054082Y0146063D01*
X0054082Y0163063D01*
X0069700Y0178681D01*
X0069700Y0178682D01*
X0082587Y0191569D01*
X0083700Y0192681D01*
X0083700Y0215681D01*
X0094639Y0226620D01*
X0095004Y0226469D01*
X0096596Y0226469D01*
X0098066Y0227077D01*
X0099191Y0228203D01*
X0099800Y0229673D01*
X0099800Y0231264D01*
X0099191Y0232734D01*
X0098066Y0233860D01*
X0096596Y0234468D01*
X0095004Y0234468D01*
X0093534Y0233860D01*
X0092409Y0232734D01*
X0091800Y0231264D01*
X0091800Y0229673D01*
X0091952Y0229307D01*
X0079900Y0217255D01*
X0079900Y0198217D01*
X0079478Y0199234D01*
X0078353Y0200360D01*
X0076883Y0200968D01*
X0075292Y0200968D01*
X0073822Y0200360D01*
X0072696Y0199234D01*
X0072087Y0197764D01*
X0072087Y0196173D01*
X0072696Y0194703D01*
X0073822Y0193577D01*
X0075292Y0192969D01*
X0076883Y0192969D01*
X0078353Y0193577D01*
X0079478Y0194703D01*
X0079900Y0195720D01*
X0079900Y0194255D01*
X0067013Y0181368D01*
X0050282Y0164637D01*
X0050282Y0147637D01*
X0042961Y0140317D01*
X0042596Y0140468D01*
X0041004Y0140468D01*
X0039534Y0139860D01*
X0038409Y0138734D01*
X0037800Y0137264D01*
X0037800Y0135673D01*
X0038409Y0134203D01*
X0039534Y0133077D01*
X0039900Y0132926D01*
X0039900Y0130011D01*
X0039534Y0129860D01*
X0038409Y0128734D01*
X0037800Y0127264D01*
X0037800Y0125673D01*
X0038409Y0124203D01*
X0039534Y0123077D01*
X0041004Y0122469D01*
X0042596Y0122469D01*
X0044066Y0123077D01*
X0045191Y0124203D01*
X0045800Y0125673D01*
X0045800Y0127264D01*
X0045191Y0128734D01*
X0044066Y0129860D01*
X0043700Y0130011D01*
X0043700Y0132926D01*
X0044066Y0133077D01*
X0045191Y0134203D01*
X0045800Y0135673D01*
X0045800Y0137264D01*
X0045788Y0135645D02*
X0067812Y0135645D01*
X0068565Y0134046D02*
X0045035Y0134046D01*
X0043700Y0132448D02*
X0073134Y0132448D01*
X0074400Y0130849D02*
X0043700Y0130849D01*
X0044674Y0129251D02*
X0068926Y0129251D01*
X0067961Y0127652D02*
X0045639Y0127652D01*
X0045800Y0126054D02*
X0067800Y0126054D01*
X0068304Y0124455D02*
X0045296Y0124455D01*
X0043533Y0122857D02*
X0070067Y0122857D01*
X0069334Y0119660D02*
X0044266Y0119660D01*
X0044066Y0119860D02*
X0042596Y0120468D01*
X0041004Y0120468D01*
X0039534Y0119860D01*
X0038409Y0118734D01*
X0037800Y0117264D01*
X0037800Y0115673D01*
X0038409Y0114203D01*
X0039534Y0113077D01*
X0041004Y0112469D01*
X0042596Y0112469D01*
X0044066Y0113077D01*
X0045191Y0114203D01*
X0045800Y0115673D01*
X0045800Y0117264D01*
X0045191Y0118734D01*
X0044066Y0119860D01*
X0045470Y0118061D02*
X0068130Y0118061D01*
X0067800Y0116463D02*
X0045800Y0116463D01*
X0045465Y0114864D02*
X0068135Y0114864D01*
X0069346Y0113266D02*
X0044254Y0113266D01*
X0043489Y0110546D02*
X0042830Y0110760D01*
X0042146Y0110868D01*
X0041800Y0110868D01*
X0041454Y0110868D01*
X0040770Y0110760D01*
X0040111Y0110546D01*
X0039494Y0110232D01*
X0038934Y0109825D01*
X0038444Y0109335D01*
X0038037Y0108775D01*
X0037722Y0108158D01*
X0037508Y0107499D01*
X0037400Y0106815D01*
X0037400Y0106469D01*
X0041800Y0106469D01*
X0041800Y0110868D01*
X0041800Y0106469D01*
X0041800Y0106469D01*
X0046200Y0106469D01*
X0046200Y0106815D01*
X0046092Y0107499D01*
X0045878Y0108158D01*
X0045563Y0108775D01*
X0045156Y0109335D01*
X0044666Y0109825D01*
X0044106Y0110232D01*
X0043489Y0110546D01*
X0044330Y0110069D02*
X0069270Y0110069D01*
X0069494Y0110232D02*
X0068934Y0109825D01*
X0068444Y0109335D01*
X0068037Y0108775D01*
X0067722Y0108158D01*
X0067508Y0107499D01*
X0067400Y0106815D01*
X0067400Y0106469D01*
X0071800Y0106469D01*
X0071800Y0110868D01*
X0072146Y0110868D01*
X0072830Y0110760D01*
X0073489Y0110546D01*
X0074106Y0110232D01*
X0074666Y0109825D01*
X0075156Y0109335D01*
X0075563Y0108775D01*
X0075878Y0108158D01*
X0076092Y0107499D01*
X0076200Y0106815D01*
X0076200Y0106469D01*
X0071800Y0106469D01*
X0071800Y0106469D01*
X0071800Y0110868D01*
X0071454Y0110868D01*
X0070770Y0110760D01*
X0070111Y0110546D01*
X0069494Y0110232D01*
X0071800Y0110069D02*
X0071800Y0110069D01*
X0071800Y0108470D02*
X0071800Y0108470D01*
X0071800Y0106872D02*
X0071800Y0106872D01*
X0071800Y0106469D02*
X0071800Y0106468D01*
X0071800Y0102069D01*
X0072146Y0102069D01*
X0072830Y0102177D01*
X0073489Y0102391D01*
X0074106Y0102705D01*
X0074666Y0103112D01*
X0075156Y0103602D01*
X0075563Y0104162D01*
X0075878Y0104779D01*
X0076092Y0105438D01*
X0076200Y0106122D01*
X0076200Y0106468D01*
X0071800Y0106468D01*
X0071800Y0106468D01*
X0071800Y0102069D01*
X0071454Y0102069D01*
X0070770Y0102177D01*
X0070111Y0102391D01*
X0069494Y0102705D01*
X0068934Y0103112D01*
X0068444Y0103602D01*
X0068037Y0104162D01*
X0067722Y0104779D01*
X0067508Y0105438D01*
X0067400Y0106122D01*
X0067400Y0106468D01*
X0071800Y0106468D01*
X0071800Y0106469D01*
X0071800Y0105273D02*
X0071800Y0105273D01*
X0071800Y0103675D02*
X0071800Y0103675D01*
X0071800Y0102076D02*
X0071800Y0102076D01*
X0072195Y0102076D02*
X0105005Y0102076D01*
X0103407Y0103675D02*
X0075209Y0103675D01*
X0076038Y0105273D02*
X0101808Y0105273D01*
X0106604Y0100478D02*
X0043623Y0100478D01*
X0043489Y0100546D02*
X0042830Y0100760D01*
X0042146Y0100868D01*
X0041800Y0100868D01*
X0041454Y0100868D01*
X0040770Y0100760D01*
X0040111Y0100546D01*
X0039494Y0100232D01*
X0038934Y0099825D01*
X0038444Y0099335D01*
X0038037Y0098775D01*
X0037722Y0098158D01*
X0037508Y0097499D01*
X0037400Y0096815D01*
X0037400Y0096469D01*
X0041800Y0096469D01*
X0041800Y0100868D01*
X0041800Y0096469D01*
X0041800Y0096469D01*
X0046200Y0096469D01*
X0046200Y0096815D01*
X0046092Y0097499D01*
X0045878Y0098158D01*
X0045563Y0098775D01*
X0045156Y0099335D01*
X0044666Y0099825D01*
X0044106Y0100232D01*
X0043489Y0100546D01*
X0041800Y0100478D02*
X0041800Y0100478D01*
X0041800Y0102069D02*
X0042146Y0102069D01*
X0042830Y0102177D01*
X0043489Y0102391D01*
X0044106Y0102705D01*
X0044666Y0103112D01*
X0045156Y0103602D01*
X0045563Y0104162D01*
X0045878Y0104779D01*
X0046092Y0105438D01*
X0046200Y0106122D01*
X0046200Y0106468D01*
X0041800Y0106468D01*
X0041800Y0102069D01*
X0041800Y0106468D01*
X0041800Y0106468D01*
X0041800Y0106469D01*
X0041800Y0106468D01*
X0037400Y0106468D01*
X0037400Y0106122D01*
X0037508Y0105438D01*
X0037722Y0104779D01*
X0038037Y0104162D01*
X0038444Y0103602D01*
X0038934Y0103112D01*
X0039494Y0102705D01*
X0040111Y0102391D01*
X0040770Y0102177D01*
X0041454Y0102069D01*
X0041800Y0102069D01*
X0041800Y0102076D02*
X0041800Y0102076D01*
X0042195Y0102076D02*
X0071405Y0102076D01*
X0071004Y0100468D02*
X0069534Y0099860D01*
X0068409Y0098734D01*
X0067800Y0097264D01*
X0067800Y0095673D01*
X0068409Y0094203D01*
X0069534Y0093077D01*
X0071004Y0092469D01*
X0072596Y0092469D01*
X0074066Y0093077D01*
X0075191Y0094203D01*
X0075800Y0095673D01*
X0075800Y0097264D01*
X0075191Y0098734D01*
X0074066Y0099860D01*
X0072596Y0100468D01*
X0071004Y0100468D01*
X0068554Y0098879D02*
X0045487Y0098879D01*
X0046126Y0097281D02*
X0067807Y0097281D01*
X0067800Y0095682D02*
X0046130Y0095682D01*
X0046092Y0095438D02*
X0046200Y0096122D01*
X0046200Y0096468D01*
X0041800Y0096468D01*
X0041800Y0092069D01*
X0042146Y0092069D01*
X0042830Y0092177D01*
X0043489Y0092391D01*
X0044106Y0092705D01*
X0044666Y0093112D01*
X0045156Y0093602D01*
X0045563Y0094162D01*
X0045878Y0094779D01*
X0046092Y0095438D01*
X0045506Y0094084D02*
X0068528Y0094084D01*
X0070964Y0092485D02*
X0043674Y0092485D01*
X0041800Y0092485D02*
X0041800Y0092485D01*
X0041800Y0092069D02*
X0041800Y0096468D01*
X0041800Y0096468D01*
X0041800Y0096469D01*
X0041800Y0096468D01*
X0037400Y0096468D01*
X0037400Y0096122D01*
X0037508Y0095438D01*
X0037722Y0094779D01*
X0038037Y0094162D01*
X0038444Y0093602D01*
X0038934Y0093112D01*
X0039494Y0092705D01*
X0040111Y0092391D01*
X0040770Y0092177D01*
X0041454Y0092069D01*
X0041800Y0092069D01*
X0039926Y0092485D02*
X0027998Y0092485D01*
X0027998Y0090887D02*
X0110900Y0090887D01*
X0110900Y0092485D02*
X0096343Y0092485D01*
X0096566Y0092577D02*
X0097691Y0093703D01*
X0098300Y0095173D01*
X0098300Y0096764D01*
X0097691Y0098234D01*
X0096566Y0099360D01*
X0095096Y0099968D01*
X0093504Y0099968D01*
X0092034Y0099360D01*
X0090909Y0098234D01*
X0090300Y0096764D01*
X0090300Y0095173D01*
X0090909Y0093703D01*
X0092034Y0092577D01*
X0093504Y0091969D01*
X0095096Y0091969D01*
X0096566Y0092577D01*
X0097849Y0094084D02*
X0110900Y0094084D01*
X0110900Y0095682D02*
X0098300Y0095682D01*
X0098086Y0097281D02*
X0109801Y0097281D01*
X0108202Y0098879D02*
X0097046Y0098879D01*
X0091554Y0098879D02*
X0087612Y0098879D01*
X0087656Y0098835D02*
X0087166Y0099325D01*
X0086606Y0099732D01*
X0085989Y0100046D01*
X0085330Y0100260D01*
X0084646Y0100368D01*
X0084300Y0100368D01*
X0083954Y0100368D01*
X0083270Y0100260D01*
X0082611Y0100046D01*
X0081994Y0099732D01*
X0081434Y0099325D01*
X0080944Y0098835D01*
X0080537Y0098275D01*
X0080222Y0097658D01*
X0080008Y0096999D01*
X0079900Y0096315D01*
X0079900Y0095969D01*
X0084300Y0095969D01*
X0084300Y0100368D01*
X0084300Y0095969D01*
X0084300Y0095969D01*
X0088700Y0095969D01*
X0088700Y0096315D01*
X0088592Y0096999D01*
X0088378Y0097658D01*
X0088063Y0098275D01*
X0087656Y0098835D01*
X0088500Y0097281D02*
X0090514Y0097281D01*
X0090300Y0095682D02*
X0088700Y0095682D01*
X0088700Y0095622D02*
X0088700Y0095968D01*
X0084300Y0095968D01*
X0084300Y0091569D01*
X0084646Y0091569D01*
X0085330Y0091677D01*
X0085989Y0091891D01*
X0086606Y0092205D01*
X0087166Y0092612D01*
X0087656Y0093102D01*
X0088063Y0093662D01*
X0088378Y0094279D01*
X0088592Y0094938D01*
X0088700Y0095622D01*
X0088278Y0094084D02*
X0090751Y0094084D01*
X0092257Y0092485D02*
X0086991Y0092485D01*
X0084300Y0092485D02*
X0084300Y0092485D01*
X0084300Y0091569D02*
X0084300Y0095968D01*
X0084300Y0095968D01*
X0084300Y0095969D01*
X0084300Y0095968D01*
X0079900Y0095968D01*
X0079900Y0095622D01*
X0080008Y0094938D01*
X0080222Y0094279D01*
X0080537Y0093662D01*
X0080944Y0093102D01*
X0081434Y0092612D01*
X0081994Y0092205D01*
X0082611Y0091891D01*
X0083270Y0091677D01*
X0083954Y0091569D01*
X0084300Y0091569D01*
X0084300Y0094084D02*
X0084300Y0094084D01*
X0084300Y0095682D02*
X0084300Y0095682D01*
X0084300Y0097281D02*
X0084300Y0097281D01*
X0084300Y0098879D02*
X0084300Y0098879D01*
X0080988Y0098879D02*
X0075046Y0098879D01*
X0075793Y0097281D02*
X0080100Y0097281D01*
X0079900Y0095682D02*
X0075800Y0095682D01*
X0075072Y0094084D02*
X0080322Y0094084D01*
X0081609Y0092485D02*
X0072636Y0092485D01*
X0068391Y0103675D02*
X0045209Y0103675D01*
X0046038Y0105273D02*
X0067562Y0105273D01*
X0067409Y0106872D02*
X0046191Y0106872D01*
X0045718Y0108470D02*
X0067882Y0108470D01*
X0074330Y0110069D02*
X0082513Y0110069D01*
X0084111Y0108470D02*
X0075718Y0108470D01*
X0076191Y0106872D02*
X0085710Y0106872D01*
X0080914Y0111667D02*
X0027998Y0111667D01*
X0027998Y0110069D02*
X0039270Y0110069D01*
X0037882Y0108470D02*
X0027998Y0108470D01*
X0027998Y0106872D02*
X0037409Y0106872D01*
X0037562Y0105273D02*
X0027998Y0105273D01*
X0027998Y0103675D02*
X0038391Y0103675D01*
X0041800Y0103675D02*
X0041800Y0103675D01*
X0041800Y0105273D02*
X0041800Y0105273D01*
X0041800Y0106872D02*
X0041800Y0106872D01*
X0041800Y0108470D02*
X0041800Y0108470D01*
X0041800Y0110069D02*
X0041800Y0110069D01*
X0039346Y0113266D02*
X0027998Y0113266D01*
X0027998Y0114864D02*
X0038135Y0114864D01*
X0037800Y0116463D02*
X0027998Y0116463D01*
X0027998Y0118061D02*
X0038130Y0118061D01*
X0039334Y0119660D02*
X0027998Y0119660D01*
X0027998Y0121258D02*
X0074323Y0121258D01*
X0074266Y0119660D02*
X0075922Y0119660D01*
X0074254Y0113266D02*
X0079316Y0113266D01*
X0109985Y0108470D02*
X0111611Y0108470D01*
X0111584Y0106872D02*
X0113210Y0106872D01*
X0113182Y0105273D02*
X0114808Y0105273D01*
X0114781Y0103675D02*
X0116407Y0103675D01*
X0116379Y0102076D02*
X0118005Y0102076D01*
X0117978Y0100478D02*
X0119604Y0100478D01*
X0120400Y0098879D02*
X0118700Y0098879D01*
X0118700Y0097281D02*
X0120400Y0097281D01*
X0120400Y0095682D02*
X0118700Y0095682D01*
X0118700Y0094084D02*
X0120400Y0094084D01*
X0120400Y0092485D02*
X0118700Y0092485D01*
X0118700Y0090887D02*
X0120400Y0090887D01*
X0120397Y0089288D02*
X0118700Y0089288D01*
X0118700Y0087690D02*
X0121378Y0087690D01*
X0122928Y0086091D02*
X0118700Y0086091D01*
X0118700Y0084493D02*
X0124479Y0084493D01*
X0126029Y0082894D02*
X0118700Y0082894D01*
X0118700Y0081296D02*
X0127579Y0081296D01*
X0129129Y0079697D02*
X0118700Y0079697D01*
X0118700Y0078099D02*
X0130679Y0078099D01*
X0132229Y0076500D02*
X0118700Y0076500D01*
X0119554Y0074902D02*
X0133779Y0074902D01*
X0135329Y0073303D02*
X0127652Y0073303D01*
X0129251Y0071704D02*
X0136877Y0071704D01*
X0138476Y0070106D02*
X0130850Y0070106D01*
X0132448Y0068507D02*
X0185074Y0068507D01*
X0186673Y0066909D02*
X0134047Y0066909D01*
X0127468Y0062113D02*
X0043186Y0062113D01*
X0043186Y0060515D02*
X0129067Y0060515D01*
X0130400Y0058916D02*
X0043186Y0058916D01*
X0043186Y0057318D02*
X0048972Y0057318D01*
X0047146Y0055719D02*
X0045407Y0055719D01*
X0053276Y0057318D02*
X0054876Y0057318D01*
X0059181Y0057318D02*
X0065582Y0057318D01*
X0062736Y0055719D02*
X0060998Y0055719D01*
X0073752Y0057318D02*
X0081173Y0057318D01*
X0089342Y0057318D02*
X0096763Y0057318D01*
X0093917Y0055719D02*
X0092179Y0055719D01*
X0104933Y0057318D02*
X0112354Y0057318D01*
X0109508Y0055719D02*
X0107769Y0055719D01*
X0120524Y0057318D02*
X0127944Y0057318D01*
X0125099Y0055719D02*
X0123360Y0055719D01*
X0125870Y0063712D02*
X0043165Y0063712D01*
X0042503Y0065310D02*
X0124271Y0065310D01*
X0116173Y0066909D02*
X0040791Y0066909D01*
X0036014Y0066909D02*
X0027998Y0066909D01*
X0027998Y0068507D02*
X0114574Y0068507D01*
X0112976Y0070106D02*
X0027998Y0070106D01*
X0027998Y0071704D02*
X0111377Y0071704D01*
X0110900Y0073303D02*
X0101171Y0073303D01*
X0101241Y0073354D02*
X0101915Y0074027D01*
X0102474Y0074798D01*
X0102907Y0075646D01*
X0103201Y0076552D01*
X0103350Y0077492D01*
X0103350Y0077968D01*
X0097300Y0077968D01*
X0097300Y0071919D01*
X0097776Y0071919D01*
X0098717Y0072067D01*
X0099622Y0072362D01*
X0100471Y0072794D01*
X0101241Y0073354D01*
X0102527Y0074902D02*
X0110900Y0074902D01*
X0110900Y0076500D02*
X0103184Y0076500D01*
X0103350Y0077969D02*
X0103350Y0078445D01*
X0103201Y0079385D01*
X0102907Y0080291D01*
X0102474Y0081139D01*
X0101915Y0081910D01*
X0101241Y0082583D01*
X0100471Y0083143D01*
X0099622Y0083575D01*
X0098717Y0083870D01*
X0097776Y0084018D01*
X0097300Y0084018D01*
X0096824Y0084018D01*
X0095883Y0083870D01*
X0094978Y0083575D01*
X0094129Y0083143D01*
X0093359Y0082583D01*
X0092685Y0081910D01*
X0092126Y0081139D01*
X0091693Y0080291D01*
X0091399Y0079385D01*
X0091250Y0078445D01*
X0091250Y0077969D01*
X0097300Y0077969D01*
X0097300Y0084018D01*
X0097300Y0077969D01*
X0097300Y0077969D01*
X0103350Y0077969D01*
X0103350Y0078099D02*
X0110900Y0078099D01*
X0110900Y0079697D02*
X0103100Y0079697D01*
X0102361Y0081296D02*
X0110900Y0081296D01*
X0110900Y0082894D02*
X0100813Y0082894D01*
X0097300Y0082894D02*
X0097300Y0082894D01*
X0097300Y0081296D02*
X0097300Y0081296D01*
X0097300Y0079697D02*
X0097300Y0079697D01*
X0097300Y0078099D02*
X0097300Y0078099D01*
X0097300Y0077969D02*
X0097300Y0077968D01*
X0097300Y0077968D01*
X0097300Y0071919D01*
X0096824Y0071919D01*
X0095883Y0072067D01*
X0094978Y0072362D01*
X0094129Y0072794D01*
X0093359Y0073354D01*
X0092685Y0074027D01*
X0092126Y0074798D01*
X0091693Y0075646D01*
X0091399Y0076552D01*
X0091250Y0077492D01*
X0091250Y0077968D01*
X0097300Y0077968D01*
X0097300Y0077969D01*
X0097300Y0076500D02*
X0097300Y0076500D01*
X0097300Y0074902D02*
X0097300Y0074902D01*
X0097300Y0073303D02*
X0097300Y0073303D01*
X0093429Y0073303D02*
X0040625Y0073303D01*
X0040500Y0073179D02*
X0042090Y0074768D01*
X0042950Y0076845D01*
X0042950Y0079092D01*
X0042090Y0081169D01*
X0040500Y0082758D01*
X0038424Y0083618D01*
X0036176Y0083618D01*
X0034100Y0082758D01*
X0032510Y0081169D01*
X0031650Y0079092D01*
X0031650Y0076845D01*
X0032510Y0074768D01*
X0034100Y0073179D01*
X0036176Y0072319D01*
X0038424Y0072319D01*
X0040500Y0073179D01*
X0042145Y0074902D02*
X0092073Y0074902D01*
X0091416Y0076500D02*
X0042807Y0076500D01*
X0042950Y0078099D02*
X0091250Y0078099D01*
X0091500Y0079697D02*
X0042700Y0079697D01*
X0041963Y0081296D02*
X0092239Y0081296D01*
X0093787Y0082894D02*
X0040173Y0082894D01*
X0034427Y0082894D02*
X0027998Y0082894D01*
X0027998Y0081296D02*
X0032637Y0081296D01*
X0031900Y0079697D02*
X0027998Y0079697D01*
X0027998Y0078099D02*
X0031650Y0078099D01*
X0031793Y0076500D02*
X0027998Y0076500D01*
X0027998Y0074902D02*
X0032455Y0074902D01*
X0033975Y0073303D02*
X0027998Y0073303D01*
X0027998Y0065310D02*
X0034350Y0065310D01*
X0033702Y0063712D02*
X0027998Y0063712D01*
X0027998Y0062113D02*
X0033702Y0062113D01*
X0033786Y0060515D02*
X0027998Y0060515D01*
X0027998Y0058916D02*
X0033786Y0058916D01*
X0033786Y0057318D02*
X0027998Y0057318D01*
X0027998Y0055719D02*
X0031555Y0055719D01*
X0027998Y0084493D02*
X0110900Y0084493D01*
X0110900Y0086091D02*
X0027998Y0086091D01*
X0027998Y0087690D02*
X0110900Y0087690D01*
X0110900Y0089288D02*
X0027998Y0089288D01*
X0027998Y0094084D02*
X0038094Y0094084D01*
X0037470Y0095682D02*
X0027998Y0095682D01*
X0027998Y0097281D02*
X0037474Y0097281D01*
X0038113Y0098879D02*
X0027998Y0098879D01*
X0027998Y0100478D02*
X0039977Y0100478D01*
X0041405Y0102076D02*
X0027998Y0102076D01*
X0041800Y0098879D02*
X0041800Y0098879D01*
X0041800Y0097281D02*
X0041800Y0097281D01*
X0041800Y0095682D02*
X0041800Y0095682D01*
X0041800Y0094084D02*
X0041800Y0094084D01*
X0040067Y0122857D02*
X0027998Y0122857D01*
X0027998Y0124455D02*
X0038304Y0124455D01*
X0037800Y0126054D02*
X0027998Y0126054D01*
X0027998Y0127652D02*
X0037961Y0127652D01*
X0038926Y0129251D02*
X0027998Y0129251D01*
X0027998Y0130849D02*
X0039900Y0130849D01*
X0039900Y0132448D02*
X0027998Y0132448D01*
X0027998Y0134046D02*
X0038565Y0134046D01*
X0037812Y0135645D02*
X0027998Y0135645D01*
X0027998Y0137243D02*
X0037800Y0137243D01*
X0038517Y0138842D02*
X0027998Y0138842D01*
X0027998Y0140440D02*
X0040937Y0140440D01*
X0042663Y0140440D02*
X0043085Y0140440D01*
X0042596Y0142469D02*
X0044066Y0143077D01*
X0045191Y0144203D01*
X0045800Y0145673D01*
X0045800Y0147264D01*
X0045191Y0148734D01*
X0044066Y0149860D01*
X0042596Y0150468D01*
X0041004Y0150468D01*
X0039534Y0149860D01*
X0038409Y0148734D01*
X0037800Y0147264D01*
X0037800Y0145673D01*
X0038409Y0144203D01*
X0039534Y0143077D01*
X0041004Y0142469D01*
X0042596Y0142469D01*
X0044684Y0142039D02*
X0027998Y0142039D01*
X0027998Y0143638D02*
X0038974Y0143638D01*
X0037981Y0145236D02*
X0027998Y0145236D01*
X0027998Y0146835D02*
X0037800Y0146835D01*
X0038284Y0148433D02*
X0027998Y0148433D01*
X0027998Y0150032D02*
X0039949Y0150032D01*
X0041004Y0152469D02*
X0042596Y0152469D01*
X0044066Y0153077D01*
X0045191Y0154203D01*
X0045800Y0155673D01*
X0045800Y0157264D01*
X0045191Y0158734D01*
X0044066Y0159860D01*
X0042596Y0160468D01*
X0041004Y0160468D01*
X0039534Y0159860D01*
X0038409Y0158734D01*
X0037800Y0157264D01*
X0037800Y0155673D01*
X0038409Y0154203D01*
X0039534Y0153077D01*
X0041004Y0152469D01*
X0039383Y0153229D02*
X0027998Y0153229D01*
X0027998Y0154827D02*
X0038150Y0154827D01*
X0037800Y0156426D02*
X0027998Y0156426D01*
X0027998Y0158024D02*
X0038115Y0158024D01*
X0039297Y0159623D02*
X0027998Y0159623D01*
X0027998Y0161221D02*
X0050282Y0161221D01*
X0050282Y0159623D02*
X0044303Y0159623D01*
X0045485Y0158024D02*
X0050282Y0158024D01*
X0050282Y0156426D02*
X0045800Y0156426D01*
X0045450Y0154827D02*
X0050282Y0154827D01*
X0050282Y0153229D02*
X0044217Y0153229D01*
X0043651Y0150032D02*
X0050282Y0150032D01*
X0050282Y0151630D02*
X0027998Y0151630D01*
X0027998Y0162820D02*
X0050282Y0162820D01*
X0050282Y0164418D02*
X0027998Y0164418D01*
X0027998Y0166017D02*
X0051661Y0166017D01*
X0053260Y0167615D02*
X0027998Y0167615D01*
X0027998Y0169214D02*
X0054858Y0169214D01*
X0056457Y0170812D02*
X0027998Y0170812D01*
X0027998Y0172411D02*
X0058055Y0172411D01*
X0059654Y0174009D02*
X0027998Y0174009D01*
X0027998Y0175608D02*
X0061252Y0175608D01*
X0062851Y0177206D02*
X0027998Y0177206D01*
X0027998Y0178805D02*
X0064449Y0178805D01*
X0066048Y0180403D02*
X0027998Y0180403D01*
X0027998Y0182002D02*
X0067646Y0182002D01*
X0067013Y0181368D02*
X0067013Y0181368D01*
X0069245Y0183600D02*
X0027998Y0183600D01*
X0027998Y0185199D02*
X0070843Y0185199D01*
X0072442Y0186797D02*
X0027998Y0186797D01*
X0027998Y0188396D02*
X0041973Y0188396D01*
X0041534Y0188577D02*
X0043004Y0187969D01*
X0044596Y0187969D01*
X0046066Y0188577D01*
X0047191Y0189703D01*
X0047800Y0191173D01*
X0047800Y0192764D01*
X0047191Y0194234D01*
X0046066Y0195360D01*
X0044596Y0195968D01*
X0043004Y0195968D01*
X0042639Y0195817D01*
X0039200Y0199255D01*
X0039200Y0225382D01*
X0046013Y0218569D01*
X0062257Y0218569D01*
X0062409Y0218203D01*
X0063534Y0217077D01*
X0065004Y0216469D01*
X0066596Y0216469D01*
X0068066Y0217077D01*
X0069191Y0218203D01*
X0069800Y0219673D01*
X0069800Y0221264D01*
X0069191Y0222734D01*
X0068066Y0223860D01*
X0066596Y0224468D01*
X0065004Y0224468D01*
X0063534Y0223860D01*
X0062409Y0222734D01*
X0062257Y0222368D01*
X0047587Y0222368D01*
X0041148Y0228807D01*
X0041300Y0229173D01*
X0041300Y0230764D01*
X0040691Y0232234D01*
X0039566Y0233360D01*
X0038096Y0233968D01*
X0036504Y0233968D01*
X0035034Y0233360D01*
X0033909Y0232234D01*
X0033300Y0230764D01*
X0033300Y0229173D01*
X0033909Y0227703D01*
X0035034Y0226577D01*
X0035400Y0226426D01*
X0035400Y0197681D01*
X0039952Y0193130D01*
X0039800Y0192764D01*
X0039800Y0191173D01*
X0040409Y0189703D01*
X0041534Y0188577D01*
X0040288Y0189994D02*
X0027998Y0189994D01*
X0027998Y0191593D02*
X0039800Y0191593D01*
X0039890Y0193191D02*
X0027998Y0193191D01*
X0027998Y0194790D02*
X0038292Y0194790D01*
X0036693Y0196388D02*
X0027998Y0196388D01*
X0027998Y0197987D02*
X0035400Y0197987D01*
X0035400Y0199585D02*
X0027998Y0199585D01*
X0027998Y0201184D02*
X0035400Y0201184D01*
X0035400Y0202782D02*
X0027998Y0202782D01*
X0027998Y0204381D02*
X0035400Y0204381D01*
X0035400Y0205979D02*
X0027998Y0205979D01*
X0027998Y0207578D02*
X0035400Y0207578D01*
X0035400Y0209176D02*
X0027998Y0209176D01*
X0027998Y0210775D02*
X0035400Y0210775D01*
X0035400Y0212373D02*
X0027998Y0212373D01*
X0027998Y0213972D02*
X0035400Y0213972D01*
X0035400Y0215571D02*
X0027998Y0215571D01*
X0027998Y0217169D02*
X0035400Y0217169D01*
X0035400Y0218768D02*
X0027998Y0218768D01*
X0027998Y0220366D02*
X0035400Y0220366D01*
X0035400Y0221965D02*
X0027998Y0221965D01*
X0027998Y0223563D02*
X0035400Y0223563D01*
X0035400Y0225162D02*
X0027998Y0225162D01*
X0027998Y0226760D02*
X0034852Y0226760D01*
X0033637Y0228359D02*
X0027998Y0228359D01*
X0027998Y0229957D02*
X0033300Y0229957D01*
X0033628Y0231556D02*
X0027998Y0231556D01*
X0027998Y0233154D02*
X0034829Y0233154D01*
X0027998Y0234753D02*
X0087397Y0234753D01*
X0088996Y0236351D02*
X0027998Y0236351D01*
X0027998Y0237950D02*
X0062662Y0237950D01*
X0062409Y0238203D02*
X0063534Y0237077D01*
X0065004Y0236469D01*
X0066596Y0236469D01*
X0068066Y0237077D01*
X0069191Y0238203D01*
X0069800Y0239673D01*
X0069800Y0241264D01*
X0069191Y0242734D01*
X0068066Y0243860D01*
X0066596Y0244468D01*
X0065004Y0244468D01*
X0063534Y0243860D01*
X0062409Y0242734D01*
X0061800Y0241264D01*
X0061800Y0239673D01*
X0062409Y0238203D01*
X0061852Y0239548D02*
X0027998Y0239548D01*
X0027998Y0241147D02*
X0061800Y0241147D01*
X0062420Y0242745D02*
X0027998Y0242745D01*
X0027998Y0244344D02*
X0064703Y0244344D01*
X0065004Y0246469D02*
X0066596Y0246469D01*
X0068066Y0247077D01*
X0069191Y0248203D01*
X0069800Y0249673D01*
X0069800Y0251264D01*
X0069191Y0252734D01*
X0068066Y0253860D01*
X0067700Y0254011D01*
X0067700Y0256926D01*
X0068066Y0257077D01*
X0069191Y0258203D01*
X0069800Y0259673D01*
X0069800Y0261264D01*
X0069191Y0262734D01*
X0068357Y0263569D01*
X0078513Y0263569D01*
X0083513Y0258569D01*
X0092257Y0258569D01*
X0092409Y0258203D01*
X0093534Y0257077D01*
X0095004Y0256469D01*
X0096596Y0256469D01*
X0098066Y0257077D01*
X0099191Y0258203D01*
X0099800Y0259673D01*
X0099800Y0261264D01*
X0099191Y0262734D01*
X0098066Y0263860D01*
X0096596Y0264468D01*
X0095004Y0264468D01*
X0093534Y0263860D01*
X0092409Y0262734D01*
X0092257Y0262368D01*
X0085087Y0262368D01*
X0081200Y0266255D01*
X0080087Y0267368D01*
X0068357Y0267368D01*
X0069191Y0268203D01*
X0069800Y0269673D01*
X0069800Y0271264D01*
X0069191Y0272734D01*
X0068066Y0273860D01*
X0066596Y0274468D01*
X0065004Y0274468D01*
X0063534Y0273860D01*
X0062409Y0272734D01*
X0062257Y0272368D01*
X0047013Y0272368D01*
X0043400Y0268755D01*
X0038461Y0263817D01*
X0038096Y0263968D01*
X0036504Y0263968D01*
X0035034Y0263360D01*
X0033909Y0262234D01*
X0033300Y0260764D01*
X0033300Y0259173D01*
X0033909Y0257703D01*
X0035034Y0256577D01*
X0036504Y0255969D01*
X0038096Y0255969D01*
X0039566Y0256577D01*
X0040691Y0257703D01*
X0041300Y0259173D01*
X0041300Y0260764D01*
X0041148Y0261130D01*
X0046087Y0266069D01*
X0048587Y0268569D01*
X0062257Y0268569D01*
X0062409Y0268203D01*
X0063243Y0267368D01*
X0056513Y0267368D01*
X0052961Y0263817D01*
X0052596Y0263968D01*
X0051004Y0263968D01*
X0049534Y0263360D01*
X0048409Y0262234D01*
X0047800Y0260764D01*
X0047800Y0259173D01*
X0048409Y0257703D01*
X0049534Y0256577D01*
X0051004Y0255969D01*
X0052596Y0255969D01*
X0054066Y0256577D01*
X0055191Y0257703D01*
X0055800Y0259173D01*
X0055800Y0260764D01*
X0055648Y0261130D01*
X0058087Y0263569D01*
X0063243Y0263569D01*
X0062409Y0262734D01*
X0061800Y0261264D01*
X0061800Y0259673D01*
X0062409Y0258203D01*
X0063534Y0257077D01*
X0063900Y0256926D01*
X0063900Y0254011D01*
X0063534Y0253860D01*
X0062409Y0252734D01*
X0061800Y0251264D01*
X0061800Y0249673D01*
X0062409Y0248203D01*
X0063534Y0247077D01*
X0065004Y0246469D01*
X0063071Y0247541D02*
X0027998Y0247541D01*
X0027998Y0249139D02*
X0062021Y0249139D01*
X0061800Y0250738D02*
X0027998Y0250738D01*
X0027998Y0252336D02*
X0062244Y0252336D01*
X0063716Y0253935D02*
X0027998Y0253935D01*
X0027998Y0255533D02*
X0063900Y0255533D01*
X0063480Y0257132D02*
X0054620Y0257132D01*
X0055617Y0258730D02*
X0062190Y0258730D01*
X0061800Y0260329D02*
X0055800Y0260329D01*
X0056446Y0261927D02*
X0062075Y0261927D01*
X0063201Y0263526D02*
X0058044Y0263526D01*
X0055867Y0266723D02*
X0046741Y0266723D01*
X0045143Y0265124D02*
X0054269Y0265124D01*
X0049936Y0263526D02*
X0043544Y0263526D01*
X0041946Y0261927D02*
X0048282Y0261927D01*
X0047800Y0260329D02*
X0041300Y0260329D01*
X0041117Y0258730D02*
X0047983Y0258730D01*
X0048980Y0257132D02*
X0040120Y0257132D01*
X0034480Y0257132D02*
X0027998Y0257132D01*
X0027998Y0258730D02*
X0033483Y0258730D01*
X0033300Y0260329D02*
X0027998Y0260329D01*
X0027998Y0261927D02*
X0033782Y0261927D01*
X0035436Y0263526D02*
X0027998Y0263526D01*
X0027998Y0265124D02*
X0039769Y0265124D01*
X0041367Y0266723D02*
X0027998Y0266723D01*
X0027998Y0268321D02*
X0042966Y0268321D01*
X0044564Y0269920D02*
X0027998Y0269920D01*
X0027998Y0271518D02*
X0046163Y0271518D01*
X0048340Y0268321D02*
X0062360Y0268321D01*
X0069240Y0268321D02*
X0092360Y0268321D01*
X0092409Y0268203D02*
X0093534Y0267077D01*
X0095004Y0266469D01*
X0096596Y0266469D01*
X0098066Y0267077D01*
X0099191Y0268203D01*
X0099800Y0269673D01*
X0099800Y0271264D01*
X0099191Y0272734D01*
X0098066Y0273860D01*
X0096596Y0274468D01*
X0095004Y0274468D01*
X0093534Y0273860D01*
X0092409Y0272734D01*
X0091800Y0271264D01*
X0091800Y0269673D01*
X0092409Y0268203D01*
X0091800Y0269920D02*
X0069800Y0269920D01*
X0069695Y0271518D02*
X0091905Y0271518D01*
X0092792Y0273117D02*
X0068808Y0273117D01*
X0062792Y0273117D02*
X0027998Y0273117D01*
X0027998Y0274715D02*
X0211487Y0274715D01*
X0211300Y0274264D02*
X0211300Y0272673D01*
X0211909Y0271203D01*
X0212243Y0270868D01*
X0211994Y0270868D01*
X0210752Y0271449D01*
X0210703Y0271498D01*
X0210216Y0271700D01*
X0209564Y0272005D01*
X0209420Y0271953D01*
X0208419Y0271953D01*
X0207322Y0271498D01*
X0206483Y0270659D01*
X0206028Y0269562D01*
X0206028Y0268375D01*
X0206483Y0267278D01*
X0207322Y0266439D01*
X0208419Y0265984D01*
X0209420Y0265984D01*
X0209564Y0265932D01*
X0209564Y0265932D01*
X0209564Y0265932D01*
X0210216Y0266237D01*
X0210703Y0266439D01*
X0210752Y0266488D01*
X0211994Y0267069D01*
X0213539Y0267069D01*
X0213034Y0266860D01*
X0211909Y0265734D01*
X0211300Y0264264D01*
X0211300Y0262673D01*
X0211909Y0261203D01*
X0212243Y0260868D01*
X0207781Y0260868D01*
X0206539Y0261449D01*
X0206490Y0261498D01*
X0206004Y0261700D01*
X0205352Y0262005D01*
X0205352Y0262005D01*
X0205352Y0262005D01*
X0205207Y0261953D01*
X0204206Y0261953D01*
X0203110Y0261498D01*
X0202270Y0260659D01*
X0201816Y0259562D01*
X0201816Y0258375D01*
X0202270Y0257278D01*
X0203110Y0256439D01*
X0204206Y0255984D01*
X0205207Y0255984D01*
X0205352Y0255932D01*
X0206004Y0256237D01*
X0206490Y0256439D01*
X0206539Y0256488D01*
X0207781Y0257069D01*
X0213539Y0257069D01*
X0213034Y0256860D01*
X0211909Y0255734D01*
X0211300Y0254264D01*
X0211300Y0252673D01*
X0211909Y0251203D01*
X0212743Y0250368D01*
X0206281Y0250368D01*
X0205039Y0250949D01*
X0204990Y0250998D01*
X0204504Y0251200D01*
X0203852Y0251505D01*
X0203852Y0251505D01*
X0203852Y0251505D01*
X0203707Y0251453D01*
X0202706Y0251453D01*
X0201610Y0250998D01*
X0200770Y0250159D01*
X0200316Y0249062D01*
X0200316Y0247875D01*
X0200770Y0246778D01*
X0201610Y0245939D01*
X0202706Y0245484D01*
X0203707Y0245484D01*
X0203852Y0245432D01*
X0204504Y0245737D01*
X0204990Y0245939D01*
X0205039Y0245988D01*
X0206281Y0246569D01*
X0212743Y0246569D01*
X0211909Y0245734D01*
X0211300Y0244264D01*
X0211300Y0242673D01*
X0211909Y0241203D01*
X0212743Y0240368D01*
X0205513Y0240368D01*
X0204400Y0239255D01*
X0199400Y0234255D01*
X0199400Y0213255D01*
X0177513Y0191368D01*
X0173513Y0187368D01*
X0108587Y0187368D01*
X0104587Y0191368D01*
X0092781Y0191368D01*
X0091539Y0191949D01*
X0091490Y0191998D01*
X0091004Y0192200D01*
X0090352Y0192505D01*
X0090352Y0192505D01*
X0090352Y0192505D01*
X0090207Y0192453D01*
X0089206Y0192453D01*
X0088110Y0191998D01*
X0087270Y0191159D01*
X0086816Y0190062D01*
X0086816Y0188875D01*
X0087270Y0187778D01*
X0088110Y0186939D01*
X0089206Y0186484D01*
X0090207Y0186484D01*
X0090352Y0186432D01*
X0090816Y0186649D01*
X0090816Y0185875D01*
X0091270Y0184778D01*
X0091978Y0184070D01*
X0092043Y0183931D01*
X0092720Y0183686D01*
X0093206Y0183484D01*
X0093276Y0183484D01*
X0094565Y0183017D01*
X0097400Y0180181D01*
X0099013Y0178569D01*
X0176087Y0178569D01*
X0177200Y0179681D01*
X0177200Y0179682D01*
X0195131Y0197613D01*
X0195270Y0197278D01*
X0196110Y0196439D01*
X0197206Y0195984D01*
X0198394Y0195984D01*
X0199490Y0196439D01*
X0200198Y0197146D01*
X0200337Y0197211D01*
X0200583Y0197888D01*
X0200784Y0198375D01*
X0200784Y0198444D01*
X0201252Y0199733D01*
X0207587Y0206069D01*
X0212243Y0206069D01*
X0211909Y0205734D01*
X0211300Y0204264D01*
X0211300Y0202673D01*
X0211909Y0201203D01*
X0213034Y0200077D01*
X0214504Y0199469D01*
X0216096Y0199469D01*
X0217566Y0200077D01*
X0218691Y0201203D01*
X0219300Y0202673D01*
X0219300Y0204264D01*
X0218691Y0205734D01*
X0218357Y0206069D01*
X0242243Y0206069D01*
X0241909Y0205734D01*
X0241300Y0204264D01*
X0241300Y0202673D01*
X0241909Y0201203D01*
X0243034Y0200077D01*
X0244504Y0199469D01*
X0246096Y0199469D01*
X0247566Y0200077D01*
X0248691Y0201203D01*
X0249300Y0202673D01*
X0249300Y0204264D01*
X0248691Y0205734D01*
X0248357Y0206069D01*
X0272243Y0206069D01*
X0271909Y0205734D01*
X0271300Y0204264D01*
X0271300Y0202673D01*
X0271909Y0201203D01*
X0273034Y0200077D01*
X0274504Y0199469D01*
X0276096Y0199469D01*
X0277566Y0200077D01*
X0278691Y0201203D01*
X0279300Y0202673D01*
X0279300Y0204264D01*
X0278691Y0205734D01*
X0278357Y0206069D01*
X0302243Y0206069D01*
X0301909Y0205734D01*
X0301300Y0204264D01*
X0301300Y0202673D01*
X0301909Y0201203D01*
X0303034Y0200077D01*
X0304504Y0199469D01*
X0306096Y0199469D01*
X0307566Y0200077D01*
X0308691Y0201203D01*
X0309300Y0202673D01*
X0309300Y0204264D01*
X0308691Y0205734D01*
X0308357Y0206069D01*
X0314087Y0206069D01*
X0315200Y0207181D01*
X0318087Y0210069D01*
X0329177Y0210069D01*
X0328944Y0209835D01*
X0328537Y0209275D01*
X0328222Y0208658D01*
X0328008Y0207999D01*
X0327900Y0207315D01*
X0327900Y0206969D01*
X0332300Y0206969D01*
X0336700Y0206969D01*
X0336700Y0207315D01*
X0336592Y0207999D01*
X0336378Y0208658D01*
X0336063Y0209275D01*
X0335656Y0209835D01*
X0335423Y0210069D01*
X0337513Y0210069D01*
X0342513Y0205069D01*
X0358757Y0205069D01*
X0358909Y0204703D01*
X0360034Y0203577D01*
X0361504Y0202969D01*
X0363096Y0202969D01*
X0364566Y0203577D01*
X0365691Y0204703D01*
X0366300Y0206173D01*
X0366300Y0207764D01*
X0365691Y0209234D01*
X0364566Y0210360D01*
X0363096Y0210968D01*
X0361504Y0210968D01*
X0360034Y0210360D01*
X0358909Y0209234D01*
X0358757Y0208868D01*
X0344087Y0208868D01*
X0340200Y0212755D01*
X0339087Y0213868D01*
X0334857Y0213868D01*
X0335691Y0214703D01*
X0336300Y0216173D01*
X0336300Y0217764D01*
X0335691Y0219234D01*
X0334566Y0220360D01*
X0333096Y0220968D01*
X0331504Y0220968D01*
X0330034Y0220360D01*
X0328909Y0219234D01*
X0328300Y0217764D01*
X0328300Y0216173D01*
X0328909Y0214703D01*
X0329743Y0213868D01*
X0316513Y0213868D01*
X0312513Y0209868D01*
X0307061Y0209868D01*
X0307566Y0210077D01*
X0308691Y0211203D01*
X0309300Y0212673D01*
X0309300Y0214264D01*
X0308691Y0215734D01*
X0307566Y0216860D01*
X0306096Y0217468D01*
X0304504Y0217468D01*
X0303034Y0216860D01*
X0301909Y0215734D01*
X0301300Y0214264D01*
X0301300Y0212673D01*
X0301909Y0211203D01*
X0303034Y0210077D01*
X0303539Y0209868D01*
X0277061Y0209868D01*
X0277566Y0210077D01*
X0278691Y0211203D01*
X0279300Y0212673D01*
X0279300Y0214264D01*
X0278691Y0215734D01*
X0277566Y0216860D01*
X0276096Y0217468D01*
X0274504Y0217468D01*
X0274139Y0217317D01*
X0271087Y0220368D01*
X0247857Y0220368D01*
X0248691Y0221203D01*
X0248843Y0221569D01*
X0263587Y0221569D01*
X0268587Y0226569D01*
X0272743Y0226569D01*
X0271909Y0225734D01*
X0271300Y0224264D01*
X0271300Y0222673D01*
X0271909Y0221203D01*
X0273034Y0220077D01*
X0274504Y0219469D01*
X0276096Y0219469D01*
X0277566Y0220077D01*
X0278691Y0221203D01*
X0279300Y0222673D01*
X0279300Y0224264D01*
X0278691Y0225734D01*
X0277857Y0226569D01*
X0288013Y0226569D01*
X0291900Y0222681D01*
X0293013Y0221569D01*
X0301757Y0221569D01*
X0301909Y0221203D01*
X0303034Y0220077D01*
X0304504Y0219469D01*
X0306096Y0219469D01*
X0307566Y0220077D01*
X0308691Y0221203D01*
X0309300Y0222673D01*
X0309300Y0224264D01*
X0308691Y0225734D01*
X0307566Y0226860D01*
X0306096Y0227468D01*
X0304504Y0227468D01*
X0303034Y0226860D01*
X0301909Y0225734D01*
X0301757Y0225368D01*
X0294587Y0225368D01*
X0289587Y0230368D01*
X0277857Y0230368D01*
X0278691Y0231203D01*
X0279300Y0232673D01*
X0279300Y0234264D01*
X0278691Y0235734D01*
X0278357Y0236069D01*
X0289013Y0236069D01*
X0291900Y0233181D01*
X0293513Y0231569D01*
X0301757Y0231569D01*
X0301909Y0231203D01*
X0303034Y0230077D01*
X0304504Y0229469D01*
X0306096Y0229469D01*
X0307566Y0230077D01*
X0308691Y0231203D01*
X0309300Y0232673D01*
X0309300Y0234264D01*
X0308691Y0235734D01*
X0307566Y0236860D01*
X0306096Y0237468D01*
X0304504Y0237468D01*
X0303034Y0236860D01*
X0301909Y0235734D01*
X0301757Y0235368D01*
X0295087Y0235368D01*
X0294587Y0235868D01*
X0290587Y0239868D01*
X0277061Y0239868D01*
X0277566Y0240077D01*
X0278691Y0241203D01*
X0279300Y0242673D01*
X0279300Y0244264D01*
X0278691Y0245734D01*
X0277857Y0246569D01*
X0288513Y0246569D01*
X0292400Y0242681D01*
X0293513Y0241569D01*
X0301757Y0241569D01*
X0301909Y0241203D01*
X0303034Y0240077D01*
X0304504Y0239469D01*
X0306096Y0239469D01*
X0307566Y0240077D01*
X0308691Y0241203D01*
X0309300Y0242673D01*
X0309300Y0244264D01*
X0308691Y0245734D01*
X0307566Y0246860D01*
X0306096Y0247468D01*
X0304504Y0247468D01*
X0303034Y0246860D01*
X0301909Y0245734D01*
X0301757Y0245368D01*
X0295087Y0245368D01*
X0290087Y0250368D01*
X0277857Y0250368D01*
X0278691Y0251203D01*
X0279300Y0252673D01*
X0279300Y0254264D01*
X0278691Y0255734D01*
X0277857Y0256569D01*
X0286013Y0256569D01*
X0289900Y0252681D01*
X0291013Y0251569D01*
X0301757Y0251569D01*
X0301909Y0251203D01*
X0303034Y0250077D01*
X0304504Y0249469D01*
X0306096Y0249469D01*
X0307566Y0250077D01*
X0308691Y0251203D01*
X0309300Y0252673D01*
X0309300Y0254264D01*
X0308691Y0255734D01*
X0307566Y0256860D01*
X0306096Y0257468D01*
X0304504Y0257468D01*
X0303034Y0256860D01*
X0301909Y0255734D01*
X0301757Y0255368D01*
X0292587Y0255368D01*
X0287587Y0260368D01*
X0277857Y0260368D01*
X0278691Y0261203D01*
X0279300Y0262673D01*
X0279300Y0264264D01*
X0278691Y0265734D01*
X0277857Y0266569D01*
X0287513Y0266569D01*
X0291400Y0262681D01*
X0292513Y0261569D01*
X0301757Y0261569D01*
X0301909Y0261203D01*
X0303034Y0260077D01*
X0304504Y0259469D01*
X0306096Y0259469D01*
X0307566Y0260077D01*
X0308691Y0261203D01*
X0309300Y0262673D01*
X0309300Y0264264D01*
X0308691Y0265734D01*
X0307566Y0266860D01*
X0306096Y0267468D01*
X0304504Y0267468D01*
X0303034Y0266860D01*
X0301909Y0265734D01*
X0301757Y0265368D01*
X0294087Y0265368D01*
X0289087Y0270368D01*
X0277857Y0270368D01*
X0278691Y0271203D01*
X0279300Y0272673D01*
X0279300Y0274264D01*
X0278691Y0275734D01*
X0277566Y0276860D01*
X0276096Y0277468D01*
X0274504Y0277468D01*
X0273034Y0276860D01*
X0271909Y0275734D01*
X0271757Y0275368D01*
X0268423Y0275368D01*
X0268656Y0275602D01*
X0269063Y0276162D01*
X0269378Y0276779D01*
X0269592Y0277438D01*
X0269700Y0278122D01*
X0269700Y0278468D01*
X0265300Y0278468D01*
X0260900Y0278468D01*
X0260900Y0278122D01*
X0261008Y0277438D01*
X0261222Y0276779D01*
X0261537Y0276162D01*
X0261944Y0275602D01*
X0262177Y0275368D01*
X0258013Y0275368D01*
X0257013Y0274368D01*
X0254400Y0271755D01*
X0253513Y0270868D01*
X0248850Y0270868D01*
X0249063Y0271162D01*
X0249378Y0271779D01*
X0249592Y0272438D01*
X0249700Y0273122D01*
X0249700Y0273468D01*
X0245300Y0273468D01*
X0240900Y0273468D01*
X0240900Y0273122D01*
X0241008Y0272438D01*
X0241222Y0271779D01*
X0241537Y0271162D01*
X0241750Y0270868D01*
X0231087Y0270868D01*
X0226587Y0275368D01*
X0218843Y0275368D01*
X0218691Y0275734D01*
X0217566Y0276860D01*
X0216096Y0277468D01*
X0214504Y0277468D01*
X0213034Y0276860D01*
X0211909Y0275734D01*
X0211300Y0274264D01*
X0211300Y0273117D02*
X0098808Y0273117D01*
X0099695Y0271518D02*
X0152693Y0271518D01*
X0153034Y0271860D02*
X0151909Y0270734D01*
X0151300Y0269264D01*
X0151300Y0267673D01*
X0151909Y0266203D01*
X0153034Y0265077D01*
X0154504Y0264469D01*
X0156096Y0264469D01*
X0157566Y0265077D01*
X0158691Y0266203D01*
X0159300Y0267673D01*
X0159300Y0269264D01*
X0158691Y0270734D01*
X0157566Y0271860D01*
X0156096Y0272468D01*
X0154504Y0272468D01*
X0153034Y0271860D01*
X0151572Y0269920D02*
X0099800Y0269920D01*
X0099240Y0268321D02*
X0151300Y0268321D01*
X0151693Y0266723D02*
X0097210Y0266723D01*
X0094390Y0266723D02*
X0080733Y0266723D01*
X0082331Y0265124D02*
X0152987Y0265124D01*
X0154504Y0262468D02*
X0153034Y0261860D01*
X0151909Y0260734D01*
X0151300Y0259264D01*
X0151300Y0257673D01*
X0151305Y0257661D01*
X0147513Y0253868D01*
X0143857Y0253868D01*
X0144691Y0254703D01*
X0145300Y0256173D01*
X0145300Y0257764D01*
X0144691Y0259234D01*
X0143566Y0260360D01*
X0142096Y0260968D01*
X0140504Y0260968D01*
X0139034Y0260360D01*
X0137909Y0259234D01*
X0137757Y0258868D01*
X0133843Y0258868D01*
X0133691Y0259234D01*
X0132566Y0260360D01*
X0131096Y0260968D01*
X0129504Y0260968D01*
X0128034Y0260360D01*
X0126909Y0259234D01*
X0126300Y0257764D01*
X0126300Y0256173D01*
X0126909Y0254703D01*
X0127743Y0253868D01*
X0122857Y0253868D01*
X0123191Y0254203D01*
X0123800Y0255673D01*
X0123800Y0257264D01*
X0123191Y0258734D01*
X0122066Y0259860D01*
X0120596Y0260468D01*
X0119004Y0260468D01*
X0117534Y0259860D01*
X0116409Y0258734D01*
X0116257Y0258368D01*
X0111843Y0258368D01*
X0111691Y0258734D01*
X0110566Y0259860D01*
X0109096Y0260468D01*
X0107504Y0260468D01*
X0106034Y0259860D01*
X0104909Y0258734D01*
X0104757Y0258368D01*
X0101013Y0258368D01*
X0096961Y0254317D01*
X0096596Y0254468D01*
X0095004Y0254468D01*
X0093534Y0253860D01*
X0092409Y0252734D01*
X0091800Y0251264D01*
X0091800Y0249673D01*
X0092409Y0248203D01*
X0093534Y0247077D01*
X0095004Y0246469D01*
X0096596Y0246469D01*
X0098066Y0247077D01*
X0099191Y0248203D01*
X0099800Y0249673D01*
X0099800Y0251264D01*
X0099648Y0251630D01*
X0102587Y0254569D01*
X0104757Y0254569D01*
X0104909Y0254203D01*
X0105878Y0253234D01*
X0096961Y0244317D01*
X0096596Y0244468D01*
X0095004Y0244468D01*
X0093534Y0243860D01*
X0092409Y0242734D01*
X0091800Y0241264D01*
X0091800Y0239673D01*
X0091952Y0239307D01*
X0085013Y0232368D01*
X0069343Y0232368D01*
X0069191Y0232734D01*
X0068066Y0233860D01*
X0066596Y0234468D01*
X0065004Y0234468D01*
X0063534Y0233860D01*
X0062409Y0232734D01*
X0061800Y0231264D01*
X0061800Y0229673D01*
X0062409Y0228203D01*
X0063534Y0227077D01*
X0065004Y0226469D01*
X0066596Y0226469D01*
X0068066Y0227077D01*
X0069191Y0228203D01*
X0069343Y0228569D01*
X0086587Y0228569D01*
X0094639Y0236620D01*
X0095004Y0236469D01*
X0096596Y0236469D01*
X0098066Y0237077D01*
X0099191Y0238203D01*
X0099800Y0239673D01*
X0099800Y0241264D01*
X0099648Y0241630D01*
X0108087Y0250069D01*
X0117269Y0250069D01*
X0116934Y0249825D01*
X0116444Y0249335D01*
X0116037Y0248775D01*
X0115722Y0248158D01*
X0115508Y0247499D01*
X0115400Y0246815D01*
X0115400Y0246469D01*
X0119800Y0246469D01*
X0124200Y0246469D01*
X0124200Y0246815D01*
X0124092Y0247499D01*
X0123878Y0248158D01*
X0123563Y0248775D01*
X0123156Y0249335D01*
X0122666Y0249825D01*
X0122331Y0250069D01*
X0138177Y0250069D01*
X0137944Y0249835D01*
X0137537Y0249275D01*
X0137222Y0248658D01*
X0137008Y0247999D01*
X0136900Y0247315D01*
X0136900Y0246969D01*
X0141300Y0246969D01*
X0145700Y0246969D01*
X0145700Y0247315D01*
X0145592Y0247999D01*
X0145378Y0248658D01*
X0145063Y0249275D01*
X0144656Y0249835D01*
X0144423Y0250069D01*
X0149087Y0250069D01*
X0150200Y0251181D01*
X0153785Y0254766D01*
X0154504Y0254469D01*
X0156096Y0254469D01*
X0157566Y0255077D01*
X0158691Y0256203D01*
X0159300Y0257673D01*
X0159300Y0259264D01*
X0158691Y0260734D01*
X0157566Y0261860D01*
X0156096Y0262468D01*
X0154504Y0262468D01*
X0153198Y0261927D02*
X0099525Y0261927D01*
X0099800Y0260329D02*
X0107167Y0260329D01*
X0109433Y0260329D02*
X0118667Y0260329D01*
X0120933Y0260329D02*
X0128003Y0260329D01*
X0126700Y0258730D02*
X0123193Y0258730D01*
X0123800Y0257132D02*
X0126300Y0257132D01*
X0126565Y0255533D02*
X0123742Y0255533D01*
X0122923Y0253935D02*
X0127677Y0253935D01*
X0123298Y0249139D02*
X0137468Y0249139D01*
X0136936Y0247541D02*
X0124078Y0247541D01*
X0124200Y0246468D02*
X0119800Y0246468D01*
X0119800Y0242069D01*
X0120146Y0242069D01*
X0120830Y0242177D01*
X0121489Y0242391D01*
X0122106Y0242705D01*
X0122666Y0243112D01*
X0123156Y0243602D01*
X0123563Y0244162D01*
X0123878Y0244779D01*
X0124092Y0245438D01*
X0124200Y0246122D01*
X0124200Y0246468D01*
X0124171Y0245942D02*
X0137008Y0245942D01*
X0137008Y0245938D02*
X0137222Y0245279D01*
X0137537Y0244662D01*
X0137944Y0244102D01*
X0138434Y0243612D01*
X0138994Y0243205D01*
X0139611Y0242891D01*
X0140270Y0242677D01*
X0140954Y0242569D01*
X0141300Y0242568D01*
X0141300Y0246968D01*
X0141300Y0242569D01*
X0141646Y0242569D01*
X0142330Y0242677D01*
X0142989Y0242891D01*
X0143606Y0243205D01*
X0144166Y0243612D01*
X0144656Y0244102D01*
X0145063Y0244662D01*
X0145378Y0245279D01*
X0145592Y0245938D01*
X0145700Y0246622D01*
X0145700Y0246968D01*
X0141300Y0246968D01*
X0141300Y0246968D01*
X0141300Y0246969D01*
X0141300Y0246968D01*
X0136900Y0246968D01*
X0136900Y0246622D01*
X0137008Y0245938D01*
X0137768Y0244344D02*
X0123656Y0244344D01*
X0122161Y0242745D02*
X0140059Y0242745D01*
X0141300Y0242745D02*
X0141300Y0242745D01*
X0142541Y0242745D02*
X0166890Y0242745D01*
X0166400Y0242255D02*
X0159513Y0235368D01*
X0157857Y0235368D01*
X0158691Y0236203D01*
X0159300Y0237673D01*
X0159300Y0239264D01*
X0158691Y0240734D01*
X0157566Y0241860D01*
X0156096Y0242468D01*
X0154504Y0242468D01*
X0153034Y0241860D01*
X0151909Y0240734D01*
X0151300Y0239264D01*
X0151300Y0237673D01*
X0151909Y0236203D01*
X0152743Y0235368D01*
X0114513Y0235368D01*
X0113513Y0234368D01*
X0109461Y0230317D01*
X0109096Y0230468D01*
X0107504Y0230468D01*
X0106034Y0229860D01*
X0104909Y0228734D01*
X0104300Y0227264D01*
X0104300Y0225673D01*
X0104909Y0224203D01*
X0106034Y0223077D01*
X0107504Y0222469D01*
X0109096Y0222469D01*
X0110566Y0223077D01*
X0111691Y0224203D01*
X0112300Y0225673D01*
X0112300Y0227264D01*
X0112148Y0227630D01*
X0116087Y0231569D01*
X0152743Y0231569D01*
X0151909Y0230734D01*
X0151300Y0229264D01*
X0151300Y0227673D01*
X0151909Y0226203D01*
X0153034Y0225077D01*
X0153539Y0224868D01*
X0135087Y0224868D01*
X0134148Y0225807D01*
X0134300Y0226173D01*
X0134300Y0227764D01*
X0133691Y0229234D01*
X0132566Y0230360D01*
X0131096Y0230968D01*
X0129504Y0230968D01*
X0128034Y0230360D01*
X0126909Y0229234D01*
X0126300Y0227764D01*
X0126300Y0226173D01*
X0126452Y0225807D01*
X0113013Y0212368D01*
X0099343Y0212368D01*
X0099191Y0212734D01*
X0098066Y0213860D01*
X0096596Y0214468D01*
X0095004Y0214468D01*
X0093534Y0213860D01*
X0092409Y0212734D01*
X0091800Y0211264D01*
X0091800Y0209673D01*
X0092409Y0208203D01*
X0093534Y0207077D01*
X0095004Y0206469D01*
X0096596Y0206469D01*
X0098066Y0207077D01*
X0099191Y0208203D01*
X0099343Y0208569D01*
X0114587Y0208569D01*
X0129139Y0223120D01*
X0129504Y0222969D01*
X0131096Y0222969D01*
X0131461Y0223120D01*
X0133513Y0221069D01*
X0152243Y0221069D01*
X0151909Y0220734D01*
X0151300Y0219264D01*
X0151300Y0217673D01*
X0151909Y0216203D01*
X0153034Y0215077D01*
X0154504Y0214469D01*
X0156096Y0214469D01*
X0157566Y0215077D01*
X0158691Y0216203D01*
X0159300Y0217673D01*
X0159300Y0219264D01*
X0158691Y0220734D01*
X0158357Y0221069D01*
X0160087Y0221069D01*
X0161200Y0222181D01*
X0165587Y0226569D01*
X0181757Y0226569D01*
X0181909Y0226203D01*
X0183034Y0225077D01*
X0184504Y0224469D01*
X0186096Y0224469D01*
X0187566Y0225077D01*
X0188691Y0226203D01*
X0189300Y0227673D01*
X0189300Y0229264D01*
X0188691Y0230734D01*
X0187566Y0231860D01*
X0186096Y0232468D01*
X0184504Y0232468D01*
X0183034Y0231860D01*
X0181909Y0230734D01*
X0181757Y0230368D01*
X0164013Y0230368D01*
X0158513Y0224868D01*
X0157061Y0224868D01*
X0157566Y0225077D01*
X0158691Y0226203D01*
X0159300Y0227673D01*
X0159300Y0229264D01*
X0158691Y0230734D01*
X0157857Y0231569D01*
X0161087Y0231569D01*
X0169087Y0239569D01*
X0176587Y0247069D01*
X0184139Y0254620D01*
X0184504Y0254469D01*
X0186096Y0254469D01*
X0187566Y0255077D01*
X0188691Y0256203D01*
X0189300Y0257673D01*
X0189300Y0259264D01*
X0188691Y0260734D01*
X0187566Y0261860D01*
X0186096Y0262468D01*
X0184504Y0262468D01*
X0183034Y0261860D01*
X0181909Y0260734D01*
X0181300Y0259264D01*
X0181300Y0257673D01*
X0181452Y0257307D01*
X0173900Y0249755D01*
X0166400Y0242255D01*
X0165291Y0241147D02*
X0158279Y0241147D01*
X0159182Y0239548D02*
X0163693Y0239548D01*
X0162094Y0237950D02*
X0159300Y0237950D01*
X0158753Y0236351D02*
X0160496Y0236351D01*
X0162673Y0233154D02*
X0199400Y0233154D01*
X0199400Y0231556D02*
X0187870Y0231556D01*
X0189013Y0229957D02*
X0199400Y0229957D01*
X0199400Y0228359D02*
X0189300Y0228359D01*
X0188922Y0226760D02*
X0199400Y0226760D01*
X0199400Y0225162D02*
X0187650Y0225162D01*
X0186989Y0222546D02*
X0186330Y0222760D01*
X0185646Y0222868D01*
X0185300Y0222868D01*
X0184954Y0222868D01*
X0184270Y0222760D01*
X0183611Y0222546D01*
X0182994Y0222232D01*
X0182434Y0221825D01*
X0181944Y0221335D01*
X0181537Y0220775D01*
X0181222Y0220158D01*
X0181008Y0219499D01*
X0180900Y0218815D01*
X0180900Y0218469D01*
X0185300Y0218469D01*
X0185300Y0222868D01*
X0185300Y0218469D01*
X0185300Y0218469D01*
X0189700Y0218469D01*
X0189700Y0218815D01*
X0189592Y0219499D01*
X0189378Y0220158D01*
X0189063Y0220775D01*
X0188656Y0221335D01*
X0188166Y0221825D01*
X0187606Y0222232D01*
X0186989Y0222546D01*
X0187974Y0221965D02*
X0199400Y0221965D01*
X0199400Y0223563D02*
X0162582Y0223563D01*
X0164180Y0225162D02*
X0182950Y0225162D01*
X0182626Y0221965D02*
X0160983Y0221965D01*
X0158844Y0220366D02*
X0181329Y0220366D01*
X0180900Y0218768D02*
X0159300Y0218768D01*
X0159091Y0217169D02*
X0181096Y0217169D01*
X0181008Y0217438D02*
X0181222Y0216779D01*
X0181537Y0216162D01*
X0181944Y0215602D01*
X0182434Y0215112D01*
X0182994Y0214705D01*
X0183611Y0214391D01*
X0184270Y0214177D01*
X0184954Y0214069D01*
X0185300Y0214069D01*
X0185646Y0214069D01*
X0186330Y0214177D01*
X0186989Y0214391D01*
X0187606Y0214705D01*
X0188166Y0215112D01*
X0188656Y0215602D01*
X0189063Y0216162D01*
X0189378Y0216779D01*
X0189592Y0217438D01*
X0189700Y0218122D01*
X0189700Y0218468D01*
X0185300Y0218468D01*
X0185300Y0214069D01*
X0185300Y0218468D01*
X0185300Y0218468D01*
X0185300Y0218469D01*
X0185300Y0218468D01*
X0180900Y0218468D01*
X0180900Y0218122D01*
X0181008Y0217438D01*
X0181975Y0215571D02*
X0158059Y0215571D01*
X0156989Y0212546D02*
X0156330Y0212760D01*
X0155646Y0212868D01*
X0155300Y0212868D01*
X0154954Y0212868D01*
X0154270Y0212760D01*
X0153611Y0212546D01*
X0152994Y0212232D01*
X0152434Y0211825D01*
X0151944Y0211335D01*
X0151537Y0210775D01*
X0116793Y0210775D01*
X0115195Y0209176D02*
X0150957Y0209176D01*
X0151008Y0209499D02*
X0150900Y0208815D01*
X0150900Y0208469D01*
X0155300Y0208469D01*
X0155300Y0212868D01*
X0155300Y0208469D01*
X0155300Y0208469D01*
X0159700Y0208469D01*
X0159700Y0208815D01*
X0159592Y0209499D01*
X0159378Y0210158D01*
X0159063Y0210775D01*
X0181950Y0210775D01*
X0181909Y0210734D02*
X0181300Y0209264D01*
X0181300Y0207673D01*
X0181909Y0206203D01*
X0183034Y0205077D01*
X0184504Y0204469D01*
X0186096Y0204469D01*
X0187566Y0205077D01*
X0188691Y0206203D01*
X0189300Y0207673D01*
X0189300Y0209264D01*
X0188691Y0210734D01*
X0187566Y0211860D01*
X0186096Y0212468D01*
X0184504Y0212468D01*
X0183034Y0211860D01*
X0181909Y0210734D01*
X0181300Y0209176D02*
X0159643Y0209176D01*
X0159700Y0208468D02*
X0155300Y0208468D01*
X0155300Y0204069D01*
X0155646Y0204069D01*
X0156330Y0204177D01*
X0156989Y0204391D01*
X0157606Y0204705D01*
X0158166Y0205112D01*
X0158656Y0205602D01*
X0159063Y0206162D01*
X0159378Y0206779D01*
X0159592Y0207438D01*
X0159700Y0208122D01*
X0159700Y0208468D01*
X0159614Y0207578D02*
X0181339Y0207578D01*
X0182132Y0205979D02*
X0158930Y0205979D01*
X0156958Y0204381D02*
X0190525Y0204381D01*
X0188927Y0202782D02*
X0083700Y0202782D01*
X0083700Y0201184D02*
X0187328Y0201184D01*
X0185730Y0199585D02*
X0168340Y0199585D01*
X0168066Y0199860D02*
X0166596Y0200468D01*
X0165004Y0200468D01*
X0163534Y0199860D01*
X0162409Y0198734D01*
X0161800Y0197264D01*
X0161800Y0195673D01*
X0162409Y0194203D01*
X0163534Y0193077D01*
X0165004Y0192469D01*
X0166596Y0192469D01*
X0168066Y0193077D01*
X0169191Y0194203D01*
X0169800Y0195673D01*
X0169800Y0197264D01*
X0169191Y0198734D01*
X0168066Y0199860D01*
X0169501Y0197987D02*
X0184131Y0197987D01*
X0182533Y0196388D02*
X0169800Y0196388D01*
X0169434Y0194790D02*
X0180934Y0194790D01*
X0179336Y0193191D02*
X0168180Y0193191D01*
X0163420Y0193191D02*
X0158745Y0193191D01*
X0158666Y0193112D02*
X0159156Y0193602D01*
X0159563Y0194162D01*
X0159878Y0194779D01*
X0160092Y0195438D01*
X0160200Y0196122D01*
X0160200Y0196468D01*
X0155800Y0196468D01*
X0155800Y0192069D01*
X0156146Y0192069D01*
X0156830Y0192177D01*
X0157489Y0192391D01*
X0158106Y0192705D01*
X0158666Y0193112D01*
X0159881Y0194790D02*
X0162166Y0194790D01*
X0161800Y0196388D02*
X0160200Y0196388D01*
X0160200Y0196469D02*
X0160200Y0196815D01*
X0160092Y0197499D01*
X0159878Y0198158D01*
X0159563Y0198775D01*
X0159156Y0199335D01*
X0158666Y0199825D01*
X0158106Y0200232D01*
X0157489Y0200546D01*
X0156830Y0200760D01*
X0156146Y0200868D01*
X0155800Y0200868D01*
X0155454Y0200868D01*
X0154770Y0200760D01*
X0154111Y0200546D01*
X0153494Y0200232D01*
X0152934Y0199825D01*
X0152444Y0199335D01*
X0152037Y0198775D01*
X0151722Y0198158D01*
X0151508Y0197499D01*
X0151400Y0196815D01*
X0151400Y0196469D01*
X0155800Y0196469D01*
X0155800Y0200868D01*
X0155800Y0196469D01*
X0155800Y0196469D01*
X0160200Y0196469D01*
X0159933Y0197987D02*
X0162099Y0197987D01*
X0163260Y0199585D02*
X0158906Y0199585D01*
X0155800Y0199585D02*
X0155800Y0199585D01*
X0155800Y0197987D02*
X0155800Y0197987D01*
X0155800Y0196469D02*
X0155800Y0196468D01*
X0155800Y0196468D01*
X0155800Y0192069D01*
X0155454Y0192069D01*
X0154770Y0192177D01*
X0154111Y0192391D01*
X0153494Y0192705D01*
X0152934Y0193112D01*
X0152444Y0193602D01*
X0152037Y0194162D01*
X0151722Y0194779D01*
X0151508Y0195438D01*
X0151400Y0196122D01*
X0151400Y0196468D01*
X0155800Y0196468D01*
X0155800Y0196469D01*
X0155800Y0196388D02*
X0155800Y0196388D01*
X0155800Y0194790D02*
X0155800Y0194790D01*
X0155800Y0193191D02*
X0155800Y0193191D01*
X0152855Y0193191D02*
X0083700Y0193191D01*
X0083700Y0194790D02*
X0151719Y0194790D01*
X0151400Y0196388D02*
X0083700Y0196388D01*
X0083700Y0197987D02*
X0151667Y0197987D01*
X0152694Y0199585D02*
X0083700Y0199585D01*
X0079900Y0199585D02*
X0079127Y0199585D01*
X0079900Y0201184D02*
X0067352Y0201184D01*
X0067118Y0201260D02*
X0066434Y0201368D01*
X0066087Y0201368D01*
X0065741Y0201368D01*
X0065057Y0201260D01*
X0064398Y0201046D01*
X0063781Y0200732D01*
X0063221Y0200325D01*
X0062731Y0199835D01*
X0062324Y0199275D01*
X0062010Y0198658D01*
X0061796Y0197999D01*
X0061687Y0197315D01*
X0061687Y0196969D01*
X0066087Y0196969D01*
X0066087Y0201368D01*
X0066087Y0196969D01*
X0066087Y0196969D01*
X0066087Y0196968D01*
X0066087Y0196968D01*
X0066087Y0192569D01*
X0065741Y0192569D01*
X0065057Y0192677D01*
X0064398Y0192891D01*
X0063781Y0193205D01*
X0063221Y0193612D01*
X0062731Y0194102D01*
X0062324Y0194662D01*
X0062010Y0195279D01*
X0061796Y0195938D01*
X0061687Y0196622D01*
X0061687Y0196968D01*
X0066087Y0196968D01*
X0066087Y0192569D01*
X0066434Y0192569D01*
X0067118Y0192677D01*
X0067776Y0192891D01*
X0068393Y0193205D01*
X0068954Y0193612D01*
X0069444Y0194102D01*
X0069851Y0194662D01*
X0070165Y0195279D01*
X0070379Y0195938D01*
X0070487Y0196622D01*
X0070487Y0196968D01*
X0066088Y0196968D01*
X0066088Y0196969D01*
X0070487Y0196969D01*
X0070487Y0197315D01*
X0070379Y0197999D01*
X0070165Y0198658D01*
X0069851Y0199275D01*
X0069444Y0199835D01*
X0068954Y0200325D01*
X0068393Y0200732D01*
X0067776Y0201046D01*
X0067118Y0201260D01*
X0066087Y0201184D02*
X0066087Y0201184D01*
X0064822Y0201184D02*
X0039200Y0201184D01*
X0039200Y0202782D02*
X0040829Y0202782D01*
X0041034Y0202577D02*
X0042504Y0201969D01*
X0044096Y0201969D01*
X0045566Y0202577D01*
X0046691Y0203703D01*
X0047300Y0205173D01*
X0047300Y0206764D01*
X0046691Y0208234D01*
X0045566Y0209360D01*
X0044096Y0209968D01*
X0042504Y0209968D01*
X0041034Y0209360D01*
X0039909Y0208234D01*
X0039300Y0206764D01*
X0039300Y0205173D01*
X0039909Y0203703D01*
X0041034Y0202577D01*
X0039628Y0204381D02*
X0039200Y0204381D01*
X0039200Y0205979D02*
X0039300Y0205979D01*
X0039200Y0207578D02*
X0039637Y0207578D01*
X0039200Y0209176D02*
X0040851Y0209176D01*
X0039200Y0210775D02*
X0061400Y0210775D01*
X0061400Y0210815D02*
X0061400Y0210469D01*
X0065800Y0210469D01*
X0065800Y0214868D01*
X0066146Y0214868D01*
X0066830Y0214760D01*
X0067489Y0214546D01*
X0068106Y0214232D01*
X0068666Y0213825D01*
X0069156Y0213335D01*
X0069563Y0212775D01*
X0069878Y0212158D01*
X0070092Y0211499D01*
X0070200Y0210815D01*
X0070200Y0210469D01*
X0065800Y0210469D01*
X0065800Y0210469D01*
X0065800Y0214868D01*
X0065454Y0214868D01*
X0064770Y0214760D01*
X0064111Y0214546D01*
X0063494Y0214232D01*
X0062934Y0213825D01*
X0062444Y0213335D01*
X0062037Y0212775D01*
X0061722Y0212158D01*
X0061508Y0211499D01*
X0061400Y0210815D01*
X0061400Y0210468D02*
X0061400Y0210122D01*
X0061508Y0209438D01*
X0061722Y0208779D01*
X0062037Y0208162D01*
X0062444Y0207602D01*
X0062934Y0207112D01*
X0063494Y0206705D01*
X0064111Y0206391D01*
X0064770Y0206177D01*
X0065454Y0206069D01*
X0065800Y0206069D01*
X0066146Y0206069D01*
X0066830Y0206177D01*
X0067489Y0206391D01*
X0068106Y0206705D01*
X0068666Y0207112D01*
X0069156Y0207602D01*
X0069563Y0208162D01*
X0069878Y0208779D01*
X0070092Y0209438D01*
X0070200Y0210122D01*
X0070200Y0210468D01*
X0065800Y0210468D01*
X0065800Y0206069D01*
X0065800Y0210468D01*
X0065800Y0210468D01*
X0065800Y0210469D01*
X0065800Y0210468D01*
X0061400Y0210468D01*
X0061593Y0209176D02*
X0056315Y0209176D01*
X0056166Y0209325D02*
X0055606Y0209732D01*
X0054989Y0210046D01*
X0054330Y0210260D01*
X0053646Y0210368D01*
X0053300Y0210368D01*
X0052954Y0210368D01*
X0052270Y0210260D01*
X0051611Y0210046D01*
X0050994Y0209732D01*
X0050434Y0209325D01*
X0049944Y0208835D01*
X0049537Y0208275D01*
X0049222Y0207658D01*
X0049008Y0206999D01*
X0048900Y0206315D01*
X0048900Y0205969D01*
X0053300Y0205969D01*
X0053300Y0210368D01*
X0053300Y0205969D01*
X0053300Y0205969D01*
X0057700Y0205969D01*
X0057700Y0206315D01*
X0057592Y0206999D01*
X0057378Y0207658D01*
X0057063Y0208275D01*
X0056656Y0208835D01*
X0056166Y0209325D01*
X0057403Y0207578D02*
X0062468Y0207578D01*
X0065800Y0207578D02*
X0065800Y0207578D01*
X0065800Y0209176D02*
X0065800Y0209176D01*
X0065800Y0210775D02*
X0065800Y0210775D01*
X0065800Y0212373D02*
X0065800Y0212373D01*
X0065800Y0213972D02*
X0065800Y0213972D01*
X0068464Y0213972D02*
X0079900Y0213972D01*
X0079900Y0212373D02*
X0069768Y0212373D01*
X0070200Y0210775D02*
X0079900Y0210775D01*
X0079900Y0209176D02*
X0070007Y0209176D01*
X0069132Y0207578D02*
X0079900Y0207578D01*
X0079900Y0205979D02*
X0057700Y0205979D01*
X0057700Y0205968D02*
X0053300Y0205968D01*
X0053300Y0201569D01*
X0053646Y0201569D01*
X0054330Y0201677D01*
X0054989Y0201891D01*
X0055606Y0202205D01*
X0056166Y0202612D01*
X0056656Y0203102D01*
X0057063Y0203662D01*
X0057378Y0204279D01*
X0057592Y0204938D01*
X0057700Y0205622D01*
X0057700Y0205968D01*
X0057411Y0204381D02*
X0079900Y0204381D01*
X0079900Y0202782D02*
X0056336Y0202782D01*
X0053300Y0202782D02*
X0053300Y0202782D01*
X0053300Y0201569D02*
X0053300Y0205968D01*
X0053300Y0205968D01*
X0053300Y0205969D01*
X0053300Y0205968D01*
X0048900Y0205968D01*
X0048900Y0205622D01*
X0049008Y0204938D01*
X0049222Y0204279D01*
X0049537Y0203662D01*
X0049944Y0203102D01*
X0050434Y0202612D01*
X0050994Y0202205D01*
X0051611Y0201891D01*
X0052270Y0201677D01*
X0052954Y0201569D01*
X0053300Y0201569D01*
X0053300Y0204381D02*
X0053300Y0204381D01*
X0053300Y0205979D02*
X0053300Y0205979D01*
X0053300Y0207578D02*
X0053300Y0207578D01*
X0053300Y0209176D02*
X0053300Y0209176D01*
X0050285Y0209176D02*
X0045749Y0209176D01*
X0046963Y0207578D02*
X0049197Y0207578D01*
X0048900Y0205979D02*
X0047300Y0205979D01*
X0046972Y0204381D02*
X0049189Y0204381D01*
X0050264Y0202782D02*
X0045771Y0202782D01*
X0040469Y0197987D02*
X0061794Y0197987D01*
X0061724Y0196388D02*
X0042067Y0196388D01*
X0039200Y0199585D02*
X0062550Y0199585D01*
X0066087Y0199585D02*
X0066087Y0199585D01*
X0066087Y0197987D02*
X0066087Y0197987D01*
X0066087Y0196388D02*
X0066087Y0196388D01*
X0066087Y0194790D02*
X0066087Y0194790D01*
X0066087Y0193191D02*
X0066087Y0193191D01*
X0063809Y0193191D02*
X0058029Y0193191D01*
X0058092Y0192999D02*
X0057878Y0193658D01*
X0057563Y0194275D01*
X0057156Y0194835D01*
X0056666Y0195325D01*
X0056106Y0195732D01*
X0055489Y0196046D01*
X0054830Y0196260D01*
X0054146Y0196368D01*
X0053800Y0196368D01*
X0053454Y0196368D01*
X0052770Y0196260D01*
X0052111Y0196046D01*
X0051494Y0195732D01*
X0050934Y0195325D01*
X0050444Y0194835D01*
X0050037Y0194275D01*
X0049722Y0193658D01*
X0049508Y0192999D01*
X0049400Y0192315D01*
X0049400Y0191969D01*
X0053800Y0191969D01*
X0053800Y0196368D01*
X0053800Y0191969D01*
X0053800Y0191969D01*
X0058200Y0191969D01*
X0058200Y0192315D01*
X0058092Y0192999D01*
X0058200Y0191968D02*
X0053800Y0191968D01*
X0053800Y0187569D01*
X0054146Y0187569D01*
X0054830Y0187677D01*
X0055489Y0187891D01*
X0056106Y0188205D01*
X0056666Y0188612D01*
X0057156Y0189102D01*
X0057563Y0189662D01*
X0057878Y0190279D01*
X0058092Y0190938D01*
X0058200Y0191622D01*
X0058200Y0191968D01*
X0058195Y0191593D02*
X0077237Y0191593D01*
X0077421Y0193191D02*
X0078836Y0193191D01*
X0079515Y0194790D02*
X0079900Y0194790D01*
X0082611Y0191593D02*
X0087704Y0191593D01*
X0086816Y0189994D02*
X0081013Y0189994D01*
X0079414Y0188396D02*
X0087014Y0188396D01*
X0088451Y0186797D02*
X0077816Y0186797D01*
X0076217Y0185199D02*
X0091096Y0185199D01*
X0090352Y0186432D02*
X0090352Y0186432D01*
X0090352Y0186432D01*
X0092926Y0183600D02*
X0074619Y0183600D01*
X0073020Y0182002D02*
X0095580Y0182002D01*
X0097178Y0180403D02*
X0071422Y0180403D01*
X0069823Y0178805D02*
X0098777Y0178805D01*
X0107560Y0188396D02*
X0174540Y0188396D01*
X0176139Y0189994D02*
X0105961Y0189994D01*
X0092302Y0191593D02*
X0177737Y0191593D01*
X0182717Y0185199D02*
X0377154Y0185199D01*
X0377154Y0186797D02*
X0184316Y0186797D01*
X0185914Y0188396D02*
X0377154Y0188396D01*
X0377154Y0189994D02*
X0307365Y0189994D01*
X0307566Y0190077D02*
X0308691Y0191203D01*
X0309300Y0192673D01*
X0309300Y0194264D01*
X0308691Y0195734D01*
X0307566Y0196860D01*
X0306096Y0197468D01*
X0304504Y0197468D01*
X0303034Y0196860D01*
X0302643Y0196468D01*
X0277957Y0196468D01*
X0277566Y0196860D01*
X0276096Y0197468D01*
X0274504Y0197468D01*
X0273034Y0196860D01*
X0271909Y0195734D01*
X0271300Y0194264D01*
X0271300Y0192673D01*
X0271909Y0191203D01*
X0273034Y0190077D01*
X0274504Y0189469D01*
X0276096Y0189469D01*
X0277566Y0190077D01*
X0277957Y0190469D01*
X0302643Y0190469D01*
X0303034Y0190077D01*
X0304504Y0189469D01*
X0306096Y0189469D01*
X0307566Y0190077D01*
X0308853Y0191593D02*
X0323519Y0191593D01*
X0323534Y0191577D02*
X0325004Y0190969D01*
X0326596Y0190969D01*
X0328066Y0191577D01*
X0329191Y0192703D01*
X0329800Y0194173D01*
X0329800Y0195764D01*
X0329191Y0197234D01*
X0328066Y0198360D01*
X0326596Y0198968D01*
X0325004Y0198968D01*
X0323534Y0198360D01*
X0322409Y0197234D01*
X0321800Y0195764D01*
X0321800Y0194173D01*
X0322409Y0192703D01*
X0323534Y0191577D01*
X0322207Y0193191D02*
X0309300Y0193191D01*
X0309082Y0194790D02*
X0321800Y0194790D01*
X0322059Y0196388D02*
X0308037Y0196388D01*
X0306378Y0199585D02*
X0377154Y0199585D01*
X0377154Y0197987D02*
X0339004Y0197987D01*
X0339156Y0197835D02*
X0338666Y0198325D01*
X0338106Y0198732D01*
X0337489Y0199046D01*
X0336830Y0199260D01*
X0336146Y0199368D01*
X0335800Y0199368D01*
X0335454Y0199368D01*
X0334770Y0199260D01*
X0334111Y0199046D01*
X0333494Y0198732D01*
X0332934Y0198325D01*
X0332444Y0197835D01*
X0332037Y0197275D01*
X0331722Y0196658D01*
X0331508Y0195999D01*
X0331400Y0195315D01*
X0331400Y0194969D01*
X0335800Y0194969D01*
X0335800Y0199368D01*
X0335800Y0194969D01*
X0335800Y0194969D01*
X0340200Y0194969D01*
X0340200Y0195315D01*
X0340092Y0195999D01*
X0339878Y0196658D01*
X0339563Y0197275D01*
X0339156Y0197835D01*
X0339965Y0196388D02*
X0377154Y0196388D01*
X0377154Y0194790D02*
X0340200Y0194790D01*
X0340200Y0194622D02*
X0340200Y0194968D01*
X0335800Y0194968D01*
X0335800Y0190569D01*
X0336146Y0190569D01*
X0336830Y0190677D01*
X0337489Y0190891D01*
X0338106Y0191205D01*
X0338666Y0191612D01*
X0339156Y0192102D01*
X0339563Y0192662D01*
X0339878Y0193279D01*
X0340092Y0193938D01*
X0340200Y0194622D01*
X0339833Y0193191D02*
X0377154Y0193191D01*
X0377154Y0191593D02*
X0338640Y0191593D01*
X0335800Y0191593D02*
X0335800Y0191593D01*
X0335800Y0190569D02*
X0335800Y0194968D01*
X0335800Y0194968D01*
X0335800Y0194969D01*
X0335800Y0194968D01*
X0331400Y0194968D01*
X0331400Y0194622D01*
X0331508Y0193938D01*
X0331722Y0193279D01*
X0332037Y0192662D01*
X0332444Y0192102D01*
X0332934Y0191612D01*
X0333494Y0191205D01*
X0334111Y0190891D01*
X0334770Y0190677D01*
X0335454Y0190569D01*
X0335800Y0190569D01*
X0335800Y0193191D02*
X0335800Y0193191D01*
X0335800Y0194790D02*
X0335800Y0194790D01*
X0335800Y0196388D02*
X0335800Y0196388D01*
X0335800Y0197987D02*
X0335800Y0197987D01*
X0332596Y0197987D02*
X0328438Y0197987D01*
X0329541Y0196388D02*
X0331635Y0196388D01*
X0331400Y0194790D02*
X0329800Y0194790D01*
X0329393Y0193191D02*
X0331767Y0193191D01*
X0332960Y0191593D02*
X0328081Y0191593D01*
X0323162Y0197987D02*
X0200624Y0197987D01*
X0201198Y0199585D02*
X0214222Y0199585D01*
X0214504Y0197468D02*
X0213034Y0196860D01*
X0211909Y0195734D01*
X0211300Y0194264D01*
X0211300Y0192673D01*
X0211909Y0191203D01*
X0213034Y0190077D01*
X0214504Y0189469D01*
X0216096Y0189469D01*
X0217566Y0190077D01*
X0217957Y0190469D01*
X0242643Y0190469D01*
X0243034Y0190077D01*
X0244504Y0189469D01*
X0246096Y0189469D01*
X0247566Y0190077D01*
X0248691Y0191203D01*
X0249300Y0192673D01*
X0249300Y0194264D01*
X0248691Y0195734D01*
X0247566Y0196860D01*
X0246096Y0197468D01*
X0244504Y0197468D01*
X0243034Y0196860D01*
X0242643Y0196468D01*
X0217957Y0196468D01*
X0217566Y0196860D01*
X0216096Y0197468D01*
X0214504Y0197468D01*
X0212563Y0196388D02*
X0199369Y0196388D01*
X0196231Y0196388D02*
X0193907Y0196388D01*
X0192308Y0194790D02*
X0211518Y0194790D01*
X0211300Y0193191D02*
X0190710Y0193191D01*
X0189111Y0191593D02*
X0211747Y0191593D01*
X0213235Y0189994D02*
X0187513Y0189994D01*
X0181119Y0183600D02*
X0377154Y0183600D01*
X0377154Y0182002D02*
X0179520Y0182002D01*
X0177922Y0180403D02*
X0377154Y0180403D01*
X0377154Y0178805D02*
X0176323Y0178805D01*
X0160191Y0162234D02*
X0159066Y0163360D01*
X0157596Y0163968D01*
X0156004Y0163968D01*
X0154534Y0163360D01*
X0153409Y0162234D01*
X0152800Y0160764D01*
X0152800Y0159173D01*
X0153409Y0157703D01*
X0154534Y0156577D01*
X0156004Y0155969D01*
X0157596Y0155969D01*
X0159066Y0156577D01*
X0160191Y0157703D01*
X0160800Y0159173D01*
X0160800Y0160764D01*
X0160191Y0162234D01*
X0159606Y0162820D02*
X0177344Y0162820D01*
X0175310Y0161221D02*
X0160611Y0161221D01*
X0160800Y0159623D02*
X0173711Y0159623D01*
X0172113Y0158024D02*
X0160324Y0158024D01*
X0158699Y0156426D02*
X0170514Y0156426D01*
X0168916Y0154827D02*
X0146128Y0154827D01*
X0147700Y0153229D02*
X0154403Y0153229D01*
X0153159Y0151630D02*
X0147700Y0151630D01*
X0147700Y0150032D02*
X0152800Y0150032D01*
X0153106Y0148433D02*
X0147700Y0148433D01*
X0147700Y0146835D02*
X0154277Y0146835D01*
X0155205Y0143638D02*
X0147700Y0143638D01*
X0147700Y0145236D02*
X0167881Y0145236D01*
X0169479Y0146835D02*
X0159323Y0146835D01*
X0158395Y0143638D02*
X0166282Y0143638D01*
X0164683Y0142039D02*
X0160272Y0142039D01*
X0159732Y0137243D02*
X0183868Y0137243D01*
X0183409Y0137703D02*
X0184534Y0136577D01*
X0186004Y0135969D01*
X0187596Y0135969D01*
X0189066Y0136577D01*
X0190191Y0137703D01*
X0190800Y0139173D01*
X0190800Y0140764D01*
X0190191Y0142234D01*
X0189066Y0143360D01*
X0187596Y0143968D01*
X0186004Y0143968D01*
X0184534Y0143360D01*
X0183409Y0142234D01*
X0182800Y0140764D01*
X0182800Y0139173D01*
X0183409Y0137703D01*
X0182937Y0138842D02*
X0166860Y0138842D01*
X0168459Y0140440D02*
X0182800Y0140440D01*
X0183328Y0142039D02*
X0170057Y0142039D01*
X0171656Y0143638D02*
X0185205Y0143638D01*
X0188395Y0143638D02*
X0215705Y0143638D01*
X0213828Y0142039D02*
X0190272Y0142039D01*
X0190800Y0140440D02*
X0213300Y0140440D01*
X0213437Y0138842D02*
X0190663Y0138842D01*
X0189732Y0137243D02*
X0214368Y0137243D01*
X0210400Y0135755D02*
X0210400Y0135755D01*
X0210289Y0135645D02*
X0147700Y0135645D01*
X0147700Y0137243D02*
X0153868Y0137243D01*
X0152937Y0138842D02*
X0147700Y0138842D01*
X0147700Y0140440D02*
X0152800Y0140440D01*
X0153328Y0142039D02*
X0147700Y0142039D01*
X0143900Y0142039D02*
X0119916Y0142039D01*
X0118318Y0143638D02*
X0143900Y0143638D01*
X0143900Y0145236D02*
X0116719Y0145236D01*
X0115121Y0146835D02*
X0143900Y0146835D01*
X0143900Y0148433D02*
X0075316Y0148433D01*
X0073651Y0150032D02*
X0083896Y0150032D01*
X0083826Y0150102D02*
X0084315Y0149612D01*
X0084876Y0149205D01*
X0085493Y0148891D01*
X0086152Y0148677D01*
X0086836Y0148569D01*
X0087182Y0148569D01*
X0087528Y0148569D01*
X0088212Y0148677D01*
X0088871Y0148891D01*
X0089488Y0149205D01*
X0090048Y0149612D01*
X0090538Y0150102D01*
X0090945Y0150662D01*
X0091260Y0151279D01*
X0091474Y0151938D01*
X0091582Y0152622D01*
X0091582Y0152968D01*
X0087182Y0152968D01*
X0087182Y0148569D01*
X0087182Y0152968D01*
X0087182Y0152968D01*
X0087182Y0152969D01*
X0087182Y0152969D01*
X0087182Y0157368D01*
X0087528Y0157368D01*
X0088212Y0157260D01*
X0088871Y0157046D01*
X0089488Y0156732D01*
X0090048Y0156325D01*
X0090538Y0155835D01*
X0090945Y0155275D01*
X0091260Y0154658D01*
X0091474Y0153999D01*
X0091582Y0153315D01*
X0091582Y0152969D01*
X0087182Y0152969D01*
X0087182Y0157368D01*
X0086836Y0157368D01*
X0086152Y0157260D01*
X0085493Y0157046D01*
X0084876Y0156732D01*
X0084315Y0156325D01*
X0083826Y0155835D01*
X0083419Y0155275D01*
X0083104Y0154658D01*
X0082890Y0153999D01*
X0082782Y0153315D01*
X0082782Y0152969D01*
X0087182Y0152969D01*
X0087182Y0152968D01*
X0082782Y0152968D01*
X0082782Y0152622D01*
X0082890Y0151938D01*
X0083104Y0151279D01*
X0083419Y0150662D01*
X0083826Y0150102D01*
X0082990Y0151630D02*
X0054082Y0151630D01*
X0054082Y0150032D02*
X0069949Y0150032D01*
X0068284Y0148433D02*
X0054082Y0148433D01*
X0054082Y0146835D02*
X0067800Y0146835D01*
X0067981Y0145236D02*
X0053255Y0145236D01*
X0051656Y0143638D02*
X0068974Y0143638D01*
X0074626Y0143638D02*
X0112944Y0143638D01*
X0114543Y0142039D02*
X0050057Y0142039D01*
X0047881Y0145236D02*
X0045619Y0145236D01*
X0045800Y0146835D02*
X0049479Y0146835D01*
X0050282Y0148433D02*
X0045316Y0148433D01*
X0044626Y0143638D02*
X0046282Y0143638D01*
X0054082Y0153229D02*
X0069383Y0153229D01*
X0069534Y0153077D02*
X0071004Y0152469D01*
X0072596Y0152469D01*
X0074066Y0153077D01*
X0075191Y0154203D01*
X0075800Y0155673D01*
X0075800Y0157264D01*
X0075191Y0158734D01*
X0074066Y0159860D01*
X0072596Y0160468D01*
X0071004Y0160468D01*
X0069534Y0159860D01*
X0068409Y0158734D01*
X0067800Y0157264D01*
X0067800Y0155673D01*
X0068409Y0154203D01*
X0069534Y0153077D01*
X0068150Y0154827D02*
X0054082Y0154827D01*
X0054082Y0156426D02*
X0067800Y0156426D01*
X0068115Y0158024D02*
X0054082Y0158024D01*
X0054082Y0159623D02*
X0069297Y0159623D01*
X0074303Y0159623D02*
X0083774Y0159623D01*
X0083826Y0159551D02*
X0084315Y0159061D01*
X0084876Y0158654D01*
X0085493Y0158340D01*
X0086152Y0158126D01*
X0086836Y0158017D01*
X0087182Y0158017D01*
X0087528Y0158017D01*
X0088212Y0158126D01*
X0088871Y0158340D01*
X0089488Y0158654D01*
X0090048Y0159061D01*
X0090538Y0159551D01*
X0090945Y0160111D01*
X0091260Y0160728D01*
X0091474Y0161387D01*
X0091582Y0162071D01*
X0091582Y0162417D01*
X0087182Y0162417D01*
X0087182Y0158017D01*
X0087182Y0162417D01*
X0087182Y0162417D01*
X0087182Y0162417D01*
X0082782Y0162417D01*
X0082782Y0162071D01*
X0082890Y0161387D01*
X0083104Y0160728D01*
X0083419Y0160111D01*
X0083826Y0159551D01*
X0082944Y0161221D02*
X0054082Y0161221D01*
X0054082Y0162820D02*
X0082791Y0162820D01*
X0082782Y0162764D02*
X0082782Y0162417D01*
X0087182Y0162417D01*
X0087182Y0162417D01*
X0091582Y0162417D01*
X0091582Y0162764D01*
X0091474Y0163448D01*
X0091260Y0164106D01*
X0090945Y0164723D01*
X0090538Y0165284D01*
X0090048Y0165773D01*
X0089488Y0166181D01*
X0088871Y0166495D01*
X0088212Y0166709D01*
X0087528Y0166817D01*
X0087182Y0166817D01*
X0087182Y0162417D01*
X0087182Y0162417D01*
X0087182Y0166817D01*
X0086836Y0166817D01*
X0086152Y0166709D01*
X0085493Y0166495D01*
X0084876Y0166181D01*
X0084315Y0165773D01*
X0083826Y0165284D01*
X0083419Y0164723D01*
X0083104Y0164106D01*
X0082890Y0163448D01*
X0082782Y0162764D01*
X0083263Y0164418D02*
X0055437Y0164418D01*
X0057035Y0166017D02*
X0084650Y0166017D01*
X0087182Y0166017D02*
X0087182Y0166017D01*
X0087182Y0164418D02*
X0087182Y0164418D01*
X0087182Y0162820D02*
X0087182Y0162820D01*
X0087182Y0161221D02*
X0087182Y0161221D01*
X0087182Y0159623D02*
X0087182Y0159623D01*
X0087182Y0158024D02*
X0087182Y0158024D01*
X0087571Y0158024D02*
X0137557Y0158024D01*
X0135959Y0159623D02*
X0120044Y0159623D01*
X0120573Y0160152D02*
X0119448Y0159026D01*
X0117978Y0158417D01*
X0116386Y0158417D01*
X0114916Y0159026D01*
X0113791Y0160152D01*
X0113182Y0161622D01*
X0113182Y0163213D01*
X0113791Y0164683D01*
X0114916Y0165808D01*
X0116386Y0166417D01*
X0117978Y0166417D01*
X0119448Y0165808D01*
X0120573Y0164683D01*
X0121182Y0163213D01*
X0121182Y0161622D01*
X0120573Y0160152D01*
X0121016Y0161221D02*
X0134360Y0161221D01*
X0132762Y0162820D02*
X0121182Y0162820D01*
X0120683Y0164418D02*
X0131163Y0164418D01*
X0129565Y0166017D02*
X0118945Y0166017D01*
X0115419Y0166017D02*
X0089714Y0166017D01*
X0091101Y0164418D02*
X0113681Y0164418D01*
X0113182Y0162820D02*
X0091573Y0162820D01*
X0091420Y0161221D02*
X0113348Y0161221D01*
X0114320Y0159623D02*
X0090590Y0159623D01*
X0089909Y0156426D02*
X0115076Y0156426D01*
X0114916Y0156360D02*
X0113791Y0155234D01*
X0113182Y0153764D01*
X0113182Y0152173D01*
X0113791Y0150703D01*
X0114916Y0149577D01*
X0116386Y0148969D01*
X0117978Y0148969D01*
X0119448Y0149577D01*
X0120573Y0150703D01*
X0121182Y0152173D01*
X0121182Y0153764D01*
X0120573Y0155234D01*
X0119448Y0156360D01*
X0117978Y0156968D01*
X0116386Y0156968D01*
X0114916Y0156360D01*
X0113622Y0154827D02*
X0091173Y0154827D01*
X0091582Y0153229D02*
X0113182Y0153229D01*
X0113407Y0151630D02*
X0091373Y0151630D01*
X0090467Y0150032D02*
X0114462Y0150032D01*
X0119902Y0150032D02*
X0143900Y0150032D01*
X0143900Y0151630D02*
X0120957Y0151630D01*
X0121182Y0153229D02*
X0142353Y0153229D01*
X0140754Y0154827D02*
X0120742Y0154827D01*
X0119288Y0156426D02*
X0139156Y0156426D01*
X0141333Y0159623D02*
X0152800Y0159623D01*
X0152989Y0161221D02*
X0139734Y0161221D01*
X0138136Y0162820D02*
X0153994Y0162820D01*
X0153276Y0158024D02*
X0142931Y0158024D01*
X0144530Y0156426D02*
X0154901Y0156426D01*
X0159197Y0153229D02*
X0167317Y0153229D01*
X0172606Y0150032D02*
X0172676Y0150032D01*
X0174204Y0151630D02*
X0174275Y0151630D01*
X0175803Y0153229D02*
X0175873Y0153229D01*
X0177401Y0154827D02*
X0177472Y0154827D01*
X0179000Y0156426D02*
X0184901Y0156426D01*
X0188699Y0156426D02*
X0215401Y0156426D01*
X0213776Y0158024D02*
X0190324Y0158024D01*
X0190800Y0159623D02*
X0213300Y0159623D01*
X0213489Y0161221D02*
X0190611Y0161221D01*
X0189606Y0162820D02*
X0214494Y0162820D01*
X0220106Y0162820D02*
X0237964Y0162820D01*
X0239563Y0164418D02*
X0136537Y0164418D01*
X0134939Y0166017D02*
X0241161Y0166017D01*
X0243338Y0162820D02*
X0244494Y0162820D01*
X0243489Y0161221D02*
X0241740Y0161221D01*
X0243300Y0159623D02*
X0240141Y0159623D01*
X0238543Y0158024D02*
X0243776Y0158024D01*
X0245401Y0156426D02*
X0236944Y0156426D01*
X0235346Y0154827D02*
X0238972Y0154827D01*
X0237373Y0153229D02*
X0233747Y0153229D01*
X0235775Y0151630D02*
X0220941Y0151630D01*
X0221300Y0150032D02*
X0234176Y0150032D01*
X0232578Y0148433D02*
X0220994Y0148433D01*
X0219823Y0146835D02*
X0230979Y0146835D01*
X0229900Y0145755D02*
X0229900Y0145755D01*
X0229381Y0145236D02*
X0173255Y0145236D01*
X0174853Y0146835D02*
X0184277Y0146835D01*
X0183106Y0148433D02*
X0176452Y0148433D01*
X0178050Y0150032D02*
X0182800Y0150032D01*
X0183159Y0151630D02*
X0179649Y0151630D01*
X0171078Y0148433D02*
X0171007Y0148433D01*
X0189323Y0146835D02*
X0214777Y0146835D01*
X0213606Y0148433D02*
X0190494Y0148433D01*
X0190800Y0150032D02*
X0213300Y0150032D01*
X0213659Y0151630D02*
X0190441Y0151630D01*
X0208691Y0134046D02*
X0147700Y0134046D01*
X0147700Y0132448D02*
X0153623Y0132448D01*
X0153409Y0132234D02*
X0152800Y0130764D01*
X0152800Y0129173D01*
X0153409Y0127703D01*
X0154534Y0126577D01*
X0156004Y0125969D01*
X0157596Y0125969D01*
X0159066Y0126577D01*
X0160191Y0127703D01*
X0160800Y0129173D01*
X0160800Y0130764D01*
X0160191Y0132234D01*
X0159066Y0133360D01*
X0157596Y0133968D01*
X0156004Y0133968D01*
X0154534Y0133360D01*
X0153409Y0132234D01*
X0152835Y0130849D02*
X0147700Y0130849D01*
X0147700Y0129251D02*
X0152800Y0129251D01*
X0153459Y0127652D02*
X0147700Y0127652D01*
X0147700Y0126054D02*
X0155798Y0126054D01*
X0157802Y0126054D02*
X0181198Y0126054D01*
X0179600Y0124455D02*
X0147700Y0124455D01*
X0147700Y0122857D02*
X0154031Y0122857D01*
X0154534Y0123360D02*
X0153409Y0122234D01*
X0152800Y0120764D01*
X0152800Y0119173D01*
X0153409Y0117703D01*
X0154534Y0116577D01*
X0156004Y0115969D01*
X0157596Y0115969D01*
X0159066Y0116577D01*
X0160191Y0117703D01*
X0160800Y0119173D01*
X0160800Y0120764D01*
X0160191Y0122234D01*
X0159066Y0123360D01*
X0157596Y0123968D01*
X0156004Y0123968D01*
X0154534Y0123360D01*
X0153005Y0121258D02*
X0147700Y0121258D01*
X0147700Y0119660D02*
X0152800Y0119660D01*
X0153260Y0118061D02*
X0147700Y0118061D01*
X0147700Y0116463D02*
X0154811Y0116463D01*
X0154440Y0113266D02*
X0147700Y0113266D01*
X0147700Y0114864D02*
X0177509Y0114864D01*
X0178400Y0116463D02*
X0158789Y0116463D01*
X0160340Y0118061D02*
X0178400Y0118061D01*
X0178400Y0119660D02*
X0160800Y0119660D01*
X0160595Y0121258D02*
X0178400Y0121258D01*
X0178400Y0122857D02*
X0159568Y0122857D01*
X0160141Y0127652D02*
X0183459Y0127652D01*
X0182800Y0129251D02*
X0160800Y0129251D01*
X0160765Y0130849D02*
X0182835Y0130849D01*
X0183623Y0132448D02*
X0159977Y0132448D01*
X0143900Y0132448D02*
X0126002Y0132448D01*
X0127266Y0134046D02*
X0143900Y0134046D01*
X0143900Y0135645D02*
X0127700Y0135645D01*
X0127534Y0137243D02*
X0143900Y0137243D01*
X0143900Y0138842D02*
X0126649Y0138842D01*
X0121515Y0140440D02*
X0143900Y0140440D01*
X0110189Y0122857D02*
X0109700Y0122857D01*
X0127299Y0103675D02*
X0143849Y0103675D01*
X0142636Y0102076D02*
X0128203Y0102076D01*
X0128200Y0100478D02*
X0142300Y0100478D01*
X0142629Y0098879D02*
X0128200Y0098879D01*
X0128200Y0097281D02*
X0143831Y0097281D01*
X0142389Y0092485D02*
X0128200Y0092485D01*
X0129633Y0090887D02*
X0141911Y0090887D01*
X0142057Y0089288D02*
X0131285Y0089288D01*
X0132937Y0087690D02*
X0142880Y0087690D01*
X0145811Y0086091D02*
X0134589Y0086091D01*
X0139544Y0081296D02*
X0197120Y0081296D01*
X0196816Y0079697D02*
X0141196Y0079697D01*
X0142857Y0078099D02*
X0197450Y0078099D01*
X0198204Y0076500D02*
X0144455Y0076500D01*
X0156800Y0086091D02*
X0156800Y0086091D01*
X0156800Y0087690D02*
X0156800Y0087690D01*
X0156800Y0089288D02*
X0156800Y0089288D01*
X0156800Y0090887D02*
X0156800Y0090887D01*
X0156800Y0092485D02*
X0156800Y0092485D01*
X0156800Y0094084D02*
X0156800Y0094084D01*
X0159769Y0097281D02*
X0176801Y0097281D01*
X0175202Y0098879D02*
X0160678Y0098879D01*
X0160800Y0100478D02*
X0173604Y0100478D01*
X0172005Y0102076D02*
X0160257Y0102076D01*
X0153091Y0108470D02*
X0148985Y0108470D01*
X0147700Y0110069D02*
X0152800Y0110069D01*
X0153174Y0111667D02*
X0147700Y0111667D01*
X0159160Y0113266D02*
X0175910Y0113266D01*
X0189977Y0132448D02*
X0207092Y0132448D01*
X0220772Y0142039D02*
X0226184Y0142039D01*
X0227782Y0143638D02*
X0218895Y0143638D01*
X0219199Y0156426D02*
X0231570Y0156426D01*
X0233169Y0158024D02*
X0220824Y0158024D01*
X0221300Y0159623D02*
X0234767Y0159623D01*
X0236366Y0161221D02*
X0221111Y0161221D01*
X0217365Y0189994D02*
X0243235Y0189994D01*
X0247365Y0189994D02*
X0273235Y0189994D01*
X0271747Y0191593D02*
X0248853Y0191593D01*
X0249300Y0193191D02*
X0271300Y0193191D01*
X0271518Y0194790D02*
X0249082Y0194790D01*
X0248037Y0196388D02*
X0272563Y0196388D01*
X0274222Y0199585D02*
X0246378Y0199585D01*
X0244222Y0199585D02*
X0216378Y0199585D01*
X0218672Y0201184D02*
X0241928Y0201184D01*
X0241300Y0202782D02*
X0219300Y0202782D01*
X0219252Y0204381D02*
X0241348Y0204381D01*
X0242154Y0205979D02*
X0218446Y0205979D01*
X0212154Y0205979D02*
X0207498Y0205979D01*
X0205899Y0204381D02*
X0211348Y0204381D01*
X0211300Y0202782D02*
X0204301Y0202782D01*
X0202702Y0201184D02*
X0211928Y0201184D01*
X0198518Y0212373D02*
X0186325Y0212373D01*
X0184275Y0212373D02*
X0157328Y0212373D01*
X0157606Y0212232D02*
X0156989Y0212546D01*
X0157606Y0212232D02*
X0158166Y0211825D01*
X0158656Y0211335D01*
X0159063Y0210775D01*
X0155300Y0210775D02*
X0155300Y0210775D01*
X0155300Y0212373D02*
X0155300Y0212373D01*
X0153272Y0212373D02*
X0118392Y0212373D01*
X0119990Y0213972D02*
X0199400Y0213972D01*
X0199400Y0215571D02*
X0188625Y0215571D01*
X0189504Y0217169D02*
X0199400Y0217169D01*
X0199400Y0218768D02*
X0189700Y0218768D01*
X0189271Y0220366D02*
X0199400Y0220366D01*
X0196919Y0210775D02*
X0188650Y0210775D01*
X0189300Y0209176D02*
X0195321Y0209176D01*
X0193722Y0207578D02*
X0189261Y0207578D01*
X0188468Y0205979D02*
X0192124Y0205979D01*
X0185300Y0215571D02*
X0185300Y0215571D01*
X0185300Y0217169D02*
X0185300Y0217169D01*
X0185300Y0218768D02*
X0185300Y0218768D01*
X0185300Y0220366D02*
X0185300Y0220366D01*
X0185300Y0221965D02*
X0185300Y0221965D01*
X0182730Y0231556D02*
X0157870Y0231556D01*
X0159013Y0229957D02*
X0163602Y0229957D01*
X0162003Y0228359D02*
X0159300Y0228359D01*
X0158922Y0226760D02*
X0160405Y0226760D01*
X0158806Y0225162D02*
X0157650Y0225162D01*
X0152950Y0225162D02*
X0134794Y0225162D01*
X0134300Y0226760D02*
X0151678Y0226760D01*
X0151300Y0228359D02*
X0134054Y0228359D01*
X0132968Y0229957D02*
X0151587Y0229957D01*
X0152730Y0231556D02*
X0116074Y0231556D01*
X0114476Y0229957D02*
X0127632Y0229957D01*
X0126546Y0228359D02*
X0112877Y0228359D01*
X0112300Y0226760D02*
X0126300Y0226760D01*
X0125806Y0225162D02*
X0112088Y0225162D01*
X0111051Y0223563D02*
X0124208Y0223563D01*
X0122609Y0221965D02*
X0099510Y0221965D01*
X0099800Y0221264D02*
X0099191Y0222734D01*
X0098066Y0223860D01*
X0096596Y0224468D01*
X0095004Y0224468D01*
X0093534Y0223860D01*
X0092409Y0222734D01*
X0091800Y0221264D01*
X0091800Y0219673D01*
X0092409Y0218203D01*
X0093534Y0217077D01*
X0095004Y0216469D01*
X0096596Y0216469D01*
X0098066Y0217077D01*
X0099191Y0218203D01*
X0099800Y0219673D01*
X0099800Y0221264D01*
X0099800Y0220366D02*
X0121011Y0220366D01*
X0119412Y0218768D02*
X0099425Y0218768D01*
X0098157Y0217169D02*
X0117814Y0217169D01*
X0116215Y0215571D02*
X0083700Y0215571D01*
X0083700Y0213972D02*
X0093806Y0213972D01*
X0092260Y0212373D02*
X0083700Y0212373D01*
X0083700Y0210775D02*
X0091800Y0210775D01*
X0092006Y0209176D02*
X0083700Y0209176D01*
X0083700Y0207578D02*
X0093034Y0207578D01*
X0098566Y0207578D02*
X0150986Y0207578D01*
X0151008Y0207438D02*
X0151222Y0206779D01*
X0151537Y0206162D01*
X0151944Y0205602D01*
X0152434Y0205112D01*
X0152994Y0204705D01*
X0153611Y0204391D01*
X0154270Y0204177D01*
X0154954Y0204069D01*
X0155300Y0204069D01*
X0155300Y0208468D01*
X0155300Y0208468D01*
X0155300Y0208469D01*
X0155300Y0208468D01*
X0150900Y0208468D01*
X0150900Y0208122D01*
X0151008Y0207438D01*
X0151670Y0205979D02*
X0083700Y0205979D01*
X0083700Y0204381D02*
X0153642Y0204381D01*
X0155300Y0204381D02*
X0155300Y0204381D01*
X0155300Y0205979D02*
X0155300Y0205979D01*
X0155300Y0207578D02*
X0155300Y0207578D01*
X0155300Y0209176D02*
X0155300Y0209176D01*
X0151537Y0210775D02*
X0151222Y0210158D01*
X0151008Y0209499D01*
X0152541Y0215571D02*
X0121589Y0215571D01*
X0123187Y0217169D02*
X0151509Y0217169D01*
X0151300Y0218768D02*
X0124786Y0218768D01*
X0126385Y0220366D02*
X0151756Y0220366D01*
X0132617Y0221965D02*
X0127983Y0221965D01*
X0114617Y0213972D02*
X0097794Y0213972D01*
X0099340Y0212373D02*
X0113018Y0212373D01*
X0105549Y0223563D02*
X0098362Y0223563D01*
X0097300Y0226760D02*
X0104300Y0226760D01*
X0104512Y0225162D02*
X0093180Y0225162D01*
X0093238Y0223563D02*
X0091582Y0223563D01*
X0092090Y0221965D02*
X0089983Y0221965D01*
X0088385Y0220366D02*
X0091800Y0220366D01*
X0092175Y0218768D02*
X0086786Y0218768D01*
X0085188Y0217169D02*
X0093443Y0217169D01*
X0086208Y0223563D02*
X0068362Y0223563D01*
X0069510Y0221965D02*
X0084609Y0221965D01*
X0083011Y0220366D02*
X0069800Y0220366D01*
X0069425Y0218768D02*
X0081412Y0218768D01*
X0079900Y0217169D02*
X0068157Y0217169D01*
X0063443Y0217169D02*
X0039200Y0217169D01*
X0039200Y0215571D02*
X0079900Y0215571D01*
X0087806Y0225162D02*
X0044794Y0225162D01*
X0043195Y0226760D02*
X0049352Y0226760D01*
X0049534Y0226577D02*
X0051004Y0225969D01*
X0052596Y0225969D01*
X0054066Y0226577D01*
X0055191Y0227703D01*
X0055800Y0229173D01*
X0055800Y0230764D01*
X0055191Y0232234D01*
X0054066Y0233360D01*
X0052596Y0233968D01*
X0051004Y0233968D01*
X0049534Y0233360D01*
X0048409Y0232234D01*
X0047800Y0230764D01*
X0047800Y0229173D01*
X0048409Y0227703D01*
X0049534Y0226577D01*
X0048137Y0228359D02*
X0041597Y0228359D01*
X0041300Y0229957D02*
X0047800Y0229957D01*
X0048128Y0231556D02*
X0040972Y0231556D01*
X0039771Y0233154D02*
X0049329Y0233154D01*
X0054271Y0233154D02*
X0062829Y0233154D01*
X0061921Y0231556D02*
X0055472Y0231556D01*
X0055800Y0229957D02*
X0061800Y0229957D01*
X0062344Y0228359D02*
X0055463Y0228359D01*
X0054248Y0226760D02*
X0064300Y0226760D01*
X0067300Y0226760D02*
X0089405Y0226760D01*
X0091003Y0228359D02*
X0069256Y0228359D01*
X0068771Y0233154D02*
X0085799Y0233154D01*
X0087976Y0229957D02*
X0091800Y0229957D01*
X0091921Y0231556D02*
X0089574Y0231556D01*
X0091173Y0233154D02*
X0092829Y0233154D01*
X0092771Y0234753D02*
X0113897Y0234753D01*
X0112299Y0233154D02*
X0098771Y0233154D01*
X0099679Y0231556D02*
X0110700Y0231556D01*
X0106270Y0229957D02*
X0099800Y0229957D01*
X0099256Y0228359D02*
X0104753Y0228359D01*
X0094370Y0236351D02*
X0151847Y0236351D01*
X0151300Y0237950D02*
X0098938Y0237950D01*
X0099748Y0239548D02*
X0151418Y0239548D01*
X0152321Y0241147D02*
X0099800Y0241147D01*
X0100764Y0242745D02*
X0117439Y0242745D01*
X0117494Y0242705D02*
X0118111Y0242391D01*
X0118770Y0242177D01*
X0119454Y0242069D01*
X0119800Y0242068D01*
X0119800Y0246468D01*
X0119800Y0246468D01*
X0119800Y0246469D01*
X0119800Y0246468D01*
X0115400Y0246468D01*
X0115400Y0246122D01*
X0115508Y0245438D01*
X0115722Y0244779D01*
X0116037Y0244162D01*
X0116444Y0243602D01*
X0116934Y0243112D01*
X0117494Y0242705D01*
X0115944Y0244344D02*
X0102362Y0244344D01*
X0103961Y0245942D02*
X0115429Y0245942D01*
X0115522Y0247541D02*
X0105559Y0247541D01*
X0107158Y0249139D02*
X0116302Y0249139D01*
X0119800Y0245942D02*
X0119800Y0245942D01*
X0119800Y0244344D02*
X0119800Y0244344D01*
X0119800Y0242745D02*
X0119800Y0242745D01*
X0105177Y0253935D02*
X0101953Y0253935D01*
X0100355Y0252336D02*
X0104981Y0252336D01*
X0103382Y0250738D02*
X0099800Y0250738D01*
X0099579Y0249139D02*
X0101784Y0249139D01*
X0100185Y0247541D02*
X0098529Y0247541D01*
X0098587Y0245942D02*
X0027998Y0245942D01*
X0039200Y0225162D02*
X0039420Y0225162D01*
X0039200Y0223563D02*
X0041018Y0223563D01*
X0042617Y0221965D02*
X0039200Y0221965D01*
X0039200Y0220366D02*
X0044215Y0220366D01*
X0045814Y0218768D02*
X0039200Y0218768D01*
X0039200Y0213972D02*
X0063136Y0213972D01*
X0061832Y0212373D02*
X0039200Y0212373D01*
X0046392Y0223563D02*
X0063238Y0223563D01*
X0068938Y0237950D02*
X0090594Y0237950D01*
X0091852Y0239548D02*
X0069748Y0239548D01*
X0069800Y0241147D02*
X0091800Y0241147D01*
X0092420Y0242745D02*
X0069180Y0242745D01*
X0066897Y0244344D02*
X0094703Y0244344D01*
X0096897Y0244344D02*
X0096988Y0244344D01*
X0093071Y0247541D02*
X0068529Y0247541D01*
X0069579Y0249139D02*
X0092021Y0249139D01*
X0091800Y0250738D02*
X0069800Y0250738D01*
X0069356Y0252336D02*
X0092244Y0252336D01*
X0093716Y0253935D02*
X0067884Y0253935D01*
X0067700Y0255533D02*
X0098178Y0255533D01*
X0098120Y0257132D02*
X0099776Y0257132D01*
X0099410Y0258730D02*
X0104907Y0258730D01*
X0098399Y0263526D02*
X0211300Y0263526D01*
X0211609Y0261927D02*
X0205518Y0261927D01*
X0204145Y0261927D02*
X0187402Y0261927D01*
X0188859Y0260329D02*
X0202133Y0260329D01*
X0201816Y0258730D02*
X0189300Y0258730D01*
X0189076Y0257132D02*
X0202416Y0257132D01*
X0205352Y0255932D02*
X0205352Y0255932D01*
X0205352Y0255932D01*
X0205492Y0250738D02*
X0212374Y0250738D01*
X0211439Y0252336D02*
X0186415Y0252336D01*
X0186096Y0252468D02*
X0184504Y0252468D01*
X0183034Y0251860D01*
X0181909Y0250734D01*
X0181300Y0249264D01*
X0181300Y0247673D01*
X0181909Y0246203D01*
X0183034Y0245077D01*
X0184504Y0244469D01*
X0186096Y0244469D01*
X0187566Y0245077D01*
X0188691Y0246203D01*
X0189300Y0247673D01*
X0189300Y0249264D01*
X0188691Y0250734D01*
X0187566Y0251860D01*
X0186096Y0252468D01*
X0184185Y0252336D02*
X0181855Y0252336D01*
X0181912Y0250738D02*
X0180256Y0250738D01*
X0181300Y0249139D02*
X0178658Y0249139D01*
X0177059Y0247541D02*
X0181355Y0247541D01*
X0182169Y0245942D02*
X0175461Y0245942D01*
X0173862Y0244344D02*
X0211333Y0244344D01*
X0211300Y0242745D02*
X0172264Y0242745D01*
X0170665Y0241147D02*
X0182321Y0241147D01*
X0181909Y0240734D02*
X0181300Y0239264D01*
X0181300Y0237673D01*
X0181909Y0236203D01*
X0183034Y0235077D01*
X0184504Y0234469D01*
X0186096Y0234469D01*
X0187566Y0235077D01*
X0188691Y0236203D01*
X0189300Y0237673D01*
X0189300Y0239264D01*
X0188691Y0240734D01*
X0187566Y0241860D01*
X0186096Y0242468D01*
X0184504Y0242468D01*
X0183034Y0241860D01*
X0181909Y0240734D01*
X0181418Y0239548D02*
X0169067Y0239548D01*
X0167468Y0237950D02*
X0181300Y0237950D01*
X0181847Y0236351D02*
X0165870Y0236351D01*
X0164271Y0234753D02*
X0183818Y0234753D01*
X0186782Y0234753D02*
X0199897Y0234753D01*
X0201496Y0236351D02*
X0188753Y0236351D01*
X0189300Y0237950D02*
X0203094Y0237950D01*
X0204693Y0239548D02*
X0189182Y0239548D01*
X0188279Y0241147D02*
X0211965Y0241147D01*
X0212117Y0245942D02*
X0204994Y0245942D01*
X0203852Y0245432D02*
X0203852Y0245432D01*
X0203852Y0245432D01*
X0201606Y0245942D02*
X0188431Y0245942D01*
X0189245Y0247541D02*
X0200454Y0247541D01*
X0200348Y0249139D02*
X0189300Y0249139D01*
X0188688Y0250738D02*
X0201349Y0250738D01*
X0211300Y0253935D02*
X0183453Y0253935D01*
X0181276Y0257132D02*
X0159076Y0257132D01*
X0159300Y0258730D02*
X0181300Y0258730D01*
X0181741Y0260329D02*
X0158859Y0260329D01*
X0157402Y0261927D02*
X0183198Y0261927D01*
X0184504Y0264469D02*
X0183034Y0265077D01*
X0181909Y0266203D01*
X0181300Y0267673D01*
X0181300Y0269264D01*
X0181909Y0270734D01*
X0183034Y0271860D01*
X0184504Y0272468D01*
X0186096Y0272468D01*
X0187566Y0271860D01*
X0188691Y0270734D01*
X0189300Y0269264D01*
X0189300Y0267673D01*
X0188691Y0266203D01*
X0187566Y0265077D01*
X0186096Y0264469D01*
X0184504Y0264469D01*
X0182987Y0265124D02*
X0157613Y0265124D01*
X0158906Y0266723D02*
X0181693Y0266723D01*
X0181300Y0268321D02*
X0159300Y0268321D01*
X0159028Y0269920D02*
X0181572Y0269920D01*
X0182693Y0271518D02*
X0157907Y0271518D01*
X0151741Y0260329D02*
X0143597Y0260329D01*
X0144900Y0258730D02*
X0151300Y0258730D01*
X0150776Y0257132D02*
X0145300Y0257132D01*
X0145035Y0255533D02*
X0149178Y0255533D01*
X0147579Y0253935D02*
X0143923Y0253935D01*
X0145132Y0249139D02*
X0151300Y0249139D01*
X0151300Y0249264D02*
X0151300Y0247673D01*
X0151909Y0246203D01*
X0153034Y0245077D01*
X0154504Y0244469D01*
X0156096Y0244469D01*
X0157566Y0245077D01*
X0158691Y0246203D01*
X0159300Y0247673D01*
X0159300Y0249264D01*
X0158691Y0250734D01*
X0157566Y0251860D01*
X0156096Y0252468D01*
X0154504Y0252468D01*
X0153034Y0251860D01*
X0151909Y0250734D01*
X0151300Y0249264D01*
X0151912Y0250738D02*
X0149756Y0250738D01*
X0151355Y0252336D02*
X0154185Y0252336D01*
X0152953Y0253935D02*
X0178079Y0253935D01*
X0176481Y0252336D02*
X0156415Y0252336D01*
X0158688Y0250738D02*
X0174882Y0250738D01*
X0173284Y0249139D02*
X0159300Y0249139D01*
X0159245Y0247541D02*
X0171685Y0247541D01*
X0170087Y0245942D02*
X0158431Y0245942D01*
X0152169Y0245942D02*
X0145592Y0245942D01*
X0145664Y0247541D02*
X0151355Y0247541D01*
X0144832Y0244344D02*
X0168488Y0244344D01*
X0158022Y0255533D02*
X0179678Y0255533D01*
X0188022Y0255533D02*
X0211826Y0255533D01*
X0211656Y0265124D02*
X0187613Y0265124D01*
X0188906Y0266723D02*
X0207038Y0266723D01*
X0206051Y0268321D02*
X0189300Y0268321D01*
X0189028Y0269920D02*
X0206177Y0269920D01*
X0207370Y0271518D02*
X0187907Y0271518D01*
X0209564Y0272005D02*
X0209564Y0272005D01*
X0209564Y0272005D01*
X0210655Y0271518D02*
X0211778Y0271518D01*
X0211255Y0266723D02*
X0212898Y0266723D01*
X0212489Y0276314D02*
X0027998Y0276314D01*
X0027998Y0277912D02*
X0251300Y0277912D01*
X0251300Y0277673D02*
X0251909Y0276203D01*
X0253034Y0275077D01*
X0254504Y0274469D01*
X0256096Y0274469D01*
X0257566Y0275077D01*
X0258691Y0276203D01*
X0259300Y0277673D01*
X0259300Y0279264D01*
X0258691Y0280734D01*
X0257566Y0281860D01*
X0256096Y0282468D01*
X0254504Y0282468D01*
X0253034Y0281860D01*
X0251909Y0280734D01*
X0251300Y0279264D01*
X0251300Y0277673D01*
X0251863Y0276314D02*
X0248671Y0276314D01*
X0248656Y0276335D02*
X0248166Y0276825D01*
X0247606Y0277232D01*
X0246989Y0277546D01*
X0246330Y0277760D01*
X0245646Y0277868D01*
X0245300Y0277868D01*
X0244954Y0277868D01*
X0244270Y0277760D01*
X0243611Y0277546D01*
X0242994Y0277232D01*
X0242434Y0276825D01*
X0241944Y0276335D01*
X0241537Y0275775D01*
X0241222Y0275158D01*
X0241008Y0274499D01*
X0240900Y0273815D01*
X0240900Y0273469D01*
X0245300Y0273469D01*
X0245300Y0277868D01*
X0245300Y0273469D01*
X0245300Y0273469D01*
X0245300Y0273468D01*
X0245300Y0273469D01*
X0249700Y0273469D01*
X0249700Y0273815D01*
X0249592Y0274499D01*
X0249378Y0275158D01*
X0249063Y0275775D01*
X0248656Y0276335D01*
X0249521Y0274715D02*
X0253908Y0274715D01*
X0255761Y0273117D02*
X0249699Y0273117D01*
X0249245Y0271518D02*
X0254163Y0271518D01*
X0257013Y0274368D02*
X0257013Y0274368D01*
X0256692Y0274715D02*
X0257360Y0274715D01*
X0258737Y0276314D02*
X0261460Y0276314D01*
X0260933Y0277912D02*
X0259300Y0277912D01*
X0259198Y0279511D02*
X0261012Y0279511D01*
X0261008Y0279499D02*
X0260900Y0278815D01*
X0260900Y0278469D01*
X0265300Y0278469D01*
X0265300Y0282868D01*
X0264954Y0282868D01*
X0264270Y0282760D01*
X0263611Y0282546D01*
X0262994Y0282232D01*
X0262434Y0281825D01*
X0261944Y0281335D01*
X0261537Y0280775D01*
X0261222Y0280158D01*
X0261008Y0279499D01*
X0261780Y0281109D02*
X0258316Y0281109D01*
X0264109Y0282708D02*
X0027998Y0282708D01*
X0027998Y0284306D02*
X0377154Y0284306D01*
X0377154Y0282708D02*
X0266491Y0282708D01*
X0266330Y0282760D02*
X0265646Y0282868D01*
X0265300Y0282868D01*
X0265300Y0278469D01*
X0265300Y0278469D01*
X0265300Y0278468D01*
X0265300Y0278469D01*
X0269700Y0278469D01*
X0269700Y0278815D01*
X0269592Y0279499D01*
X0269378Y0280158D01*
X0269063Y0280775D01*
X0268656Y0281335D01*
X0268166Y0281825D01*
X0267606Y0282232D01*
X0266989Y0282546D01*
X0266330Y0282760D01*
X0265300Y0282708D02*
X0265300Y0282708D01*
X0265300Y0281109D02*
X0265300Y0281109D01*
X0265300Y0279511D02*
X0265300Y0279511D01*
X0268820Y0281109D02*
X0377154Y0281109D01*
X0377154Y0279511D02*
X0269588Y0279511D01*
X0269667Y0277912D02*
X0377154Y0277912D01*
X0377154Y0276314D02*
X0327111Y0276314D01*
X0326566Y0276860D02*
X0325096Y0277468D01*
X0323504Y0277468D01*
X0322034Y0276860D01*
X0320909Y0275734D01*
X0320300Y0274264D01*
X0320300Y0272673D01*
X0320909Y0271203D01*
X0322034Y0270077D01*
X0323504Y0269469D01*
X0325096Y0269469D01*
X0326566Y0270077D01*
X0327691Y0271203D01*
X0328300Y0272673D01*
X0328300Y0274264D01*
X0327691Y0275734D01*
X0326566Y0276860D01*
X0328113Y0274715D02*
X0377154Y0274715D01*
X0377154Y0273117D02*
X0328300Y0273117D01*
X0327822Y0271518D02*
X0377154Y0271518D01*
X0377154Y0269920D02*
X0365005Y0269920D01*
X0364566Y0270360D02*
X0363096Y0270968D01*
X0361504Y0270968D01*
X0360034Y0270360D01*
X0358909Y0269234D01*
X0358300Y0267764D01*
X0358300Y0266173D01*
X0358909Y0264703D01*
X0360034Y0263577D01*
X0361504Y0262969D01*
X0363096Y0262969D01*
X0364566Y0263577D01*
X0365691Y0264703D01*
X0366300Y0266173D01*
X0366300Y0267764D01*
X0365691Y0269234D01*
X0364566Y0270360D01*
X0366069Y0268321D02*
X0377154Y0268321D01*
X0377154Y0266723D02*
X0366300Y0266723D01*
X0365866Y0265124D02*
X0377154Y0265124D01*
X0377154Y0263526D02*
X0364441Y0263526D01*
X0363096Y0260968D02*
X0361504Y0260968D01*
X0360034Y0260360D01*
X0358909Y0259234D01*
X0358300Y0257764D01*
X0358300Y0256173D01*
X0358909Y0254703D01*
X0360034Y0253577D01*
X0361504Y0252969D01*
X0363096Y0252969D01*
X0364566Y0253577D01*
X0365691Y0254703D01*
X0366300Y0256173D01*
X0366300Y0257764D01*
X0365691Y0259234D01*
X0364566Y0260360D01*
X0363096Y0260968D01*
X0364597Y0260329D02*
X0377154Y0260329D01*
X0377154Y0261927D02*
X0308991Y0261927D01*
X0309300Y0263526D02*
X0330159Y0263526D01*
X0330034Y0263577D02*
X0331504Y0262969D01*
X0333096Y0262969D01*
X0334566Y0263577D01*
X0335691Y0264703D01*
X0336300Y0266173D01*
X0336300Y0267764D01*
X0335691Y0269234D01*
X0334566Y0270360D01*
X0333096Y0270968D01*
X0331504Y0270968D01*
X0330034Y0270360D01*
X0328909Y0269234D01*
X0328300Y0267764D01*
X0328300Y0266173D01*
X0328909Y0264703D01*
X0330034Y0263577D01*
X0328734Y0265124D02*
X0308944Y0265124D01*
X0307702Y0266723D02*
X0328300Y0266723D01*
X0328531Y0268321D02*
X0291134Y0268321D01*
X0292733Y0266723D02*
X0302898Y0266723D01*
X0303611Y0269391D02*
X0304270Y0269177D01*
X0304954Y0269069D01*
X0305300Y0269069D01*
X0305646Y0269069D01*
X0306330Y0269177D01*
X0306989Y0269391D01*
X0307606Y0269705D01*
X0308166Y0270112D01*
X0308656Y0270602D01*
X0309063Y0271162D01*
X0309378Y0271779D01*
X0309592Y0272438D01*
X0309700Y0273122D01*
X0309700Y0273468D01*
X0305300Y0273468D01*
X0305300Y0269069D01*
X0305300Y0273468D01*
X0305300Y0273468D01*
X0305300Y0273469D01*
X0305300Y0277868D01*
X0305646Y0277868D01*
X0306330Y0277760D01*
X0306989Y0277546D01*
X0307606Y0277232D01*
X0308166Y0276825D01*
X0308656Y0276335D01*
X0309063Y0275775D01*
X0309378Y0275158D01*
X0309592Y0274499D01*
X0309700Y0273815D01*
X0309700Y0273469D01*
X0305300Y0273469D01*
X0305300Y0273469D01*
X0305300Y0277868D01*
X0304954Y0277868D01*
X0304270Y0277760D01*
X0303611Y0277546D01*
X0302994Y0277232D01*
X0302434Y0276825D01*
X0301944Y0276335D01*
X0301537Y0275775D01*
X0301222Y0275158D01*
X0301008Y0274499D01*
X0300900Y0273815D01*
X0300900Y0273469D01*
X0305300Y0273469D01*
X0305300Y0273468D01*
X0300900Y0273468D01*
X0300900Y0273122D01*
X0301008Y0272438D01*
X0301222Y0271779D01*
X0301537Y0271162D01*
X0301944Y0270602D01*
X0302434Y0270112D01*
X0302994Y0269705D01*
X0303611Y0269391D01*
X0302698Y0269920D02*
X0289536Y0269920D01*
X0288957Y0265124D02*
X0278944Y0265124D01*
X0279300Y0263526D02*
X0290556Y0263526D01*
X0292154Y0261927D02*
X0278991Y0261927D01*
X0278774Y0255533D02*
X0287048Y0255533D01*
X0288647Y0253935D02*
X0279300Y0253935D01*
X0279161Y0252336D02*
X0290245Y0252336D01*
X0291316Y0249139D02*
X0328870Y0249139D01*
X0328909Y0249234D02*
X0328300Y0247764D01*
X0328300Y0246173D01*
X0328909Y0244703D01*
X0330034Y0243577D01*
X0331504Y0242969D01*
X0333096Y0242969D01*
X0334566Y0243577D01*
X0335691Y0244703D01*
X0336300Y0246173D01*
X0336300Y0247764D01*
X0335691Y0249234D01*
X0334566Y0250360D01*
X0333096Y0250968D01*
X0331504Y0250968D01*
X0330034Y0250360D01*
X0328909Y0249234D01*
X0328300Y0247541D02*
X0292915Y0247541D01*
X0294513Y0245942D02*
X0302117Y0245942D01*
X0302374Y0250738D02*
X0278226Y0250738D01*
X0278483Y0245942D02*
X0289139Y0245942D01*
X0290738Y0244344D02*
X0279267Y0244344D01*
X0279300Y0242745D02*
X0292336Y0242745D01*
X0290907Y0239548D02*
X0304312Y0239548D01*
X0306288Y0239548D02*
X0329223Y0239548D01*
X0328909Y0239234D02*
X0328300Y0237764D01*
X0328300Y0236173D01*
X0328909Y0234703D01*
X0330034Y0233577D01*
X0331504Y0232969D01*
X0333096Y0232969D01*
X0334566Y0233577D01*
X0335691Y0234703D01*
X0336300Y0236173D01*
X0336300Y0237764D01*
X0335691Y0239234D01*
X0334566Y0240360D01*
X0333096Y0240968D01*
X0331504Y0240968D01*
X0330034Y0240360D01*
X0328909Y0239234D01*
X0328377Y0237950D02*
X0292506Y0237950D01*
X0294104Y0236351D02*
X0302526Y0236351D01*
X0301965Y0241147D02*
X0278635Y0241147D01*
X0279098Y0234753D02*
X0290329Y0234753D01*
X0291927Y0233154D02*
X0279300Y0233154D01*
X0278837Y0231556D02*
X0301763Y0231556D01*
X0303325Y0229957D02*
X0289998Y0229957D01*
X0291597Y0228359D02*
X0328546Y0228359D01*
X0328300Y0227764D02*
X0328300Y0226173D01*
X0328909Y0224703D01*
X0330034Y0223577D01*
X0331504Y0222969D01*
X0333096Y0222969D01*
X0334566Y0223577D01*
X0335691Y0224703D01*
X0336300Y0226173D01*
X0336300Y0227764D01*
X0335691Y0229234D01*
X0334566Y0230360D01*
X0333096Y0230968D01*
X0331504Y0230968D01*
X0330034Y0230360D01*
X0328909Y0229234D01*
X0328300Y0227764D01*
X0328300Y0226760D02*
X0307665Y0226760D01*
X0308928Y0225162D02*
X0328719Y0225162D01*
X0330069Y0223563D02*
X0309300Y0223563D01*
X0309007Y0221965D02*
X0377154Y0221965D01*
X0377154Y0223563D02*
X0364531Y0223563D01*
X0364566Y0223577D02*
X0365691Y0224703D01*
X0366300Y0226173D01*
X0366300Y0227764D01*
X0365691Y0229234D01*
X0364566Y0230360D01*
X0363096Y0230968D01*
X0361504Y0230968D01*
X0360034Y0230360D01*
X0358909Y0229234D01*
X0358300Y0227764D01*
X0358300Y0226173D01*
X0358909Y0224703D01*
X0360034Y0223577D01*
X0361504Y0222969D01*
X0363096Y0222969D01*
X0364566Y0223577D01*
X0365881Y0225162D02*
X0377154Y0225162D01*
X0377154Y0226760D02*
X0366300Y0226760D01*
X0366054Y0228359D02*
X0377154Y0228359D01*
X0377154Y0229957D02*
X0364968Y0229957D01*
X0363544Y0233154D02*
X0377154Y0233154D01*
X0377154Y0231556D02*
X0308837Y0231556D01*
X0309300Y0233154D02*
X0331056Y0233154D01*
X0333544Y0233154D02*
X0361056Y0233154D01*
X0361504Y0232969D02*
X0363096Y0232969D01*
X0364566Y0233577D01*
X0365691Y0234703D01*
X0366300Y0236173D01*
X0366300Y0237764D01*
X0365691Y0239234D01*
X0364566Y0240360D01*
X0363096Y0240968D01*
X0361504Y0240968D01*
X0360034Y0240360D01*
X0358909Y0239234D01*
X0358300Y0237764D01*
X0358300Y0236173D01*
X0358909Y0234703D01*
X0360034Y0233577D01*
X0361504Y0232969D01*
X0358888Y0234753D02*
X0335712Y0234753D01*
X0336300Y0236351D02*
X0358300Y0236351D01*
X0358377Y0237950D02*
X0336223Y0237950D01*
X0335377Y0239548D02*
X0359223Y0239548D01*
X0360034Y0243577D02*
X0361504Y0242969D01*
X0363096Y0242969D01*
X0364566Y0243577D01*
X0365691Y0244703D01*
X0366300Y0246173D01*
X0366300Y0247764D01*
X0365691Y0249234D01*
X0364566Y0250360D01*
X0363096Y0250968D01*
X0361504Y0250968D01*
X0360034Y0250360D01*
X0358909Y0249234D01*
X0358300Y0247764D01*
X0358300Y0246173D01*
X0358909Y0244703D01*
X0360034Y0243577D01*
X0359268Y0244344D02*
X0335332Y0244344D01*
X0336204Y0245942D02*
X0358396Y0245942D01*
X0358300Y0247541D02*
X0336300Y0247541D01*
X0335730Y0249139D02*
X0358870Y0249139D01*
X0360947Y0250738D02*
X0333653Y0250738D01*
X0333096Y0252969D02*
X0331504Y0252969D01*
X0330034Y0253577D01*
X0328909Y0254703D01*
X0328300Y0256173D01*
X0328300Y0257764D01*
X0328909Y0259234D01*
X0330034Y0260360D01*
X0331504Y0260968D01*
X0333096Y0260968D01*
X0334566Y0260360D01*
X0335691Y0259234D01*
X0336300Y0257764D01*
X0336300Y0256173D01*
X0335691Y0254703D01*
X0334566Y0253577D01*
X0333096Y0252969D01*
X0334923Y0253935D02*
X0359677Y0253935D01*
X0358565Y0255533D02*
X0336035Y0255533D01*
X0336300Y0257132D02*
X0358300Y0257132D01*
X0358700Y0258730D02*
X0335900Y0258730D01*
X0334597Y0260329D02*
X0360003Y0260329D01*
X0360159Y0263526D02*
X0334441Y0263526D01*
X0335866Y0265124D02*
X0358734Y0265124D01*
X0358300Y0266723D02*
X0336300Y0266723D01*
X0336069Y0268321D02*
X0358531Y0268321D01*
X0359595Y0269920D02*
X0335005Y0269920D01*
X0329595Y0269920D02*
X0326185Y0269920D01*
X0322415Y0269920D02*
X0316901Y0269920D01*
X0317166Y0270112D02*
X0317656Y0270602D01*
X0318063Y0271162D01*
X0318378Y0271779D01*
X0318592Y0272438D01*
X0318700Y0273122D01*
X0318700Y0273468D01*
X0314300Y0273468D01*
X0314300Y0269069D01*
X0314646Y0269069D01*
X0315330Y0269177D01*
X0315989Y0269391D01*
X0316606Y0269705D01*
X0317166Y0270112D01*
X0318245Y0271518D02*
X0320778Y0271518D01*
X0320300Y0273117D02*
X0318699Y0273117D01*
X0318700Y0273469D02*
X0318700Y0273815D01*
X0318592Y0274499D01*
X0318378Y0275158D01*
X0318063Y0275775D01*
X0317656Y0276335D01*
X0317166Y0276825D01*
X0316606Y0277232D01*
X0315989Y0277546D01*
X0315330Y0277760D01*
X0314646Y0277868D01*
X0314300Y0277868D01*
X0313954Y0277868D01*
X0313270Y0277760D01*
X0312611Y0277546D01*
X0311994Y0277232D01*
X0311434Y0276825D01*
X0310944Y0276335D01*
X0310537Y0275775D01*
X0310222Y0275158D01*
X0310008Y0274499D01*
X0309900Y0273815D01*
X0309900Y0273469D01*
X0314300Y0273469D01*
X0314300Y0277868D01*
X0314300Y0273469D01*
X0314300Y0273469D01*
X0318700Y0273469D01*
X0318521Y0274715D02*
X0320487Y0274715D01*
X0321489Y0276314D02*
X0317671Y0276314D01*
X0314300Y0276314D02*
X0314300Y0276314D01*
X0314300Y0274715D02*
X0314300Y0274715D01*
X0314300Y0273469D02*
X0314300Y0273468D01*
X0314300Y0273468D01*
X0314300Y0269069D01*
X0313954Y0269069D01*
X0313270Y0269177D01*
X0312611Y0269391D01*
X0311994Y0269705D01*
X0311434Y0270112D01*
X0310944Y0270602D01*
X0310537Y0271162D01*
X0310222Y0271779D01*
X0310008Y0272438D01*
X0309900Y0273122D01*
X0309900Y0273468D01*
X0314300Y0273468D01*
X0314300Y0273469D01*
X0314300Y0273117D02*
X0314300Y0273117D01*
X0314300Y0271518D02*
X0314300Y0271518D01*
X0314300Y0269920D02*
X0314300Y0269920D01*
X0311698Y0269920D02*
X0307901Y0269920D01*
X0309245Y0271518D02*
X0310355Y0271518D01*
X0309901Y0273117D02*
X0309699Y0273117D01*
X0309521Y0274715D02*
X0310079Y0274715D01*
X0310929Y0276314D02*
X0308671Y0276314D01*
X0305300Y0276314D02*
X0305300Y0276314D01*
X0305300Y0274715D02*
X0305300Y0274715D01*
X0305300Y0273117D02*
X0305300Y0273117D01*
X0305300Y0271518D02*
X0305300Y0271518D01*
X0305300Y0269920D02*
X0305300Y0269920D01*
X0301355Y0271518D02*
X0278822Y0271518D01*
X0279300Y0273117D02*
X0300901Y0273117D01*
X0301079Y0274715D02*
X0279113Y0274715D01*
X0278111Y0276314D02*
X0301929Y0276314D01*
X0302783Y0260329D02*
X0287627Y0260329D01*
X0289225Y0258730D02*
X0328700Y0258730D01*
X0328300Y0257132D02*
X0306908Y0257132D01*
X0308774Y0255533D02*
X0328565Y0255533D01*
X0329677Y0253935D02*
X0309300Y0253935D01*
X0309161Y0252336D02*
X0377154Y0252336D01*
X0377154Y0250738D02*
X0363653Y0250738D01*
X0365730Y0249139D02*
X0377154Y0249139D01*
X0377154Y0247541D02*
X0366300Y0247541D01*
X0366204Y0245942D02*
X0377154Y0245942D01*
X0377154Y0244344D02*
X0365332Y0244344D01*
X0365377Y0239548D02*
X0377154Y0239548D01*
X0377154Y0237950D02*
X0366223Y0237950D01*
X0366300Y0236351D02*
X0377154Y0236351D01*
X0377154Y0234753D02*
X0365712Y0234753D01*
X0359632Y0229957D02*
X0334968Y0229957D01*
X0336054Y0228359D02*
X0358546Y0228359D01*
X0358300Y0226760D02*
X0336300Y0226760D01*
X0335881Y0225162D02*
X0358719Y0225162D01*
X0360069Y0223563D02*
X0334531Y0223563D01*
X0334550Y0220366D02*
X0360050Y0220366D01*
X0360034Y0220360D02*
X0358909Y0219234D01*
X0358300Y0217764D01*
X0358300Y0216173D01*
X0358909Y0214703D01*
X0360034Y0213577D01*
X0361504Y0212969D01*
X0363096Y0212969D01*
X0364566Y0213577D01*
X0365691Y0214703D01*
X0366300Y0216173D01*
X0366300Y0217764D01*
X0365691Y0219234D01*
X0364566Y0220360D01*
X0363096Y0220968D01*
X0361504Y0220968D01*
X0360034Y0220360D01*
X0358716Y0218768D02*
X0335884Y0218768D01*
X0336300Y0217169D02*
X0358300Y0217169D01*
X0358549Y0215571D02*
X0336050Y0215571D01*
X0334960Y0213972D02*
X0359640Y0213972D01*
X0361037Y0210775D02*
X0342181Y0210775D01*
X0343779Y0209176D02*
X0358885Y0209176D01*
X0359231Y0204381D02*
X0335859Y0204381D01*
X0335656Y0204102D02*
X0336063Y0204662D01*
X0336378Y0205279D01*
X0336592Y0205938D01*
X0336700Y0206622D01*
X0336700Y0206968D01*
X0332300Y0206968D01*
X0332300Y0202569D01*
X0332646Y0202569D01*
X0333330Y0202677D01*
X0333989Y0202891D01*
X0334606Y0203205D01*
X0335166Y0203612D01*
X0335656Y0204102D01*
X0336598Y0205979D02*
X0341602Y0205979D01*
X0340004Y0207578D02*
X0336658Y0207578D01*
X0336113Y0209176D02*
X0338405Y0209176D01*
X0340582Y0212373D02*
X0377154Y0212373D01*
X0377154Y0210775D02*
X0363563Y0210775D01*
X0365715Y0209176D02*
X0377154Y0209176D01*
X0377154Y0207578D02*
X0366300Y0207578D01*
X0366220Y0205979D02*
X0377154Y0205979D01*
X0377154Y0204381D02*
X0365369Y0204381D01*
X0364960Y0213972D02*
X0377154Y0213972D01*
X0377154Y0215571D02*
X0366050Y0215571D01*
X0366300Y0217169D02*
X0377154Y0217169D01*
X0377154Y0218768D02*
X0365884Y0218768D01*
X0364550Y0220366D02*
X0377154Y0220366D01*
X0377154Y0202782D02*
X0333655Y0202782D01*
X0332300Y0202782D02*
X0332300Y0202782D01*
X0332300Y0202569D02*
X0332300Y0206968D01*
X0332300Y0206968D01*
X0332300Y0206969D01*
X0332300Y0206968D01*
X0327900Y0206968D01*
X0327900Y0206622D01*
X0328008Y0205938D01*
X0328222Y0205279D01*
X0328537Y0204662D01*
X0328944Y0204102D01*
X0329434Y0203612D01*
X0329994Y0203205D01*
X0330611Y0202891D01*
X0331270Y0202677D01*
X0331954Y0202569D01*
X0332300Y0202569D01*
X0330945Y0202782D02*
X0309300Y0202782D01*
X0309252Y0204381D02*
X0328741Y0204381D01*
X0328002Y0205979D02*
X0308446Y0205979D01*
X0308672Y0201184D02*
X0377154Y0201184D01*
X0377154Y0177206D02*
X0068225Y0177206D01*
X0066626Y0175608D02*
X0377154Y0175608D01*
X0377154Y0174009D02*
X0128464Y0174009D01*
X0129337Y0173226D02*
X0129337Y0173226D01*
X0129337Y0173226D01*
X0129640Y0172411D02*
X0377154Y0172411D01*
X0377154Y0170812D02*
X0130212Y0170812D01*
X0131742Y0169214D02*
X0377154Y0169214D01*
X0377154Y0167615D02*
X0133340Y0167615D01*
X0127966Y0167615D02*
X0058634Y0167615D01*
X0060232Y0169214D02*
X0124834Y0169214D01*
X0123842Y0170812D02*
X0061831Y0170812D01*
X0063429Y0172411D02*
X0123960Y0172411D01*
X0125136Y0174009D02*
X0065028Y0174009D01*
X0056368Y0188396D02*
X0074040Y0188396D01*
X0075639Y0189994D02*
X0057732Y0189994D01*
X0053800Y0189994D02*
X0053800Y0189994D01*
X0053800Y0188396D02*
X0053800Y0188396D01*
X0053800Y0187569D02*
X0053800Y0191968D01*
X0053800Y0191968D01*
X0053800Y0191969D01*
X0053800Y0191968D01*
X0049400Y0191968D01*
X0049400Y0191622D01*
X0049508Y0190938D01*
X0049722Y0190279D01*
X0050037Y0189662D01*
X0050444Y0189102D01*
X0050934Y0188612D01*
X0051494Y0188205D01*
X0052111Y0187891D01*
X0052770Y0187677D01*
X0053454Y0187569D01*
X0053800Y0187569D01*
X0051232Y0188396D02*
X0045627Y0188396D01*
X0047312Y0189994D02*
X0049868Y0189994D01*
X0049405Y0191593D02*
X0047800Y0191593D01*
X0047623Y0193191D02*
X0049571Y0193191D01*
X0050411Y0194790D02*
X0046635Y0194790D01*
X0053800Y0194790D02*
X0053800Y0194790D01*
X0053800Y0193191D02*
X0053800Y0193191D01*
X0053800Y0191593D02*
X0053800Y0191593D01*
X0057189Y0194790D02*
X0062259Y0194790D01*
X0068366Y0193191D02*
X0074754Y0193191D01*
X0072660Y0194790D02*
X0069916Y0194790D01*
X0070450Y0196388D02*
X0072087Y0196388D01*
X0072180Y0197987D02*
X0070381Y0197987D01*
X0069625Y0199585D02*
X0073047Y0199585D01*
X0075485Y0158024D02*
X0086793Y0158024D01*
X0087182Y0156426D02*
X0087182Y0156426D01*
X0087182Y0154827D02*
X0087182Y0154827D01*
X0087182Y0153229D02*
X0087182Y0153229D01*
X0087182Y0151630D02*
X0087182Y0151630D01*
X0087182Y0150032D02*
X0087182Y0150032D01*
X0082782Y0153229D02*
X0074217Y0153229D01*
X0075450Y0154827D02*
X0083191Y0154827D01*
X0084454Y0156426D02*
X0075800Y0156426D01*
X0141300Y0244344D02*
X0141300Y0244344D01*
X0141300Y0245942D02*
X0141300Y0245942D01*
X0139003Y0260329D02*
X0132597Y0260329D01*
X0116407Y0258730D02*
X0111693Y0258730D01*
X0093480Y0257132D02*
X0068120Y0257132D01*
X0069410Y0258730D02*
X0083351Y0258730D01*
X0081753Y0260329D02*
X0069800Y0260329D01*
X0069525Y0261927D02*
X0080154Y0261927D01*
X0078556Y0263526D02*
X0068399Y0263526D01*
X0083930Y0263526D02*
X0093200Y0263526D01*
X0027998Y0279511D02*
X0251402Y0279511D01*
X0252284Y0281109D02*
X0027998Y0281109D01*
X0218111Y0276314D02*
X0241929Y0276314D01*
X0241079Y0274715D02*
X0227240Y0274715D01*
X0228839Y0273117D02*
X0240901Y0273117D01*
X0241355Y0271518D02*
X0230437Y0271518D01*
X0245300Y0274715D02*
X0245300Y0274715D01*
X0245300Y0276314D02*
X0245300Y0276314D01*
X0269140Y0276314D02*
X0272489Y0276314D01*
X0290824Y0257132D02*
X0303692Y0257132D01*
X0301826Y0255533D02*
X0292422Y0255533D01*
X0307817Y0260329D02*
X0330003Y0260329D01*
X0330947Y0250738D02*
X0308226Y0250738D01*
X0308483Y0245942D02*
X0328396Y0245942D01*
X0329268Y0244344D02*
X0309267Y0244344D01*
X0309300Y0242745D02*
X0377154Y0242745D01*
X0377154Y0241147D02*
X0308635Y0241147D01*
X0308074Y0236351D02*
X0328300Y0236351D01*
X0328888Y0234753D02*
X0309098Y0234753D01*
X0307275Y0229957D02*
X0329632Y0229957D01*
X0330050Y0220366D02*
X0307854Y0220366D01*
X0306819Y0217169D02*
X0328300Y0217169D01*
X0328549Y0215571D02*
X0308759Y0215571D01*
X0309300Y0213972D02*
X0329640Y0213972D01*
X0328487Y0209176D02*
X0317195Y0209176D01*
X0315596Y0207578D02*
X0327942Y0207578D01*
X0332300Y0205979D02*
X0332300Y0205979D01*
X0332300Y0204381D02*
X0332300Y0204381D01*
X0328716Y0218768D02*
X0272688Y0218768D01*
X0272746Y0220366D02*
X0271089Y0220366D01*
X0271593Y0221965D02*
X0263983Y0221965D01*
X0265582Y0223563D02*
X0271300Y0223563D01*
X0271672Y0225162D02*
X0267180Y0225162D01*
X0277854Y0220366D02*
X0302746Y0220366D01*
X0303781Y0217169D02*
X0276819Y0217169D01*
X0278759Y0215571D02*
X0301841Y0215571D01*
X0301300Y0213972D02*
X0279300Y0213972D01*
X0279176Y0212373D02*
X0301424Y0212373D01*
X0302337Y0210775D02*
X0278263Y0210775D01*
X0278446Y0205979D02*
X0302154Y0205979D01*
X0301348Y0204381D02*
X0279252Y0204381D01*
X0279300Y0202782D02*
X0301300Y0202782D01*
X0301928Y0201184D02*
X0278672Y0201184D01*
X0276378Y0199585D02*
X0304222Y0199585D01*
X0303235Y0189994D02*
X0277365Y0189994D01*
X0271928Y0201184D02*
X0248672Y0201184D01*
X0249300Y0202782D02*
X0271300Y0202782D01*
X0271348Y0204381D02*
X0249252Y0204381D01*
X0248446Y0205979D02*
X0272154Y0205979D01*
X0279007Y0221965D02*
X0292617Y0221965D01*
X0291018Y0223563D02*
X0279300Y0223563D01*
X0278928Y0225162D02*
X0289420Y0225162D01*
X0293195Y0226760D02*
X0302935Y0226760D01*
X0309176Y0212373D02*
X0315018Y0212373D01*
X0313419Y0210775D02*
X0308263Y0210775D01*
X0364923Y0253935D02*
X0377154Y0253935D01*
X0377154Y0255533D02*
X0366035Y0255533D01*
X0366300Y0257132D02*
X0377154Y0257132D01*
X0377154Y0258730D02*
X0365900Y0258730D01*
X0377154Y0166017D02*
X0273439Y0166017D01*
X0275037Y0164418D02*
X0377154Y0164418D01*
X0377154Y0162820D02*
X0364606Y0162820D01*
X0364566Y0162860D02*
X0363096Y0163468D01*
X0361504Y0163468D01*
X0360034Y0162860D01*
X0358909Y0161734D01*
X0358300Y0160264D01*
X0358300Y0158673D01*
X0358909Y0157203D01*
X0360034Y0156077D01*
X0361504Y0155469D01*
X0363096Y0155469D01*
X0364566Y0156077D01*
X0365691Y0157203D01*
X0366300Y0158673D01*
X0366300Y0160264D01*
X0365691Y0161734D01*
X0364566Y0162860D01*
X0365904Y0161221D02*
X0377154Y0161221D01*
X0377154Y0159623D02*
X0366300Y0159623D01*
X0366031Y0158024D02*
X0377154Y0158024D01*
X0377154Y0156426D02*
X0364914Y0156426D01*
X0363675Y0153229D02*
X0377154Y0153229D01*
X0377154Y0154827D02*
X0330346Y0154827D01*
X0330925Y0153229D02*
X0328747Y0153229D01*
X0328866Y0151630D02*
X0310734Y0151630D01*
X0311300Y0150032D02*
X0328300Y0150032D01*
X0328399Y0148433D02*
X0311201Y0148433D01*
X0310323Y0146835D02*
X0329277Y0146835D01*
X0335323Y0146835D02*
X0356979Y0146835D01*
X0358399Y0148433D02*
X0336201Y0148433D01*
X0336300Y0150032D02*
X0358300Y0150032D01*
X0358866Y0151630D02*
X0335734Y0151630D01*
X0333675Y0153229D02*
X0360925Y0153229D01*
X0359686Y0156426D02*
X0334914Y0156426D01*
X0336031Y0158024D02*
X0358569Y0158024D01*
X0358300Y0159623D02*
X0336300Y0159623D01*
X0335904Y0161221D02*
X0358696Y0161221D01*
X0359994Y0162820D02*
X0334606Y0162820D01*
X0329994Y0162820D02*
X0309606Y0162820D01*
X0310904Y0161221D02*
X0328696Y0161221D01*
X0328300Y0159623D02*
X0311300Y0159623D01*
X0311031Y0158024D02*
X0328169Y0158024D01*
X0326570Y0156426D02*
X0309914Y0156426D01*
X0304686Y0156426D02*
X0279914Y0156426D01*
X0281031Y0158024D02*
X0303569Y0158024D01*
X0303300Y0159623D02*
X0281300Y0159623D01*
X0280904Y0161221D02*
X0303696Y0161221D01*
X0304994Y0162820D02*
X0279606Y0162820D01*
X0280386Y0142039D02*
X0304214Y0142039D01*
X0304156Y0143638D02*
X0321782Y0143638D01*
X0323381Y0145236D02*
X0305754Y0145236D01*
X0303373Y0140440D02*
X0281227Y0140440D01*
X0281300Y0138842D02*
X0303300Y0138842D01*
X0303892Y0137243D02*
X0280708Y0137243D01*
X0309977Y0132448D02*
X0329623Y0132448D01*
X0328542Y0130849D02*
X0311058Y0130849D01*
X0311300Y0129251D02*
X0328300Y0129251D01*
X0327797Y0127652D02*
X0310877Y0127652D01*
X0310888Y0121258D02*
X0328712Y0121258D01*
X0328375Y0122857D02*
X0330031Y0122857D01*
X0329974Y0124455D02*
X0377154Y0124455D01*
X0377154Y0122857D02*
X0364568Y0122857D01*
X0365888Y0121258D02*
X0377154Y0121258D01*
X0377154Y0119660D02*
X0366300Y0119660D01*
X0366047Y0118061D02*
X0377154Y0118061D01*
X0377154Y0116463D02*
X0364951Y0116463D01*
X0359649Y0116463D02*
X0342981Y0116463D01*
X0340804Y0119660D02*
X0336300Y0119660D01*
X0336047Y0118061D02*
X0339206Y0118061D01*
X0337607Y0116463D02*
X0334951Y0116463D01*
X0335888Y0121258D02*
X0342403Y0121258D01*
X0334568Y0122857D02*
X0360031Y0122857D01*
X0361504Y0125469D02*
X0363096Y0125469D01*
X0364566Y0126077D01*
X0365691Y0127203D01*
X0366300Y0128673D01*
X0366300Y0130264D01*
X0365691Y0131734D01*
X0364566Y0132860D01*
X0363096Y0133468D01*
X0361504Y0133468D01*
X0360034Y0132860D01*
X0358909Y0131734D01*
X0358300Y0130264D01*
X0358300Y0128673D01*
X0358909Y0127203D01*
X0360034Y0126077D01*
X0361504Y0125469D01*
X0360091Y0126054D02*
X0334509Y0126054D01*
X0335877Y0127652D02*
X0358723Y0127652D01*
X0358300Y0129251D02*
X0336300Y0129251D01*
X0336058Y0130849D02*
X0358542Y0130849D01*
X0359623Y0132448D02*
X0334977Y0132448D01*
X0333522Y0135645D02*
X0361078Y0135645D01*
X0361504Y0135469D02*
X0363096Y0135469D01*
X0364566Y0136077D01*
X0365691Y0137203D01*
X0366300Y0138673D01*
X0366300Y0140264D01*
X0365691Y0141734D01*
X0364566Y0142860D01*
X0363096Y0143468D01*
X0361504Y0143468D01*
X0360034Y0142860D01*
X0358909Y0141734D01*
X0358300Y0140264D01*
X0358300Y0138673D01*
X0358909Y0137203D01*
X0360034Y0136077D01*
X0361504Y0135469D01*
X0363522Y0135645D02*
X0377154Y0135645D01*
X0377154Y0137243D02*
X0365708Y0137243D01*
X0366300Y0138842D02*
X0377154Y0138842D01*
X0377154Y0140440D02*
X0366227Y0140440D01*
X0365386Y0142039D02*
X0377154Y0142039D01*
X0377154Y0143638D02*
X0359156Y0143638D01*
X0359214Y0142039D02*
X0335386Y0142039D01*
X0336227Y0140440D02*
X0358373Y0140440D01*
X0358300Y0138842D02*
X0336300Y0138842D01*
X0335708Y0137243D02*
X0358892Y0137243D01*
X0364977Y0132448D02*
X0377154Y0132448D01*
X0377154Y0134046D02*
X0317565Y0134046D01*
X0319163Y0135645D02*
X0331078Y0135645D01*
X0328892Y0137243D02*
X0320762Y0137243D01*
X0322360Y0138842D02*
X0328300Y0138842D01*
X0328373Y0140440D02*
X0323959Y0140440D01*
X0325557Y0142039D02*
X0329214Y0142039D01*
X0320183Y0142039D02*
X0310386Y0142039D01*
X0311227Y0140440D02*
X0318585Y0140440D01*
X0316986Y0138842D02*
X0311300Y0138842D01*
X0310708Y0137243D02*
X0315388Y0137243D01*
X0311300Y0119660D02*
X0328300Y0119660D01*
X0328553Y0118061D02*
X0311047Y0118061D01*
X0309951Y0116463D02*
X0329649Y0116463D01*
X0328881Y0111667D02*
X0325186Y0111667D01*
X0323587Y0110069D02*
X0328300Y0110069D01*
X0328384Y0108470D02*
X0321989Y0108470D01*
X0320390Y0106872D02*
X0329240Y0106872D01*
X0329251Y0102076D02*
X0326349Y0102076D01*
X0327212Y0100478D02*
X0328388Y0100478D01*
X0328300Y0098879D02*
X0327300Y0098879D01*
X0326723Y0097281D02*
X0328877Y0097281D01*
X0319877Y0097281D02*
X0310723Y0097281D01*
X0311300Y0098879D02*
X0319300Y0098879D01*
X0319388Y0100478D02*
X0311212Y0100478D01*
X0310349Y0102076D02*
X0320251Y0102076D01*
X0317193Y0103675D02*
X0377154Y0103675D01*
X0377154Y0105273D02*
X0318792Y0105273D01*
X0316615Y0108470D02*
X0311216Y0108470D01*
X0311300Y0110069D02*
X0318213Y0110069D01*
X0319812Y0111667D02*
X0310719Y0111667D01*
X0308585Y0113266D02*
X0321410Y0113266D01*
X0323009Y0114864D02*
X0305383Y0114864D01*
X0306015Y0113266D02*
X0303784Y0113266D01*
X0303881Y0111667D02*
X0280719Y0111667D01*
X0281300Y0110069D02*
X0303300Y0110069D01*
X0303384Y0108470D02*
X0281216Y0108470D01*
X0280360Y0106872D02*
X0304240Y0106872D01*
X0304251Y0102076D02*
X0280349Y0102076D01*
X0281212Y0100478D02*
X0303388Y0100478D01*
X0303300Y0098879D02*
X0281300Y0098879D01*
X0280723Y0097281D02*
X0303877Y0097281D01*
X0309940Y0092485D02*
X0316630Y0092485D01*
X0318807Y0089288D02*
X0318900Y0089288D01*
X0319268Y0087690D02*
X0317208Y0087690D01*
X0315016Y0106872D02*
X0310360Y0106872D01*
X0274251Y0102076D02*
X0271349Y0102076D01*
X0272212Y0100478D02*
X0273388Y0100478D01*
X0273300Y0098879D02*
X0272300Y0098879D01*
X0271723Y0097281D02*
X0273877Y0097281D01*
X0264877Y0097281D02*
X0250269Y0097281D01*
X0250440Y0092485D02*
X0265094Y0092485D01*
X0264134Y0090887D02*
X0251249Y0090887D01*
X0251300Y0089288D02*
X0263900Y0089288D01*
X0264268Y0087690D02*
X0250678Y0087690D01*
X0244331Y0097281D02*
X0220269Y0097281D01*
X0221178Y0098879D02*
X0243422Y0098879D01*
X0243300Y0100478D02*
X0221300Y0100478D01*
X0220757Y0102076D02*
X0243843Y0102076D01*
X0261898Y0098879D02*
X0264300Y0098879D01*
X0264388Y0100478D02*
X0263496Y0100478D01*
X0265095Y0102076D02*
X0265251Y0102076D01*
X0264210Y0078099D02*
X0233357Y0078099D01*
X0234955Y0076500D02*
X0258704Y0076500D01*
X0258316Y0074902D02*
X0256087Y0074902D01*
X0256784Y0073303D02*
X0257345Y0073303D01*
X0251513Y0074902D02*
X0236554Y0074902D01*
X0238152Y0073303D02*
X0250816Y0073303D01*
X0250763Y0072417D02*
X0250763Y0072417D01*
X0250763Y0072417D01*
X0251093Y0071704D02*
X0239751Y0071704D01*
X0241350Y0070106D02*
X0251844Y0070106D01*
X0252074Y0068507D02*
X0242948Y0068507D01*
X0244547Y0066909D02*
X0253673Y0066909D01*
X0238165Y0058916D02*
X0228539Y0058916D01*
X0229700Y0057318D02*
X0237078Y0057318D01*
X0236567Y0060515D02*
X0226941Y0060515D01*
X0225342Y0062113D02*
X0234968Y0062113D01*
X0233370Y0063712D02*
X0201244Y0063712D01*
X0199645Y0065310D02*
X0231771Y0065310D01*
X0230173Y0066909D02*
X0198047Y0066909D01*
X0196448Y0068507D02*
X0201041Y0068507D01*
X0199927Y0070106D02*
X0194850Y0070106D01*
X0193251Y0071704D02*
X0199875Y0071704D01*
X0198260Y0073303D02*
X0191652Y0073303D01*
X0190054Y0074902D02*
X0197816Y0074902D01*
X0203160Y0081296D02*
X0204407Y0081296D01*
X0204523Y0087690D02*
X0190178Y0087690D01*
X0190800Y0089288D02*
X0203953Y0089288D01*
X0203991Y0090887D02*
X0190749Y0090887D01*
X0192004Y0092485D02*
X0204690Y0092485D01*
X0204582Y0068507D02*
X0228574Y0068507D01*
X0232494Y0055719D02*
X0234232Y0055719D01*
X0203352Y0067932D02*
X0203352Y0067932D01*
X0203352Y0067932D01*
X0192600Y0060515D02*
X0163941Y0060515D01*
X0164700Y0058916D02*
X0192588Y0058916D01*
X0190306Y0057318D02*
X0182886Y0057318D01*
X0185722Y0055719D02*
X0187461Y0055719D01*
X0191468Y0062113D02*
X0162342Y0062113D01*
X0160744Y0063712D02*
X0189870Y0063712D01*
X0188271Y0065310D02*
X0159145Y0065310D01*
X0167295Y0057318D02*
X0174716Y0057318D01*
X0171870Y0055719D02*
X0170131Y0055719D01*
X0360755Y0145236D02*
X0377154Y0145236D01*
X0377154Y0146835D02*
X0365323Y0146835D01*
X0366201Y0148433D02*
X0377154Y0148433D01*
X0377154Y0150032D02*
X0366300Y0150032D01*
X0365734Y0151630D02*
X0377154Y0151630D01*
X0377154Y0130849D02*
X0366058Y0130849D01*
X0366300Y0129251D02*
X0377154Y0129251D01*
X0377154Y0127652D02*
X0365877Y0127652D01*
X0364509Y0126054D02*
X0377154Y0126054D01*
X0377154Y0055719D02*
X0372809Y0055719D01*
D20*
X0350300Y0048969D02*
X0349800Y0049469D01*
X0349800Y0057469D01*
X0347800Y0059469D01*
X0334300Y0059469D01*
X0326300Y0067469D01*
X0280800Y0067469D01*
X0272300Y0075969D01*
X0266300Y0075969D01*
X0266759Y0074986D01*
X0268859Y0075969D01*
X0266759Y0076951D01*
X0266300Y0075969D01*
X0262319Y0075338D02*
X0263110Y0073159D01*
X0260930Y0073949D01*
X0261300Y0074969D01*
X0262319Y0075338D01*
X0261300Y0074969D02*
X0263800Y0072469D01*
X0272300Y0072469D01*
X0279300Y0065469D01*
X0324800Y0065469D01*
X0333300Y0056969D01*
X0333300Y0051469D01*
X0335800Y0048969D01*
X0319116Y0045921D02*
X0317300Y0047891D01*
X0317300Y0056969D01*
X0310800Y0063469D01*
X0278300Y0063469D01*
X0271300Y0070469D01*
X0258300Y0070469D01*
X0258759Y0069486D01*
X0260859Y0070469D01*
X0258759Y0071451D01*
X0258300Y0070469D01*
X0255800Y0067469D02*
X0271300Y0067469D01*
X0277300Y0061469D01*
X0298300Y0061469D01*
X0302800Y0056969D01*
X0302800Y0046800D01*
X0303525Y0045921D01*
X0289800Y0044209D02*
X0289800Y0043469D01*
X0285300Y0047969D01*
X0285300Y0056469D01*
X0283300Y0058469D01*
X0275800Y0058469D01*
X0270300Y0063969D01*
X0244800Y0063969D01*
X0231800Y0076969D01*
X0209300Y0076969D01*
X0208800Y0077469D01*
X0206800Y0079469D01*
X0206430Y0078449D01*
X0208610Y0077659D01*
X0207819Y0079838D01*
X0206800Y0079469D01*
X0202308Y0079460D02*
X0200055Y0078915D01*
X0199800Y0079969D01*
X0200445Y0080840D01*
X0202308Y0079460D01*
X0201800Y0079969D02*
X0206800Y0074969D01*
X0230800Y0074969D01*
X0243800Y0061969D01*
X0266300Y0061969D01*
X0267800Y0060469D01*
X0267800Y0059969D01*
X0269300Y0058469D01*
X0269300Y0050469D01*
X0271800Y0047969D01*
X0271800Y0046619D01*
X0272344Y0045921D01*
X0287935Y0045921D02*
X0289800Y0044209D01*
X0256800Y0046028D02*
X0256754Y0045921D01*
X0256800Y0046028D02*
X0256800Y0048469D01*
X0256800Y0048969D01*
X0256800Y0056469D01*
X0253300Y0059969D01*
X0242800Y0059969D01*
X0229800Y0072969D01*
X0205800Y0072969D01*
X0203800Y0074969D01*
X0200800Y0074969D01*
X0201259Y0073986D01*
X0203359Y0074969D01*
X0201259Y0075951D01*
X0200800Y0074969D01*
X0203259Y0071951D02*
X0202800Y0070969D01*
X0203259Y0069986D01*
X0205359Y0070969D01*
X0203259Y0071951D01*
X0202800Y0070969D02*
X0228800Y0070969D01*
X0240800Y0058969D01*
X0240800Y0051469D01*
X0237800Y0048469D01*
X0238769Y0048469D01*
X0241163Y0045921D01*
X0227800Y0050969D02*
X0227800Y0056969D01*
X0224300Y0060469D01*
X0201800Y0060469D01*
X0187800Y0074469D01*
X0143800Y0074469D01*
X0141800Y0076469D01*
X0126300Y0091469D01*
X0126300Y0101969D01*
X0116300Y0112469D01*
X0116300Y0118969D01*
X0123300Y0125969D01*
X0123300Y0135969D02*
X0112800Y0146469D01*
X0071800Y0146469D01*
X0071800Y0136469D02*
X0076300Y0131969D01*
X0076300Y0125469D01*
X0089300Y0112469D01*
X0103300Y0112469D01*
X0116800Y0098969D01*
X0116800Y0089969D01*
X0116800Y0074969D01*
X0120300Y0071469D01*
X0126800Y0071469D01*
X0134800Y0063469D01*
X0158300Y0063469D01*
X0162800Y0058969D01*
X0162800Y0049469D01*
X0163300Y0048969D01*
X0149800Y0047469D02*
X0148238Y0047469D01*
X0147738Y0047969D01*
X0147738Y0055531D01*
X0147800Y0059969D02*
X0147800Y0049469D01*
X0149800Y0047469D01*
X0147738Y0047969D02*
X0147620Y0045921D01*
X0132029Y0045921D02*
X0131800Y0046304D01*
X0131800Y0048469D01*
X0132300Y0048969D01*
X0132300Y0059969D01*
X0124800Y0067469D01*
X0118300Y0067469D01*
X0112800Y0072969D01*
X0112800Y0086969D01*
X0112800Y0096969D01*
X0101300Y0108469D01*
X0086800Y0108469D01*
X0078800Y0116469D01*
X0071800Y0116469D01*
X0071800Y0126469D02*
X0087800Y0110469D01*
X0102300Y0110469D01*
X0114800Y0097969D01*
X0114800Y0088469D01*
X0114800Y0073969D01*
X0118800Y0069969D01*
X0119300Y0069469D01*
X0125800Y0069469D01*
X0133800Y0061469D01*
X0146300Y0061469D01*
X0147800Y0059969D01*
X0140800Y0070469D02*
X0138300Y0072969D01*
X0122300Y0089469D01*
X0122300Y0100469D01*
X0103300Y0119469D01*
X0103300Y0125969D01*
X0107800Y0127969D02*
X0103300Y0132469D01*
X0103300Y0135969D01*
X0107800Y0127969D02*
X0107800Y0117969D01*
X0124300Y0101469D01*
X0124300Y0090469D01*
X0139800Y0074969D01*
X0142300Y0072469D01*
X0186800Y0072469D01*
X0200800Y0058469D01*
X0208300Y0058469D01*
X0210100Y0056669D01*
X0209982Y0045921D01*
X0194800Y0046247D02*
X0194391Y0045921D01*
X0194509Y0061759D01*
X0185800Y0070469D01*
X0140800Y0070469D01*
X0171300Y0105469D02*
X0186800Y0089969D01*
X0191800Y0094969D01*
X0212800Y0094969D01*
X0228800Y0094969D01*
X0233800Y0089969D01*
X0247300Y0089969D01*
X0247300Y0099969D02*
X0260300Y0099969D01*
X0264800Y0104469D01*
X0315300Y0104469D01*
X0325300Y0114469D01*
X0338300Y0114469D01*
X0343300Y0119469D01*
X0362300Y0119469D01*
X0357300Y0144469D02*
X0362300Y0149469D01*
X0357300Y0144469D02*
X0325300Y0144469D01*
X0315300Y0134469D01*
X0267800Y0134469D01*
X0263300Y0129969D01*
X0257300Y0129969D01*
X0247300Y0129969D01*
X0259300Y0124969D02*
X0265300Y0124969D01*
X0269300Y0128969D01*
X0269800Y0129469D01*
X0277300Y0129469D01*
X0270800Y0124469D02*
X0327300Y0124469D01*
X0332300Y0129469D01*
X0307300Y0119469D02*
X0302300Y0114469D01*
X0268300Y0114469D01*
X0267800Y0113969D01*
X0258800Y0104969D01*
X0232300Y0104969D01*
X0191800Y0104969D01*
X0186800Y0099969D01*
X0175300Y0109969D02*
X0180300Y0114969D01*
X0180300Y0122469D01*
X0182800Y0124969D01*
X0259300Y0124969D01*
X0261800Y0115469D02*
X0270800Y0124469D01*
X0261800Y0115469D02*
X0257300Y0115469D01*
X0235300Y0115469D01*
X0229800Y0109969D01*
X0217300Y0109969D01*
X0207300Y0129969D02*
X0212300Y0134969D01*
X0227800Y0134969D01*
X0237800Y0144969D01*
X0262800Y0144969D01*
X0302800Y0144969D01*
X0307300Y0149469D01*
X0327300Y0154469D02*
X0332300Y0159469D01*
X0327300Y0154469D02*
X0256300Y0154469D01*
X0241300Y0154469D01*
X0231800Y0144969D01*
X0226800Y0139969D01*
X0217300Y0139969D01*
X0207300Y0129969D02*
X0186800Y0129969D01*
X0165300Y0139969D02*
X0179800Y0154469D01*
X0232300Y0154469D01*
X0242800Y0164969D01*
X0271800Y0164969D01*
X0277300Y0159469D01*
X0266300Y0207969D02*
X0206800Y0207969D01*
X0197800Y0198969D01*
X0198819Y0198599D01*
X0199610Y0200778D01*
X0197430Y0199988D01*
X0197800Y0198969D01*
X0201300Y0212469D02*
X0201300Y0233469D01*
X0206300Y0238469D01*
X0223800Y0238469D01*
X0228800Y0233469D01*
X0245300Y0233469D01*
X0260300Y0233469D01*
X0264800Y0237969D01*
X0289800Y0237969D01*
X0293800Y0233969D01*
X0294300Y0233469D01*
X0305300Y0233469D01*
X0305300Y0243469D02*
X0294300Y0243469D01*
X0289300Y0248469D01*
X0262800Y0248469D01*
X0257800Y0243469D01*
X0245300Y0243469D01*
X0229300Y0243469D01*
X0225300Y0247469D01*
X0224300Y0248469D01*
X0203300Y0248469D01*
X0203759Y0247486D01*
X0205859Y0248469D01*
X0203759Y0249451D01*
X0203300Y0248469D01*
X0205259Y0257986D02*
X0204800Y0258969D01*
X0205259Y0259951D01*
X0207359Y0258969D01*
X0205259Y0257986D01*
X0204800Y0258969D02*
X0226300Y0258969D01*
X0227300Y0257969D01*
X0231800Y0253469D01*
X0245300Y0253469D01*
X0257300Y0253469D01*
X0261300Y0257469D01*
X0262300Y0258469D01*
X0286800Y0258469D01*
X0291800Y0253469D01*
X0305300Y0253469D01*
X0305300Y0263469D02*
X0293300Y0263469D01*
X0288300Y0268469D01*
X0258800Y0268469D01*
X0253800Y0263469D01*
X0245300Y0263469D01*
X0230800Y0263469D01*
X0227300Y0266969D01*
X0225300Y0268969D01*
X0209013Y0268969D01*
X0209472Y0267986D01*
X0211572Y0268969D01*
X0209472Y0269951D01*
X0209013Y0268969D01*
X0215300Y0273469D02*
X0225800Y0273469D01*
X0230300Y0268969D01*
X0254300Y0268969D01*
X0256300Y0270969D01*
X0258800Y0273469D01*
X0275300Y0273469D01*
X0275300Y0263469D02*
X0262300Y0263469D01*
X0257800Y0258969D01*
X0230800Y0258969D01*
X0226300Y0263469D01*
X0215300Y0263469D01*
X0215300Y0253469D02*
X0226800Y0253469D01*
X0231800Y0248469D01*
X0256300Y0248469D01*
X0261300Y0253469D01*
X0275300Y0253469D01*
X0275300Y0243469D02*
X0263800Y0243469D01*
X0258800Y0238469D01*
X0229800Y0238469D01*
X0226300Y0241969D01*
X0224800Y0243469D01*
X0215300Y0243469D01*
X0215300Y0233469D02*
X0224300Y0233469D01*
X0229300Y0228469D01*
X0261800Y0228469D01*
X0266800Y0233469D01*
X0275300Y0233469D01*
X0267800Y0228469D02*
X0288800Y0228469D01*
X0293800Y0223469D01*
X0305300Y0223469D01*
X0317300Y0211969D02*
X0313300Y0207969D01*
X0266300Y0207969D01*
X0275300Y0213469D02*
X0270300Y0218469D01*
X0229800Y0218469D01*
X0224800Y0213469D01*
X0215300Y0213469D01*
X0208300Y0213469D01*
X0175300Y0180469D01*
X0099800Y0180469D01*
X0099300Y0180969D01*
X0093800Y0186469D01*
X0093430Y0185449D01*
X0095610Y0184659D01*
X0094819Y0186838D01*
X0093800Y0186469D01*
X0092359Y0189469D02*
X0090259Y0188486D01*
X0089800Y0189469D01*
X0090259Y0190451D01*
X0092359Y0189469D01*
X0089800Y0189469D02*
X0103800Y0189469D01*
X0107800Y0185469D01*
X0174300Y0185469D01*
X0178300Y0189469D01*
X0201300Y0212469D01*
X0210300Y0218969D02*
X0181300Y0189469D01*
X0177300Y0185469D01*
X0175300Y0183469D01*
X0174800Y0182969D01*
X0104800Y0182969D01*
X0102300Y0185469D01*
X0101930Y0184449D01*
X0104110Y0183659D01*
X0103319Y0185838D01*
X0102300Y0185469D01*
X0099300Y0180969D02*
X0099800Y0180469D01*
X0081800Y0193469D02*
X0081800Y0216469D01*
X0095800Y0230469D01*
X0085800Y0230469D02*
X0095800Y0240469D01*
X0107300Y0251969D01*
X0148300Y0251969D01*
X0154800Y0258469D01*
X0155300Y0258469D01*
X0141300Y0256969D02*
X0130300Y0256969D01*
X0119800Y0256469D02*
X0108300Y0256469D01*
X0101800Y0256469D01*
X0095800Y0250469D01*
X0095800Y0260469D02*
X0084300Y0260469D01*
X0079300Y0265469D01*
X0057300Y0265469D01*
X0051800Y0259969D01*
X0045300Y0267969D02*
X0047800Y0270469D01*
X0065800Y0270469D01*
X0065800Y0260469D02*
X0065800Y0250469D01*
X0046800Y0269469D02*
X0045300Y0267969D01*
X0037300Y0259969D01*
X0037300Y0229969D02*
X0046800Y0220469D01*
X0053800Y0220469D01*
X0065800Y0220469D01*
X0065800Y0230469D02*
X0085800Y0230469D01*
X0108300Y0226469D02*
X0114300Y0232469D01*
X0115300Y0233469D01*
X0160300Y0233469D01*
X0168300Y0241469D01*
X0175800Y0248969D01*
X0185300Y0258469D01*
X0185300Y0228469D02*
X0164800Y0228469D01*
X0159300Y0222969D01*
X0134300Y0222969D01*
X0130300Y0226969D01*
X0113800Y0210469D01*
X0095800Y0210469D01*
X0081800Y0193469D02*
X0067800Y0179469D01*
X0052182Y0163850D01*
X0052182Y0146850D01*
X0041800Y0136469D01*
X0041800Y0126469D01*
X0043800Y0191969D02*
X0037300Y0198469D01*
X0037300Y0219969D01*
X0037300Y0222969D01*
X0037300Y0229969D01*
X0126800Y0171469D02*
X0126430Y0170449D01*
X0128610Y0169659D01*
X0127819Y0171838D01*
X0126800Y0171469D01*
X0145800Y0152469D01*
X0145800Y0108969D01*
X0149300Y0105469D01*
X0171300Y0105469D01*
X0175300Y0109969D02*
X0156800Y0109969D01*
X0156800Y0139969D02*
X0165300Y0139969D01*
X0199800Y0079969D02*
X0201800Y0079969D01*
X0225691Y0056078D02*
X0225691Y0053078D01*
X0227800Y0050969D01*
X0225572Y0045921D02*
X0225691Y0056078D01*
X0253800Y0069469D02*
X0255800Y0067469D01*
X0253800Y0069469D02*
X0253800Y0072969D01*
X0252818Y0072509D01*
X0253800Y0070409D01*
X0254782Y0072509D01*
X0253800Y0072969D01*
X0307300Y0089469D02*
X0316300Y0089469D01*
X0320800Y0093969D01*
X0321300Y0094469D01*
X0357300Y0094469D01*
X0362300Y0089469D01*
X0362300Y0206969D02*
X0343300Y0206969D01*
X0338300Y0211969D01*
X0317300Y0211969D01*
X0267800Y0228469D02*
X0262800Y0223469D01*
X0245300Y0223469D01*
X0226300Y0223469D01*
X0221800Y0218969D01*
X0210300Y0218969D01*
X0256300Y0270969D02*
X0257800Y0272469D01*
D21*
X0209013Y0268969D03*
X0204800Y0258969D03*
X0203300Y0248469D03*
X0197800Y0198969D03*
X0126800Y0171469D03*
X0102300Y0185469D03*
X0093800Y0186469D03*
X0089800Y0189469D03*
X0199800Y0079969D03*
X0200800Y0074969D03*
X0202800Y0070969D03*
X0206800Y0079469D03*
X0253800Y0072969D03*
X0258300Y0070469D03*
X0261300Y0074969D03*
X0266300Y0075969D03*
M02*
