%
M48
M72
T01C0.01969
T02C0.03200
T03C0.03937
T04C0.04000
%
T01
X200800Y74969
X199800Y79969
X206800Y79469
X202800Y70969
X253800Y72969
X258300Y70469
X261300Y74969
X266300Y75969
X126800Y171469
X102300Y185469
X93800Y186469
X89800Y189469
X197800Y198969
X203300Y248469
X204800Y258969
X209013Y268969
T02
X215300Y273469
X215300Y263469
X215300Y253469
X215300Y243469
X215300Y233469
X215300Y223469
X215300Y213469
X215300Y203469
X215300Y193469
X245300Y193469
X245300Y203469
X245300Y213469
X245300Y223469
X245300Y233469
X245300Y243469
X245300Y253469
X245300Y263469
X245300Y273469
X255300Y278469
X265300Y278469
X275300Y273469
X275300Y263469
X275300Y253469
X275300Y243469
X275300Y233469
X275300Y223469
X275300Y213469
X275300Y203469
X275300Y193469
X305300Y193469
X305300Y203469
X305300Y213469
X305300Y223469
X305300Y233469
X305300Y243469
X305300Y253469
X305300Y263469
X305300Y273469
X314300Y273469
X324300Y273469
X332300Y266969
X332300Y256969
X332300Y246969
X332300Y236969
X332300Y226969
X332300Y216969
X332300Y206969
X335800Y194969
X325800Y194969
X362300Y206969
X362300Y216969
X362300Y226969
X362300Y236969
X362300Y246969
X362300Y256969
X362300Y266969
X247300Y159969
X247300Y149969
X247300Y139969
X247300Y129969
X247300Y119969
X247300Y109969
X247300Y99969
X247300Y89969
X268300Y89469
X277300Y89469
X277300Y99469
X268300Y99469
X277300Y109469
X277300Y119469
X277300Y129469
X277300Y139469
X277300Y149469
X277300Y159469
X307300Y159469
X307300Y149469
X307300Y139469
X307300Y129469
X307300Y119469
X307300Y109469
X307300Y99469
X307300Y89469
X323300Y89469
X332300Y89469
X332300Y99469
X323300Y99469
X332300Y109469
X332300Y119469
X332300Y129469
X332300Y139469
X332300Y149469
X332300Y159469
X362300Y159469
X362300Y149469
X362300Y139469
X362300Y129469
X362300Y119469
X362300Y109469
X362300Y99469
X362300Y89469
X217300Y89969
X208300Y89969
X208300Y99969
X217300Y99969
X217300Y109969
X217300Y119969
X217300Y129969
X217300Y139969
X217300Y149969
X217300Y159969
X186800Y159969
X186800Y149969
X186800Y139969
X186800Y129969
X186800Y119969
X186800Y109969
X186800Y99969
X186800Y89969
X156800Y89969
X146300Y90469
X146300Y100469
X156800Y99969
X156800Y109969
X156800Y119969
X156800Y129969
X156800Y139969
X156800Y149969
X156800Y159969
X117182Y162417
X117182Y152969
X87182Y152969
X87182Y162417
X71800Y156469
X71800Y146469
X71800Y136469
X71800Y126469
X71800Y116469
X71800Y106469
X71800Y96469
X84300Y95969
X94300Y95969
X97300Y77969
X41800Y96469
X41800Y106469
X41800Y116469
X41800Y126469
X41800Y136469
X41800Y146469
X41800Y156469
X43800Y191969
X53800Y191969
X66087Y196969
X76087Y196969
X65800Y210469
X65800Y220469
X65800Y230469
X65800Y240469
X65800Y250469
X65800Y260469
X65800Y270469
X51800Y259969
X37300Y259969
X37300Y229969
X51800Y229969
X53300Y205969
X43300Y205969
X95800Y210469
X95800Y220469
X95800Y230469
X95800Y240469
X95800Y250469
X95800Y260469
X95800Y270469
X108300Y256469
X119800Y256469
X130300Y256969
X141300Y256969
X141300Y246969
X155300Y248469
X155300Y258469
X155300Y268469
X185300Y268469
X185300Y258469
X185300Y248469
X185300Y238469
X185300Y228469
X185300Y218469
X185300Y208469
X165800Y196469
X155800Y196469
X155300Y208469
X155300Y218469
X155300Y228469
X155300Y238469
X130300Y226969
X108300Y226469
X119800Y246469
X37300Y77969
T03
X38402Y62811
X365800Y62256
T04
X123300Y125969
X123300Y135969
X113300Y135969
X103300Y135969
X103300Y125969
X113300Y125969
M30
