%
M48
M72
T01C0.01969
T02C0.03200
T03C0.03937
T04C0.04000
%
T01
X139977Y151394
X120894Y163988
X100331Y184287
X93800Y184894
X88225Y187894
X160843Y175409
X197800Y197394
X233284Y152969
X206800Y77894
X199800Y78394
X200800Y73394
X202800Y69394
X253800Y71394
X258300Y68894
X261300Y73394
X266300Y74394
X203300Y246894
X204800Y257394
X209013Y267394
T02
X215300Y271894
X215300Y261894
X215300Y251894
X215300Y241894
X215300Y231894
X215300Y221894
X215300Y211894
X215300Y201894
X215300Y191894
X245300Y191894
X245300Y201894
X245300Y211894
X245300Y221894
X245300Y231894
X245300Y241894
X245300Y251894
X245300Y261894
X245300Y271894
X254418Y271957
X264418Y271957
X275300Y271894
X275300Y261894
X275300Y251894
X275300Y241894
X275300Y231894
X275300Y221894
X275300Y211894
X275300Y201894
X275300Y191894
X305300Y191894
X305300Y201894
X305300Y211894
X305300Y221894
X305300Y231894
X305300Y241894
X305300Y251894
X305300Y261894
X305300Y271894
X314300Y271894
X324300Y271894
X332300Y265394
X332300Y255394
X332300Y245394
X332300Y235394
X332300Y225394
X332300Y215394
X332300Y205394
X335800Y193394
X325800Y193394
X362300Y205394
X362300Y215394
X362300Y225394
X362300Y235394
X362300Y245394
X362300Y255394
X362300Y265394
X362300Y157894
X362300Y147894
X362300Y137894
X362300Y127894
X362300Y117894
X362300Y107894
X362300Y97894
X362300Y87894
X332300Y87894
X323300Y87894
X323300Y97894
X332300Y97894
X332300Y107894
X332300Y117894
X332300Y127894
X332300Y137894
X332300Y147894
X332300Y157894
X307300Y157894
X307300Y147894
X307300Y137894
X307300Y127894
X307300Y117894
X307300Y107894
X307300Y97894
X307300Y87894
X277300Y87894
X268300Y87894
X268300Y97894
X277300Y97894
X277300Y107894
X277300Y117894
X277300Y127894
X277300Y137894
X277300Y147894
X277300Y157894
X247300Y158394
X247300Y148394
X247300Y138394
X247300Y128394
X247300Y118394
X247300Y108394
X247300Y98394
X247300Y88394
X217300Y88394
X208300Y88394
X208300Y98394
X217300Y98394
X217300Y108394
X217300Y118394
X217300Y128394
X217300Y138394
X217300Y148394
X217300Y158394
X186800Y158394
X186800Y148394
X186800Y138394
X186800Y128394
X186800Y118394
X186800Y108394
X186800Y98394
X186800Y88394
X156800Y88394
X146300Y88894
X146300Y98894
X156800Y98394
X156800Y108394
X156800Y118394
X156800Y128394
X156800Y138394
X147536Y144661
X156800Y148394
X156800Y158394
X137536Y144661
X127536Y144661
X127418Y135252
X137418Y135252
X117418Y135252
X107418Y135252
X97418Y135252
X97536Y144661
X87536Y144661
X87418Y135252
X71800Y134894
X71800Y144894
X71800Y154894
X75017Y165685
X75017Y175685
X87536Y174661
X97536Y174661
X107536Y174661
X117536Y174661
X127536Y174661
X137536Y174661
X147536Y174661
X117536Y144661
X107536Y144661
X71800Y124894
X71800Y114894
X71800Y104894
X81402Y99591
X71800Y94894
X81402Y89591
X98087Y73244
X41800Y94894
X41800Y104894
X41800Y114894
X41800Y124894
X41800Y134894
X41800Y144894
X41800Y154894
X66087Y195394
X76087Y195394
X65800Y208894
X65800Y218894
X65800Y228894
X65800Y238894
X65800Y248894
X65800Y258894
X65800Y268894
X51800Y258394
X37300Y258394
X37300Y228394
X51800Y228394
X53300Y210693
X43300Y210693
X43300Y199449
X53300Y199449
X95800Y208894
X95800Y218894
X95800Y228894
X95800Y238894
X95800Y248894
X95800Y258894
X95800Y268894
X108300Y254894
X119800Y254894
X130300Y255394
X141300Y255394
X141300Y245394
X155300Y246894
X155300Y256894
X155300Y266894
X185300Y266894
X185300Y256894
X185300Y246894
X185300Y236894
X185300Y226894
X185300Y216894
X185300Y206894
X155300Y206894
X155300Y216894
X155300Y226894
X155300Y236894
X142934Y216587
X142934Y206587
X130300Y225394
X108300Y224894
X119800Y244894
X38087Y73244
T03
X38402Y61236
X365800Y60681
T04
X137536Y112929
X127536Y112929
X117536Y112929
X107536Y112929
X97536Y112929
X97536Y122929
X107536Y122929
X117536Y122929
X127536Y122929
X137536Y122929
M30
