G75*
%MOIN*%
%OFA0B0*%
%FSLAX25Y25*%
%IPPOS*%
%LPD*%
%AMOC8*
5,1,8,0,0,1.08239X$1,22.5*
%
%ADD10C,0.00000*%
%ADD11C,0.00600*%
D10*
X0026198Y0006201D02*
X0030135Y0002299D01*
X0074623Y0002299D01*
X0074623Y0053087D01*
X0080135Y0053087D01*
X0080135Y0002299D01*
X0355331Y0001906D01*
X0355331Y0052299D01*
X0360843Y0052693D01*
X0360843Y0002299D01*
X0376198Y0002299D01*
X0378954Y0005055D01*
X0378954Y0051512D01*
X0378954Y0051394D02*
X0378954Y0285492D01*
X0026198Y0285492D01*
X0026198Y0052000D01*
X0026198Y0052201D02*
X0026198Y0006201D01*
D11*
X0212437Y0167835D02*
X0216707Y0167835D01*
X0214572Y0167835D02*
X0214572Y0174241D01*
X0216707Y0172106D01*
X0218882Y0172106D02*
X0223153Y0167835D01*
X0218882Y0167835D01*
X0218882Y0172106D02*
X0218882Y0173173D01*
X0219950Y0174241D01*
X0222085Y0174241D01*
X0223153Y0173173D01*
X0225328Y0173173D02*
X0229598Y0168903D01*
X0228530Y0167835D01*
X0226395Y0167835D01*
X0225328Y0168903D01*
X0225328Y0173173D01*
X0226395Y0174241D01*
X0228530Y0174241D01*
X0229598Y0173173D01*
X0229598Y0168903D01*
X0231773Y0167835D02*
X0236044Y0167835D01*
X0231773Y0172106D01*
X0231773Y0173173D01*
X0232841Y0174241D01*
X0234976Y0174241D01*
X0236044Y0173173D01*
X0240367Y0178335D02*
X0244638Y0178335D01*
X0242502Y0178335D02*
X0242502Y0184741D01*
X0244638Y0182606D01*
X0246813Y0183673D02*
X0246813Y0181538D01*
X0247880Y0180471D01*
X0251083Y0180471D01*
X0248948Y0180471D02*
X0246813Y0178335D01*
X0251083Y0178335D02*
X0251083Y0184741D01*
X0247880Y0184741D01*
X0246813Y0183673D01*
X0259690Y0179403D02*
X0259690Y0178335D01*
X0260758Y0178335D01*
X0260758Y0179403D01*
X0259690Y0179403D01*
X0259690Y0178335D02*
X0261826Y0176200D01*
X0261826Y0174241D02*
X0259690Y0172106D01*
X0257555Y0174241D01*
X0257555Y0167835D01*
X0255380Y0168903D02*
X0254312Y0169971D01*
X0251110Y0169971D01*
X0251110Y0171038D02*
X0251110Y0167835D01*
X0254312Y0167835D01*
X0255380Y0168903D01*
X0254312Y0172106D02*
X0252177Y0172106D01*
X0251110Y0171038D01*
X0248935Y0172106D02*
X0248935Y0168903D01*
X0247867Y0167835D01*
X0244664Y0167835D01*
X0244664Y0166768D02*
X0245732Y0165700D01*
X0246799Y0165700D01*
X0244664Y0166768D02*
X0244664Y0172106D01*
X0261826Y0174241D02*
X0261826Y0167835D01*
X0270446Y0168903D02*
X0270446Y0169971D01*
X0271514Y0171038D01*
X0274717Y0171038D01*
X0274717Y0168903D01*
X0273649Y0167835D01*
X0271514Y0167835D01*
X0270446Y0168903D01*
X0272581Y0173173D02*
X0274717Y0171038D01*
X0272581Y0173173D02*
X0270446Y0174241D01*
X0272581Y0178335D02*
X0270446Y0180471D01*
X0270446Y0184741D01*
X0268271Y0182606D02*
X0266136Y0184741D01*
X0266136Y0178335D01*
X0268271Y0178335D02*
X0264001Y0178335D01*
X0272581Y0178335D02*
X0274717Y0180471D01*
X0274717Y0184741D01*
M02*
